%TF.GenerationSoftware,KiCad,Pcbnew,8.0.8*%
%TF.CreationDate,2025-01-30T12:00:52+07:00*%
%TF.ProjectId,CH170_FrontPanel,43483137-305f-4467-926f-6e7450616e65,rev?*%
%TF.SameCoordinates,Original*%
%TF.FileFunction,Legend,Top*%
%TF.FilePolarity,Positive*%
%FSLAX46Y46*%
G04 Gerber Fmt 4.6, Leading zero omitted, Abs format (unit mm)*
G04 Created by KiCad (PCBNEW 8.0.8) date 2025-01-30 12:00:52*
%MOMM*%
%LPD*%
G01*
G04 APERTURE LIST*
%ADD10C,0.030708*%
%ADD11C,0.037499*%
%ADD12C,0.030749*%
%ADD13C,0.100000*%
%ADD14C,0.125000*%
G04 APERTURE END LIST*
D10*
X123425097Y-105989845D02*
X123443463Y-105998475D01*
X123461221Y-106007630D01*
X123478362Y-106017289D01*
X123494874Y-106027436D01*
X123510749Y-106038051D01*
X123525976Y-106049115D01*
X123540546Y-106060609D01*
X123554447Y-106072516D01*
X123567671Y-106084815D01*
X123580207Y-106097489D01*
X123592045Y-106110519D01*
X123603175Y-106123886D01*
X123613588Y-106137571D01*
X123623273Y-106151556D01*
X123632221Y-106165822D01*
X123640420Y-106180350D01*
X123647862Y-106195122D01*
X123654536Y-106210118D01*
X123660433Y-106225320D01*
X123665542Y-106240710D01*
X123669854Y-106256269D01*
X123673357Y-106271977D01*
X123676044Y-106287817D01*
X123677902Y-106303769D01*
X123678923Y-106319815D01*
X123679097Y-106335936D01*
X123678413Y-106352114D01*
X123676861Y-106368329D01*
X123674432Y-106384564D01*
X123671115Y-106400798D01*
X123666901Y-106417014D01*
X123661779Y-106433194D01*
X123655789Y-106449192D01*
X123648988Y-106464871D01*
X123633041Y-106495219D01*
X123614103Y-106524139D01*
X123592339Y-106551534D01*
X123567917Y-106577303D01*
X123541000Y-106601349D01*
X123511755Y-106623573D01*
X123480347Y-106643877D01*
X123446942Y-106662161D01*
X123411706Y-106678327D01*
X123374804Y-106692276D01*
X123336402Y-106703911D01*
X123296666Y-106713132D01*
X123255761Y-106719840D01*
X123213853Y-106723937D01*
X123171107Y-106725325D01*
X123149640Y-106724976D01*
X123128362Y-106723937D01*
X123107293Y-106722221D01*
X123086453Y-106719840D01*
X123065865Y-106716806D01*
X123045548Y-106713132D01*
X123025524Y-106708829D01*
X123005812Y-106703911D01*
X122986434Y-106698389D01*
X122967410Y-106692276D01*
X122948762Y-106685585D01*
X122930509Y-106678327D01*
X122912672Y-106670515D01*
X122895273Y-106662161D01*
X122878331Y-106653277D01*
X122861868Y-106643877D01*
X122845904Y-106633971D01*
X122830460Y-106623573D01*
X122815557Y-106612695D01*
X122801215Y-106601349D01*
X122787455Y-106589548D01*
X122774298Y-106577303D01*
X122761764Y-106564628D01*
X122749875Y-106551534D01*
X122738651Y-106538033D01*
X122728112Y-106524139D01*
X122718279Y-106509864D01*
X122709173Y-106495219D01*
X122700816Y-106480217D01*
X122693226Y-106464871D01*
X122686426Y-106449192D01*
X122680435Y-106433194D01*
X122675314Y-106417014D01*
X122671099Y-106400798D01*
X122667783Y-106384564D01*
X122665354Y-106368329D01*
X122663802Y-106352114D01*
X122663118Y-106335936D01*
X122663291Y-106319815D01*
X122664312Y-106303769D01*
X122666171Y-106287817D01*
X122668857Y-106271977D01*
X122672361Y-106256269D01*
X122676672Y-106240710D01*
X122681781Y-106225320D01*
X122687678Y-106210118D01*
X122694352Y-106195122D01*
X122701794Y-106180350D01*
X122709994Y-106165822D01*
X122718941Y-106151556D01*
X122728626Y-106137571D01*
X122739039Y-106123886D01*
X122750170Y-106110519D01*
X122762008Y-106097489D01*
X122774544Y-106084815D01*
X122787768Y-106072516D01*
X122801669Y-106060609D01*
X122816238Y-106049115D01*
X122831465Y-106038051D01*
X122847340Y-106027436D01*
X122863853Y-106017289D01*
X122880993Y-106007630D01*
X122898752Y-105998475D01*
X122917118Y-105989845D01*
X122917118Y-105542004D01*
X123425097Y-104777710D01*
X123425097Y-105989845D01*
G36*
X123425097Y-105989845D02*
G01*
X123443463Y-105998475D01*
X123461221Y-106007630D01*
X123478362Y-106017289D01*
X123494874Y-106027436D01*
X123510749Y-106038051D01*
X123525976Y-106049115D01*
X123540546Y-106060609D01*
X123554447Y-106072516D01*
X123567671Y-106084815D01*
X123580207Y-106097489D01*
X123592045Y-106110519D01*
X123603175Y-106123886D01*
X123613588Y-106137571D01*
X123623273Y-106151556D01*
X123632221Y-106165822D01*
X123640420Y-106180350D01*
X123647862Y-106195122D01*
X123654536Y-106210118D01*
X123660433Y-106225320D01*
X123665542Y-106240710D01*
X123669854Y-106256269D01*
X123673357Y-106271977D01*
X123676044Y-106287817D01*
X123677902Y-106303769D01*
X123678923Y-106319815D01*
X123679097Y-106335936D01*
X123678413Y-106352114D01*
X123676861Y-106368329D01*
X123674432Y-106384564D01*
X123671115Y-106400798D01*
X123666901Y-106417014D01*
X123661779Y-106433194D01*
X123655789Y-106449192D01*
X123648988Y-106464871D01*
X123633041Y-106495219D01*
X123614103Y-106524139D01*
X123592339Y-106551534D01*
X123567917Y-106577303D01*
X123541000Y-106601349D01*
X123511755Y-106623573D01*
X123480347Y-106643877D01*
X123446942Y-106662161D01*
X123411706Y-106678327D01*
X123374804Y-106692276D01*
X123336402Y-106703911D01*
X123296666Y-106713132D01*
X123255761Y-106719840D01*
X123213853Y-106723937D01*
X123171107Y-106725325D01*
X123149640Y-106724976D01*
X123128362Y-106723937D01*
X123107293Y-106722221D01*
X123086453Y-106719840D01*
X123065865Y-106716806D01*
X123045548Y-106713132D01*
X123025524Y-106708829D01*
X123005812Y-106703911D01*
X122986434Y-106698389D01*
X122967410Y-106692276D01*
X122948762Y-106685585D01*
X122930509Y-106678327D01*
X122912672Y-106670515D01*
X122895273Y-106662161D01*
X122878331Y-106653277D01*
X122861868Y-106643877D01*
X122845904Y-106633971D01*
X122830460Y-106623573D01*
X122815557Y-106612695D01*
X122801215Y-106601349D01*
X122787455Y-106589548D01*
X122774298Y-106577303D01*
X122761764Y-106564628D01*
X122749875Y-106551534D01*
X122738651Y-106538033D01*
X122728112Y-106524139D01*
X122718279Y-106509864D01*
X122709173Y-106495219D01*
X122700816Y-106480217D01*
X122693226Y-106464871D01*
X122686426Y-106449192D01*
X122680435Y-106433194D01*
X122675314Y-106417014D01*
X122671099Y-106400798D01*
X122667783Y-106384564D01*
X122665354Y-106368329D01*
X122663802Y-106352114D01*
X122663118Y-106335936D01*
X122663291Y-106319815D01*
X122664312Y-106303769D01*
X122666171Y-106287817D01*
X122668857Y-106271977D01*
X122672361Y-106256269D01*
X122676672Y-106240710D01*
X122681781Y-106225320D01*
X122687678Y-106210118D01*
X122694352Y-106195122D01*
X122701794Y-106180350D01*
X122709994Y-106165822D01*
X122718941Y-106151556D01*
X122728626Y-106137571D01*
X122739039Y-106123886D01*
X122750170Y-106110519D01*
X122762008Y-106097489D01*
X122774544Y-106084815D01*
X122787768Y-106072516D01*
X122801669Y-106060609D01*
X122816238Y-106049115D01*
X122831465Y-106038051D01*
X122847340Y-106027436D01*
X122863853Y-106017289D01*
X122880993Y-106007630D01*
X122898752Y-105998475D01*
X122917118Y-105989845D01*
X122917118Y-105542004D01*
X123425097Y-104777710D01*
X123425097Y-105989845D01*
G37*
D11*
X122820691Y-104351272D02*
X122833211Y-104353069D01*
X122845766Y-104354703D01*
X122858354Y-104356174D01*
X122870971Y-104357482D01*
X122883616Y-104358626D01*
X122896286Y-104359607D01*
X122908978Y-104360423D01*
X122901888Y-104424729D01*
X122892595Y-104485873D01*
X122881063Y-104543953D01*
X122874446Y-104571874D01*
X122867256Y-104599066D01*
X122859487Y-104625541D01*
X122851136Y-104651311D01*
X122842197Y-104676389D01*
X122832666Y-104700787D01*
X122822540Y-104724516D01*
X122811812Y-104747590D01*
X122800479Y-104770021D01*
X122788535Y-104791820D01*
X122775977Y-104813000D01*
X122762800Y-104833574D01*
X122748999Y-104853553D01*
X122734570Y-104872950D01*
X122719508Y-104891777D01*
X122703808Y-104910047D01*
X122687466Y-104927771D01*
X122670478Y-104944962D01*
X122652839Y-104961633D01*
X122634543Y-104977794D01*
X122615588Y-104993460D01*
X122595967Y-105008641D01*
X122575678Y-105023351D01*
X122554714Y-105037601D01*
X122510746Y-105064772D01*
X122485272Y-105079079D01*
X122458632Y-105093028D01*
X122430824Y-105106623D01*
X122401843Y-105119865D01*
X122371687Y-105132757D01*
X122340352Y-105145301D01*
X122307835Y-105157498D01*
X122274133Y-105169352D01*
X122808208Y-104349312D01*
X122820691Y-104351272D01*
G36*
X122820691Y-104351272D02*
G01*
X122833211Y-104353069D01*
X122845766Y-104354703D01*
X122858354Y-104356174D01*
X122870971Y-104357482D01*
X122883616Y-104358626D01*
X122896286Y-104359607D01*
X122908978Y-104360423D01*
X122901888Y-104424729D01*
X122892595Y-104485873D01*
X122881063Y-104543953D01*
X122874446Y-104571874D01*
X122867256Y-104599066D01*
X122859487Y-104625541D01*
X122851136Y-104651311D01*
X122842197Y-104676389D01*
X122832666Y-104700787D01*
X122822540Y-104724516D01*
X122811812Y-104747590D01*
X122800479Y-104770021D01*
X122788535Y-104791820D01*
X122775977Y-104813000D01*
X122762800Y-104833574D01*
X122748999Y-104853553D01*
X122734570Y-104872950D01*
X122719508Y-104891777D01*
X122703808Y-104910047D01*
X122687466Y-104927771D01*
X122670478Y-104944962D01*
X122652839Y-104961633D01*
X122634543Y-104977794D01*
X122615588Y-104993460D01*
X122595967Y-105008641D01*
X122575678Y-105023351D01*
X122554714Y-105037601D01*
X122510746Y-105064772D01*
X122485272Y-105079079D01*
X122458632Y-105093028D01*
X122430824Y-105106623D01*
X122401843Y-105119865D01*
X122371687Y-105132757D01*
X122340352Y-105145301D01*
X122307835Y-105157498D01*
X122274133Y-105169352D01*
X122808208Y-104349312D01*
X122820691Y-104351272D01*
G37*
D10*
X121957681Y-105655239D02*
X121827552Y-105674467D01*
X121691281Y-105690961D01*
X121548864Y-105704829D01*
X121400302Y-105716176D01*
X121245594Y-105725111D01*
X121084737Y-105731739D01*
X120917731Y-105736167D01*
X120744576Y-105738503D01*
X120492460Y-105348088D01*
X120561476Y-105346533D01*
X120596190Y-105345979D01*
X120631212Y-105345763D01*
X120916302Y-105342850D01*
X121176251Y-105334201D01*
X121297167Y-105327767D01*
X121412241Y-105319949D01*
X121521620Y-105310765D01*
X121625452Y-105300230D01*
X121723884Y-105288361D01*
X121817065Y-105275176D01*
X121905142Y-105260691D01*
X121988263Y-105244923D01*
X122066575Y-105227888D01*
X122140225Y-105209603D01*
X122209362Y-105190086D01*
X122274134Y-105169352D01*
X121957681Y-105655239D01*
G36*
X121957681Y-105655239D02*
G01*
X121827552Y-105674467D01*
X121691281Y-105690961D01*
X121548864Y-105704829D01*
X121400302Y-105716176D01*
X121245594Y-105725111D01*
X121084737Y-105731739D01*
X120917731Y-105736167D01*
X120744576Y-105738503D01*
X120492460Y-105348088D01*
X120561476Y-105346533D01*
X120596190Y-105345979D01*
X120631212Y-105345763D01*
X120916302Y-105342850D01*
X121176251Y-105334201D01*
X121297167Y-105327767D01*
X121412241Y-105319949D01*
X121521620Y-105310765D01*
X121625452Y-105300230D01*
X121723884Y-105288361D01*
X121817065Y-105275176D01*
X121905142Y-105260691D01*
X121988263Y-105244923D01*
X122066575Y-105227888D01*
X122140225Y-105209603D01*
X122209362Y-105190086D01*
X122274134Y-105169352D01*
X121957681Y-105655239D01*
G37*
D12*
X119849734Y-104209527D02*
X120614480Y-102930535D01*
X121906390Y-102930535D01*
X120433613Y-105131886D01*
X120433613Y-105349056D01*
X120274805Y-105354237D01*
X120119080Y-105362546D01*
X119966637Y-105374094D01*
X119817675Y-105388992D01*
X119672394Y-105407353D01*
X119530991Y-105429286D01*
X119393668Y-105454904D01*
X119260622Y-105484319D01*
X119260622Y-105131886D01*
X117785261Y-102930535D01*
X119084922Y-102930535D01*
X119849734Y-104209527D01*
G36*
X119849734Y-104209527D02*
G01*
X120614480Y-102930535D01*
X121906390Y-102930535D01*
X120433613Y-105131886D01*
X120433613Y-105349056D01*
X120274805Y-105354237D01*
X120119080Y-105362546D01*
X119966637Y-105374094D01*
X119817675Y-105388992D01*
X119672394Y-105407353D01*
X119530991Y-105429286D01*
X119393668Y-105454904D01*
X119260622Y-105484319D01*
X119260622Y-105131886D01*
X117785261Y-102930535D01*
X119084922Y-102930535D01*
X119849734Y-104209527D01*
G37*
D11*
X123425097Y-104777709D02*
X123425097Y-104360422D01*
X123445616Y-104359911D01*
X123466085Y-104358973D01*
X123486491Y-104357610D01*
X123506825Y-104355824D01*
X123527075Y-104353616D01*
X123547230Y-104350989D01*
X123567281Y-104347944D01*
X123587215Y-104344484D01*
X123607023Y-104340611D01*
X123626694Y-104336327D01*
X123646216Y-104331633D01*
X123665579Y-104326532D01*
X123684772Y-104321025D01*
X123703785Y-104315115D01*
X123722607Y-104308803D01*
X123741226Y-104302092D01*
X123425097Y-104777709D01*
G36*
X123425097Y-104777709D02*
G01*
X123425097Y-104360422D01*
X123445616Y-104359911D01*
X123466085Y-104358973D01*
X123486491Y-104357610D01*
X123506825Y-104355824D01*
X123527075Y-104353616D01*
X123547230Y-104350989D01*
X123567281Y-104347944D01*
X123587215Y-104344484D01*
X123607023Y-104340611D01*
X123626694Y-104336327D01*
X123646216Y-104331633D01*
X123665579Y-104326532D01*
X123684772Y-104321025D01*
X123703785Y-104315115D01*
X123722607Y-104308803D01*
X123741226Y-104302092D01*
X123425097Y-104777709D01*
G37*
D12*
X120433614Y-106679919D02*
X120433614Y-106718354D01*
X119260623Y-106718354D01*
X119260623Y-105900251D01*
X119326435Y-105881642D01*
X119394540Y-105864228D01*
X119464900Y-105847997D01*
X119537475Y-105832938D01*
X119612227Y-105819037D01*
X119689117Y-105806284D01*
X119768105Y-105794666D01*
X119849153Y-105784172D01*
X119917412Y-105776362D01*
X119987025Y-105769301D01*
X120058000Y-105763000D01*
X120130347Y-105757468D01*
X120204072Y-105752715D01*
X120279187Y-105748749D01*
X120355697Y-105745581D01*
X120433613Y-105743219D01*
X120433614Y-106679919D01*
G36*
X120433614Y-106679919D02*
G01*
X120433614Y-106718354D01*
X119260623Y-106718354D01*
X119260623Y-105900251D01*
X119326435Y-105881642D01*
X119394540Y-105864228D01*
X119464900Y-105847997D01*
X119537475Y-105832938D01*
X119612227Y-105819037D01*
X119689117Y-105806284D01*
X119768105Y-105794666D01*
X119849153Y-105784172D01*
X119917412Y-105776362D01*
X119987025Y-105769301D01*
X120058000Y-105763000D01*
X120130347Y-105757468D01*
X120204072Y-105752715D01*
X120279187Y-105748749D01*
X120355697Y-105745581D01*
X120433613Y-105743219D01*
X120433614Y-106679919D01*
G37*
D10*
X123437679Y-103178243D02*
X123450189Y-103178965D01*
X123462592Y-103180160D01*
X123474868Y-103181821D01*
X123486997Y-103183943D01*
X123498956Y-103186517D01*
X123510726Y-103189538D01*
X123522286Y-103192999D01*
X123533614Y-103196894D01*
X123544691Y-103201214D01*
X123555494Y-103205955D01*
X123566004Y-103211108D01*
X123576200Y-103216668D01*
X123586060Y-103222627D01*
X123595564Y-103228980D01*
X123604691Y-103235718D01*
X123613376Y-103242800D01*
X123621564Y-103250173D01*
X123629245Y-103257824D01*
X123636411Y-103265734D01*
X123643053Y-103273889D01*
X123649163Y-103282271D01*
X123654732Y-103290865D01*
X123659752Y-103299655D01*
X123664213Y-103308625D01*
X123668107Y-103317758D01*
X123671426Y-103327038D01*
X123674161Y-103336449D01*
X123676303Y-103345975D01*
X123677844Y-103355600D01*
X123678775Y-103365307D01*
X123679087Y-103375082D01*
X123679087Y-103769244D01*
X123678753Y-103779383D01*
X123677769Y-103789389D01*
X123676150Y-103799250D01*
X123673914Y-103808952D01*
X123671076Y-103818484D01*
X123667651Y-103827834D01*
X123663656Y-103836988D01*
X123659107Y-103845935D01*
X123654019Y-103854662D01*
X123648409Y-103863158D01*
X123642292Y-103871408D01*
X123635685Y-103879402D01*
X123628603Y-103887126D01*
X123621063Y-103894568D01*
X123613079Y-103901717D01*
X123604670Y-103908559D01*
X123586634Y-103921274D01*
X123567082Y-103932615D01*
X123546143Y-103942483D01*
X123523944Y-103950779D01*
X123500612Y-103957404D01*
X123476275Y-103962258D01*
X123451061Y-103965243D01*
X123438164Y-103966004D01*
X123425097Y-103966260D01*
X122917047Y-103966260D01*
X122903980Y-103966001D01*
X122891084Y-103965238D01*
X122878375Y-103963982D01*
X122865871Y-103962247D01*
X122853585Y-103960045D01*
X122841535Y-103957388D01*
X122829737Y-103954288D01*
X122818206Y-103950759D01*
X122806958Y-103946811D01*
X122796009Y-103942459D01*
X122785376Y-103937714D01*
X122775074Y-103932588D01*
X122765118Y-103927094D01*
X122755526Y-103921244D01*
X122746313Y-103915051D01*
X122737495Y-103908527D01*
X122729088Y-103901685D01*
X122721107Y-103894536D01*
X122713569Y-103887093D01*
X122706490Y-103879370D01*
X122699886Y-103871377D01*
X122693772Y-103863127D01*
X122688165Y-103854634D01*
X122683081Y-103845908D01*
X122678534Y-103836963D01*
X122674543Y-103827811D01*
X122671121Y-103818464D01*
X122668286Y-103808935D01*
X122666053Y-103799236D01*
X122664439Y-103789380D01*
X122663458Y-103779378D01*
X122663128Y-103769244D01*
X122663128Y-103375082D01*
X122663439Y-103365309D01*
X122664369Y-103355603D01*
X122665909Y-103345979D01*
X122668051Y-103336454D01*
X122670785Y-103327044D01*
X122674103Y-103317765D01*
X122677997Y-103308632D01*
X122682457Y-103299663D01*
X122687476Y-103290873D01*
X122693045Y-103282279D01*
X122699154Y-103273897D01*
X122705796Y-103265742D01*
X122712961Y-103257832D01*
X122720642Y-103250181D01*
X122728829Y-103242807D01*
X122737514Y-103235726D01*
X122746641Y-103228986D01*
X122756145Y-103222634D01*
X122766005Y-103216674D01*
X122776200Y-103211114D01*
X122786709Y-103205960D01*
X122797513Y-103201219D01*
X122808589Y-103196898D01*
X122819917Y-103193003D01*
X122831476Y-103189542D01*
X122843246Y-103186520D01*
X122855206Y-103183945D01*
X122867334Y-103181823D01*
X122879610Y-103180161D01*
X122892013Y-103178965D01*
X122904523Y-103178243D01*
X122917118Y-103178001D01*
X123425084Y-103178001D01*
X123437679Y-103178243D01*
G36*
X123437679Y-103178243D02*
G01*
X123450189Y-103178965D01*
X123462592Y-103180160D01*
X123474868Y-103181821D01*
X123486997Y-103183943D01*
X123498956Y-103186517D01*
X123510726Y-103189538D01*
X123522286Y-103192999D01*
X123533614Y-103196894D01*
X123544691Y-103201214D01*
X123555494Y-103205955D01*
X123566004Y-103211108D01*
X123576200Y-103216668D01*
X123586060Y-103222627D01*
X123595564Y-103228980D01*
X123604691Y-103235718D01*
X123613376Y-103242800D01*
X123621564Y-103250173D01*
X123629245Y-103257824D01*
X123636411Y-103265734D01*
X123643053Y-103273889D01*
X123649163Y-103282271D01*
X123654732Y-103290865D01*
X123659752Y-103299655D01*
X123664213Y-103308625D01*
X123668107Y-103317758D01*
X123671426Y-103327038D01*
X123674161Y-103336449D01*
X123676303Y-103345975D01*
X123677844Y-103355600D01*
X123678775Y-103365307D01*
X123679087Y-103375082D01*
X123679087Y-103769244D01*
X123678753Y-103779383D01*
X123677769Y-103789389D01*
X123676150Y-103799250D01*
X123673914Y-103808952D01*
X123671076Y-103818484D01*
X123667651Y-103827834D01*
X123663656Y-103836988D01*
X123659107Y-103845935D01*
X123654019Y-103854662D01*
X123648409Y-103863158D01*
X123642292Y-103871408D01*
X123635685Y-103879402D01*
X123628603Y-103887126D01*
X123621063Y-103894568D01*
X123613079Y-103901717D01*
X123604670Y-103908559D01*
X123586634Y-103921274D01*
X123567082Y-103932615D01*
X123546143Y-103942483D01*
X123523944Y-103950779D01*
X123500612Y-103957404D01*
X123476275Y-103962258D01*
X123451061Y-103965243D01*
X123438164Y-103966004D01*
X123425097Y-103966260D01*
X122917047Y-103966260D01*
X122903980Y-103966001D01*
X122891084Y-103965238D01*
X122878375Y-103963982D01*
X122865871Y-103962247D01*
X122853585Y-103960045D01*
X122841535Y-103957388D01*
X122829737Y-103954288D01*
X122818206Y-103950759D01*
X122806958Y-103946811D01*
X122796009Y-103942459D01*
X122785376Y-103937714D01*
X122775074Y-103932588D01*
X122765118Y-103927094D01*
X122755526Y-103921244D01*
X122746313Y-103915051D01*
X122737495Y-103908527D01*
X122729088Y-103901685D01*
X122721107Y-103894536D01*
X122713569Y-103887093D01*
X122706490Y-103879370D01*
X122699886Y-103871377D01*
X122693772Y-103863127D01*
X122688165Y-103854634D01*
X122683081Y-103845908D01*
X122678534Y-103836963D01*
X122674543Y-103827811D01*
X122671121Y-103818464D01*
X122668286Y-103808935D01*
X122666053Y-103799236D01*
X122664439Y-103789380D01*
X122663458Y-103779378D01*
X122663128Y-103769244D01*
X122663128Y-103375082D01*
X122663439Y-103365309D01*
X122664369Y-103355603D01*
X122665909Y-103345979D01*
X122668051Y-103336454D01*
X122670785Y-103327044D01*
X122674103Y-103317765D01*
X122677997Y-103308632D01*
X122682457Y-103299663D01*
X122687476Y-103290873D01*
X122693045Y-103282279D01*
X122699154Y-103273897D01*
X122705796Y-103265742D01*
X122712961Y-103257832D01*
X122720642Y-103250181D01*
X122728829Y-103242807D01*
X122737514Y-103235726D01*
X122746641Y-103228986D01*
X122756145Y-103222634D01*
X122766005Y-103216674D01*
X122776200Y-103211114D01*
X122786709Y-103205960D01*
X122797513Y-103201219D01*
X122808589Y-103196898D01*
X122819917Y-103193003D01*
X122831476Y-103189542D01*
X122843246Y-103186520D01*
X122855206Y-103183945D01*
X122867334Y-103181823D01*
X122879610Y-103180161D01*
X122892013Y-103178965D01*
X122904523Y-103178243D01*
X122917118Y-103178001D01*
X123425084Y-103178001D01*
X123437679Y-103178243D01*
G37*
D11*
X119748060Y-104195123D02*
X120492460Y-105348089D01*
X120744576Y-105738504D01*
X121321478Y-106631989D01*
X121957681Y-105655239D01*
X122022800Y-105644167D01*
X122086350Y-105632341D01*
X122148339Y-105619750D01*
X122208774Y-105606380D01*
X122267663Y-105592218D01*
X122325012Y-105577252D01*
X122380831Y-105561467D01*
X122435125Y-105544852D01*
X122487903Y-105527393D01*
X122539171Y-105509076D01*
X122588938Y-105489890D01*
X122637211Y-105469820D01*
X122683997Y-105448855D01*
X122729304Y-105426980D01*
X122773139Y-105404182D01*
X122815510Y-105380450D01*
X122828603Y-105372702D01*
X122841586Y-105364846D01*
X122854458Y-105356881D01*
X122867219Y-105348810D01*
X122879866Y-105340632D01*
X122892399Y-105332348D01*
X122904817Y-105323959D01*
X122917118Y-105315466D01*
X122917118Y-105542003D01*
X120821510Y-108695107D01*
X119899472Y-108695107D01*
X120853613Y-107323614D01*
X120433613Y-106679919D01*
X120433613Y-105743219D01*
X120355697Y-105745581D01*
X120279187Y-105748749D01*
X120204072Y-105752715D01*
X120130347Y-105757468D01*
X120058000Y-105763000D01*
X119987025Y-105769301D01*
X119917412Y-105776362D01*
X119849153Y-105784172D01*
X118812330Y-104195122D01*
X119748060Y-104195123D01*
G36*
X119748060Y-104195123D02*
G01*
X120492460Y-105348089D01*
X120744576Y-105738504D01*
X121321478Y-106631989D01*
X121957681Y-105655239D01*
X122022800Y-105644167D01*
X122086350Y-105632341D01*
X122148339Y-105619750D01*
X122208774Y-105606380D01*
X122267663Y-105592218D01*
X122325012Y-105577252D01*
X122380831Y-105561467D01*
X122435125Y-105544852D01*
X122487903Y-105527393D01*
X122539171Y-105509076D01*
X122588938Y-105489890D01*
X122637211Y-105469820D01*
X122683997Y-105448855D01*
X122729304Y-105426980D01*
X122773139Y-105404182D01*
X122815510Y-105380450D01*
X122828603Y-105372702D01*
X122841586Y-105364846D01*
X122854458Y-105356881D01*
X122867219Y-105348810D01*
X122879866Y-105340632D01*
X122892399Y-105332348D01*
X122904817Y-105323959D01*
X122917118Y-105315466D01*
X122917118Y-105542003D01*
X120821510Y-108695107D01*
X119899472Y-108695107D01*
X120853613Y-107323614D01*
X120433613Y-106679919D01*
X120433613Y-105743219D01*
X120355697Y-105745581D01*
X120279187Y-105748749D01*
X120204072Y-105752715D01*
X120130347Y-105757468D01*
X120058000Y-105763000D01*
X119987025Y-105769301D01*
X119917412Y-105776362D01*
X119849153Y-105784172D01*
X118812330Y-104195122D01*
X119748060Y-104195123D01*
G37*
D10*
X123437679Y-103178243D02*
X123450189Y-103178965D01*
X123462592Y-103180160D01*
X123474868Y-103181821D01*
X123486997Y-103183943D01*
X123498956Y-103186517D01*
X123510726Y-103189538D01*
X123522286Y-103192999D01*
X123533614Y-103196894D01*
X123544691Y-103201214D01*
X123555494Y-103205955D01*
X123566004Y-103211108D01*
X123576200Y-103216668D01*
X123586060Y-103222627D01*
X123595564Y-103228980D01*
X123604691Y-103235718D01*
X123613376Y-103242800D01*
X123621564Y-103250173D01*
X123629245Y-103257824D01*
X123636411Y-103265734D01*
X123643053Y-103273889D01*
X123649163Y-103282271D01*
X123654732Y-103290865D01*
X123659752Y-103299655D01*
X123664213Y-103308625D01*
X123668107Y-103317758D01*
X123671426Y-103327038D01*
X123674161Y-103336449D01*
X123676303Y-103345975D01*
X123677844Y-103355600D01*
X123678775Y-103365307D01*
X123679087Y-103375082D01*
X123679087Y-103769244D01*
X123678753Y-103779383D01*
X123677769Y-103789389D01*
X123676150Y-103799250D01*
X123673914Y-103808952D01*
X123671076Y-103818484D01*
X123667651Y-103827834D01*
X123663656Y-103836988D01*
X123659107Y-103845935D01*
X123654019Y-103854662D01*
X123648409Y-103863158D01*
X123642292Y-103871408D01*
X123635685Y-103879402D01*
X123628603Y-103887126D01*
X123621063Y-103894568D01*
X123613079Y-103901717D01*
X123604670Y-103908559D01*
X123586634Y-103921274D01*
X123567082Y-103932615D01*
X123546143Y-103942483D01*
X123523944Y-103950779D01*
X123500612Y-103957404D01*
X123476275Y-103962258D01*
X123451061Y-103965243D01*
X123438164Y-103966004D01*
X123425097Y-103966260D01*
X122917047Y-103966260D01*
X122903980Y-103966001D01*
X122891084Y-103965238D01*
X122878375Y-103963982D01*
X122865871Y-103962247D01*
X122853585Y-103960045D01*
X122841535Y-103957388D01*
X122829737Y-103954288D01*
X122818206Y-103950759D01*
X122806958Y-103946811D01*
X122796009Y-103942459D01*
X122785376Y-103937714D01*
X122775074Y-103932588D01*
X122765118Y-103927094D01*
X122755526Y-103921244D01*
X122746313Y-103915051D01*
X122737495Y-103908527D01*
X122729088Y-103901685D01*
X122721107Y-103894536D01*
X122713569Y-103887093D01*
X122706490Y-103879370D01*
X122699886Y-103871377D01*
X122693772Y-103863127D01*
X122688165Y-103854634D01*
X122683081Y-103845908D01*
X122678534Y-103836963D01*
X122674543Y-103827811D01*
X122671121Y-103818464D01*
X122668286Y-103808935D01*
X122666053Y-103799236D01*
X122664439Y-103789380D01*
X122663458Y-103779378D01*
X122663128Y-103769244D01*
X122663128Y-103375082D01*
X122663439Y-103365309D01*
X122664369Y-103355603D01*
X122665909Y-103345979D01*
X122668051Y-103336454D01*
X122670785Y-103327044D01*
X122674103Y-103317765D01*
X122677997Y-103308632D01*
X122682457Y-103299663D01*
X122687476Y-103290873D01*
X122693045Y-103282279D01*
X122699154Y-103273897D01*
X122705796Y-103265742D01*
X122712961Y-103257832D01*
X122720642Y-103250181D01*
X122728829Y-103242807D01*
X122737514Y-103235726D01*
X122746641Y-103228986D01*
X122756145Y-103222634D01*
X122766005Y-103216674D01*
X122776200Y-103211114D01*
X122786709Y-103205960D01*
X122797513Y-103201219D01*
X122808589Y-103196898D01*
X122819917Y-103193003D01*
X122831476Y-103189542D01*
X122843246Y-103186520D01*
X122855206Y-103183945D01*
X122867334Y-103181823D01*
X122879610Y-103180161D01*
X122892013Y-103178965D01*
X122904523Y-103178243D01*
X122917118Y-103178001D01*
X123425084Y-103178001D01*
X123437679Y-103178243D01*
G36*
X123437679Y-103178243D02*
G01*
X123450189Y-103178965D01*
X123462592Y-103180160D01*
X123474868Y-103181821D01*
X123486997Y-103183943D01*
X123498956Y-103186517D01*
X123510726Y-103189538D01*
X123522286Y-103192999D01*
X123533614Y-103196894D01*
X123544691Y-103201214D01*
X123555494Y-103205955D01*
X123566004Y-103211108D01*
X123576200Y-103216668D01*
X123586060Y-103222627D01*
X123595564Y-103228980D01*
X123604691Y-103235718D01*
X123613376Y-103242800D01*
X123621564Y-103250173D01*
X123629245Y-103257824D01*
X123636411Y-103265734D01*
X123643053Y-103273889D01*
X123649163Y-103282271D01*
X123654732Y-103290865D01*
X123659752Y-103299655D01*
X123664213Y-103308625D01*
X123668107Y-103317758D01*
X123671426Y-103327038D01*
X123674161Y-103336449D01*
X123676303Y-103345975D01*
X123677844Y-103355600D01*
X123678775Y-103365307D01*
X123679087Y-103375082D01*
X123679087Y-103769244D01*
X123678753Y-103779383D01*
X123677769Y-103789389D01*
X123676150Y-103799250D01*
X123673914Y-103808952D01*
X123671076Y-103818484D01*
X123667651Y-103827834D01*
X123663656Y-103836988D01*
X123659107Y-103845935D01*
X123654019Y-103854662D01*
X123648409Y-103863158D01*
X123642292Y-103871408D01*
X123635685Y-103879402D01*
X123628603Y-103887126D01*
X123621063Y-103894568D01*
X123613079Y-103901717D01*
X123604670Y-103908559D01*
X123586634Y-103921274D01*
X123567082Y-103932615D01*
X123546143Y-103942483D01*
X123523944Y-103950779D01*
X123500612Y-103957404D01*
X123476275Y-103962258D01*
X123451061Y-103965243D01*
X123438164Y-103966004D01*
X123425097Y-103966260D01*
X122917047Y-103966260D01*
X122903980Y-103966001D01*
X122891084Y-103965238D01*
X122878375Y-103963982D01*
X122865871Y-103962247D01*
X122853585Y-103960045D01*
X122841535Y-103957388D01*
X122829737Y-103954288D01*
X122818206Y-103950759D01*
X122806958Y-103946811D01*
X122796009Y-103942459D01*
X122785376Y-103937714D01*
X122775074Y-103932588D01*
X122765118Y-103927094D01*
X122755526Y-103921244D01*
X122746313Y-103915051D01*
X122737495Y-103908527D01*
X122729088Y-103901685D01*
X122721107Y-103894536D01*
X122713569Y-103887093D01*
X122706490Y-103879370D01*
X122699886Y-103871377D01*
X122693772Y-103863127D01*
X122688165Y-103854634D01*
X122683081Y-103845908D01*
X122678534Y-103836963D01*
X122674543Y-103827811D01*
X122671121Y-103818464D01*
X122668286Y-103808935D01*
X122666053Y-103799236D01*
X122664439Y-103789380D01*
X122663458Y-103779378D01*
X122663128Y-103769244D01*
X122663128Y-103375082D01*
X122663439Y-103365309D01*
X122664369Y-103355603D01*
X122665909Y-103345979D01*
X122668051Y-103336454D01*
X122670785Y-103327044D01*
X122674103Y-103317765D01*
X122677997Y-103308632D01*
X122682457Y-103299663D01*
X122687476Y-103290873D01*
X122693045Y-103282279D01*
X122699154Y-103273897D01*
X122705796Y-103265742D01*
X122712961Y-103257832D01*
X122720642Y-103250181D01*
X122728829Y-103242807D01*
X122737514Y-103235726D01*
X122746641Y-103228986D01*
X122756145Y-103222634D01*
X122766005Y-103216674D01*
X122776200Y-103211114D01*
X122786709Y-103205960D01*
X122797513Y-103201219D01*
X122808589Y-103196898D01*
X122819917Y-103193003D01*
X122831476Y-103189542D01*
X122843246Y-103186520D01*
X122855206Y-103183945D01*
X122867334Y-103181823D01*
X122879610Y-103180161D01*
X122892013Y-103178965D01*
X122904523Y-103178243D01*
X122917118Y-103178001D01*
X123425084Y-103178001D01*
X123437679Y-103178243D01*
G37*
D12*
X118112782Y-104360776D02*
X118134060Y-104361815D01*
X118155129Y-104363531D01*
X118175968Y-104365912D01*
X118196557Y-104368946D01*
X118216873Y-104372621D01*
X118236898Y-104376923D01*
X118256610Y-104381841D01*
X118275988Y-104387363D01*
X118295012Y-104393476D01*
X118313660Y-104400168D01*
X118331913Y-104407426D01*
X118349750Y-104415238D01*
X118367149Y-104423592D01*
X118384091Y-104432475D01*
X118400554Y-104441876D01*
X118416518Y-104451781D01*
X118431962Y-104462179D01*
X118446865Y-104473057D01*
X118461207Y-104484403D01*
X118474967Y-104496205D01*
X118488124Y-104508449D01*
X118500657Y-104521125D01*
X118512547Y-104534219D01*
X118523771Y-104547719D01*
X118534310Y-104561613D01*
X118544143Y-104575889D01*
X118553248Y-104590534D01*
X118561606Y-104605535D01*
X118569196Y-104620882D01*
X118575996Y-104636560D01*
X118581987Y-104652559D01*
X118587108Y-104668738D01*
X118591323Y-104684954D01*
X118594639Y-104701189D01*
X118597068Y-104717423D01*
X118598620Y-104733638D01*
X118599304Y-104749816D01*
X118599131Y-104765937D01*
X118598110Y-104781983D01*
X118596251Y-104797935D01*
X118593565Y-104813775D01*
X118590061Y-104829484D01*
X118585750Y-104845042D01*
X118580641Y-104860432D01*
X118574744Y-104875634D01*
X118568070Y-104890630D01*
X118560628Y-104905402D01*
X118552428Y-104919930D01*
X118543481Y-104934196D01*
X118533796Y-104948180D01*
X118523383Y-104961866D01*
X118512253Y-104975232D01*
X118500415Y-104988262D01*
X118487879Y-105000936D01*
X118474655Y-105013236D01*
X118460753Y-105025142D01*
X118446184Y-105036637D01*
X118430957Y-105047701D01*
X118415082Y-105058315D01*
X118398569Y-105068462D01*
X118381429Y-105078122D01*
X118363670Y-105087276D01*
X118345304Y-105095907D01*
X118345304Y-105888107D01*
X118380106Y-105861934D01*
X118415937Y-105836427D01*
X118452798Y-105811586D01*
X118490689Y-105787410D01*
X118529613Y-105763900D01*
X118569569Y-105741054D01*
X118610559Y-105718873D01*
X118652584Y-105697356D01*
X118721197Y-105664623D01*
X118792069Y-105633724D01*
X118865126Y-105604613D01*
X118940294Y-105577245D01*
X119017501Y-105551577D01*
X119096674Y-105527563D01*
X119177739Y-105505158D01*
X119260622Y-105484319D01*
X119260622Y-105900251D01*
X119214898Y-105914288D01*
X119170289Y-105928902D01*
X119126811Y-105944094D01*
X119084479Y-105959870D01*
X119043309Y-105976231D01*
X119003316Y-105993181D01*
X118964515Y-106010723D01*
X118926922Y-106028860D01*
X118870557Y-106058484D01*
X118816746Y-106089742D01*
X118765543Y-106122682D01*
X118717002Y-106157350D01*
X118671176Y-106193793D01*
X118628121Y-106232059D01*
X118587890Y-106272194D01*
X118550537Y-106314245D01*
X118516117Y-106358260D01*
X118484682Y-106404284D01*
X118456288Y-106452364D01*
X118430988Y-106502549D01*
X118408837Y-106554884D01*
X118389888Y-106609416D01*
X118374195Y-106666192D01*
X118361813Y-106725260D01*
X118400402Y-106726656D01*
X118438458Y-106729514D01*
X118475937Y-106733798D01*
X118512792Y-106739471D01*
X118548978Y-106746498D01*
X118584451Y-106754843D01*
X118619163Y-106764470D01*
X118653071Y-106775343D01*
X118686128Y-106787426D01*
X118718290Y-106800683D01*
X118749510Y-106815077D01*
X118779743Y-106830574D01*
X118808945Y-106847136D01*
X118837069Y-106864729D01*
X118864070Y-106883315D01*
X118889903Y-106902860D01*
X118914522Y-106923327D01*
X118937881Y-106944679D01*
X118959937Y-106966882D01*
X118980642Y-106989899D01*
X118999952Y-107013694D01*
X119017821Y-107038232D01*
X119034203Y-107063475D01*
X119049054Y-107089389D01*
X119062328Y-107115937D01*
X119073980Y-107143083D01*
X119083963Y-107170791D01*
X119092233Y-107199026D01*
X119098745Y-107227751D01*
X119103452Y-107256930D01*
X119106310Y-107286528D01*
X119107272Y-107316508D01*
X119107272Y-107710670D01*
X119106279Y-107741092D01*
X119103334Y-107771115D01*
X119098487Y-107800702D01*
X119091784Y-107829814D01*
X119083274Y-107858416D01*
X119073005Y-107886470D01*
X119061025Y-107913939D01*
X119047380Y-107940785D01*
X119032120Y-107966972D01*
X119015293Y-107992463D01*
X118996945Y-108017220D01*
X118977125Y-108041205D01*
X118955881Y-108064383D01*
X118933260Y-108086716D01*
X118909311Y-108108167D01*
X118884081Y-108128698D01*
X118829972Y-108166853D01*
X118771314Y-108200886D01*
X118708491Y-108230497D01*
X118641886Y-108255391D01*
X118571882Y-108275271D01*
X118498861Y-108289838D01*
X118423208Y-108298797D01*
X118384513Y-108301079D01*
X118345304Y-108301849D01*
X117837280Y-108301849D01*
X117798071Y-108301078D01*
X117759376Y-108298793D01*
X117721244Y-108295032D01*
X117683723Y-108289831D01*
X117646860Y-108283228D01*
X117610704Y-108275261D01*
X117575302Y-108265965D01*
X117540701Y-108255378D01*
X117506951Y-108243538D01*
X117474098Y-108230482D01*
X117442191Y-108216246D01*
X117411277Y-108200868D01*
X117381405Y-108184385D01*
X117352622Y-108166834D01*
X117324976Y-108148253D01*
X117298515Y-108128678D01*
X117273287Y-108108146D01*
X117249340Y-108086696D01*
X117226721Y-108064363D01*
X117205478Y-108041185D01*
X117185660Y-108017200D01*
X117167314Y-107992444D01*
X117150489Y-107966954D01*
X117135231Y-107940768D01*
X117121588Y-107913923D01*
X117109610Y-107886456D01*
X117099343Y-107858404D01*
X117090835Y-107829804D01*
X117084135Y-107800693D01*
X117079290Y-107771109D01*
X117076347Y-107741089D01*
X117075356Y-107710670D01*
X117075356Y-107710669D01*
X117583335Y-107710669D01*
X117583669Y-107720808D01*
X117584653Y-107730814D01*
X117586272Y-107740675D01*
X117588508Y-107750377D01*
X117591346Y-107759909D01*
X117594771Y-107769259D01*
X117598766Y-107778413D01*
X117603315Y-107787360D01*
X117608403Y-107796087D01*
X117614013Y-107804582D01*
X117620130Y-107812833D01*
X117626737Y-107820826D01*
X117633819Y-107828551D01*
X117641359Y-107835993D01*
X117649342Y-107843142D01*
X117657752Y-107849984D01*
X117675788Y-107862699D01*
X117695339Y-107874040D01*
X117716278Y-107883908D01*
X117738477Y-107892204D01*
X117761809Y-107898829D01*
X117786146Y-107903683D01*
X117811361Y-107906668D01*
X117824257Y-107907429D01*
X117837325Y-107907686D01*
X118345374Y-107907686D01*
X118358441Y-107907426D01*
X118371337Y-107906663D01*
X118384046Y-107905407D01*
X118396550Y-107903672D01*
X118408836Y-107901470D01*
X118420886Y-107898813D01*
X118432684Y-107895713D01*
X118444215Y-107892184D01*
X118455463Y-107888237D01*
X118466412Y-107883884D01*
X118477045Y-107879139D01*
X118487347Y-107874013D01*
X118497302Y-107868519D01*
X118506894Y-107862669D01*
X118516108Y-107856476D01*
X118524926Y-107849952D01*
X118533333Y-107843110D01*
X118541314Y-107835961D01*
X118548851Y-107828519D01*
X118555930Y-107820795D01*
X118562535Y-107812802D01*
X118568648Y-107804552D01*
X118574255Y-107796059D01*
X118579340Y-107787333D01*
X118583886Y-107778388D01*
X118587878Y-107769236D01*
X118591299Y-107759889D01*
X118594135Y-107750360D01*
X118596367Y-107740661D01*
X118597982Y-107730805D01*
X118598963Y-107720803D01*
X118599293Y-107710669D01*
X118599292Y-107316507D01*
X118598981Y-107306734D01*
X118598050Y-107297028D01*
X118596510Y-107287404D01*
X118594369Y-107277879D01*
X118591635Y-107268469D01*
X118588316Y-107259189D01*
X118584423Y-107250057D01*
X118579962Y-107241088D01*
X118574943Y-107232298D01*
X118569375Y-107223704D01*
X118563265Y-107215321D01*
X118556624Y-107207167D01*
X118549458Y-107199256D01*
X118541778Y-107191606D01*
X118533591Y-107184232D01*
X118524906Y-107177150D01*
X118515779Y-107170411D01*
X118506276Y-107164058D01*
X118496416Y-107158099D01*
X118486221Y-107152538D01*
X118475711Y-107147385D01*
X118464908Y-107142644D01*
X118453832Y-107138323D01*
X118442504Y-107134428D01*
X118430945Y-107130967D01*
X118419175Y-107127945D01*
X118407216Y-107125370D01*
X118395087Y-107123248D01*
X118382811Y-107121586D01*
X118370408Y-107120391D01*
X118357899Y-107119668D01*
X118345304Y-107119426D01*
X117837336Y-107119426D01*
X117824741Y-107119668D01*
X117812231Y-107120390D01*
X117799828Y-107121585D01*
X117787552Y-107123246D01*
X117775424Y-107125368D01*
X117763464Y-107127942D01*
X117751694Y-107130964D01*
X117740135Y-107134425D01*
X117728806Y-107138319D01*
X117717730Y-107142639D01*
X117706927Y-107147380D01*
X117696417Y-107152533D01*
X117686221Y-107158093D01*
X117676361Y-107164052D01*
X117666857Y-107170405D01*
X117657731Y-107177143D01*
X117649045Y-107184225D01*
X117640857Y-107191599D01*
X117633176Y-107199249D01*
X117626010Y-107207159D01*
X117619368Y-107215314D01*
X117613258Y-107223696D01*
X117607689Y-107232291D01*
X117602670Y-107241081D01*
X117598209Y-107250050D01*
X117594314Y-107259183D01*
X117590996Y-107268463D01*
X117588261Y-107277874D01*
X117586119Y-107287400D01*
X117584578Y-107297025D01*
X117583647Y-107306733D01*
X117583335Y-107316507D01*
X117583335Y-107710669D01*
X117075356Y-107710669D01*
X117075356Y-107316508D01*
X117075356Y-107316507D01*
X117076291Y-107287190D01*
X117079081Y-107258072D01*
X117083702Y-107229200D01*
X117090126Y-107200625D01*
X117098329Y-107172394D01*
X117108283Y-107144556D01*
X117119965Y-107117159D01*
X117133347Y-107090251D01*
X117148403Y-107063882D01*
X117165109Y-107038099D01*
X117183437Y-107012952D01*
X117203362Y-106988488D01*
X117224859Y-106964756D01*
X117247901Y-106941805D01*
X117272463Y-106919683D01*
X117298518Y-106898438D01*
X117325897Y-106878221D01*
X117354408Y-106859162D01*
X117383987Y-106841283D01*
X117414572Y-106824602D01*
X117446100Y-106809141D01*
X117478510Y-106794919D01*
X117511738Y-106781956D01*
X117545723Y-106770272D01*
X117580401Y-106759887D01*
X117615710Y-106750822D01*
X117651588Y-106743097D01*
X117687973Y-106736731D01*
X117724801Y-106731745D01*
X117762011Y-106728158D01*
X117799539Y-106725992D01*
X117837325Y-106725265D01*
X117837326Y-105095907D01*
X117818959Y-105087276D01*
X117801201Y-105078122D01*
X117784060Y-105068462D01*
X117767548Y-105058315D01*
X117751673Y-105047701D01*
X117736446Y-105036637D01*
X117721876Y-105025142D01*
X117707975Y-105013236D01*
X117694751Y-105000936D01*
X117682215Y-104988262D01*
X117670377Y-104975232D01*
X117659247Y-104961866D01*
X117648834Y-104948180D01*
X117639149Y-104934196D01*
X117630201Y-104919930D01*
X117622002Y-104905402D01*
X117614560Y-104890630D01*
X117607886Y-104875634D01*
X117601989Y-104860432D01*
X117596880Y-104845042D01*
X117592568Y-104829484D01*
X117589065Y-104813775D01*
X117586378Y-104797935D01*
X117584520Y-104781983D01*
X117583499Y-104765937D01*
X117583325Y-104749816D01*
X117584009Y-104733638D01*
X117585561Y-104717423D01*
X117587990Y-104701189D01*
X117591307Y-104684954D01*
X117595521Y-104668738D01*
X117600643Y-104652559D01*
X117606633Y-104636560D01*
X117613434Y-104620882D01*
X117629381Y-104590534D01*
X117648319Y-104561613D01*
X117670083Y-104534219D01*
X117694505Y-104508449D01*
X117721422Y-104484403D01*
X117750667Y-104462179D01*
X117782075Y-104441876D01*
X117815480Y-104423592D01*
X117850716Y-104407426D01*
X117887618Y-104393476D01*
X117926020Y-104381841D01*
X117965756Y-104372621D01*
X118006661Y-104365912D01*
X118048569Y-104361815D01*
X118091315Y-104360427D01*
X118112782Y-104360776D01*
G36*
X118112782Y-104360776D02*
G01*
X118134060Y-104361815D01*
X118155129Y-104363531D01*
X118175968Y-104365912D01*
X118196557Y-104368946D01*
X118216873Y-104372621D01*
X118236898Y-104376923D01*
X118256610Y-104381841D01*
X118275988Y-104387363D01*
X118295012Y-104393476D01*
X118313660Y-104400168D01*
X118331913Y-104407426D01*
X118349750Y-104415238D01*
X118367149Y-104423592D01*
X118384091Y-104432475D01*
X118400554Y-104441876D01*
X118416518Y-104451781D01*
X118431962Y-104462179D01*
X118446865Y-104473057D01*
X118461207Y-104484403D01*
X118474967Y-104496205D01*
X118488124Y-104508449D01*
X118500657Y-104521125D01*
X118512547Y-104534219D01*
X118523771Y-104547719D01*
X118534310Y-104561613D01*
X118544143Y-104575889D01*
X118553248Y-104590534D01*
X118561606Y-104605535D01*
X118569196Y-104620882D01*
X118575996Y-104636560D01*
X118581987Y-104652559D01*
X118587108Y-104668738D01*
X118591323Y-104684954D01*
X118594639Y-104701189D01*
X118597068Y-104717423D01*
X118598620Y-104733638D01*
X118599304Y-104749816D01*
X118599131Y-104765937D01*
X118598110Y-104781983D01*
X118596251Y-104797935D01*
X118593565Y-104813775D01*
X118590061Y-104829484D01*
X118585750Y-104845042D01*
X118580641Y-104860432D01*
X118574744Y-104875634D01*
X118568070Y-104890630D01*
X118560628Y-104905402D01*
X118552428Y-104919930D01*
X118543481Y-104934196D01*
X118533796Y-104948180D01*
X118523383Y-104961866D01*
X118512253Y-104975232D01*
X118500415Y-104988262D01*
X118487879Y-105000936D01*
X118474655Y-105013236D01*
X118460753Y-105025142D01*
X118446184Y-105036637D01*
X118430957Y-105047701D01*
X118415082Y-105058315D01*
X118398569Y-105068462D01*
X118381429Y-105078122D01*
X118363670Y-105087276D01*
X118345304Y-105095907D01*
X118345304Y-105888107D01*
X118380106Y-105861934D01*
X118415937Y-105836427D01*
X118452798Y-105811586D01*
X118490689Y-105787410D01*
X118529613Y-105763900D01*
X118569569Y-105741054D01*
X118610559Y-105718873D01*
X118652584Y-105697356D01*
X118721197Y-105664623D01*
X118792069Y-105633724D01*
X118865126Y-105604613D01*
X118940294Y-105577245D01*
X119017501Y-105551577D01*
X119096674Y-105527563D01*
X119177739Y-105505158D01*
X119260622Y-105484319D01*
X119260622Y-105900251D01*
X119214898Y-105914288D01*
X119170289Y-105928902D01*
X119126811Y-105944094D01*
X119084479Y-105959870D01*
X119043309Y-105976231D01*
X119003316Y-105993181D01*
X118964515Y-106010723D01*
X118926922Y-106028860D01*
X118870557Y-106058484D01*
X118816746Y-106089742D01*
X118765543Y-106122682D01*
X118717002Y-106157350D01*
X118671176Y-106193793D01*
X118628121Y-106232059D01*
X118587890Y-106272194D01*
X118550537Y-106314245D01*
X118516117Y-106358260D01*
X118484682Y-106404284D01*
X118456288Y-106452364D01*
X118430988Y-106502549D01*
X118408837Y-106554884D01*
X118389888Y-106609416D01*
X118374195Y-106666192D01*
X118361813Y-106725260D01*
X118400402Y-106726656D01*
X118438458Y-106729514D01*
X118475937Y-106733798D01*
X118512792Y-106739471D01*
X118548978Y-106746498D01*
X118584451Y-106754843D01*
X118619163Y-106764470D01*
X118653071Y-106775343D01*
X118686128Y-106787426D01*
X118718290Y-106800683D01*
X118749510Y-106815077D01*
X118779743Y-106830574D01*
X118808945Y-106847136D01*
X118837069Y-106864729D01*
X118864070Y-106883315D01*
X118889903Y-106902860D01*
X118914522Y-106923327D01*
X118937881Y-106944679D01*
X118959937Y-106966882D01*
X118980642Y-106989899D01*
X118999952Y-107013694D01*
X119017821Y-107038232D01*
X119034203Y-107063475D01*
X119049054Y-107089389D01*
X119062328Y-107115937D01*
X119073980Y-107143083D01*
X119083963Y-107170791D01*
X119092233Y-107199026D01*
X119098745Y-107227751D01*
X119103452Y-107256930D01*
X119106310Y-107286528D01*
X119107272Y-107316508D01*
X119107272Y-107710670D01*
X119106279Y-107741092D01*
X119103334Y-107771115D01*
X119098487Y-107800702D01*
X119091784Y-107829814D01*
X119083274Y-107858416D01*
X119073005Y-107886470D01*
X119061025Y-107913939D01*
X119047380Y-107940785D01*
X119032120Y-107966972D01*
X119015293Y-107992463D01*
X118996945Y-108017220D01*
X118977125Y-108041205D01*
X118955881Y-108064383D01*
X118933260Y-108086716D01*
X118909311Y-108108167D01*
X118884081Y-108128698D01*
X118829972Y-108166853D01*
X118771314Y-108200886D01*
X118708491Y-108230497D01*
X118641886Y-108255391D01*
X118571882Y-108275271D01*
X118498861Y-108289838D01*
X118423208Y-108298797D01*
X118384513Y-108301079D01*
X118345304Y-108301849D01*
X117837280Y-108301849D01*
X117798071Y-108301078D01*
X117759376Y-108298793D01*
X117721244Y-108295032D01*
X117683723Y-108289831D01*
X117646860Y-108283228D01*
X117610704Y-108275261D01*
X117575302Y-108265965D01*
X117540701Y-108255378D01*
X117506951Y-108243538D01*
X117474098Y-108230482D01*
X117442191Y-108216246D01*
X117411277Y-108200868D01*
X117381405Y-108184385D01*
X117352622Y-108166834D01*
X117324976Y-108148253D01*
X117298515Y-108128678D01*
X117273287Y-108108146D01*
X117249340Y-108086696D01*
X117226721Y-108064363D01*
X117205478Y-108041185D01*
X117185660Y-108017200D01*
X117167314Y-107992444D01*
X117150489Y-107966954D01*
X117135231Y-107940768D01*
X117121588Y-107913923D01*
X117109610Y-107886456D01*
X117099343Y-107858404D01*
X117090835Y-107829804D01*
X117084135Y-107800693D01*
X117079290Y-107771109D01*
X117076347Y-107741089D01*
X117075356Y-107710670D01*
X117075356Y-107710669D01*
X117583335Y-107710669D01*
X117583669Y-107720808D01*
X117584653Y-107730814D01*
X117586272Y-107740675D01*
X117588508Y-107750377D01*
X117591346Y-107759909D01*
X117594771Y-107769259D01*
X117598766Y-107778413D01*
X117603315Y-107787360D01*
X117608403Y-107796087D01*
X117614013Y-107804582D01*
X117620130Y-107812833D01*
X117626737Y-107820826D01*
X117633819Y-107828551D01*
X117641359Y-107835993D01*
X117649342Y-107843142D01*
X117657752Y-107849984D01*
X117675788Y-107862699D01*
X117695339Y-107874040D01*
X117716278Y-107883908D01*
X117738477Y-107892204D01*
X117761809Y-107898829D01*
X117786146Y-107903683D01*
X117811361Y-107906668D01*
X117824257Y-107907429D01*
X117837325Y-107907686D01*
X118345374Y-107907686D01*
X118358441Y-107907426D01*
X118371337Y-107906663D01*
X118384046Y-107905407D01*
X118396550Y-107903672D01*
X118408836Y-107901470D01*
X118420886Y-107898813D01*
X118432684Y-107895713D01*
X118444215Y-107892184D01*
X118455463Y-107888237D01*
X118466412Y-107883884D01*
X118477045Y-107879139D01*
X118487347Y-107874013D01*
X118497302Y-107868519D01*
X118506894Y-107862669D01*
X118516108Y-107856476D01*
X118524926Y-107849952D01*
X118533333Y-107843110D01*
X118541314Y-107835961D01*
X118548851Y-107828519D01*
X118555930Y-107820795D01*
X118562535Y-107812802D01*
X118568648Y-107804552D01*
X118574255Y-107796059D01*
X118579340Y-107787333D01*
X118583886Y-107778388D01*
X118587878Y-107769236D01*
X118591299Y-107759889D01*
X118594135Y-107750360D01*
X118596367Y-107740661D01*
X118597982Y-107730805D01*
X118598963Y-107720803D01*
X118599293Y-107710669D01*
X118599292Y-107316507D01*
X118598981Y-107306734D01*
X118598050Y-107297028D01*
X118596510Y-107287404D01*
X118594369Y-107277879D01*
X118591635Y-107268469D01*
X118588316Y-107259189D01*
X118584423Y-107250057D01*
X118579962Y-107241088D01*
X118574943Y-107232298D01*
X118569375Y-107223704D01*
X118563265Y-107215321D01*
X118556624Y-107207167D01*
X118549458Y-107199256D01*
X118541778Y-107191606D01*
X118533591Y-107184232D01*
X118524906Y-107177150D01*
X118515779Y-107170411D01*
X118506276Y-107164058D01*
X118496416Y-107158099D01*
X118486221Y-107152538D01*
X118475711Y-107147385D01*
X118464908Y-107142644D01*
X118453832Y-107138323D01*
X118442504Y-107134428D01*
X118430945Y-107130967D01*
X118419175Y-107127945D01*
X118407216Y-107125370D01*
X118395087Y-107123248D01*
X118382811Y-107121586D01*
X118370408Y-107120391D01*
X118357899Y-107119668D01*
X118345304Y-107119426D01*
X117837336Y-107119426D01*
X117824741Y-107119668D01*
X117812231Y-107120390D01*
X117799828Y-107121585D01*
X117787552Y-107123246D01*
X117775424Y-107125368D01*
X117763464Y-107127942D01*
X117751694Y-107130964D01*
X117740135Y-107134425D01*
X117728806Y-107138319D01*
X117717730Y-107142639D01*
X117706927Y-107147380D01*
X117696417Y-107152533D01*
X117686221Y-107158093D01*
X117676361Y-107164052D01*
X117666857Y-107170405D01*
X117657731Y-107177143D01*
X117649045Y-107184225D01*
X117640857Y-107191599D01*
X117633176Y-107199249D01*
X117626010Y-107207159D01*
X117619368Y-107215314D01*
X117613258Y-107223696D01*
X117607689Y-107232291D01*
X117602670Y-107241081D01*
X117598209Y-107250050D01*
X117594314Y-107259183D01*
X117590996Y-107268463D01*
X117588261Y-107277874D01*
X117586119Y-107287400D01*
X117584578Y-107297025D01*
X117583647Y-107306733D01*
X117583335Y-107316507D01*
X117583335Y-107710669D01*
X117075356Y-107710669D01*
X117075356Y-107316508D01*
X117075356Y-107316507D01*
X117076291Y-107287190D01*
X117079081Y-107258072D01*
X117083702Y-107229200D01*
X117090126Y-107200625D01*
X117098329Y-107172394D01*
X117108283Y-107144556D01*
X117119965Y-107117159D01*
X117133347Y-107090251D01*
X117148403Y-107063882D01*
X117165109Y-107038099D01*
X117183437Y-107012952D01*
X117203362Y-106988488D01*
X117224859Y-106964756D01*
X117247901Y-106941805D01*
X117272463Y-106919683D01*
X117298518Y-106898438D01*
X117325897Y-106878221D01*
X117354408Y-106859162D01*
X117383987Y-106841283D01*
X117414572Y-106824602D01*
X117446100Y-106809141D01*
X117478510Y-106794919D01*
X117511738Y-106781956D01*
X117545723Y-106770272D01*
X117580401Y-106759887D01*
X117615710Y-106750822D01*
X117651588Y-106743097D01*
X117687973Y-106736731D01*
X117724801Y-106731745D01*
X117762011Y-106728158D01*
X117799539Y-106725992D01*
X117837325Y-106725265D01*
X117837326Y-105095907D01*
X117818959Y-105087276D01*
X117801201Y-105078122D01*
X117784060Y-105068462D01*
X117767548Y-105058315D01*
X117751673Y-105047701D01*
X117736446Y-105036637D01*
X117721876Y-105025142D01*
X117707975Y-105013236D01*
X117694751Y-105000936D01*
X117682215Y-104988262D01*
X117670377Y-104975232D01*
X117659247Y-104961866D01*
X117648834Y-104948180D01*
X117639149Y-104934196D01*
X117630201Y-104919930D01*
X117622002Y-104905402D01*
X117614560Y-104890630D01*
X117607886Y-104875634D01*
X117601989Y-104860432D01*
X117596880Y-104845042D01*
X117592568Y-104829484D01*
X117589065Y-104813775D01*
X117586378Y-104797935D01*
X117584520Y-104781983D01*
X117583499Y-104765937D01*
X117583325Y-104749816D01*
X117584009Y-104733638D01*
X117585561Y-104717423D01*
X117587990Y-104701189D01*
X117591307Y-104684954D01*
X117595521Y-104668738D01*
X117600643Y-104652559D01*
X117606633Y-104636560D01*
X117613434Y-104620882D01*
X117629381Y-104590534D01*
X117648319Y-104561613D01*
X117670083Y-104534219D01*
X117694505Y-104508449D01*
X117721422Y-104484403D01*
X117750667Y-104462179D01*
X117782075Y-104441876D01*
X117815480Y-104423592D01*
X117850716Y-104407426D01*
X117887618Y-104393476D01*
X117926020Y-104381841D01*
X117965756Y-104372621D01*
X118006661Y-104365912D01*
X118048569Y-104361815D01*
X118091315Y-104360427D01*
X118112782Y-104360776D01*
G37*
D13*
X109263000Y-85316000D02*
X123868000Y-85316000D01*
X171422073Y-82421514D02*
X171422073Y-83028657D01*
X171422073Y-83028657D02*
X171386358Y-83100085D01*
X171386358Y-83100085D02*
X171350644Y-83135800D01*
X171350644Y-83135800D02*
X171279215Y-83171514D01*
X171279215Y-83171514D02*
X171172073Y-83171514D01*
X171172073Y-83171514D02*
X171100644Y-83135800D01*
X171422073Y-82885800D02*
X171350644Y-82921514D01*
X171350644Y-82921514D02*
X171207787Y-82921514D01*
X171207787Y-82921514D02*
X171136358Y-82885800D01*
X171136358Y-82885800D02*
X171100644Y-82850085D01*
X171100644Y-82850085D02*
X171064930Y-82778657D01*
X171064930Y-82778657D02*
X171064930Y-82564371D01*
X171064930Y-82564371D02*
X171100644Y-82492942D01*
X171100644Y-82492942D02*
X171136358Y-82457228D01*
X171136358Y-82457228D02*
X171207787Y-82421514D01*
X171207787Y-82421514D02*
X171350644Y-82421514D01*
X171350644Y-82421514D02*
X171422073Y-82457228D01*
X171779215Y-82921514D02*
X171779215Y-82421514D01*
X171779215Y-82171514D02*
X171743501Y-82207228D01*
X171743501Y-82207228D02*
X171779215Y-82242942D01*
X171779215Y-82242942D02*
X171814929Y-82207228D01*
X171814929Y-82207228D02*
X171779215Y-82171514D01*
X171779215Y-82171514D02*
X171779215Y-82242942D01*
X172029215Y-82421514D02*
X172314929Y-82421514D01*
X172136358Y-82171514D02*
X172136358Y-82814371D01*
X172136358Y-82814371D02*
X172172072Y-82885800D01*
X172172072Y-82885800D02*
X172243501Y-82921514D01*
X172243501Y-82921514D02*
X172314929Y-82921514D01*
X172564929Y-82921514D02*
X172564929Y-82171514D01*
X172886358Y-82921514D02*
X172886358Y-82528657D01*
X172886358Y-82528657D02*
X172850643Y-82457228D01*
X172850643Y-82457228D02*
X172779215Y-82421514D01*
X172779215Y-82421514D02*
X172672072Y-82421514D01*
X172672072Y-82421514D02*
X172600643Y-82457228D01*
X172600643Y-82457228D02*
X172564929Y-82492942D01*
X173564929Y-82421514D02*
X173564929Y-82921514D01*
X173243500Y-82421514D02*
X173243500Y-82814371D01*
X173243500Y-82814371D02*
X173279214Y-82885800D01*
X173279214Y-82885800D02*
X173350643Y-82921514D01*
X173350643Y-82921514D02*
X173457786Y-82921514D01*
X173457786Y-82921514D02*
X173529214Y-82885800D01*
X173529214Y-82885800D02*
X173564929Y-82850085D01*
X173922071Y-82921514D02*
X173922071Y-82171514D01*
X173922071Y-82457228D02*
X173993500Y-82421514D01*
X173993500Y-82421514D02*
X174136357Y-82421514D01*
X174136357Y-82421514D02*
X174207785Y-82457228D01*
X174207785Y-82457228D02*
X174243500Y-82492942D01*
X174243500Y-82492942D02*
X174279214Y-82564371D01*
X174279214Y-82564371D02*
X174279214Y-82778657D01*
X174279214Y-82778657D02*
X174243500Y-82850085D01*
X174243500Y-82850085D02*
X174207785Y-82885800D01*
X174207785Y-82885800D02*
X174136357Y-82921514D01*
X174136357Y-82921514D02*
X173993500Y-82921514D01*
X173993500Y-82921514D02*
X173922071Y-82885800D01*
X174600642Y-82850085D02*
X174636356Y-82885800D01*
X174636356Y-82885800D02*
X174600642Y-82921514D01*
X174600642Y-82921514D02*
X174564928Y-82885800D01*
X174564928Y-82885800D02*
X174600642Y-82850085D01*
X174600642Y-82850085D02*
X174600642Y-82921514D01*
X175279214Y-82885800D02*
X175207785Y-82921514D01*
X175207785Y-82921514D02*
X175064928Y-82921514D01*
X175064928Y-82921514D02*
X174993499Y-82885800D01*
X174993499Y-82885800D02*
X174957785Y-82850085D01*
X174957785Y-82850085D02*
X174922071Y-82778657D01*
X174922071Y-82778657D02*
X174922071Y-82564371D01*
X174922071Y-82564371D02*
X174957785Y-82492942D01*
X174957785Y-82492942D02*
X174993499Y-82457228D01*
X174993499Y-82457228D02*
X175064928Y-82421514D01*
X175064928Y-82421514D02*
X175207785Y-82421514D01*
X175207785Y-82421514D02*
X175279214Y-82457228D01*
X175707785Y-82921514D02*
X175636356Y-82885800D01*
X175636356Y-82885800D02*
X175600642Y-82850085D01*
X175600642Y-82850085D02*
X175564928Y-82778657D01*
X175564928Y-82778657D02*
X175564928Y-82564371D01*
X175564928Y-82564371D02*
X175600642Y-82492942D01*
X175600642Y-82492942D02*
X175636356Y-82457228D01*
X175636356Y-82457228D02*
X175707785Y-82421514D01*
X175707785Y-82421514D02*
X175814928Y-82421514D01*
X175814928Y-82421514D02*
X175886356Y-82457228D01*
X175886356Y-82457228D02*
X175922071Y-82492942D01*
X175922071Y-82492942D02*
X175957785Y-82564371D01*
X175957785Y-82564371D02*
X175957785Y-82778657D01*
X175957785Y-82778657D02*
X175922071Y-82850085D01*
X175922071Y-82850085D02*
X175886356Y-82885800D01*
X175886356Y-82885800D02*
X175814928Y-82921514D01*
X175814928Y-82921514D02*
X175707785Y-82921514D01*
X176279213Y-82921514D02*
X176279213Y-82421514D01*
X176279213Y-82492942D02*
X176314927Y-82457228D01*
X176314927Y-82457228D02*
X176386356Y-82421514D01*
X176386356Y-82421514D02*
X176493499Y-82421514D01*
X176493499Y-82421514D02*
X176564927Y-82457228D01*
X176564927Y-82457228D02*
X176600642Y-82528657D01*
X176600642Y-82528657D02*
X176600642Y-82921514D01*
X176600642Y-82528657D02*
X176636356Y-82457228D01*
X176636356Y-82457228D02*
X176707784Y-82421514D01*
X176707784Y-82421514D02*
X176814927Y-82421514D01*
X176814927Y-82421514D02*
X176886356Y-82457228D01*
X176886356Y-82457228D02*
X176922070Y-82528657D01*
X176922070Y-82528657D02*
X176922070Y-82921514D01*
X177814927Y-82135800D02*
X177172070Y-83100085D01*
X177993498Y-82421514D02*
X178172070Y-82921514D01*
X178350641Y-82421514D02*
X178172070Y-82921514D01*
X178172070Y-82921514D02*
X178100641Y-83100085D01*
X178100641Y-83100085D02*
X178064927Y-83135800D01*
X178064927Y-83135800D02*
X177993498Y-83171514D01*
X178957785Y-82421514D02*
X178957785Y-82921514D01*
X178636356Y-82421514D02*
X178636356Y-82814371D01*
X178636356Y-82814371D02*
X178672070Y-82885800D01*
X178672070Y-82885800D02*
X178743499Y-82921514D01*
X178743499Y-82921514D02*
X178850642Y-82921514D01*
X178850642Y-82921514D02*
X178922070Y-82885800D01*
X178922070Y-82885800D02*
X178957785Y-82850085D01*
X179314927Y-82921514D02*
X179314927Y-82421514D01*
X179314927Y-82492942D02*
X179350641Y-82457228D01*
X179350641Y-82457228D02*
X179422070Y-82421514D01*
X179422070Y-82421514D02*
X179529213Y-82421514D01*
X179529213Y-82421514D02*
X179600641Y-82457228D01*
X179600641Y-82457228D02*
X179636356Y-82528657D01*
X179636356Y-82528657D02*
X179636356Y-82921514D01*
X179636356Y-82528657D02*
X179672070Y-82457228D01*
X179672070Y-82457228D02*
X179743498Y-82421514D01*
X179743498Y-82421514D02*
X179850641Y-82421514D01*
X179850641Y-82421514D02*
X179922070Y-82457228D01*
X179922070Y-82457228D02*
X179957784Y-82528657D01*
X179957784Y-82528657D02*
X179957784Y-82921514D01*
X180600641Y-82885800D02*
X180529213Y-82921514D01*
X180529213Y-82921514D02*
X180386356Y-82921514D01*
X180386356Y-82921514D02*
X180314927Y-82885800D01*
X180314927Y-82885800D02*
X180279213Y-82814371D01*
X180279213Y-82814371D02*
X180279213Y-82528657D01*
X180279213Y-82528657D02*
X180314927Y-82457228D01*
X180314927Y-82457228D02*
X180386356Y-82421514D01*
X180386356Y-82421514D02*
X180529213Y-82421514D01*
X180529213Y-82421514D02*
X180600641Y-82457228D01*
X180600641Y-82457228D02*
X180636356Y-82528657D01*
X180636356Y-82528657D02*
X180636356Y-82600085D01*
X180636356Y-82600085D02*
X180279213Y-82671514D01*
X180886355Y-82421514D02*
X181064927Y-82921514D01*
X181243498Y-82421514D02*
X181064927Y-82921514D01*
X181064927Y-82921514D02*
X180993498Y-83100085D01*
X180993498Y-83100085D02*
X180957784Y-83135800D01*
X180957784Y-83135800D02*
X180886355Y-83171514D01*
X181850642Y-82421514D02*
X181850642Y-82921514D01*
X181529213Y-82421514D02*
X181529213Y-82814371D01*
X181529213Y-82814371D02*
X181564927Y-82885800D01*
X181564927Y-82885800D02*
X181636356Y-82921514D01*
X181636356Y-82921514D02*
X181743499Y-82921514D01*
X181743499Y-82921514D02*
X181814927Y-82885800D01*
X181814927Y-82885800D02*
X181850642Y-82850085D01*
X182529213Y-82421514D02*
X182529213Y-82921514D01*
X182207784Y-82421514D02*
X182207784Y-82814371D01*
X182207784Y-82814371D02*
X182243498Y-82885800D01*
X182243498Y-82885800D02*
X182314927Y-82921514D01*
X182314927Y-82921514D02*
X182422070Y-82921514D01*
X182422070Y-82921514D02*
X182493498Y-82885800D01*
X182493498Y-82885800D02*
X182529213Y-82850085D01*
X183422069Y-82135800D02*
X182779212Y-83100085D01*
X184100640Y-82850085D02*
X184064926Y-82885800D01*
X184064926Y-82885800D02*
X183957783Y-82921514D01*
X183957783Y-82921514D02*
X183886355Y-82921514D01*
X183886355Y-82921514D02*
X183779212Y-82885800D01*
X183779212Y-82885800D02*
X183707783Y-82814371D01*
X183707783Y-82814371D02*
X183672069Y-82742942D01*
X183672069Y-82742942D02*
X183636355Y-82600085D01*
X183636355Y-82600085D02*
X183636355Y-82492942D01*
X183636355Y-82492942D02*
X183672069Y-82350085D01*
X183672069Y-82350085D02*
X183707783Y-82278657D01*
X183707783Y-82278657D02*
X183779212Y-82207228D01*
X183779212Y-82207228D02*
X183886355Y-82171514D01*
X183886355Y-82171514D02*
X183957783Y-82171514D01*
X183957783Y-82171514D02*
X184064926Y-82207228D01*
X184064926Y-82207228D02*
X184100640Y-82242942D01*
X184422069Y-82921514D02*
X184422069Y-82171514D01*
X184422069Y-82528657D02*
X184850640Y-82528657D01*
X184850640Y-82921514D02*
X184850640Y-82171514D01*
X185600640Y-82921514D02*
X185172069Y-82921514D01*
X185386354Y-82921514D02*
X185386354Y-82171514D01*
X185386354Y-82171514D02*
X185314926Y-82278657D01*
X185314926Y-82278657D02*
X185243497Y-82350085D01*
X185243497Y-82350085D02*
X185172069Y-82385800D01*
X185850640Y-82171514D02*
X186350640Y-82171514D01*
X186350640Y-82171514D02*
X186029212Y-82921514D01*
X186779212Y-82171514D02*
X186850641Y-82171514D01*
X186850641Y-82171514D02*
X186922069Y-82207228D01*
X186922069Y-82207228D02*
X186957784Y-82242942D01*
X186957784Y-82242942D02*
X186993498Y-82314371D01*
X186993498Y-82314371D02*
X187029212Y-82457228D01*
X187029212Y-82457228D02*
X187029212Y-82635800D01*
X187029212Y-82635800D02*
X186993498Y-82778657D01*
X186993498Y-82778657D02*
X186957784Y-82850085D01*
X186957784Y-82850085D02*
X186922069Y-82885800D01*
X186922069Y-82885800D02*
X186850641Y-82921514D01*
X186850641Y-82921514D02*
X186779212Y-82921514D01*
X186779212Y-82921514D02*
X186707784Y-82885800D01*
X186707784Y-82885800D02*
X186672069Y-82850085D01*
X186672069Y-82850085D02*
X186636355Y-82778657D01*
X186636355Y-82778657D02*
X186600641Y-82635800D01*
X186600641Y-82635800D02*
X186600641Y-82457228D01*
X186600641Y-82457228D02*
X186636355Y-82314371D01*
X186636355Y-82314371D02*
X186672069Y-82242942D01*
X186672069Y-82242942D02*
X186707784Y-82207228D01*
X186707784Y-82207228D02*
X186779212Y-82171514D01*
X187172070Y-82992942D02*
X187743498Y-82992942D01*
X188172070Y-82528657D02*
X187922070Y-82528657D01*
X187922070Y-82921514D02*
X187922070Y-82171514D01*
X187922070Y-82171514D02*
X188279213Y-82171514D01*
X188564927Y-82921514D02*
X188564927Y-82421514D01*
X188564927Y-82564371D02*
X188600641Y-82492942D01*
X188600641Y-82492942D02*
X188636356Y-82457228D01*
X188636356Y-82457228D02*
X188707784Y-82421514D01*
X188707784Y-82421514D02*
X188779213Y-82421514D01*
X189136356Y-82921514D02*
X189064927Y-82885800D01*
X189064927Y-82885800D02*
X189029213Y-82850085D01*
X189029213Y-82850085D02*
X188993499Y-82778657D01*
X188993499Y-82778657D02*
X188993499Y-82564371D01*
X188993499Y-82564371D02*
X189029213Y-82492942D01*
X189029213Y-82492942D02*
X189064927Y-82457228D01*
X189064927Y-82457228D02*
X189136356Y-82421514D01*
X189136356Y-82421514D02*
X189243499Y-82421514D01*
X189243499Y-82421514D02*
X189314927Y-82457228D01*
X189314927Y-82457228D02*
X189350642Y-82492942D01*
X189350642Y-82492942D02*
X189386356Y-82564371D01*
X189386356Y-82564371D02*
X189386356Y-82778657D01*
X189386356Y-82778657D02*
X189350642Y-82850085D01*
X189350642Y-82850085D02*
X189314927Y-82885800D01*
X189314927Y-82885800D02*
X189243499Y-82921514D01*
X189243499Y-82921514D02*
X189136356Y-82921514D01*
X189707784Y-82421514D02*
X189707784Y-82921514D01*
X189707784Y-82492942D02*
X189743498Y-82457228D01*
X189743498Y-82457228D02*
X189814927Y-82421514D01*
X189814927Y-82421514D02*
X189922070Y-82421514D01*
X189922070Y-82421514D02*
X189993498Y-82457228D01*
X189993498Y-82457228D02*
X190029213Y-82528657D01*
X190029213Y-82528657D02*
X190029213Y-82921514D01*
X190279212Y-82421514D02*
X190564926Y-82421514D01*
X190386355Y-82171514D02*
X190386355Y-82814371D01*
X190386355Y-82814371D02*
X190422069Y-82885800D01*
X190422069Y-82885800D02*
X190493498Y-82921514D01*
X190493498Y-82921514D02*
X190564926Y-82921514D01*
X190814926Y-82921514D02*
X190814926Y-82171514D01*
X190814926Y-82171514D02*
X191100640Y-82171514D01*
X191100640Y-82171514D02*
X191172069Y-82207228D01*
X191172069Y-82207228D02*
X191207783Y-82242942D01*
X191207783Y-82242942D02*
X191243497Y-82314371D01*
X191243497Y-82314371D02*
X191243497Y-82421514D01*
X191243497Y-82421514D02*
X191207783Y-82492942D01*
X191207783Y-82492942D02*
X191172069Y-82528657D01*
X191172069Y-82528657D02*
X191100640Y-82564371D01*
X191100640Y-82564371D02*
X190814926Y-82564371D01*
X191886355Y-82921514D02*
X191886355Y-82528657D01*
X191886355Y-82528657D02*
X191850640Y-82457228D01*
X191850640Y-82457228D02*
X191779212Y-82421514D01*
X191779212Y-82421514D02*
X191636355Y-82421514D01*
X191636355Y-82421514D02*
X191564926Y-82457228D01*
X191886355Y-82885800D02*
X191814926Y-82921514D01*
X191814926Y-82921514D02*
X191636355Y-82921514D01*
X191636355Y-82921514D02*
X191564926Y-82885800D01*
X191564926Y-82885800D02*
X191529212Y-82814371D01*
X191529212Y-82814371D02*
X191529212Y-82742942D01*
X191529212Y-82742942D02*
X191564926Y-82671514D01*
X191564926Y-82671514D02*
X191636355Y-82635800D01*
X191636355Y-82635800D02*
X191814926Y-82635800D01*
X191814926Y-82635800D02*
X191886355Y-82600085D01*
X192243497Y-82421514D02*
X192243497Y-82921514D01*
X192243497Y-82492942D02*
X192279211Y-82457228D01*
X192279211Y-82457228D02*
X192350640Y-82421514D01*
X192350640Y-82421514D02*
X192457783Y-82421514D01*
X192457783Y-82421514D02*
X192529211Y-82457228D01*
X192529211Y-82457228D02*
X192564926Y-82528657D01*
X192564926Y-82528657D02*
X192564926Y-82921514D01*
X193207782Y-82885800D02*
X193136354Y-82921514D01*
X193136354Y-82921514D02*
X192993497Y-82921514D01*
X192993497Y-82921514D02*
X192922068Y-82885800D01*
X192922068Y-82885800D02*
X192886354Y-82814371D01*
X192886354Y-82814371D02*
X192886354Y-82528657D01*
X192886354Y-82528657D02*
X192922068Y-82457228D01*
X192922068Y-82457228D02*
X192993497Y-82421514D01*
X192993497Y-82421514D02*
X193136354Y-82421514D01*
X193136354Y-82421514D02*
X193207782Y-82457228D01*
X193207782Y-82457228D02*
X193243497Y-82528657D01*
X193243497Y-82528657D02*
X193243497Y-82600085D01*
X193243497Y-82600085D02*
X192886354Y-82671514D01*
X193672068Y-82921514D02*
X193600639Y-82885800D01*
X193600639Y-82885800D02*
X193564925Y-82814371D01*
X193564925Y-82814371D02*
X193564925Y-82171514D01*
D14*
X109329331Y-83309119D02*
X109329331Y-82309119D01*
X109329331Y-82309119D02*
X109567426Y-82309119D01*
X109567426Y-82309119D02*
X109710283Y-82356738D01*
X109710283Y-82356738D02*
X109805521Y-82451976D01*
X109805521Y-82451976D02*
X109853140Y-82547214D01*
X109853140Y-82547214D02*
X109900759Y-82737690D01*
X109900759Y-82737690D02*
X109900759Y-82880547D01*
X109900759Y-82880547D02*
X109853140Y-83071023D01*
X109853140Y-83071023D02*
X109805521Y-83166261D01*
X109805521Y-83166261D02*
X109710283Y-83261500D01*
X109710283Y-83261500D02*
X109567426Y-83309119D01*
X109567426Y-83309119D02*
X109329331Y-83309119D01*
X110710283Y-83261500D02*
X110615045Y-83309119D01*
X110615045Y-83309119D02*
X110424569Y-83309119D01*
X110424569Y-83309119D02*
X110329331Y-83261500D01*
X110329331Y-83261500D02*
X110281712Y-83166261D01*
X110281712Y-83166261D02*
X110281712Y-82785309D01*
X110281712Y-82785309D02*
X110329331Y-82690071D01*
X110329331Y-82690071D02*
X110424569Y-82642452D01*
X110424569Y-82642452D02*
X110615045Y-82642452D01*
X110615045Y-82642452D02*
X110710283Y-82690071D01*
X110710283Y-82690071D02*
X110757902Y-82785309D01*
X110757902Y-82785309D02*
X110757902Y-82880547D01*
X110757902Y-82880547D02*
X110281712Y-82975785D01*
X111567426Y-83261500D02*
X111472188Y-83309119D01*
X111472188Y-83309119D02*
X111281712Y-83309119D01*
X111281712Y-83309119D02*
X111186474Y-83261500D01*
X111186474Y-83261500D02*
X111138855Y-83166261D01*
X111138855Y-83166261D02*
X111138855Y-82785309D01*
X111138855Y-82785309D02*
X111186474Y-82690071D01*
X111186474Y-82690071D02*
X111281712Y-82642452D01*
X111281712Y-82642452D02*
X111472188Y-82642452D01*
X111472188Y-82642452D02*
X111567426Y-82690071D01*
X111567426Y-82690071D02*
X111615045Y-82785309D01*
X111615045Y-82785309D02*
X111615045Y-82880547D01*
X111615045Y-82880547D02*
X111138855Y-82975785D01*
X112043617Y-82642452D02*
X112043617Y-83642452D01*
X112043617Y-82690071D02*
X112138855Y-82642452D01*
X112138855Y-82642452D02*
X112329331Y-82642452D01*
X112329331Y-82642452D02*
X112424569Y-82690071D01*
X112424569Y-82690071D02*
X112472188Y-82737690D01*
X112472188Y-82737690D02*
X112519807Y-82832928D01*
X112519807Y-82832928D02*
X112519807Y-83118642D01*
X112519807Y-83118642D02*
X112472188Y-83213880D01*
X112472188Y-83213880D02*
X112424569Y-83261500D01*
X112424569Y-83261500D02*
X112329331Y-83309119D01*
X112329331Y-83309119D02*
X112138855Y-83309119D01*
X112138855Y-83309119D02*
X112043617Y-83261500D01*
X113376950Y-83261500D02*
X113281712Y-83309119D01*
X113281712Y-83309119D02*
X113091236Y-83309119D01*
X113091236Y-83309119D02*
X112995998Y-83261500D01*
X112995998Y-83261500D02*
X112948379Y-83213880D01*
X112948379Y-83213880D02*
X112900760Y-83118642D01*
X112900760Y-83118642D02*
X112900760Y-82832928D01*
X112900760Y-82832928D02*
X112948379Y-82737690D01*
X112948379Y-82737690D02*
X112995998Y-82690071D01*
X112995998Y-82690071D02*
X113091236Y-82642452D01*
X113091236Y-82642452D02*
X113281712Y-82642452D01*
X113281712Y-82642452D02*
X113376950Y-82690071D01*
X113948379Y-83309119D02*
X113853141Y-83261500D01*
X113853141Y-83261500D02*
X113805522Y-83213880D01*
X113805522Y-83213880D02*
X113757903Y-83118642D01*
X113757903Y-83118642D02*
X113757903Y-82832928D01*
X113757903Y-82832928D02*
X113805522Y-82737690D01*
X113805522Y-82737690D02*
X113853141Y-82690071D01*
X113853141Y-82690071D02*
X113948379Y-82642452D01*
X113948379Y-82642452D02*
X114091236Y-82642452D01*
X114091236Y-82642452D02*
X114186474Y-82690071D01*
X114186474Y-82690071D02*
X114234093Y-82737690D01*
X114234093Y-82737690D02*
X114281712Y-82832928D01*
X114281712Y-82832928D02*
X114281712Y-83118642D01*
X114281712Y-83118642D02*
X114234093Y-83213880D01*
X114234093Y-83213880D02*
X114186474Y-83261500D01*
X114186474Y-83261500D02*
X114091236Y-83309119D01*
X114091236Y-83309119D02*
X113948379Y-83309119D01*
X114853141Y-83309119D02*
X114757903Y-83261500D01*
X114757903Y-83261500D02*
X114710284Y-83213880D01*
X114710284Y-83213880D02*
X114662665Y-83118642D01*
X114662665Y-83118642D02*
X114662665Y-82832928D01*
X114662665Y-82832928D02*
X114710284Y-82737690D01*
X114710284Y-82737690D02*
X114757903Y-82690071D01*
X114757903Y-82690071D02*
X114853141Y-82642452D01*
X114853141Y-82642452D02*
X114995998Y-82642452D01*
X114995998Y-82642452D02*
X115091236Y-82690071D01*
X115091236Y-82690071D02*
X115138855Y-82737690D01*
X115138855Y-82737690D02*
X115186474Y-82832928D01*
X115186474Y-82832928D02*
X115186474Y-83118642D01*
X115186474Y-83118642D02*
X115138855Y-83213880D01*
X115138855Y-83213880D02*
X115091236Y-83261500D01*
X115091236Y-83261500D02*
X114995998Y-83309119D01*
X114995998Y-83309119D02*
X114853141Y-83309119D01*
X115757903Y-83309119D02*
X115662665Y-83261500D01*
X115662665Y-83261500D02*
X115615046Y-83166261D01*
X115615046Y-83166261D02*
X115615046Y-82309119D01*
X117472189Y-83213880D02*
X117424570Y-83261500D01*
X117424570Y-83261500D02*
X117281713Y-83309119D01*
X117281713Y-83309119D02*
X117186475Y-83309119D01*
X117186475Y-83309119D02*
X117043618Y-83261500D01*
X117043618Y-83261500D02*
X116948380Y-83166261D01*
X116948380Y-83166261D02*
X116900761Y-83071023D01*
X116900761Y-83071023D02*
X116853142Y-82880547D01*
X116853142Y-82880547D02*
X116853142Y-82737690D01*
X116853142Y-82737690D02*
X116900761Y-82547214D01*
X116900761Y-82547214D02*
X116948380Y-82451976D01*
X116948380Y-82451976D02*
X117043618Y-82356738D01*
X117043618Y-82356738D02*
X117186475Y-82309119D01*
X117186475Y-82309119D02*
X117281713Y-82309119D01*
X117281713Y-82309119D02*
X117424570Y-82356738D01*
X117424570Y-82356738D02*
X117472189Y-82404357D01*
X117900761Y-83309119D02*
X117900761Y-82309119D01*
X117900761Y-82785309D02*
X118472189Y-82785309D01*
X118472189Y-83309119D02*
X118472189Y-82309119D01*
X119472189Y-83309119D02*
X118900761Y-83309119D01*
X119186475Y-83309119D02*
X119186475Y-82309119D01*
X119186475Y-82309119D02*
X119091237Y-82451976D01*
X119091237Y-82451976D02*
X118995999Y-82547214D01*
X118995999Y-82547214D02*
X118900761Y-82594833D01*
X119805523Y-82309119D02*
X120472189Y-82309119D01*
X120472189Y-82309119D02*
X120043618Y-83309119D01*
X121043618Y-82309119D02*
X121138856Y-82309119D01*
X121138856Y-82309119D02*
X121234094Y-82356738D01*
X121234094Y-82356738D02*
X121281713Y-82404357D01*
X121281713Y-82404357D02*
X121329332Y-82499595D01*
X121329332Y-82499595D02*
X121376951Y-82690071D01*
X121376951Y-82690071D02*
X121376951Y-82928166D01*
X121376951Y-82928166D02*
X121329332Y-83118642D01*
X121329332Y-83118642D02*
X121281713Y-83213880D01*
X121281713Y-83213880D02*
X121234094Y-83261500D01*
X121234094Y-83261500D02*
X121138856Y-83309119D01*
X121138856Y-83309119D02*
X121043618Y-83309119D01*
X121043618Y-83309119D02*
X120948380Y-83261500D01*
X120948380Y-83261500D02*
X120900761Y-83213880D01*
X120900761Y-83213880D02*
X120853142Y-83118642D01*
X120853142Y-83118642D02*
X120805523Y-82928166D01*
X120805523Y-82928166D02*
X120805523Y-82690071D01*
X120805523Y-82690071D02*
X120853142Y-82499595D01*
X120853142Y-82499595D02*
X120900761Y-82404357D01*
X120900761Y-82404357D02*
X120948380Y-82356738D01*
X120948380Y-82356738D02*
X121043618Y-82309119D01*
X109662664Y-84395253D02*
X109329331Y-84395253D01*
X109329331Y-84919063D02*
X109329331Y-83919063D01*
X109329331Y-83919063D02*
X109805521Y-83919063D01*
X110186474Y-84919063D02*
X110186474Y-84252396D01*
X110186474Y-84442872D02*
X110234093Y-84347634D01*
X110234093Y-84347634D02*
X110281712Y-84300015D01*
X110281712Y-84300015D02*
X110376950Y-84252396D01*
X110376950Y-84252396D02*
X110472188Y-84252396D01*
X110948379Y-84919063D02*
X110853141Y-84871444D01*
X110853141Y-84871444D02*
X110805522Y-84823824D01*
X110805522Y-84823824D02*
X110757903Y-84728586D01*
X110757903Y-84728586D02*
X110757903Y-84442872D01*
X110757903Y-84442872D02*
X110805522Y-84347634D01*
X110805522Y-84347634D02*
X110853141Y-84300015D01*
X110853141Y-84300015D02*
X110948379Y-84252396D01*
X110948379Y-84252396D02*
X111091236Y-84252396D01*
X111091236Y-84252396D02*
X111186474Y-84300015D01*
X111186474Y-84300015D02*
X111234093Y-84347634D01*
X111234093Y-84347634D02*
X111281712Y-84442872D01*
X111281712Y-84442872D02*
X111281712Y-84728586D01*
X111281712Y-84728586D02*
X111234093Y-84823824D01*
X111234093Y-84823824D02*
X111186474Y-84871444D01*
X111186474Y-84871444D02*
X111091236Y-84919063D01*
X111091236Y-84919063D02*
X110948379Y-84919063D01*
X111710284Y-84252396D02*
X111710284Y-84919063D01*
X111710284Y-84347634D02*
X111757903Y-84300015D01*
X111757903Y-84300015D02*
X111853141Y-84252396D01*
X111853141Y-84252396D02*
X111995998Y-84252396D01*
X111995998Y-84252396D02*
X112091236Y-84300015D01*
X112091236Y-84300015D02*
X112138855Y-84395253D01*
X112138855Y-84395253D02*
X112138855Y-84919063D01*
X112472189Y-84252396D02*
X112853141Y-84252396D01*
X112615046Y-83919063D02*
X112615046Y-84776205D01*
X112615046Y-84776205D02*
X112662665Y-84871444D01*
X112662665Y-84871444D02*
X112757903Y-84919063D01*
X112757903Y-84919063D02*
X112853141Y-84919063D01*
X113948380Y-84919063D02*
X113948380Y-83919063D01*
X113948380Y-83919063D02*
X114329332Y-83919063D01*
X114329332Y-83919063D02*
X114424570Y-83966682D01*
X114424570Y-83966682D02*
X114472189Y-84014301D01*
X114472189Y-84014301D02*
X114519808Y-84109539D01*
X114519808Y-84109539D02*
X114519808Y-84252396D01*
X114519808Y-84252396D02*
X114472189Y-84347634D01*
X114472189Y-84347634D02*
X114424570Y-84395253D01*
X114424570Y-84395253D02*
X114329332Y-84442872D01*
X114329332Y-84442872D02*
X113948380Y-84442872D01*
X115376951Y-84919063D02*
X115376951Y-84395253D01*
X115376951Y-84395253D02*
X115329332Y-84300015D01*
X115329332Y-84300015D02*
X115234094Y-84252396D01*
X115234094Y-84252396D02*
X115043618Y-84252396D01*
X115043618Y-84252396D02*
X114948380Y-84300015D01*
X115376951Y-84871444D02*
X115281713Y-84919063D01*
X115281713Y-84919063D02*
X115043618Y-84919063D01*
X115043618Y-84919063D02*
X114948380Y-84871444D01*
X114948380Y-84871444D02*
X114900761Y-84776205D01*
X114900761Y-84776205D02*
X114900761Y-84680967D01*
X114900761Y-84680967D02*
X114948380Y-84585729D01*
X114948380Y-84585729D02*
X115043618Y-84538110D01*
X115043618Y-84538110D02*
X115281713Y-84538110D01*
X115281713Y-84538110D02*
X115376951Y-84490491D01*
X115853142Y-84252396D02*
X115853142Y-84919063D01*
X115853142Y-84347634D02*
X115900761Y-84300015D01*
X115900761Y-84300015D02*
X115995999Y-84252396D01*
X115995999Y-84252396D02*
X116138856Y-84252396D01*
X116138856Y-84252396D02*
X116234094Y-84300015D01*
X116234094Y-84300015D02*
X116281713Y-84395253D01*
X116281713Y-84395253D02*
X116281713Y-84919063D01*
X117138856Y-84871444D02*
X117043618Y-84919063D01*
X117043618Y-84919063D02*
X116853142Y-84919063D01*
X116853142Y-84919063D02*
X116757904Y-84871444D01*
X116757904Y-84871444D02*
X116710285Y-84776205D01*
X116710285Y-84776205D02*
X116710285Y-84395253D01*
X116710285Y-84395253D02*
X116757904Y-84300015D01*
X116757904Y-84300015D02*
X116853142Y-84252396D01*
X116853142Y-84252396D02*
X117043618Y-84252396D01*
X117043618Y-84252396D02*
X117138856Y-84300015D01*
X117138856Y-84300015D02*
X117186475Y-84395253D01*
X117186475Y-84395253D02*
X117186475Y-84490491D01*
X117186475Y-84490491D02*
X116710285Y-84585729D01*
X117757904Y-84919063D02*
X117662666Y-84871444D01*
X117662666Y-84871444D02*
X117615047Y-84776205D01*
X117615047Y-84776205D02*
X117615047Y-83919063D01*
X119472190Y-84823824D02*
X119424571Y-84871444D01*
X119424571Y-84871444D02*
X119281714Y-84919063D01*
X119281714Y-84919063D02*
X119186476Y-84919063D01*
X119186476Y-84919063D02*
X119043619Y-84871444D01*
X119043619Y-84871444D02*
X118948381Y-84776205D01*
X118948381Y-84776205D02*
X118900762Y-84680967D01*
X118900762Y-84680967D02*
X118853143Y-84490491D01*
X118853143Y-84490491D02*
X118853143Y-84347634D01*
X118853143Y-84347634D02*
X118900762Y-84157158D01*
X118900762Y-84157158D02*
X118948381Y-84061920D01*
X118948381Y-84061920D02*
X119043619Y-83966682D01*
X119043619Y-83966682D02*
X119186476Y-83919063D01*
X119186476Y-83919063D02*
X119281714Y-83919063D01*
X119281714Y-83919063D02*
X119424571Y-83966682D01*
X119424571Y-83966682D02*
X119472190Y-84014301D01*
X120329333Y-84252396D02*
X120329333Y-84919063D01*
X119900762Y-84252396D02*
X119900762Y-84776205D01*
X119900762Y-84776205D02*
X119948381Y-84871444D01*
X119948381Y-84871444D02*
X120043619Y-84919063D01*
X120043619Y-84919063D02*
X120186476Y-84919063D01*
X120186476Y-84919063D02*
X120281714Y-84871444D01*
X120281714Y-84871444D02*
X120329333Y-84823824D01*
X120757905Y-84871444D02*
X120853143Y-84919063D01*
X120853143Y-84919063D02*
X121043619Y-84919063D01*
X121043619Y-84919063D02*
X121138857Y-84871444D01*
X121138857Y-84871444D02*
X121186476Y-84776205D01*
X121186476Y-84776205D02*
X121186476Y-84728586D01*
X121186476Y-84728586D02*
X121138857Y-84633348D01*
X121138857Y-84633348D02*
X121043619Y-84585729D01*
X121043619Y-84585729D02*
X120900762Y-84585729D01*
X120900762Y-84585729D02*
X120805524Y-84538110D01*
X120805524Y-84538110D02*
X120757905Y-84442872D01*
X120757905Y-84442872D02*
X120757905Y-84395253D01*
X120757905Y-84395253D02*
X120805524Y-84300015D01*
X120805524Y-84300015D02*
X120900762Y-84252396D01*
X120900762Y-84252396D02*
X121043619Y-84252396D01*
X121043619Y-84252396D02*
X121138857Y-84300015D01*
X121472191Y-84252396D02*
X121853143Y-84252396D01*
X121615048Y-83919063D02*
X121615048Y-84776205D01*
X121615048Y-84776205D02*
X121662667Y-84871444D01*
X121662667Y-84871444D02*
X121757905Y-84919063D01*
X121757905Y-84919063D02*
X121853143Y-84919063D01*
X122329334Y-84919063D02*
X122234096Y-84871444D01*
X122234096Y-84871444D02*
X122186477Y-84823824D01*
X122186477Y-84823824D02*
X122138858Y-84728586D01*
X122138858Y-84728586D02*
X122138858Y-84442872D01*
X122138858Y-84442872D02*
X122186477Y-84347634D01*
X122186477Y-84347634D02*
X122234096Y-84300015D01*
X122234096Y-84300015D02*
X122329334Y-84252396D01*
X122329334Y-84252396D02*
X122472191Y-84252396D01*
X122472191Y-84252396D02*
X122567429Y-84300015D01*
X122567429Y-84300015D02*
X122615048Y-84347634D01*
X122615048Y-84347634D02*
X122662667Y-84442872D01*
X122662667Y-84442872D02*
X122662667Y-84728586D01*
X122662667Y-84728586D02*
X122615048Y-84823824D01*
X122615048Y-84823824D02*
X122567429Y-84871444D01*
X122567429Y-84871444D02*
X122472191Y-84919063D01*
X122472191Y-84919063D02*
X122329334Y-84919063D01*
X123091239Y-84919063D02*
X123091239Y-84252396D01*
X123091239Y-84347634D02*
X123138858Y-84300015D01*
X123138858Y-84300015D02*
X123234096Y-84252396D01*
X123234096Y-84252396D02*
X123376953Y-84252396D01*
X123376953Y-84252396D02*
X123472191Y-84300015D01*
X123472191Y-84300015D02*
X123519810Y-84395253D01*
X123519810Y-84395253D02*
X123519810Y-84919063D01*
X123519810Y-84395253D02*
X123567429Y-84300015D01*
X123567429Y-84300015D02*
X123662667Y-84252396D01*
X123662667Y-84252396D02*
X123805524Y-84252396D01*
X123805524Y-84252396D02*
X123900763Y-84300015D01*
X123900763Y-84300015D02*
X123948382Y-84395253D01*
X123948382Y-84395253D02*
X123948382Y-84919063D01*
X109234093Y-85862340D02*
X109472188Y-86529007D01*
X109472188Y-86529007D02*
X109710283Y-85862340D01*
X111376950Y-86529007D02*
X110805522Y-86529007D01*
X111091236Y-86529007D02*
X111091236Y-85529007D01*
X111091236Y-85529007D02*
X110995998Y-85671864D01*
X110995998Y-85671864D02*
X110900760Y-85767102D01*
X110900760Y-85767102D02*
X110805522Y-85814721D01*
X111805522Y-86433768D02*
X111853141Y-86481388D01*
X111853141Y-86481388D02*
X111805522Y-86529007D01*
X111805522Y-86529007D02*
X111757903Y-86481388D01*
X111757903Y-86481388D02*
X111805522Y-86433768D01*
X111805522Y-86433768D02*
X111805522Y-86529007D01*
X112472188Y-85529007D02*
X112567426Y-85529007D01*
X112567426Y-85529007D02*
X112662664Y-85576626D01*
X112662664Y-85576626D02*
X112710283Y-85624245D01*
X112710283Y-85624245D02*
X112757902Y-85719483D01*
X112757902Y-85719483D02*
X112805521Y-85909959D01*
X112805521Y-85909959D02*
X112805521Y-86148054D01*
X112805521Y-86148054D02*
X112757902Y-86338530D01*
X112757902Y-86338530D02*
X112710283Y-86433768D01*
X112710283Y-86433768D02*
X112662664Y-86481388D01*
X112662664Y-86481388D02*
X112567426Y-86529007D01*
X112567426Y-86529007D02*
X112472188Y-86529007D01*
X112472188Y-86529007D02*
X112376950Y-86481388D01*
X112376950Y-86481388D02*
X112329331Y-86433768D01*
X112329331Y-86433768D02*
X112281712Y-86338530D01*
X112281712Y-86338530D02*
X112234093Y-86148054D01*
X112234093Y-86148054D02*
X112234093Y-85909959D01*
X112234093Y-85909959D02*
X112281712Y-85719483D01*
X112281712Y-85719483D02*
X112329331Y-85624245D01*
X112329331Y-85624245D02*
X112376950Y-85576626D01*
X112376950Y-85576626D02*
X112472188Y-85529007D01*
X141004571Y-92427595D02*
X141004571Y-91627595D01*
X141004571Y-92008547D02*
X141461714Y-92008547D01*
X141461714Y-92427595D02*
X141461714Y-91627595D01*
X142261713Y-92427595D02*
X141804570Y-92427595D01*
X142033142Y-92427595D02*
X142033142Y-91627595D01*
X142033142Y-91627595D02*
X141956951Y-91741880D01*
X141956951Y-91741880D02*
X141880761Y-91818071D01*
X141880761Y-91818071D02*
X141804570Y-91856166D01*
X142756952Y-91627595D02*
X142833142Y-91627595D01*
X142833142Y-91627595D02*
X142909333Y-91665690D01*
X142909333Y-91665690D02*
X142947428Y-91703785D01*
X142947428Y-91703785D02*
X142985523Y-91779976D01*
X142985523Y-91779976D02*
X143023618Y-91932357D01*
X143023618Y-91932357D02*
X143023618Y-92122833D01*
X143023618Y-92122833D02*
X142985523Y-92275214D01*
X142985523Y-92275214D02*
X142947428Y-92351404D01*
X142947428Y-92351404D02*
X142909333Y-92389500D01*
X142909333Y-92389500D02*
X142833142Y-92427595D01*
X142833142Y-92427595D02*
X142756952Y-92427595D01*
X142756952Y-92427595D02*
X142680761Y-92389500D01*
X142680761Y-92389500D02*
X142642666Y-92351404D01*
X142642666Y-92351404D02*
X142604571Y-92275214D01*
X142604571Y-92275214D02*
X142566475Y-92122833D01*
X142566475Y-92122833D02*
X142566475Y-91932357D01*
X142566475Y-91932357D02*
X142604571Y-91779976D01*
X142604571Y-91779976D02*
X142642666Y-91703785D01*
X142642666Y-91703785D02*
X142680761Y-91665690D01*
X142680761Y-91665690D02*
X142756952Y-91627595D01*
X143290285Y-91627595D02*
X143785523Y-91627595D01*
X143785523Y-91627595D02*
X143518857Y-91932357D01*
X143518857Y-91932357D02*
X143633142Y-91932357D01*
X143633142Y-91932357D02*
X143709333Y-91970452D01*
X143709333Y-91970452D02*
X143747428Y-92008547D01*
X143747428Y-92008547D02*
X143785523Y-92084738D01*
X143785523Y-92084738D02*
X143785523Y-92275214D01*
X143785523Y-92275214D02*
X143747428Y-92351404D01*
X143747428Y-92351404D02*
X143709333Y-92389500D01*
X143709333Y-92389500D02*
X143633142Y-92427595D01*
X143633142Y-92427595D02*
X143404571Y-92427595D01*
X143404571Y-92427595D02*
X143328380Y-92389500D01*
X143328380Y-92389500D02*
X143290285Y-92351404D01*
X147970571Y-82899595D02*
X147970571Y-82099595D01*
X147970571Y-82480547D02*
X148427714Y-82480547D01*
X148427714Y-82899595D02*
X148427714Y-82099595D01*
X149227713Y-82899595D02*
X148770570Y-82899595D01*
X148999142Y-82899595D02*
X148999142Y-82099595D01*
X148999142Y-82099595D02*
X148922951Y-82213880D01*
X148922951Y-82213880D02*
X148846761Y-82290071D01*
X148846761Y-82290071D02*
X148770570Y-82328166D01*
X149722952Y-82099595D02*
X149799142Y-82099595D01*
X149799142Y-82099595D02*
X149875333Y-82137690D01*
X149875333Y-82137690D02*
X149913428Y-82175785D01*
X149913428Y-82175785D02*
X149951523Y-82251976D01*
X149951523Y-82251976D02*
X149989618Y-82404357D01*
X149989618Y-82404357D02*
X149989618Y-82594833D01*
X149989618Y-82594833D02*
X149951523Y-82747214D01*
X149951523Y-82747214D02*
X149913428Y-82823404D01*
X149913428Y-82823404D02*
X149875333Y-82861500D01*
X149875333Y-82861500D02*
X149799142Y-82899595D01*
X149799142Y-82899595D02*
X149722952Y-82899595D01*
X149722952Y-82899595D02*
X149646761Y-82861500D01*
X149646761Y-82861500D02*
X149608666Y-82823404D01*
X149608666Y-82823404D02*
X149570571Y-82747214D01*
X149570571Y-82747214D02*
X149532475Y-82594833D01*
X149532475Y-82594833D02*
X149532475Y-82404357D01*
X149532475Y-82404357D02*
X149570571Y-82251976D01*
X149570571Y-82251976D02*
X149608666Y-82175785D01*
X149608666Y-82175785D02*
X149646761Y-82137690D01*
X149646761Y-82137690D02*
X149722952Y-82099595D01*
X150713428Y-82099595D02*
X150332476Y-82099595D01*
X150332476Y-82099595D02*
X150294380Y-82480547D01*
X150294380Y-82480547D02*
X150332476Y-82442452D01*
X150332476Y-82442452D02*
X150408666Y-82404357D01*
X150408666Y-82404357D02*
X150599142Y-82404357D01*
X150599142Y-82404357D02*
X150675333Y-82442452D01*
X150675333Y-82442452D02*
X150713428Y-82480547D01*
X150713428Y-82480547D02*
X150751523Y-82556738D01*
X150751523Y-82556738D02*
X150751523Y-82747214D01*
X150751523Y-82747214D02*
X150713428Y-82823404D01*
X150713428Y-82823404D02*
X150675333Y-82861500D01*
X150675333Y-82861500D02*
X150599142Y-82899595D01*
X150599142Y-82899595D02*
X150408666Y-82899595D01*
X150408666Y-82899595D02*
X150332476Y-82861500D01*
X150332476Y-82861500D02*
X150294380Y-82823404D01*
X109054571Y-101327595D02*
X109054571Y-100527595D01*
X109054571Y-100908547D02*
X109511714Y-100908547D01*
X109511714Y-101327595D02*
X109511714Y-100527595D01*
X110311713Y-101327595D02*
X109854570Y-101327595D01*
X110083142Y-101327595D02*
X110083142Y-100527595D01*
X110083142Y-100527595D02*
X110006951Y-100641880D01*
X110006951Y-100641880D02*
X109930761Y-100718071D01*
X109930761Y-100718071D02*
X109854570Y-100756166D01*
X110806952Y-100527595D02*
X110883142Y-100527595D01*
X110883142Y-100527595D02*
X110959333Y-100565690D01*
X110959333Y-100565690D02*
X110997428Y-100603785D01*
X110997428Y-100603785D02*
X111035523Y-100679976D01*
X111035523Y-100679976D02*
X111073618Y-100832357D01*
X111073618Y-100832357D02*
X111073618Y-101022833D01*
X111073618Y-101022833D02*
X111035523Y-101175214D01*
X111035523Y-101175214D02*
X110997428Y-101251404D01*
X110997428Y-101251404D02*
X110959333Y-101289500D01*
X110959333Y-101289500D02*
X110883142Y-101327595D01*
X110883142Y-101327595D02*
X110806952Y-101327595D01*
X110806952Y-101327595D02*
X110730761Y-101289500D01*
X110730761Y-101289500D02*
X110692666Y-101251404D01*
X110692666Y-101251404D02*
X110654571Y-101175214D01*
X110654571Y-101175214D02*
X110616475Y-101022833D01*
X110616475Y-101022833D02*
X110616475Y-100832357D01*
X110616475Y-100832357D02*
X110654571Y-100679976D01*
X110654571Y-100679976D02*
X110692666Y-100603785D01*
X110692666Y-100603785D02*
X110730761Y-100565690D01*
X110730761Y-100565690D02*
X110806952Y-100527595D01*
X111378380Y-100603785D02*
X111416476Y-100565690D01*
X111416476Y-100565690D02*
X111492666Y-100527595D01*
X111492666Y-100527595D02*
X111683142Y-100527595D01*
X111683142Y-100527595D02*
X111759333Y-100565690D01*
X111759333Y-100565690D02*
X111797428Y-100603785D01*
X111797428Y-100603785D02*
X111835523Y-100679976D01*
X111835523Y-100679976D02*
X111835523Y-100756166D01*
X111835523Y-100756166D02*
X111797428Y-100870452D01*
X111797428Y-100870452D02*
X111340285Y-101327595D01*
X111340285Y-101327595D02*
X111835523Y-101327595D01*
X191054571Y-95927595D02*
X191054571Y-95127595D01*
X191054571Y-95508547D02*
X191511714Y-95508547D01*
X191511714Y-95927595D02*
X191511714Y-95127595D01*
X192311713Y-95927595D02*
X191854570Y-95927595D01*
X192083142Y-95927595D02*
X192083142Y-95127595D01*
X192083142Y-95127595D02*
X192006951Y-95241880D01*
X192006951Y-95241880D02*
X191930761Y-95318071D01*
X191930761Y-95318071D02*
X191854570Y-95356166D01*
X192806952Y-95127595D02*
X192883142Y-95127595D01*
X192883142Y-95127595D02*
X192959333Y-95165690D01*
X192959333Y-95165690D02*
X192997428Y-95203785D01*
X192997428Y-95203785D02*
X193035523Y-95279976D01*
X193035523Y-95279976D02*
X193073618Y-95432357D01*
X193073618Y-95432357D02*
X193073618Y-95622833D01*
X193073618Y-95622833D02*
X193035523Y-95775214D01*
X193035523Y-95775214D02*
X192997428Y-95851404D01*
X192997428Y-95851404D02*
X192959333Y-95889500D01*
X192959333Y-95889500D02*
X192883142Y-95927595D01*
X192883142Y-95927595D02*
X192806952Y-95927595D01*
X192806952Y-95927595D02*
X192730761Y-95889500D01*
X192730761Y-95889500D02*
X192692666Y-95851404D01*
X192692666Y-95851404D02*
X192654571Y-95775214D01*
X192654571Y-95775214D02*
X192616475Y-95622833D01*
X192616475Y-95622833D02*
X192616475Y-95432357D01*
X192616475Y-95432357D02*
X192654571Y-95279976D01*
X192654571Y-95279976D02*
X192692666Y-95203785D01*
X192692666Y-95203785D02*
X192730761Y-95165690D01*
X192730761Y-95165690D02*
X192806952Y-95127595D01*
X193340285Y-95127595D02*
X193873619Y-95127595D01*
X193873619Y-95127595D02*
X193530761Y-95927595D01*
X133970571Y-82899595D02*
X133970571Y-82099595D01*
X133970571Y-82480547D02*
X134427714Y-82480547D01*
X134427714Y-82899595D02*
X134427714Y-82099595D01*
X135227713Y-82899595D02*
X134770570Y-82899595D01*
X134999142Y-82899595D02*
X134999142Y-82099595D01*
X134999142Y-82099595D02*
X134922951Y-82213880D01*
X134922951Y-82213880D02*
X134846761Y-82290071D01*
X134846761Y-82290071D02*
X134770570Y-82328166D01*
X135722952Y-82099595D02*
X135799142Y-82099595D01*
X135799142Y-82099595D02*
X135875333Y-82137690D01*
X135875333Y-82137690D02*
X135913428Y-82175785D01*
X135913428Y-82175785D02*
X135951523Y-82251976D01*
X135951523Y-82251976D02*
X135989618Y-82404357D01*
X135989618Y-82404357D02*
X135989618Y-82594833D01*
X135989618Y-82594833D02*
X135951523Y-82747214D01*
X135951523Y-82747214D02*
X135913428Y-82823404D01*
X135913428Y-82823404D02*
X135875333Y-82861500D01*
X135875333Y-82861500D02*
X135799142Y-82899595D01*
X135799142Y-82899595D02*
X135722952Y-82899595D01*
X135722952Y-82899595D02*
X135646761Y-82861500D01*
X135646761Y-82861500D02*
X135608666Y-82823404D01*
X135608666Y-82823404D02*
X135570571Y-82747214D01*
X135570571Y-82747214D02*
X135532475Y-82594833D01*
X135532475Y-82594833D02*
X135532475Y-82404357D01*
X135532475Y-82404357D02*
X135570571Y-82251976D01*
X135570571Y-82251976D02*
X135608666Y-82175785D01*
X135608666Y-82175785D02*
X135646761Y-82137690D01*
X135646761Y-82137690D02*
X135722952Y-82099595D01*
X136675333Y-82366261D02*
X136675333Y-82899595D01*
X136484857Y-82061500D02*
X136294380Y-82632928D01*
X136294380Y-82632928D02*
X136789619Y-82632928D01*
X191054571Y-101327595D02*
X191054571Y-100527595D01*
X191054571Y-100908547D02*
X191511714Y-100908547D01*
X191511714Y-101327595D02*
X191511714Y-100527595D01*
X192311713Y-101327595D02*
X191854570Y-101327595D01*
X192083142Y-101327595D02*
X192083142Y-100527595D01*
X192083142Y-100527595D02*
X192006951Y-100641880D01*
X192006951Y-100641880D02*
X191930761Y-100718071D01*
X191930761Y-100718071D02*
X191854570Y-100756166D01*
X192806952Y-100527595D02*
X192883142Y-100527595D01*
X192883142Y-100527595D02*
X192959333Y-100565690D01*
X192959333Y-100565690D02*
X192997428Y-100603785D01*
X192997428Y-100603785D02*
X193035523Y-100679976D01*
X193035523Y-100679976D02*
X193073618Y-100832357D01*
X193073618Y-100832357D02*
X193073618Y-101022833D01*
X193073618Y-101022833D02*
X193035523Y-101175214D01*
X193035523Y-101175214D02*
X192997428Y-101251404D01*
X192997428Y-101251404D02*
X192959333Y-101289500D01*
X192959333Y-101289500D02*
X192883142Y-101327595D01*
X192883142Y-101327595D02*
X192806952Y-101327595D01*
X192806952Y-101327595D02*
X192730761Y-101289500D01*
X192730761Y-101289500D02*
X192692666Y-101251404D01*
X192692666Y-101251404D02*
X192654571Y-101175214D01*
X192654571Y-101175214D02*
X192616475Y-101022833D01*
X192616475Y-101022833D02*
X192616475Y-100832357D01*
X192616475Y-100832357D02*
X192654571Y-100679976D01*
X192654571Y-100679976D02*
X192692666Y-100603785D01*
X192692666Y-100603785D02*
X192730761Y-100565690D01*
X192730761Y-100565690D02*
X192806952Y-100527595D01*
X193530761Y-100870452D02*
X193454571Y-100832357D01*
X193454571Y-100832357D02*
X193416476Y-100794261D01*
X193416476Y-100794261D02*
X193378380Y-100718071D01*
X193378380Y-100718071D02*
X193378380Y-100679976D01*
X193378380Y-100679976D02*
X193416476Y-100603785D01*
X193416476Y-100603785D02*
X193454571Y-100565690D01*
X193454571Y-100565690D02*
X193530761Y-100527595D01*
X193530761Y-100527595D02*
X193683142Y-100527595D01*
X193683142Y-100527595D02*
X193759333Y-100565690D01*
X193759333Y-100565690D02*
X193797428Y-100603785D01*
X193797428Y-100603785D02*
X193835523Y-100679976D01*
X193835523Y-100679976D02*
X193835523Y-100718071D01*
X193835523Y-100718071D02*
X193797428Y-100794261D01*
X193797428Y-100794261D02*
X193759333Y-100832357D01*
X193759333Y-100832357D02*
X193683142Y-100870452D01*
X193683142Y-100870452D02*
X193530761Y-100870452D01*
X193530761Y-100870452D02*
X193454571Y-100908547D01*
X193454571Y-100908547D02*
X193416476Y-100946642D01*
X193416476Y-100946642D02*
X193378380Y-101022833D01*
X193378380Y-101022833D02*
X193378380Y-101175214D01*
X193378380Y-101175214D02*
X193416476Y-101251404D01*
X193416476Y-101251404D02*
X193454571Y-101289500D01*
X193454571Y-101289500D02*
X193530761Y-101327595D01*
X193530761Y-101327595D02*
X193683142Y-101327595D01*
X193683142Y-101327595D02*
X193759333Y-101289500D01*
X193759333Y-101289500D02*
X193797428Y-101251404D01*
X193797428Y-101251404D02*
X193835523Y-101175214D01*
X193835523Y-101175214D02*
X193835523Y-101022833D01*
X193835523Y-101022833D02*
X193797428Y-100946642D01*
X193797428Y-100946642D02*
X193759333Y-100908547D01*
X193759333Y-100908547D02*
X193683142Y-100870452D01*
X161970571Y-82899595D02*
X161970571Y-82099595D01*
X161970571Y-82480547D02*
X162427714Y-82480547D01*
X162427714Y-82899595D02*
X162427714Y-82099595D01*
X163227713Y-82899595D02*
X162770570Y-82899595D01*
X162999142Y-82899595D02*
X162999142Y-82099595D01*
X162999142Y-82099595D02*
X162922951Y-82213880D01*
X162922951Y-82213880D02*
X162846761Y-82290071D01*
X162846761Y-82290071D02*
X162770570Y-82328166D01*
X163722952Y-82099595D02*
X163799142Y-82099595D01*
X163799142Y-82099595D02*
X163875333Y-82137690D01*
X163875333Y-82137690D02*
X163913428Y-82175785D01*
X163913428Y-82175785D02*
X163951523Y-82251976D01*
X163951523Y-82251976D02*
X163989618Y-82404357D01*
X163989618Y-82404357D02*
X163989618Y-82594833D01*
X163989618Y-82594833D02*
X163951523Y-82747214D01*
X163951523Y-82747214D02*
X163913428Y-82823404D01*
X163913428Y-82823404D02*
X163875333Y-82861500D01*
X163875333Y-82861500D02*
X163799142Y-82899595D01*
X163799142Y-82899595D02*
X163722952Y-82899595D01*
X163722952Y-82899595D02*
X163646761Y-82861500D01*
X163646761Y-82861500D02*
X163608666Y-82823404D01*
X163608666Y-82823404D02*
X163570571Y-82747214D01*
X163570571Y-82747214D02*
X163532475Y-82594833D01*
X163532475Y-82594833D02*
X163532475Y-82404357D01*
X163532475Y-82404357D02*
X163570571Y-82251976D01*
X163570571Y-82251976D02*
X163608666Y-82175785D01*
X163608666Y-82175785D02*
X163646761Y-82137690D01*
X163646761Y-82137690D02*
X163722952Y-82099595D01*
X164675333Y-82099595D02*
X164522952Y-82099595D01*
X164522952Y-82099595D02*
X164446761Y-82137690D01*
X164446761Y-82137690D02*
X164408666Y-82175785D01*
X164408666Y-82175785D02*
X164332476Y-82290071D01*
X164332476Y-82290071D02*
X164294380Y-82442452D01*
X164294380Y-82442452D02*
X164294380Y-82747214D01*
X164294380Y-82747214D02*
X164332476Y-82823404D01*
X164332476Y-82823404D02*
X164370571Y-82861500D01*
X164370571Y-82861500D02*
X164446761Y-82899595D01*
X164446761Y-82899595D02*
X164599142Y-82899595D01*
X164599142Y-82899595D02*
X164675333Y-82861500D01*
X164675333Y-82861500D02*
X164713428Y-82823404D01*
X164713428Y-82823404D02*
X164751523Y-82747214D01*
X164751523Y-82747214D02*
X164751523Y-82556738D01*
X164751523Y-82556738D02*
X164713428Y-82480547D01*
X164713428Y-82480547D02*
X164675333Y-82442452D01*
X164675333Y-82442452D02*
X164599142Y-82404357D01*
X164599142Y-82404357D02*
X164446761Y-82404357D01*
X164446761Y-82404357D02*
X164370571Y-82442452D01*
X164370571Y-82442452D02*
X164332476Y-82480547D01*
X164332476Y-82480547D02*
X164294380Y-82556738D01*
X161970571Y-109299595D02*
X161970571Y-108499595D01*
X161970571Y-108880547D02*
X162427714Y-108880547D01*
X162427714Y-109299595D02*
X162427714Y-108499595D01*
X163227713Y-109299595D02*
X162770570Y-109299595D01*
X162999142Y-109299595D02*
X162999142Y-108499595D01*
X162999142Y-108499595D02*
X162922951Y-108613880D01*
X162922951Y-108613880D02*
X162846761Y-108690071D01*
X162846761Y-108690071D02*
X162770570Y-108728166D01*
X163989618Y-109299595D02*
X163532475Y-109299595D01*
X163761047Y-109299595D02*
X163761047Y-108499595D01*
X163761047Y-108499595D02*
X163684856Y-108613880D01*
X163684856Y-108613880D02*
X163608666Y-108690071D01*
X163608666Y-108690071D02*
X163532475Y-108728166D01*
X164751523Y-109299595D02*
X164294380Y-109299595D01*
X164522952Y-109299595D02*
X164522952Y-108499595D01*
X164522952Y-108499595D02*
X164446761Y-108613880D01*
X164446761Y-108613880D02*
X164370571Y-108690071D01*
X164370571Y-108690071D02*
X164294380Y-108728166D01*
X133970571Y-109299595D02*
X133970571Y-108499595D01*
X133970571Y-108880547D02*
X134427714Y-108880547D01*
X134427714Y-109299595D02*
X134427714Y-108499595D01*
X135227713Y-109299595D02*
X134770570Y-109299595D01*
X134999142Y-109299595D02*
X134999142Y-108499595D01*
X134999142Y-108499595D02*
X134922951Y-108613880D01*
X134922951Y-108613880D02*
X134846761Y-108690071D01*
X134846761Y-108690071D02*
X134770570Y-108728166D01*
X135722952Y-108499595D02*
X135799142Y-108499595D01*
X135799142Y-108499595D02*
X135875333Y-108537690D01*
X135875333Y-108537690D02*
X135913428Y-108575785D01*
X135913428Y-108575785D02*
X135951523Y-108651976D01*
X135951523Y-108651976D02*
X135989618Y-108804357D01*
X135989618Y-108804357D02*
X135989618Y-108994833D01*
X135989618Y-108994833D02*
X135951523Y-109147214D01*
X135951523Y-109147214D02*
X135913428Y-109223404D01*
X135913428Y-109223404D02*
X135875333Y-109261500D01*
X135875333Y-109261500D02*
X135799142Y-109299595D01*
X135799142Y-109299595D02*
X135722952Y-109299595D01*
X135722952Y-109299595D02*
X135646761Y-109261500D01*
X135646761Y-109261500D02*
X135608666Y-109223404D01*
X135608666Y-109223404D02*
X135570571Y-109147214D01*
X135570571Y-109147214D02*
X135532475Y-108994833D01*
X135532475Y-108994833D02*
X135532475Y-108804357D01*
X135532475Y-108804357D02*
X135570571Y-108651976D01*
X135570571Y-108651976D02*
X135608666Y-108575785D01*
X135608666Y-108575785D02*
X135646761Y-108537690D01*
X135646761Y-108537690D02*
X135722952Y-108499595D01*
X136370571Y-109299595D02*
X136522952Y-109299595D01*
X136522952Y-109299595D02*
X136599142Y-109261500D01*
X136599142Y-109261500D02*
X136637238Y-109223404D01*
X136637238Y-109223404D02*
X136713428Y-109109119D01*
X136713428Y-109109119D02*
X136751523Y-108956738D01*
X136751523Y-108956738D02*
X136751523Y-108651976D01*
X136751523Y-108651976D02*
X136713428Y-108575785D01*
X136713428Y-108575785D02*
X136675333Y-108537690D01*
X136675333Y-108537690D02*
X136599142Y-108499595D01*
X136599142Y-108499595D02*
X136446761Y-108499595D01*
X136446761Y-108499595D02*
X136370571Y-108537690D01*
X136370571Y-108537690D02*
X136332476Y-108575785D01*
X136332476Y-108575785D02*
X136294380Y-108651976D01*
X136294380Y-108651976D02*
X136294380Y-108842452D01*
X136294380Y-108842452D02*
X136332476Y-108918642D01*
X136332476Y-108918642D02*
X136370571Y-108956738D01*
X136370571Y-108956738D02*
X136446761Y-108994833D01*
X136446761Y-108994833D02*
X136599142Y-108994833D01*
X136599142Y-108994833D02*
X136675333Y-108956738D01*
X136675333Y-108956738D02*
X136713428Y-108918642D01*
X136713428Y-108918642D02*
X136751523Y-108842452D01*
X109054571Y-95927595D02*
X109054571Y-95127595D01*
X109054571Y-95508547D02*
X109511714Y-95508547D01*
X109511714Y-95927595D02*
X109511714Y-95127595D01*
X110311713Y-95927595D02*
X109854570Y-95927595D01*
X110083142Y-95927595D02*
X110083142Y-95127595D01*
X110083142Y-95127595D02*
X110006951Y-95241880D01*
X110006951Y-95241880D02*
X109930761Y-95318071D01*
X109930761Y-95318071D02*
X109854570Y-95356166D01*
X110806952Y-95127595D02*
X110883142Y-95127595D01*
X110883142Y-95127595D02*
X110959333Y-95165690D01*
X110959333Y-95165690D02*
X110997428Y-95203785D01*
X110997428Y-95203785D02*
X111035523Y-95279976D01*
X111035523Y-95279976D02*
X111073618Y-95432357D01*
X111073618Y-95432357D02*
X111073618Y-95622833D01*
X111073618Y-95622833D02*
X111035523Y-95775214D01*
X111035523Y-95775214D02*
X110997428Y-95851404D01*
X110997428Y-95851404D02*
X110959333Y-95889500D01*
X110959333Y-95889500D02*
X110883142Y-95927595D01*
X110883142Y-95927595D02*
X110806952Y-95927595D01*
X110806952Y-95927595D02*
X110730761Y-95889500D01*
X110730761Y-95889500D02*
X110692666Y-95851404D01*
X110692666Y-95851404D02*
X110654571Y-95775214D01*
X110654571Y-95775214D02*
X110616475Y-95622833D01*
X110616475Y-95622833D02*
X110616475Y-95432357D01*
X110616475Y-95432357D02*
X110654571Y-95279976D01*
X110654571Y-95279976D02*
X110692666Y-95203785D01*
X110692666Y-95203785D02*
X110730761Y-95165690D01*
X110730761Y-95165690D02*
X110806952Y-95127595D01*
X111835523Y-95927595D02*
X111378380Y-95927595D01*
X111606952Y-95927595D02*
X111606952Y-95127595D01*
X111606952Y-95127595D02*
X111530761Y-95241880D01*
X111530761Y-95241880D02*
X111454571Y-95318071D01*
X111454571Y-95318071D02*
X111378380Y-95356166D01*
X147970571Y-109299595D02*
X147970571Y-108499595D01*
X147970571Y-108880547D02*
X148427714Y-108880547D01*
X148427714Y-109299595D02*
X148427714Y-108499595D01*
X149227713Y-109299595D02*
X148770570Y-109299595D01*
X148999142Y-109299595D02*
X148999142Y-108499595D01*
X148999142Y-108499595D02*
X148922951Y-108613880D01*
X148922951Y-108613880D02*
X148846761Y-108690071D01*
X148846761Y-108690071D02*
X148770570Y-108728166D01*
X149989618Y-109299595D02*
X149532475Y-109299595D01*
X149761047Y-109299595D02*
X149761047Y-108499595D01*
X149761047Y-108499595D02*
X149684856Y-108613880D01*
X149684856Y-108613880D02*
X149608666Y-108690071D01*
X149608666Y-108690071D02*
X149532475Y-108728166D01*
X150484857Y-108499595D02*
X150561047Y-108499595D01*
X150561047Y-108499595D02*
X150637238Y-108537690D01*
X150637238Y-108537690D02*
X150675333Y-108575785D01*
X150675333Y-108575785D02*
X150713428Y-108651976D01*
X150713428Y-108651976D02*
X150751523Y-108804357D01*
X150751523Y-108804357D02*
X150751523Y-108994833D01*
X150751523Y-108994833D02*
X150713428Y-109147214D01*
X150713428Y-109147214D02*
X150675333Y-109223404D01*
X150675333Y-109223404D02*
X150637238Y-109261500D01*
X150637238Y-109261500D02*
X150561047Y-109299595D01*
X150561047Y-109299595D02*
X150484857Y-109299595D01*
X150484857Y-109299595D02*
X150408666Y-109261500D01*
X150408666Y-109261500D02*
X150370571Y-109223404D01*
X150370571Y-109223404D02*
X150332476Y-109147214D01*
X150332476Y-109147214D02*
X150294380Y-108994833D01*
X150294380Y-108994833D02*
X150294380Y-108804357D01*
X150294380Y-108804357D02*
X150332476Y-108651976D01*
X150332476Y-108651976D02*
X150370571Y-108575785D01*
X150370571Y-108575785D02*
X150408666Y-108537690D01*
X150408666Y-108537690D02*
X150484857Y-108499595D01*
M02*
