%TF.GenerationSoftware,KiCad,Pcbnew,8.0.8*%
%TF.CreationDate,2025-01-30T12:00:52+07:00*%
%TF.ProjectId,CH170_FrontPanel,43483137-305f-4467-926f-6e7450616e65,rev?*%
%TF.SameCoordinates,Original*%
%TF.FileFunction,Legend,Bot*%
%TF.FilePolarity,Positive*%
%FSLAX46Y46*%
G04 Gerber Fmt 4.6, Leading zero omitted, Abs format (unit mm)*
G04 Created by KiCad (PCBNEW 8.0.8) date 2025-01-30 12:00:52*
%MOMM*%
%LPD*%
G01*
G04 APERTURE LIST*
%ADD10C,0.100000*%
%ADD11C,0.030708*%
%ADD12C,0.037499*%
%ADD13C,0.030749*%
%ADD14C,0.125000*%
%ADD15C,0.120000*%
G04 APERTURE END LIST*
D10*
X123589618Y-89911895D02*
X123589618Y-89111895D01*
X123589618Y-89492847D02*
X123132475Y-89492847D01*
X123132475Y-89911895D02*
X123132475Y-89111895D01*
X122751523Y-89911895D02*
X122751523Y-89111895D01*
X122751523Y-89111895D02*
X122561047Y-89111895D01*
X122561047Y-89111895D02*
X122446761Y-89149990D01*
X122446761Y-89149990D02*
X122370571Y-89226180D01*
X122370571Y-89226180D02*
X122332476Y-89302371D01*
X122332476Y-89302371D02*
X122294380Y-89454752D01*
X122294380Y-89454752D02*
X122294380Y-89569038D01*
X122294380Y-89569038D02*
X122332476Y-89721419D01*
X122332476Y-89721419D02*
X122370571Y-89797609D01*
X122370571Y-89797609D02*
X122446761Y-89873800D01*
X122446761Y-89873800D02*
X122561047Y-89911895D01*
X122561047Y-89911895D02*
X122751523Y-89911895D01*
X121989619Y-89683323D02*
X121608666Y-89683323D01*
X122065809Y-89911895D02*
X121799142Y-89111895D01*
X121799142Y-89111895D02*
X121532476Y-89911895D01*
X120922952Y-89378561D02*
X120922952Y-89911895D01*
X121265809Y-89378561D02*
X121265809Y-89797609D01*
X121265809Y-89797609D02*
X121227714Y-89873800D01*
X121227714Y-89873800D02*
X121151524Y-89911895D01*
X121151524Y-89911895D02*
X121037238Y-89911895D01*
X121037238Y-89911895D02*
X120961047Y-89873800D01*
X120961047Y-89873800D02*
X120922952Y-89835704D01*
X120199142Y-89911895D02*
X120199142Y-89111895D01*
X120199142Y-89873800D02*
X120275333Y-89911895D01*
X120275333Y-89911895D02*
X120427714Y-89911895D01*
X120427714Y-89911895D02*
X120503904Y-89873800D01*
X120503904Y-89873800D02*
X120541999Y-89835704D01*
X120541999Y-89835704D02*
X120580095Y-89759514D01*
X120580095Y-89759514D02*
X120580095Y-89530942D01*
X120580095Y-89530942D02*
X120541999Y-89454752D01*
X120541999Y-89454752D02*
X120503904Y-89416657D01*
X120503904Y-89416657D02*
X120427714Y-89378561D01*
X120427714Y-89378561D02*
X120275333Y-89378561D01*
X120275333Y-89378561D02*
X120199142Y-89416657D01*
X119818189Y-89911895D02*
X119818189Y-89378561D01*
X119818189Y-89111895D02*
X119856285Y-89149990D01*
X119856285Y-89149990D02*
X119818189Y-89188085D01*
X119818189Y-89188085D02*
X119780094Y-89149990D01*
X119780094Y-89149990D02*
X119818189Y-89111895D01*
X119818189Y-89111895D02*
X119818189Y-89188085D01*
X119322952Y-89911895D02*
X119399142Y-89873800D01*
X119399142Y-89873800D02*
X119437237Y-89835704D01*
X119437237Y-89835704D02*
X119475333Y-89759514D01*
X119475333Y-89759514D02*
X119475333Y-89530942D01*
X119475333Y-89530942D02*
X119437237Y-89454752D01*
X119437237Y-89454752D02*
X119399142Y-89416657D01*
X119399142Y-89416657D02*
X119322952Y-89378561D01*
X119322952Y-89378561D02*
X119208666Y-89378561D01*
X119208666Y-89378561D02*
X119132475Y-89416657D01*
X119132475Y-89416657D02*
X119094380Y-89454752D01*
X119094380Y-89454752D02*
X119056285Y-89530942D01*
X119056285Y-89530942D02*
X119056285Y-89759514D01*
X119056285Y-89759514D02*
X119094380Y-89835704D01*
X119094380Y-89835704D02*
X119132475Y-89873800D01*
X119132475Y-89873800D02*
X119208666Y-89911895D01*
X119208666Y-89911895D02*
X119322952Y-89911895D01*
D11*
X116781188Y-105542004D02*
X116781188Y-105989845D01*
X116799554Y-105998475D01*
X116817313Y-106007630D01*
X116834453Y-106017289D01*
X116850966Y-106027436D01*
X116866841Y-106038051D01*
X116882068Y-106049115D01*
X116896637Y-106060609D01*
X116910538Y-106072516D01*
X116923762Y-106084815D01*
X116936298Y-106097489D01*
X116948136Y-106110519D01*
X116959267Y-106123886D01*
X116969680Y-106137571D01*
X116979365Y-106151556D01*
X116988312Y-106165822D01*
X116996512Y-106180350D01*
X117003954Y-106195122D01*
X117010628Y-106210118D01*
X117016525Y-106225320D01*
X117021634Y-106240710D01*
X117025945Y-106256269D01*
X117029449Y-106271977D01*
X117032135Y-106287817D01*
X117033994Y-106303769D01*
X117035015Y-106319815D01*
X117035188Y-106335936D01*
X117034504Y-106352114D01*
X117032952Y-106368329D01*
X117030523Y-106384564D01*
X117027207Y-106400798D01*
X117022992Y-106417014D01*
X117017871Y-106433194D01*
X117011880Y-106449192D01*
X117005080Y-106464871D01*
X116997490Y-106480217D01*
X116989133Y-106495219D01*
X116980027Y-106509864D01*
X116970194Y-106524139D01*
X116959655Y-106538033D01*
X116948431Y-106551534D01*
X116936542Y-106564628D01*
X116924008Y-106577303D01*
X116910851Y-106589548D01*
X116897091Y-106601349D01*
X116882749Y-106612695D01*
X116867846Y-106623573D01*
X116852402Y-106633971D01*
X116836438Y-106643877D01*
X116819975Y-106653277D01*
X116803033Y-106662161D01*
X116785634Y-106670515D01*
X116767797Y-106678327D01*
X116749544Y-106685585D01*
X116730896Y-106692276D01*
X116711872Y-106698389D01*
X116692494Y-106703911D01*
X116672782Y-106708829D01*
X116652758Y-106713132D01*
X116632441Y-106716806D01*
X116611853Y-106719840D01*
X116591013Y-106722221D01*
X116569944Y-106723937D01*
X116548666Y-106724976D01*
X116527199Y-106725325D01*
X116484453Y-106723937D01*
X116442545Y-106719840D01*
X116401640Y-106713132D01*
X116361904Y-106703911D01*
X116323502Y-106692276D01*
X116286600Y-106678327D01*
X116251364Y-106662161D01*
X116217959Y-106643877D01*
X116186551Y-106623573D01*
X116157306Y-106601349D01*
X116130389Y-106577303D01*
X116105967Y-106551534D01*
X116084203Y-106524139D01*
X116065265Y-106495219D01*
X116049318Y-106464871D01*
X116042517Y-106449192D01*
X116036527Y-106433194D01*
X116031405Y-106417014D01*
X116027191Y-106400798D01*
X116023874Y-106384564D01*
X116021445Y-106368329D01*
X116019893Y-106352114D01*
X116019209Y-106335936D01*
X116019383Y-106319815D01*
X116020404Y-106303769D01*
X116022262Y-106287817D01*
X116024949Y-106271977D01*
X116028452Y-106256269D01*
X116032764Y-106240710D01*
X116037873Y-106225320D01*
X116043770Y-106210118D01*
X116050444Y-106195122D01*
X116057886Y-106180350D01*
X116066085Y-106165822D01*
X116075033Y-106151556D01*
X116084718Y-106137571D01*
X116095131Y-106123886D01*
X116106261Y-106110519D01*
X116118099Y-106097489D01*
X116130635Y-106084815D01*
X116143859Y-106072516D01*
X116157760Y-106060609D01*
X116172330Y-106049115D01*
X116187557Y-106038051D01*
X116203432Y-106027436D01*
X116219944Y-106017289D01*
X116237085Y-106007630D01*
X116254843Y-105998475D01*
X116273209Y-105989845D01*
X116273209Y-104777710D01*
X116781188Y-105542004D01*
G36*
X116781188Y-105542004D02*
G01*
X116781188Y-105989845D01*
X116799554Y-105998475D01*
X116817313Y-106007630D01*
X116834453Y-106017289D01*
X116850966Y-106027436D01*
X116866841Y-106038051D01*
X116882068Y-106049115D01*
X116896637Y-106060609D01*
X116910538Y-106072516D01*
X116923762Y-106084815D01*
X116936298Y-106097489D01*
X116948136Y-106110519D01*
X116959267Y-106123886D01*
X116969680Y-106137571D01*
X116979365Y-106151556D01*
X116988312Y-106165822D01*
X116996512Y-106180350D01*
X117003954Y-106195122D01*
X117010628Y-106210118D01*
X117016525Y-106225320D01*
X117021634Y-106240710D01*
X117025945Y-106256269D01*
X117029449Y-106271977D01*
X117032135Y-106287817D01*
X117033994Y-106303769D01*
X117035015Y-106319815D01*
X117035188Y-106335936D01*
X117034504Y-106352114D01*
X117032952Y-106368329D01*
X117030523Y-106384564D01*
X117027207Y-106400798D01*
X117022992Y-106417014D01*
X117017871Y-106433194D01*
X117011880Y-106449192D01*
X117005080Y-106464871D01*
X116997490Y-106480217D01*
X116989133Y-106495219D01*
X116980027Y-106509864D01*
X116970194Y-106524139D01*
X116959655Y-106538033D01*
X116948431Y-106551534D01*
X116936542Y-106564628D01*
X116924008Y-106577303D01*
X116910851Y-106589548D01*
X116897091Y-106601349D01*
X116882749Y-106612695D01*
X116867846Y-106623573D01*
X116852402Y-106633971D01*
X116836438Y-106643877D01*
X116819975Y-106653277D01*
X116803033Y-106662161D01*
X116785634Y-106670515D01*
X116767797Y-106678327D01*
X116749544Y-106685585D01*
X116730896Y-106692276D01*
X116711872Y-106698389D01*
X116692494Y-106703911D01*
X116672782Y-106708829D01*
X116652758Y-106713132D01*
X116632441Y-106716806D01*
X116611853Y-106719840D01*
X116591013Y-106722221D01*
X116569944Y-106723937D01*
X116548666Y-106724976D01*
X116527199Y-106725325D01*
X116484453Y-106723937D01*
X116442545Y-106719840D01*
X116401640Y-106713132D01*
X116361904Y-106703911D01*
X116323502Y-106692276D01*
X116286600Y-106678327D01*
X116251364Y-106662161D01*
X116217959Y-106643877D01*
X116186551Y-106623573D01*
X116157306Y-106601349D01*
X116130389Y-106577303D01*
X116105967Y-106551534D01*
X116084203Y-106524139D01*
X116065265Y-106495219D01*
X116049318Y-106464871D01*
X116042517Y-106449192D01*
X116036527Y-106433194D01*
X116031405Y-106417014D01*
X116027191Y-106400798D01*
X116023874Y-106384564D01*
X116021445Y-106368329D01*
X116019893Y-106352114D01*
X116019209Y-106335936D01*
X116019383Y-106319815D01*
X116020404Y-106303769D01*
X116022262Y-106287817D01*
X116024949Y-106271977D01*
X116028452Y-106256269D01*
X116032764Y-106240710D01*
X116037873Y-106225320D01*
X116043770Y-106210118D01*
X116050444Y-106195122D01*
X116057886Y-106180350D01*
X116066085Y-106165822D01*
X116075033Y-106151556D01*
X116084718Y-106137571D01*
X116095131Y-106123886D01*
X116106261Y-106110519D01*
X116118099Y-106097489D01*
X116130635Y-106084815D01*
X116143859Y-106072516D01*
X116157760Y-106060609D01*
X116172330Y-106049115D01*
X116187557Y-106038051D01*
X116203432Y-106027436D01*
X116219944Y-106017289D01*
X116237085Y-106007630D01*
X116254843Y-105998475D01*
X116273209Y-105989845D01*
X116273209Y-104777710D01*
X116781188Y-105542004D01*
G37*
D12*
X119849153Y-105784172D02*
X119780894Y-105776362D01*
X119711281Y-105769301D01*
X119640306Y-105763000D01*
X119567959Y-105757468D01*
X119494234Y-105752715D01*
X119419119Y-105748749D01*
X119342609Y-105745581D01*
X119264693Y-105743219D01*
X119264693Y-106679919D01*
X118844693Y-107323614D01*
X119798834Y-108695107D01*
X118876796Y-108695107D01*
X116781188Y-105542003D01*
X116781188Y-105315466D01*
X116793489Y-105323959D01*
X116805907Y-105332348D01*
X116818440Y-105340632D01*
X116831087Y-105348810D01*
X116843848Y-105356881D01*
X116856720Y-105364846D01*
X116869703Y-105372702D01*
X116882796Y-105380450D01*
X116925167Y-105404182D01*
X116969002Y-105426980D01*
X117014309Y-105448855D01*
X117061095Y-105469820D01*
X117109368Y-105489890D01*
X117159135Y-105509076D01*
X117210403Y-105527393D01*
X117263181Y-105544852D01*
X117317475Y-105561467D01*
X117373294Y-105577252D01*
X117430643Y-105592218D01*
X117489532Y-105606380D01*
X117549967Y-105619750D01*
X117611956Y-105632341D01*
X117675506Y-105644167D01*
X117740625Y-105655239D01*
X118376828Y-106631989D01*
X118953730Y-105738504D01*
X119205846Y-105348089D01*
X119950246Y-104195123D01*
X120885976Y-104195122D01*
X119849153Y-105784172D01*
G36*
X119849153Y-105784172D02*
G01*
X119780894Y-105776362D01*
X119711281Y-105769301D01*
X119640306Y-105763000D01*
X119567959Y-105757468D01*
X119494234Y-105752715D01*
X119419119Y-105748749D01*
X119342609Y-105745581D01*
X119264693Y-105743219D01*
X119264693Y-106679919D01*
X118844693Y-107323614D01*
X119798834Y-108695107D01*
X118876796Y-108695107D01*
X116781188Y-105542003D01*
X116781188Y-105315466D01*
X116793489Y-105323959D01*
X116805907Y-105332348D01*
X116818440Y-105340632D01*
X116831087Y-105348810D01*
X116843848Y-105356881D01*
X116856720Y-105364846D01*
X116869703Y-105372702D01*
X116882796Y-105380450D01*
X116925167Y-105404182D01*
X116969002Y-105426980D01*
X117014309Y-105448855D01*
X117061095Y-105469820D01*
X117109368Y-105489890D01*
X117159135Y-105509076D01*
X117210403Y-105527393D01*
X117263181Y-105544852D01*
X117317475Y-105561467D01*
X117373294Y-105577252D01*
X117430643Y-105592218D01*
X117489532Y-105606380D01*
X117549967Y-105619750D01*
X117611956Y-105632341D01*
X117675506Y-105644167D01*
X117740625Y-105655239D01*
X118376828Y-106631989D01*
X118953730Y-105738504D01*
X119205846Y-105348089D01*
X119950246Y-104195123D01*
X120885976Y-104195122D01*
X119849153Y-105784172D01*
G37*
D13*
X122622950Y-107316508D02*
X122622950Y-107710670D01*
X122621959Y-107741089D01*
X122619016Y-107771109D01*
X122614171Y-107800693D01*
X122607471Y-107829804D01*
X122598963Y-107858404D01*
X122588696Y-107886456D01*
X122576718Y-107913923D01*
X122563075Y-107940768D01*
X122547817Y-107966954D01*
X122530992Y-107992444D01*
X122512646Y-108017200D01*
X122492828Y-108041185D01*
X122471585Y-108064363D01*
X122448966Y-108086696D01*
X122425019Y-108108146D01*
X122399791Y-108128678D01*
X122373330Y-108148253D01*
X122345684Y-108166834D01*
X122316901Y-108184385D01*
X122287029Y-108200868D01*
X122256115Y-108216246D01*
X122224208Y-108230482D01*
X122191355Y-108243538D01*
X122157605Y-108255378D01*
X122123004Y-108265965D01*
X122087602Y-108275261D01*
X122051446Y-108283228D01*
X122014583Y-108289831D01*
X121977062Y-108295032D01*
X121938930Y-108298793D01*
X121900235Y-108301078D01*
X121861026Y-108301849D01*
X121353002Y-108301849D01*
X121313793Y-108301079D01*
X121275098Y-108298797D01*
X121199445Y-108289838D01*
X121126424Y-108275271D01*
X121056420Y-108255391D01*
X120989815Y-108230497D01*
X120926992Y-108200886D01*
X120868334Y-108166853D01*
X120814225Y-108128698D01*
X120788995Y-108108167D01*
X120765046Y-108086716D01*
X120742425Y-108064383D01*
X120721181Y-108041205D01*
X120701361Y-108017220D01*
X120683013Y-107992463D01*
X120666186Y-107966972D01*
X120650926Y-107940785D01*
X120637281Y-107913939D01*
X120625301Y-107886470D01*
X120615032Y-107858416D01*
X120606522Y-107829814D01*
X120599819Y-107800702D01*
X120594972Y-107771115D01*
X120592027Y-107741092D01*
X120591034Y-107710670D01*
X120591034Y-107710669D01*
X121099013Y-107710669D01*
X121099343Y-107720803D01*
X121100324Y-107730805D01*
X121101939Y-107740661D01*
X121104171Y-107750360D01*
X121107007Y-107759889D01*
X121110428Y-107769236D01*
X121114420Y-107778388D01*
X121118966Y-107787333D01*
X121124051Y-107796059D01*
X121129658Y-107804552D01*
X121135771Y-107812802D01*
X121142376Y-107820795D01*
X121149455Y-107828519D01*
X121156992Y-107835961D01*
X121164973Y-107843110D01*
X121173380Y-107849952D01*
X121182198Y-107856476D01*
X121191412Y-107862669D01*
X121201004Y-107868519D01*
X121210959Y-107874013D01*
X121221261Y-107879139D01*
X121231894Y-107883884D01*
X121242843Y-107888237D01*
X121254091Y-107892184D01*
X121265622Y-107895713D01*
X121277420Y-107898813D01*
X121289470Y-107901470D01*
X121301756Y-107903672D01*
X121314260Y-107905407D01*
X121326969Y-107906663D01*
X121339865Y-107907426D01*
X121352932Y-107907686D01*
X121860981Y-107907686D01*
X121874049Y-107907429D01*
X121886945Y-107906668D01*
X121912160Y-107903683D01*
X121936497Y-107898829D01*
X121959829Y-107892204D01*
X121982028Y-107883908D01*
X122002967Y-107874040D01*
X122022518Y-107862699D01*
X122040554Y-107849984D01*
X122048964Y-107843142D01*
X122056947Y-107835993D01*
X122064487Y-107828551D01*
X122071569Y-107820826D01*
X122078176Y-107812833D01*
X122084293Y-107804582D01*
X122089903Y-107796087D01*
X122094991Y-107787360D01*
X122099540Y-107778413D01*
X122103535Y-107769259D01*
X122106960Y-107759909D01*
X122109798Y-107750377D01*
X122112034Y-107740675D01*
X122113653Y-107730814D01*
X122114637Y-107720808D01*
X122114971Y-107710669D01*
X122114971Y-107316507D01*
X122114659Y-107306733D01*
X122113728Y-107297025D01*
X122112187Y-107287400D01*
X122110045Y-107277874D01*
X122107310Y-107268463D01*
X122103992Y-107259183D01*
X122100097Y-107250050D01*
X122095636Y-107241081D01*
X122090617Y-107232291D01*
X122085048Y-107223696D01*
X122078938Y-107215314D01*
X122072296Y-107207159D01*
X122065130Y-107199249D01*
X122057449Y-107191599D01*
X122049261Y-107184225D01*
X122040575Y-107177143D01*
X122031449Y-107170405D01*
X122021945Y-107164052D01*
X122012085Y-107158093D01*
X122001889Y-107152533D01*
X121991379Y-107147380D01*
X121980576Y-107142639D01*
X121969500Y-107138319D01*
X121958171Y-107134425D01*
X121946612Y-107130964D01*
X121934842Y-107127942D01*
X121922882Y-107125368D01*
X121910754Y-107123246D01*
X121898478Y-107121585D01*
X121886075Y-107120390D01*
X121873565Y-107119668D01*
X121860970Y-107119426D01*
X121353002Y-107119426D01*
X121340407Y-107119668D01*
X121327898Y-107120391D01*
X121315495Y-107121586D01*
X121303219Y-107123248D01*
X121291090Y-107125370D01*
X121279131Y-107127945D01*
X121267361Y-107130967D01*
X121255802Y-107134428D01*
X121244474Y-107138323D01*
X121233398Y-107142644D01*
X121222595Y-107147385D01*
X121212085Y-107152538D01*
X121201890Y-107158099D01*
X121192030Y-107164058D01*
X121182527Y-107170411D01*
X121173400Y-107177150D01*
X121164715Y-107184232D01*
X121156528Y-107191606D01*
X121148848Y-107199256D01*
X121141682Y-107207167D01*
X121135041Y-107215321D01*
X121128931Y-107223704D01*
X121123363Y-107232298D01*
X121118344Y-107241088D01*
X121113883Y-107250057D01*
X121109990Y-107259189D01*
X121106671Y-107268469D01*
X121103937Y-107277879D01*
X121101796Y-107287404D01*
X121100256Y-107297028D01*
X121099325Y-107306734D01*
X121099014Y-107316507D01*
X121099013Y-107710669D01*
X120591034Y-107710669D01*
X120591034Y-107316508D01*
X120591996Y-107286528D01*
X120594854Y-107256930D01*
X120599561Y-107227751D01*
X120606073Y-107199026D01*
X120614343Y-107170791D01*
X120624326Y-107143083D01*
X120635978Y-107115937D01*
X120649252Y-107089389D01*
X120664103Y-107063475D01*
X120680485Y-107038232D01*
X120698354Y-107013694D01*
X120717664Y-106989899D01*
X120738369Y-106966882D01*
X120760425Y-106944679D01*
X120783784Y-106923327D01*
X120808403Y-106902860D01*
X120834236Y-106883315D01*
X120861237Y-106864729D01*
X120889361Y-106847136D01*
X120918563Y-106830574D01*
X120948796Y-106815077D01*
X120980016Y-106800683D01*
X121012178Y-106787426D01*
X121045235Y-106775343D01*
X121079143Y-106764470D01*
X121113855Y-106754843D01*
X121149328Y-106746498D01*
X121185514Y-106739471D01*
X121222369Y-106733798D01*
X121259848Y-106729514D01*
X121297904Y-106726656D01*
X121336493Y-106725260D01*
X121324111Y-106666192D01*
X121308418Y-106609416D01*
X121289469Y-106554884D01*
X121267318Y-106502549D01*
X121242018Y-106452364D01*
X121213624Y-106404284D01*
X121182189Y-106358260D01*
X121147769Y-106314245D01*
X121110416Y-106272194D01*
X121070185Y-106232059D01*
X121027130Y-106193793D01*
X120981304Y-106157350D01*
X120932763Y-106122682D01*
X120881560Y-106089742D01*
X120827749Y-106058484D01*
X120771384Y-106028860D01*
X120733791Y-106010723D01*
X120694990Y-105993181D01*
X120654997Y-105976231D01*
X120613827Y-105959870D01*
X120571495Y-105944094D01*
X120528017Y-105928902D01*
X120483408Y-105914288D01*
X120437684Y-105900251D01*
X120437684Y-105484319D01*
X120520567Y-105505158D01*
X120601632Y-105527563D01*
X120680805Y-105551577D01*
X120758012Y-105577245D01*
X120833180Y-105604613D01*
X120906237Y-105633724D01*
X120977109Y-105664623D01*
X121045722Y-105697356D01*
X121087747Y-105718873D01*
X121128737Y-105741054D01*
X121168693Y-105763900D01*
X121207617Y-105787410D01*
X121245508Y-105811586D01*
X121282369Y-105836427D01*
X121318200Y-105861934D01*
X121353002Y-105888107D01*
X121353002Y-105095907D01*
X121334636Y-105087276D01*
X121316877Y-105078122D01*
X121299737Y-105068462D01*
X121283224Y-105058315D01*
X121267349Y-105047701D01*
X121252122Y-105036637D01*
X121237553Y-105025142D01*
X121223651Y-105013236D01*
X121210427Y-105000936D01*
X121197891Y-104988262D01*
X121186053Y-104975232D01*
X121174923Y-104961866D01*
X121164510Y-104948180D01*
X121154825Y-104934196D01*
X121145878Y-104919930D01*
X121137678Y-104905402D01*
X121130236Y-104890630D01*
X121123562Y-104875634D01*
X121117665Y-104860432D01*
X121112556Y-104845042D01*
X121108245Y-104829484D01*
X121104741Y-104813775D01*
X121102055Y-104797935D01*
X121100196Y-104781983D01*
X121099175Y-104765937D01*
X121099002Y-104749816D01*
X121099686Y-104733638D01*
X121101238Y-104717423D01*
X121103667Y-104701189D01*
X121106983Y-104684954D01*
X121111198Y-104668738D01*
X121116319Y-104652559D01*
X121122310Y-104636560D01*
X121129110Y-104620882D01*
X121136700Y-104605535D01*
X121145058Y-104590534D01*
X121154163Y-104575889D01*
X121163996Y-104561613D01*
X121174535Y-104547719D01*
X121185759Y-104534219D01*
X121197649Y-104521125D01*
X121210182Y-104508449D01*
X121223339Y-104496205D01*
X121237099Y-104484403D01*
X121251441Y-104473057D01*
X121266344Y-104462179D01*
X121281788Y-104451781D01*
X121297752Y-104441876D01*
X121314215Y-104432475D01*
X121331157Y-104423592D01*
X121348556Y-104415238D01*
X121366393Y-104407426D01*
X121384646Y-104400168D01*
X121403294Y-104393476D01*
X121422318Y-104387363D01*
X121441696Y-104381841D01*
X121461408Y-104376923D01*
X121481433Y-104372621D01*
X121501749Y-104368946D01*
X121522338Y-104365912D01*
X121543177Y-104363531D01*
X121564246Y-104361815D01*
X121585524Y-104360776D01*
X121606991Y-104360427D01*
X121649737Y-104361815D01*
X121691645Y-104365912D01*
X121732550Y-104372621D01*
X121772286Y-104381841D01*
X121810688Y-104393476D01*
X121847590Y-104407426D01*
X121882826Y-104423592D01*
X121916231Y-104441876D01*
X121947639Y-104462179D01*
X121976884Y-104484403D01*
X122003801Y-104508449D01*
X122028223Y-104534219D01*
X122049987Y-104561613D01*
X122068925Y-104590534D01*
X122084872Y-104620882D01*
X122091673Y-104636560D01*
X122097663Y-104652559D01*
X122102785Y-104668738D01*
X122106999Y-104684954D01*
X122110316Y-104701189D01*
X122112745Y-104717423D01*
X122114297Y-104733638D01*
X122114981Y-104749816D01*
X122114807Y-104765937D01*
X122113786Y-104781983D01*
X122111928Y-104797935D01*
X122109241Y-104813775D01*
X122105738Y-104829484D01*
X122101426Y-104845042D01*
X122096317Y-104860432D01*
X122090420Y-104875634D01*
X122083746Y-104890630D01*
X122076304Y-104905402D01*
X122068105Y-104919930D01*
X122059157Y-104934196D01*
X122049472Y-104948180D01*
X122039059Y-104961866D01*
X122027929Y-104975232D01*
X122016091Y-104988262D01*
X122003555Y-105000936D01*
X121990331Y-105013236D01*
X121976430Y-105025142D01*
X121961860Y-105036637D01*
X121946633Y-105047701D01*
X121930758Y-105058315D01*
X121914246Y-105068462D01*
X121897105Y-105078122D01*
X121879347Y-105087276D01*
X121860980Y-105095907D01*
X121860981Y-106725265D01*
X121898767Y-106725992D01*
X121936295Y-106728158D01*
X121973505Y-106731745D01*
X122010333Y-106736731D01*
X122046718Y-106743097D01*
X122082596Y-106750822D01*
X122117905Y-106759887D01*
X122152583Y-106770272D01*
X122186568Y-106781956D01*
X122219796Y-106794919D01*
X122252206Y-106809141D01*
X122283734Y-106824602D01*
X122314319Y-106841283D01*
X122343898Y-106859162D01*
X122372409Y-106878221D01*
X122399788Y-106898438D01*
X122425843Y-106919683D01*
X122450405Y-106941805D01*
X122473447Y-106964756D01*
X122494944Y-106988488D01*
X122514869Y-107012952D01*
X122533197Y-107038099D01*
X122549903Y-107063882D01*
X122564959Y-107090251D01*
X122578341Y-107117159D01*
X122590023Y-107144556D01*
X122599977Y-107172394D01*
X122608180Y-107200625D01*
X122614604Y-107229200D01*
X122619225Y-107258072D01*
X122622015Y-107287190D01*
X122622950Y-107316507D01*
X122622950Y-107316508D01*
G36*
X122622950Y-107316508D02*
G01*
X122622950Y-107710670D01*
X122621959Y-107741089D01*
X122619016Y-107771109D01*
X122614171Y-107800693D01*
X122607471Y-107829804D01*
X122598963Y-107858404D01*
X122588696Y-107886456D01*
X122576718Y-107913923D01*
X122563075Y-107940768D01*
X122547817Y-107966954D01*
X122530992Y-107992444D01*
X122512646Y-108017200D01*
X122492828Y-108041185D01*
X122471585Y-108064363D01*
X122448966Y-108086696D01*
X122425019Y-108108146D01*
X122399791Y-108128678D01*
X122373330Y-108148253D01*
X122345684Y-108166834D01*
X122316901Y-108184385D01*
X122287029Y-108200868D01*
X122256115Y-108216246D01*
X122224208Y-108230482D01*
X122191355Y-108243538D01*
X122157605Y-108255378D01*
X122123004Y-108265965D01*
X122087602Y-108275261D01*
X122051446Y-108283228D01*
X122014583Y-108289831D01*
X121977062Y-108295032D01*
X121938930Y-108298793D01*
X121900235Y-108301078D01*
X121861026Y-108301849D01*
X121353002Y-108301849D01*
X121313793Y-108301079D01*
X121275098Y-108298797D01*
X121199445Y-108289838D01*
X121126424Y-108275271D01*
X121056420Y-108255391D01*
X120989815Y-108230497D01*
X120926992Y-108200886D01*
X120868334Y-108166853D01*
X120814225Y-108128698D01*
X120788995Y-108108167D01*
X120765046Y-108086716D01*
X120742425Y-108064383D01*
X120721181Y-108041205D01*
X120701361Y-108017220D01*
X120683013Y-107992463D01*
X120666186Y-107966972D01*
X120650926Y-107940785D01*
X120637281Y-107913939D01*
X120625301Y-107886470D01*
X120615032Y-107858416D01*
X120606522Y-107829814D01*
X120599819Y-107800702D01*
X120594972Y-107771115D01*
X120592027Y-107741092D01*
X120591034Y-107710670D01*
X120591034Y-107710669D01*
X121099013Y-107710669D01*
X121099343Y-107720803D01*
X121100324Y-107730805D01*
X121101939Y-107740661D01*
X121104171Y-107750360D01*
X121107007Y-107759889D01*
X121110428Y-107769236D01*
X121114420Y-107778388D01*
X121118966Y-107787333D01*
X121124051Y-107796059D01*
X121129658Y-107804552D01*
X121135771Y-107812802D01*
X121142376Y-107820795D01*
X121149455Y-107828519D01*
X121156992Y-107835961D01*
X121164973Y-107843110D01*
X121173380Y-107849952D01*
X121182198Y-107856476D01*
X121191412Y-107862669D01*
X121201004Y-107868519D01*
X121210959Y-107874013D01*
X121221261Y-107879139D01*
X121231894Y-107883884D01*
X121242843Y-107888237D01*
X121254091Y-107892184D01*
X121265622Y-107895713D01*
X121277420Y-107898813D01*
X121289470Y-107901470D01*
X121301756Y-107903672D01*
X121314260Y-107905407D01*
X121326969Y-107906663D01*
X121339865Y-107907426D01*
X121352932Y-107907686D01*
X121860981Y-107907686D01*
X121874049Y-107907429D01*
X121886945Y-107906668D01*
X121912160Y-107903683D01*
X121936497Y-107898829D01*
X121959829Y-107892204D01*
X121982028Y-107883908D01*
X122002967Y-107874040D01*
X122022518Y-107862699D01*
X122040554Y-107849984D01*
X122048964Y-107843142D01*
X122056947Y-107835993D01*
X122064487Y-107828551D01*
X122071569Y-107820826D01*
X122078176Y-107812833D01*
X122084293Y-107804582D01*
X122089903Y-107796087D01*
X122094991Y-107787360D01*
X122099540Y-107778413D01*
X122103535Y-107769259D01*
X122106960Y-107759909D01*
X122109798Y-107750377D01*
X122112034Y-107740675D01*
X122113653Y-107730814D01*
X122114637Y-107720808D01*
X122114971Y-107710669D01*
X122114971Y-107316507D01*
X122114659Y-107306733D01*
X122113728Y-107297025D01*
X122112187Y-107287400D01*
X122110045Y-107277874D01*
X122107310Y-107268463D01*
X122103992Y-107259183D01*
X122100097Y-107250050D01*
X122095636Y-107241081D01*
X122090617Y-107232291D01*
X122085048Y-107223696D01*
X122078938Y-107215314D01*
X122072296Y-107207159D01*
X122065130Y-107199249D01*
X122057449Y-107191599D01*
X122049261Y-107184225D01*
X122040575Y-107177143D01*
X122031449Y-107170405D01*
X122021945Y-107164052D01*
X122012085Y-107158093D01*
X122001889Y-107152533D01*
X121991379Y-107147380D01*
X121980576Y-107142639D01*
X121969500Y-107138319D01*
X121958171Y-107134425D01*
X121946612Y-107130964D01*
X121934842Y-107127942D01*
X121922882Y-107125368D01*
X121910754Y-107123246D01*
X121898478Y-107121585D01*
X121886075Y-107120390D01*
X121873565Y-107119668D01*
X121860970Y-107119426D01*
X121353002Y-107119426D01*
X121340407Y-107119668D01*
X121327898Y-107120391D01*
X121315495Y-107121586D01*
X121303219Y-107123248D01*
X121291090Y-107125370D01*
X121279131Y-107127945D01*
X121267361Y-107130967D01*
X121255802Y-107134428D01*
X121244474Y-107138323D01*
X121233398Y-107142644D01*
X121222595Y-107147385D01*
X121212085Y-107152538D01*
X121201890Y-107158099D01*
X121192030Y-107164058D01*
X121182527Y-107170411D01*
X121173400Y-107177150D01*
X121164715Y-107184232D01*
X121156528Y-107191606D01*
X121148848Y-107199256D01*
X121141682Y-107207167D01*
X121135041Y-107215321D01*
X121128931Y-107223704D01*
X121123363Y-107232298D01*
X121118344Y-107241088D01*
X121113883Y-107250057D01*
X121109990Y-107259189D01*
X121106671Y-107268469D01*
X121103937Y-107277879D01*
X121101796Y-107287404D01*
X121100256Y-107297028D01*
X121099325Y-107306734D01*
X121099014Y-107316507D01*
X121099013Y-107710669D01*
X120591034Y-107710669D01*
X120591034Y-107316508D01*
X120591996Y-107286528D01*
X120594854Y-107256930D01*
X120599561Y-107227751D01*
X120606073Y-107199026D01*
X120614343Y-107170791D01*
X120624326Y-107143083D01*
X120635978Y-107115937D01*
X120649252Y-107089389D01*
X120664103Y-107063475D01*
X120680485Y-107038232D01*
X120698354Y-107013694D01*
X120717664Y-106989899D01*
X120738369Y-106966882D01*
X120760425Y-106944679D01*
X120783784Y-106923327D01*
X120808403Y-106902860D01*
X120834236Y-106883315D01*
X120861237Y-106864729D01*
X120889361Y-106847136D01*
X120918563Y-106830574D01*
X120948796Y-106815077D01*
X120980016Y-106800683D01*
X121012178Y-106787426D01*
X121045235Y-106775343D01*
X121079143Y-106764470D01*
X121113855Y-106754843D01*
X121149328Y-106746498D01*
X121185514Y-106739471D01*
X121222369Y-106733798D01*
X121259848Y-106729514D01*
X121297904Y-106726656D01*
X121336493Y-106725260D01*
X121324111Y-106666192D01*
X121308418Y-106609416D01*
X121289469Y-106554884D01*
X121267318Y-106502549D01*
X121242018Y-106452364D01*
X121213624Y-106404284D01*
X121182189Y-106358260D01*
X121147769Y-106314245D01*
X121110416Y-106272194D01*
X121070185Y-106232059D01*
X121027130Y-106193793D01*
X120981304Y-106157350D01*
X120932763Y-106122682D01*
X120881560Y-106089742D01*
X120827749Y-106058484D01*
X120771384Y-106028860D01*
X120733791Y-106010723D01*
X120694990Y-105993181D01*
X120654997Y-105976231D01*
X120613827Y-105959870D01*
X120571495Y-105944094D01*
X120528017Y-105928902D01*
X120483408Y-105914288D01*
X120437684Y-105900251D01*
X120437684Y-105484319D01*
X120520567Y-105505158D01*
X120601632Y-105527563D01*
X120680805Y-105551577D01*
X120758012Y-105577245D01*
X120833180Y-105604613D01*
X120906237Y-105633724D01*
X120977109Y-105664623D01*
X121045722Y-105697356D01*
X121087747Y-105718873D01*
X121128737Y-105741054D01*
X121168693Y-105763900D01*
X121207617Y-105787410D01*
X121245508Y-105811586D01*
X121282369Y-105836427D01*
X121318200Y-105861934D01*
X121353002Y-105888107D01*
X121353002Y-105095907D01*
X121334636Y-105087276D01*
X121316877Y-105078122D01*
X121299737Y-105068462D01*
X121283224Y-105058315D01*
X121267349Y-105047701D01*
X121252122Y-105036637D01*
X121237553Y-105025142D01*
X121223651Y-105013236D01*
X121210427Y-105000936D01*
X121197891Y-104988262D01*
X121186053Y-104975232D01*
X121174923Y-104961866D01*
X121164510Y-104948180D01*
X121154825Y-104934196D01*
X121145878Y-104919930D01*
X121137678Y-104905402D01*
X121130236Y-104890630D01*
X121123562Y-104875634D01*
X121117665Y-104860432D01*
X121112556Y-104845042D01*
X121108245Y-104829484D01*
X121104741Y-104813775D01*
X121102055Y-104797935D01*
X121100196Y-104781983D01*
X121099175Y-104765937D01*
X121099002Y-104749816D01*
X121099686Y-104733638D01*
X121101238Y-104717423D01*
X121103667Y-104701189D01*
X121106983Y-104684954D01*
X121111198Y-104668738D01*
X121116319Y-104652559D01*
X121122310Y-104636560D01*
X121129110Y-104620882D01*
X121136700Y-104605535D01*
X121145058Y-104590534D01*
X121154163Y-104575889D01*
X121163996Y-104561613D01*
X121174535Y-104547719D01*
X121185759Y-104534219D01*
X121197649Y-104521125D01*
X121210182Y-104508449D01*
X121223339Y-104496205D01*
X121237099Y-104484403D01*
X121251441Y-104473057D01*
X121266344Y-104462179D01*
X121281788Y-104451781D01*
X121297752Y-104441876D01*
X121314215Y-104432475D01*
X121331157Y-104423592D01*
X121348556Y-104415238D01*
X121366393Y-104407426D01*
X121384646Y-104400168D01*
X121403294Y-104393476D01*
X121422318Y-104387363D01*
X121441696Y-104381841D01*
X121461408Y-104376923D01*
X121481433Y-104372621D01*
X121501749Y-104368946D01*
X121522338Y-104365912D01*
X121543177Y-104363531D01*
X121564246Y-104361815D01*
X121585524Y-104360776D01*
X121606991Y-104360427D01*
X121649737Y-104361815D01*
X121691645Y-104365912D01*
X121732550Y-104372621D01*
X121772286Y-104381841D01*
X121810688Y-104393476D01*
X121847590Y-104407426D01*
X121882826Y-104423592D01*
X121916231Y-104441876D01*
X121947639Y-104462179D01*
X121976884Y-104484403D01*
X122003801Y-104508449D01*
X122028223Y-104534219D01*
X122049987Y-104561613D01*
X122068925Y-104590534D01*
X122084872Y-104620882D01*
X122091673Y-104636560D01*
X122097663Y-104652559D01*
X122102785Y-104668738D01*
X122106999Y-104684954D01*
X122110316Y-104701189D01*
X122112745Y-104717423D01*
X122114297Y-104733638D01*
X122114981Y-104749816D01*
X122114807Y-104765937D01*
X122113786Y-104781983D01*
X122111928Y-104797935D01*
X122109241Y-104813775D01*
X122105738Y-104829484D01*
X122101426Y-104845042D01*
X122096317Y-104860432D01*
X122090420Y-104875634D01*
X122083746Y-104890630D01*
X122076304Y-104905402D01*
X122068105Y-104919930D01*
X122059157Y-104934196D01*
X122049472Y-104948180D01*
X122039059Y-104961866D01*
X122027929Y-104975232D01*
X122016091Y-104988262D01*
X122003555Y-105000936D01*
X121990331Y-105013236D01*
X121976430Y-105025142D01*
X121961860Y-105036637D01*
X121946633Y-105047701D01*
X121930758Y-105058315D01*
X121914246Y-105068462D01*
X121897105Y-105078122D01*
X121879347Y-105087276D01*
X121860980Y-105095907D01*
X121860981Y-106725265D01*
X121898767Y-106725992D01*
X121936295Y-106728158D01*
X121973505Y-106731745D01*
X122010333Y-106736731D01*
X122046718Y-106743097D01*
X122082596Y-106750822D01*
X122117905Y-106759887D01*
X122152583Y-106770272D01*
X122186568Y-106781956D01*
X122219796Y-106794919D01*
X122252206Y-106809141D01*
X122283734Y-106824602D01*
X122314319Y-106841283D01*
X122343898Y-106859162D01*
X122372409Y-106878221D01*
X122399788Y-106898438D01*
X122425843Y-106919683D01*
X122450405Y-106941805D01*
X122473447Y-106964756D01*
X122494944Y-106988488D01*
X122514869Y-107012952D01*
X122533197Y-107038099D01*
X122549903Y-107063882D01*
X122564959Y-107090251D01*
X122578341Y-107117159D01*
X122590023Y-107144556D01*
X122599977Y-107172394D01*
X122608180Y-107200625D01*
X122614604Y-107229200D01*
X122619225Y-107258072D01*
X122622015Y-107287190D01*
X122622950Y-107316507D01*
X122622950Y-107316508D01*
G37*
D12*
X117424173Y-105169352D02*
X117390471Y-105157498D01*
X117357954Y-105145301D01*
X117326619Y-105132757D01*
X117296463Y-105119865D01*
X117267482Y-105106623D01*
X117239674Y-105093028D01*
X117213034Y-105079079D01*
X117187560Y-105064772D01*
X117143592Y-105037601D01*
X117122628Y-105023351D01*
X117102339Y-105008641D01*
X117082718Y-104993460D01*
X117063763Y-104977794D01*
X117045467Y-104961633D01*
X117027828Y-104944962D01*
X117010840Y-104927771D01*
X116994498Y-104910047D01*
X116978798Y-104891777D01*
X116963736Y-104872950D01*
X116949307Y-104853553D01*
X116935506Y-104833574D01*
X116922329Y-104813000D01*
X116909771Y-104791820D01*
X116897827Y-104770021D01*
X116886494Y-104747590D01*
X116875766Y-104724516D01*
X116865640Y-104700787D01*
X116856109Y-104676389D01*
X116847170Y-104651311D01*
X116838819Y-104625541D01*
X116831050Y-104599066D01*
X116823860Y-104571874D01*
X116817243Y-104543953D01*
X116805711Y-104485873D01*
X116796418Y-104424729D01*
X116789328Y-104360423D01*
X116802020Y-104359607D01*
X116814690Y-104358626D01*
X116827335Y-104357482D01*
X116839952Y-104356174D01*
X116852540Y-104354703D01*
X116865095Y-104353069D01*
X116877615Y-104351272D01*
X116890098Y-104349312D01*
X117424173Y-105169352D01*
G36*
X117424173Y-105169352D02*
G01*
X117390471Y-105157498D01*
X117357954Y-105145301D01*
X117326619Y-105132757D01*
X117296463Y-105119865D01*
X117267482Y-105106623D01*
X117239674Y-105093028D01*
X117213034Y-105079079D01*
X117187560Y-105064772D01*
X117143592Y-105037601D01*
X117122628Y-105023351D01*
X117102339Y-105008641D01*
X117082718Y-104993460D01*
X117063763Y-104977794D01*
X117045467Y-104961633D01*
X117027828Y-104944962D01*
X117010840Y-104927771D01*
X116994498Y-104910047D01*
X116978798Y-104891777D01*
X116963736Y-104872950D01*
X116949307Y-104853553D01*
X116935506Y-104833574D01*
X116922329Y-104813000D01*
X116909771Y-104791820D01*
X116897827Y-104770021D01*
X116886494Y-104747590D01*
X116875766Y-104724516D01*
X116865640Y-104700787D01*
X116856109Y-104676389D01*
X116847170Y-104651311D01*
X116838819Y-104625541D01*
X116831050Y-104599066D01*
X116823860Y-104571874D01*
X116817243Y-104543953D01*
X116805711Y-104485873D01*
X116796418Y-104424729D01*
X116789328Y-104360423D01*
X116802020Y-104359607D01*
X116814690Y-104358626D01*
X116827335Y-104357482D01*
X116839952Y-104356174D01*
X116852540Y-104354703D01*
X116865095Y-104353069D01*
X116877615Y-104351272D01*
X116890098Y-104349312D01*
X117424173Y-105169352D01*
G37*
D11*
X116793783Y-103178243D02*
X116806293Y-103178965D01*
X116818696Y-103180161D01*
X116830972Y-103181823D01*
X116843100Y-103183945D01*
X116855060Y-103186520D01*
X116866830Y-103189542D01*
X116878389Y-103193003D01*
X116889717Y-103196898D01*
X116900793Y-103201219D01*
X116911597Y-103205960D01*
X116922106Y-103211114D01*
X116932301Y-103216674D01*
X116942161Y-103222634D01*
X116951665Y-103228986D01*
X116960792Y-103235726D01*
X116969477Y-103242807D01*
X116977664Y-103250181D01*
X116985345Y-103257832D01*
X116992510Y-103265742D01*
X116999152Y-103273897D01*
X117005261Y-103282279D01*
X117010830Y-103290873D01*
X117015849Y-103299663D01*
X117020309Y-103308632D01*
X117024203Y-103317765D01*
X117027521Y-103327044D01*
X117030255Y-103336454D01*
X117032397Y-103345979D01*
X117033937Y-103355603D01*
X117034867Y-103365309D01*
X117035178Y-103375082D01*
X117035178Y-103769244D01*
X117034848Y-103779378D01*
X117033867Y-103789380D01*
X117032253Y-103799236D01*
X117030020Y-103808935D01*
X117027185Y-103818464D01*
X117023763Y-103827811D01*
X117019772Y-103836963D01*
X117015225Y-103845908D01*
X117010141Y-103854634D01*
X117004534Y-103863127D01*
X116998420Y-103871377D01*
X116991816Y-103879370D01*
X116984737Y-103887093D01*
X116977199Y-103894536D01*
X116969218Y-103901685D01*
X116960811Y-103908527D01*
X116951993Y-103915051D01*
X116942780Y-103921244D01*
X116933188Y-103927094D01*
X116923232Y-103932588D01*
X116912930Y-103937714D01*
X116902297Y-103942459D01*
X116891348Y-103946811D01*
X116880100Y-103950759D01*
X116868569Y-103954288D01*
X116856771Y-103957388D01*
X116844721Y-103960045D01*
X116832435Y-103962247D01*
X116819931Y-103963982D01*
X116807222Y-103965238D01*
X116794326Y-103966001D01*
X116781259Y-103966260D01*
X116273209Y-103966260D01*
X116260142Y-103966004D01*
X116247245Y-103965243D01*
X116222031Y-103962258D01*
X116197694Y-103957404D01*
X116174362Y-103950779D01*
X116152163Y-103942483D01*
X116131224Y-103932615D01*
X116111672Y-103921274D01*
X116093636Y-103908559D01*
X116085227Y-103901717D01*
X116077243Y-103894568D01*
X116069703Y-103887126D01*
X116062621Y-103879402D01*
X116056014Y-103871408D01*
X116049897Y-103863158D01*
X116044287Y-103854662D01*
X116039199Y-103845935D01*
X116034650Y-103836988D01*
X116030655Y-103827834D01*
X116027230Y-103818484D01*
X116024392Y-103808952D01*
X116022156Y-103799250D01*
X116020537Y-103789389D01*
X116019553Y-103779383D01*
X116019219Y-103769244D01*
X116019219Y-103375082D01*
X116019531Y-103365307D01*
X116020462Y-103355600D01*
X116022003Y-103345975D01*
X116024145Y-103336449D01*
X116026880Y-103327038D01*
X116030199Y-103317758D01*
X116034093Y-103308625D01*
X116038554Y-103299655D01*
X116043574Y-103290865D01*
X116049143Y-103282271D01*
X116055253Y-103273889D01*
X116061895Y-103265734D01*
X116069061Y-103257824D01*
X116076742Y-103250173D01*
X116084930Y-103242800D01*
X116093615Y-103235718D01*
X116102742Y-103228980D01*
X116112246Y-103222627D01*
X116122106Y-103216668D01*
X116132302Y-103211108D01*
X116142812Y-103205955D01*
X116153615Y-103201214D01*
X116164692Y-103196894D01*
X116176020Y-103192999D01*
X116187580Y-103189538D01*
X116199350Y-103186517D01*
X116211309Y-103183943D01*
X116223438Y-103181821D01*
X116235714Y-103180160D01*
X116248117Y-103178965D01*
X116260627Y-103178243D01*
X116273222Y-103178001D01*
X116781188Y-103178001D01*
X116793783Y-103178243D01*
G36*
X116793783Y-103178243D02*
G01*
X116806293Y-103178965D01*
X116818696Y-103180161D01*
X116830972Y-103181823D01*
X116843100Y-103183945D01*
X116855060Y-103186520D01*
X116866830Y-103189542D01*
X116878389Y-103193003D01*
X116889717Y-103196898D01*
X116900793Y-103201219D01*
X116911597Y-103205960D01*
X116922106Y-103211114D01*
X116932301Y-103216674D01*
X116942161Y-103222634D01*
X116951665Y-103228986D01*
X116960792Y-103235726D01*
X116969477Y-103242807D01*
X116977664Y-103250181D01*
X116985345Y-103257832D01*
X116992510Y-103265742D01*
X116999152Y-103273897D01*
X117005261Y-103282279D01*
X117010830Y-103290873D01*
X117015849Y-103299663D01*
X117020309Y-103308632D01*
X117024203Y-103317765D01*
X117027521Y-103327044D01*
X117030255Y-103336454D01*
X117032397Y-103345979D01*
X117033937Y-103355603D01*
X117034867Y-103365309D01*
X117035178Y-103375082D01*
X117035178Y-103769244D01*
X117034848Y-103779378D01*
X117033867Y-103789380D01*
X117032253Y-103799236D01*
X117030020Y-103808935D01*
X117027185Y-103818464D01*
X117023763Y-103827811D01*
X117019772Y-103836963D01*
X117015225Y-103845908D01*
X117010141Y-103854634D01*
X117004534Y-103863127D01*
X116998420Y-103871377D01*
X116991816Y-103879370D01*
X116984737Y-103887093D01*
X116977199Y-103894536D01*
X116969218Y-103901685D01*
X116960811Y-103908527D01*
X116951993Y-103915051D01*
X116942780Y-103921244D01*
X116933188Y-103927094D01*
X116923232Y-103932588D01*
X116912930Y-103937714D01*
X116902297Y-103942459D01*
X116891348Y-103946811D01*
X116880100Y-103950759D01*
X116868569Y-103954288D01*
X116856771Y-103957388D01*
X116844721Y-103960045D01*
X116832435Y-103962247D01*
X116819931Y-103963982D01*
X116807222Y-103965238D01*
X116794326Y-103966001D01*
X116781259Y-103966260D01*
X116273209Y-103966260D01*
X116260142Y-103966004D01*
X116247245Y-103965243D01*
X116222031Y-103962258D01*
X116197694Y-103957404D01*
X116174362Y-103950779D01*
X116152163Y-103942483D01*
X116131224Y-103932615D01*
X116111672Y-103921274D01*
X116093636Y-103908559D01*
X116085227Y-103901717D01*
X116077243Y-103894568D01*
X116069703Y-103887126D01*
X116062621Y-103879402D01*
X116056014Y-103871408D01*
X116049897Y-103863158D01*
X116044287Y-103854662D01*
X116039199Y-103845935D01*
X116034650Y-103836988D01*
X116030655Y-103827834D01*
X116027230Y-103818484D01*
X116024392Y-103808952D01*
X116022156Y-103799250D01*
X116020537Y-103789389D01*
X116019553Y-103779383D01*
X116019219Y-103769244D01*
X116019219Y-103375082D01*
X116019531Y-103365307D01*
X116020462Y-103355600D01*
X116022003Y-103345975D01*
X116024145Y-103336449D01*
X116026880Y-103327038D01*
X116030199Y-103317758D01*
X116034093Y-103308625D01*
X116038554Y-103299655D01*
X116043574Y-103290865D01*
X116049143Y-103282271D01*
X116055253Y-103273889D01*
X116061895Y-103265734D01*
X116069061Y-103257824D01*
X116076742Y-103250173D01*
X116084930Y-103242800D01*
X116093615Y-103235718D01*
X116102742Y-103228980D01*
X116112246Y-103222627D01*
X116122106Y-103216668D01*
X116132302Y-103211108D01*
X116142812Y-103205955D01*
X116153615Y-103201214D01*
X116164692Y-103196894D01*
X116176020Y-103192999D01*
X116187580Y-103189538D01*
X116199350Y-103186517D01*
X116211309Y-103183943D01*
X116223438Y-103181821D01*
X116235714Y-103180160D01*
X116248117Y-103178965D01*
X116260627Y-103178243D01*
X116273222Y-103178001D01*
X116781188Y-103178001D01*
X116793783Y-103178243D01*
G37*
D13*
X119848572Y-104209527D02*
X120613384Y-102930535D01*
X121913045Y-102930535D01*
X120437684Y-105131886D01*
X120437684Y-105484319D01*
X120304638Y-105454904D01*
X120167315Y-105429286D01*
X120025912Y-105407353D01*
X119880631Y-105388992D01*
X119731669Y-105374094D01*
X119579226Y-105362546D01*
X119423501Y-105354237D01*
X119264693Y-105349056D01*
X119264693Y-105131886D01*
X117791916Y-102930535D01*
X119083826Y-102930535D01*
X119848572Y-104209527D01*
G36*
X119848572Y-104209527D02*
G01*
X120613384Y-102930535D01*
X121913045Y-102930535D01*
X120437684Y-105131886D01*
X120437684Y-105484319D01*
X120304638Y-105454904D01*
X120167315Y-105429286D01*
X120025912Y-105407353D01*
X119880631Y-105388992D01*
X119731669Y-105374094D01*
X119579226Y-105362546D01*
X119423501Y-105354237D01*
X119264693Y-105349056D01*
X119264693Y-105131886D01*
X117791916Y-102930535D01*
X119083826Y-102930535D01*
X119848572Y-104209527D01*
G37*
X119342609Y-105745581D02*
X119419119Y-105748749D01*
X119494234Y-105752715D01*
X119567959Y-105757468D01*
X119640306Y-105763000D01*
X119711281Y-105769301D01*
X119780894Y-105776362D01*
X119849153Y-105784172D01*
X119930201Y-105794666D01*
X120009189Y-105806284D01*
X120086079Y-105819037D01*
X120160831Y-105832938D01*
X120233406Y-105847997D01*
X120303766Y-105864228D01*
X120371871Y-105881642D01*
X120437683Y-105900251D01*
X120437683Y-106718354D01*
X119264692Y-106718354D01*
X119264692Y-106679919D01*
X119264693Y-105743219D01*
X119342609Y-105745581D01*
G36*
X119342609Y-105745581D02*
G01*
X119419119Y-105748749D01*
X119494234Y-105752715D01*
X119567959Y-105757468D01*
X119640306Y-105763000D01*
X119711281Y-105769301D01*
X119780894Y-105776362D01*
X119849153Y-105784172D01*
X119930201Y-105794666D01*
X120009189Y-105806284D01*
X120086079Y-105819037D01*
X120160831Y-105832938D01*
X120233406Y-105847997D01*
X120303766Y-105864228D01*
X120371871Y-105881642D01*
X120437683Y-105900251D01*
X120437683Y-106718354D01*
X119264692Y-106718354D01*
X119264692Y-106679919D01*
X119264693Y-105743219D01*
X119342609Y-105745581D01*
G37*
D10*
X123995000Y-85316000D02*
X109390000Y-85316000D01*
D11*
X117488944Y-105190086D02*
X117558081Y-105209603D01*
X117631731Y-105227888D01*
X117710043Y-105244923D01*
X117793164Y-105260691D01*
X117881241Y-105275176D01*
X117974422Y-105288361D01*
X118072854Y-105300230D01*
X118176686Y-105310765D01*
X118286065Y-105319949D01*
X118401139Y-105327767D01*
X118522055Y-105334201D01*
X118782004Y-105342850D01*
X119067094Y-105345763D01*
X119102116Y-105345979D01*
X119136830Y-105346533D01*
X119205846Y-105348088D01*
X118953730Y-105738503D01*
X118780575Y-105736167D01*
X118613569Y-105731739D01*
X118452712Y-105725111D01*
X118298004Y-105716176D01*
X118149442Y-105704829D01*
X118007025Y-105690961D01*
X117870754Y-105674467D01*
X117740625Y-105655239D01*
X117424172Y-105169352D01*
X117488944Y-105190086D01*
G36*
X117488944Y-105190086D02*
G01*
X117558081Y-105209603D01*
X117631731Y-105227888D01*
X117710043Y-105244923D01*
X117793164Y-105260691D01*
X117881241Y-105275176D01*
X117974422Y-105288361D01*
X118072854Y-105300230D01*
X118176686Y-105310765D01*
X118286065Y-105319949D01*
X118401139Y-105327767D01*
X118522055Y-105334201D01*
X118782004Y-105342850D01*
X119067094Y-105345763D01*
X119102116Y-105345979D01*
X119136830Y-105346533D01*
X119205846Y-105348088D01*
X118953730Y-105738503D01*
X118780575Y-105736167D01*
X118613569Y-105731739D01*
X118452712Y-105725111D01*
X118298004Y-105716176D01*
X118149442Y-105704829D01*
X118007025Y-105690961D01*
X117870754Y-105674467D01*
X117740625Y-105655239D01*
X117424172Y-105169352D01*
X117488944Y-105190086D01*
G37*
X116793783Y-103178243D02*
X116806293Y-103178965D01*
X116818696Y-103180161D01*
X116830972Y-103181823D01*
X116843100Y-103183945D01*
X116855060Y-103186520D01*
X116866830Y-103189542D01*
X116878389Y-103193003D01*
X116889717Y-103196898D01*
X116900793Y-103201219D01*
X116911597Y-103205960D01*
X116922106Y-103211114D01*
X116932301Y-103216674D01*
X116942161Y-103222634D01*
X116951665Y-103228986D01*
X116960792Y-103235726D01*
X116969477Y-103242807D01*
X116977664Y-103250181D01*
X116985345Y-103257832D01*
X116992510Y-103265742D01*
X116999152Y-103273897D01*
X117005261Y-103282279D01*
X117010830Y-103290873D01*
X117015849Y-103299663D01*
X117020309Y-103308632D01*
X117024203Y-103317765D01*
X117027521Y-103327044D01*
X117030255Y-103336454D01*
X117032397Y-103345979D01*
X117033937Y-103355603D01*
X117034867Y-103365309D01*
X117035178Y-103375082D01*
X117035178Y-103769244D01*
X117034848Y-103779378D01*
X117033867Y-103789380D01*
X117032253Y-103799236D01*
X117030020Y-103808935D01*
X117027185Y-103818464D01*
X117023763Y-103827811D01*
X117019772Y-103836963D01*
X117015225Y-103845908D01*
X117010141Y-103854634D01*
X117004534Y-103863127D01*
X116998420Y-103871377D01*
X116991816Y-103879370D01*
X116984737Y-103887093D01*
X116977199Y-103894536D01*
X116969218Y-103901685D01*
X116960811Y-103908527D01*
X116951993Y-103915051D01*
X116942780Y-103921244D01*
X116933188Y-103927094D01*
X116923232Y-103932588D01*
X116912930Y-103937714D01*
X116902297Y-103942459D01*
X116891348Y-103946811D01*
X116880100Y-103950759D01*
X116868569Y-103954288D01*
X116856771Y-103957388D01*
X116844721Y-103960045D01*
X116832435Y-103962247D01*
X116819931Y-103963982D01*
X116807222Y-103965238D01*
X116794326Y-103966001D01*
X116781259Y-103966260D01*
X116273209Y-103966260D01*
X116260142Y-103966004D01*
X116247245Y-103965243D01*
X116222031Y-103962258D01*
X116197694Y-103957404D01*
X116174362Y-103950779D01*
X116152163Y-103942483D01*
X116131224Y-103932615D01*
X116111672Y-103921274D01*
X116093636Y-103908559D01*
X116085227Y-103901717D01*
X116077243Y-103894568D01*
X116069703Y-103887126D01*
X116062621Y-103879402D01*
X116056014Y-103871408D01*
X116049897Y-103863158D01*
X116044287Y-103854662D01*
X116039199Y-103845935D01*
X116034650Y-103836988D01*
X116030655Y-103827834D01*
X116027230Y-103818484D01*
X116024392Y-103808952D01*
X116022156Y-103799250D01*
X116020537Y-103789389D01*
X116019553Y-103779383D01*
X116019219Y-103769244D01*
X116019219Y-103375082D01*
X116019531Y-103365307D01*
X116020462Y-103355600D01*
X116022003Y-103345975D01*
X116024145Y-103336449D01*
X116026880Y-103327038D01*
X116030199Y-103317758D01*
X116034093Y-103308625D01*
X116038554Y-103299655D01*
X116043574Y-103290865D01*
X116049143Y-103282271D01*
X116055253Y-103273889D01*
X116061895Y-103265734D01*
X116069061Y-103257824D01*
X116076742Y-103250173D01*
X116084930Y-103242800D01*
X116093615Y-103235718D01*
X116102742Y-103228980D01*
X116112246Y-103222627D01*
X116122106Y-103216668D01*
X116132302Y-103211108D01*
X116142812Y-103205955D01*
X116153615Y-103201214D01*
X116164692Y-103196894D01*
X116176020Y-103192999D01*
X116187580Y-103189538D01*
X116199350Y-103186517D01*
X116211309Y-103183943D01*
X116223438Y-103181821D01*
X116235714Y-103180160D01*
X116248117Y-103178965D01*
X116260627Y-103178243D01*
X116273222Y-103178001D01*
X116781188Y-103178001D01*
X116793783Y-103178243D01*
G36*
X116793783Y-103178243D02*
G01*
X116806293Y-103178965D01*
X116818696Y-103180161D01*
X116830972Y-103181823D01*
X116843100Y-103183945D01*
X116855060Y-103186520D01*
X116866830Y-103189542D01*
X116878389Y-103193003D01*
X116889717Y-103196898D01*
X116900793Y-103201219D01*
X116911597Y-103205960D01*
X116922106Y-103211114D01*
X116932301Y-103216674D01*
X116942161Y-103222634D01*
X116951665Y-103228986D01*
X116960792Y-103235726D01*
X116969477Y-103242807D01*
X116977664Y-103250181D01*
X116985345Y-103257832D01*
X116992510Y-103265742D01*
X116999152Y-103273897D01*
X117005261Y-103282279D01*
X117010830Y-103290873D01*
X117015849Y-103299663D01*
X117020309Y-103308632D01*
X117024203Y-103317765D01*
X117027521Y-103327044D01*
X117030255Y-103336454D01*
X117032397Y-103345979D01*
X117033937Y-103355603D01*
X117034867Y-103365309D01*
X117035178Y-103375082D01*
X117035178Y-103769244D01*
X117034848Y-103779378D01*
X117033867Y-103789380D01*
X117032253Y-103799236D01*
X117030020Y-103808935D01*
X117027185Y-103818464D01*
X117023763Y-103827811D01*
X117019772Y-103836963D01*
X117015225Y-103845908D01*
X117010141Y-103854634D01*
X117004534Y-103863127D01*
X116998420Y-103871377D01*
X116991816Y-103879370D01*
X116984737Y-103887093D01*
X116977199Y-103894536D01*
X116969218Y-103901685D01*
X116960811Y-103908527D01*
X116951993Y-103915051D01*
X116942780Y-103921244D01*
X116933188Y-103927094D01*
X116923232Y-103932588D01*
X116912930Y-103937714D01*
X116902297Y-103942459D01*
X116891348Y-103946811D01*
X116880100Y-103950759D01*
X116868569Y-103954288D01*
X116856771Y-103957388D01*
X116844721Y-103960045D01*
X116832435Y-103962247D01*
X116819931Y-103963982D01*
X116807222Y-103965238D01*
X116794326Y-103966001D01*
X116781259Y-103966260D01*
X116273209Y-103966260D01*
X116260142Y-103966004D01*
X116247245Y-103965243D01*
X116222031Y-103962258D01*
X116197694Y-103957404D01*
X116174362Y-103950779D01*
X116152163Y-103942483D01*
X116131224Y-103932615D01*
X116111672Y-103921274D01*
X116093636Y-103908559D01*
X116085227Y-103901717D01*
X116077243Y-103894568D01*
X116069703Y-103887126D01*
X116062621Y-103879402D01*
X116056014Y-103871408D01*
X116049897Y-103863158D01*
X116044287Y-103854662D01*
X116039199Y-103845935D01*
X116034650Y-103836988D01*
X116030655Y-103827834D01*
X116027230Y-103818484D01*
X116024392Y-103808952D01*
X116022156Y-103799250D01*
X116020537Y-103789389D01*
X116019553Y-103779383D01*
X116019219Y-103769244D01*
X116019219Y-103375082D01*
X116019531Y-103365307D01*
X116020462Y-103355600D01*
X116022003Y-103345975D01*
X116024145Y-103336449D01*
X116026880Y-103327038D01*
X116030199Y-103317758D01*
X116034093Y-103308625D01*
X116038554Y-103299655D01*
X116043574Y-103290865D01*
X116049143Y-103282271D01*
X116055253Y-103273889D01*
X116061895Y-103265734D01*
X116069061Y-103257824D01*
X116076742Y-103250173D01*
X116084930Y-103242800D01*
X116093615Y-103235718D01*
X116102742Y-103228980D01*
X116112246Y-103222627D01*
X116122106Y-103216668D01*
X116132302Y-103211108D01*
X116142812Y-103205955D01*
X116153615Y-103201214D01*
X116164692Y-103196894D01*
X116176020Y-103192999D01*
X116187580Y-103189538D01*
X116199350Y-103186517D01*
X116211309Y-103183943D01*
X116223438Y-103181821D01*
X116235714Y-103180160D01*
X116248117Y-103178965D01*
X116260627Y-103178243D01*
X116273222Y-103178001D01*
X116781188Y-103178001D01*
X116793783Y-103178243D01*
G37*
D12*
X115975699Y-104308803D02*
X115994521Y-104315115D01*
X116013534Y-104321025D01*
X116032727Y-104326532D01*
X116052090Y-104331633D01*
X116071612Y-104336327D01*
X116091283Y-104340611D01*
X116111091Y-104344484D01*
X116131025Y-104347944D01*
X116151076Y-104350989D01*
X116171231Y-104353616D01*
X116191481Y-104355824D01*
X116211815Y-104357610D01*
X116232221Y-104358973D01*
X116252690Y-104359911D01*
X116273209Y-104360422D01*
X116273209Y-104777709D01*
X115957080Y-104302092D01*
X115975699Y-104308803D01*
G36*
X115975699Y-104308803D02*
G01*
X115994521Y-104315115D01*
X116013534Y-104321025D01*
X116032727Y-104326532D01*
X116052090Y-104331633D01*
X116071612Y-104336327D01*
X116091283Y-104340611D01*
X116111091Y-104344484D01*
X116131025Y-104347944D01*
X116151076Y-104350989D01*
X116171231Y-104353616D01*
X116191481Y-104355824D01*
X116211815Y-104357610D01*
X116232221Y-104358973D01*
X116252690Y-104359911D01*
X116273209Y-104360422D01*
X116273209Y-104777709D01*
X115957080Y-104302092D01*
X115975699Y-104308803D01*
G37*
D10*
X193279211Y-82421514D02*
X193279211Y-83028657D01*
X193279211Y-83028657D02*
X193314925Y-83100085D01*
X193314925Y-83100085D02*
X193350639Y-83135800D01*
X193350639Y-83135800D02*
X193422068Y-83171514D01*
X193422068Y-83171514D02*
X193529211Y-83171514D01*
X193529211Y-83171514D02*
X193600639Y-83135800D01*
X193279211Y-82885800D02*
X193350639Y-82921514D01*
X193350639Y-82921514D02*
X193493496Y-82921514D01*
X193493496Y-82921514D02*
X193564925Y-82885800D01*
X193564925Y-82885800D02*
X193600639Y-82850085D01*
X193600639Y-82850085D02*
X193636353Y-82778657D01*
X193636353Y-82778657D02*
X193636353Y-82564371D01*
X193636353Y-82564371D02*
X193600639Y-82492942D01*
X193600639Y-82492942D02*
X193564925Y-82457228D01*
X193564925Y-82457228D02*
X193493496Y-82421514D01*
X193493496Y-82421514D02*
X193350639Y-82421514D01*
X193350639Y-82421514D02*
X193279211Y-82457228D01*
X192922068Y-82921514D02*
X192922068Y-82421514D01*
X192922068Y-82171514D02*
X192957782Y-82207228D01*
X192957782Y-82207228D02*
X192922068Y-82242942D01*
X192922068Y-82242942D02*
X192886354Y-82207228D01*
X192886354Y-82207228D02*
X192922068Y-82171514D01*
X192922068Y-82171514D02*
X192922068Y-82242942D01*
X192672068Y-82421514D02*
X192386354Y-82421514D01*
X192564925Y-82171514D02*
X192564925Y-82814371D01*
X192564925Y-82814371D02*
X192529211Y-82885800D01*
X192529211Y-82885800D02*
X192457782Y-82921514D01*
X192457782Y-82921514D02*
X192386354Y-82921514D01*
X192136354Y-82921514D02*
X192136354Y-82171514D01*
X191814926Y-82921514D02*
X191814926Y-82528657D01*
X191814926Y-82528657D02*
X191850640Y-82457228D01*
X191850640Y-82457228D02*
X191922068Y-82421514D01*
X191922068Y-82421514D02*
X192029211Y-82421514D01*
X192029211Y-82421514D02*
X192100640Y-82457228D01*
X192100640Y-82457228D02*
X192136354Y-82492942D01*
X191136355Y-82421514D02*
X191136355Y-82921514D01*
X191457783Y-82421514D02*
X191457783Y-82814371D01*
X191457783Y-82814371D02*
X191422069Y-82885800D01*
X191422069Y-82885800D02*
X191350640Y-82921514D01*
X191350640Y-82921514D02*
X191243497Y-82921514D01*
X191243497Y-82921514D02*
X191172069Y-82885800D01*
X191172069Y-82885800D02*
X191136355Y-82850085D01*
X190779212Y-82921514D02*
X190779212Y-82171514D01*
X190779212Y-82457228D02*
X190707784Y-82421514D01*
X190707784Y-82421514D02*
X190564926Y-82421514D01*
X190564926Y-82421514D02*
X190493498Y-82457228D01*
X190493498Y-82457228D02*
X190457784Y-82492942D01*
X190457784Y-82492942D02*
X190422069Y-82564371D01*
X190422069Y-82564371D02*
X190422069Y-82778657D01*
X190422069Y-82778657D02*
X190457784Y-82850085D01*
X190457784Y-82850085D02*
X190493498Y-82885800D01*
X190493498Y-82885800D02*
X190564926Y-82921514D01*
X190564926Y-82921514D02*
X190707784Y-82921514D01*
X190707784Y-82921514D02*
X190779212Y-82885800D01*
X190100641Y-82850085D02*
X190064927Y-82885800D01*
X190064927Y-82885800D02*
X190100641Y-82921514D01*
X190100641Y-82921514D02*
X190136355Y-82885800D01*
X190136355Y-82885800D02*
X190100641Y-82850085D01*
X190100641Y-82850085D02*
X190100641Y-82921514D01*
X189422070Y-82885800D02*
X189493498Y-82921514D01*
X189493498Y-82921514D02*
X189636355Y-82921514D01*
X189636355Y-82921514D02*
X189707784Y-82885800D01*
X189707784Y-82885800D02*
X189743498Y-82850085D01*
X189743498Y-82850085D02*
X189779212Y-82778657D01*
X189779212Y-82778657D02*
X189779212Y-82564371D01*
X189779212Y-82564371D02*
X189743498Y-82492942D01*
X189743498Y-82492942D02*
X189707784Y-82457228D01*
X189707784Y-82457228D02*
X189636355Y-82421514D01*
X189636355Y-82421514D02*
X189493498Y-82421514D01*
X189493498Y-82421514D02*
X189422070Y-82457228D01*
X188993498Y-82921514D02*
X189064927Y-82885800D01*
X189064927Y-82885800D02*
X189100641Y-82850085D01*
X189100641Y-82850085D02*
X189136355Y-82778657D01*
X189136355Y-82778657D02*
X189136355Y-82564371D01*
X189136355Y-82564371D02*
X189100641Y-82492942D01*
X189100641Y-82492942D02*
X189064927Y-82457228D01*
X189064927Y-82457228D02*
X188993498Y-82421514D01*
X188993498Y-82421514D02*
X188886355Y-82421514D01*
X188886355Y-82421514D02*
X188814927Y-82457228D01*
X188814927Y-82457228D02*
X188779213Y-82492942D01*
X188779213Y-82492942D02*
X188743498Y-82564371D01*
X188743498Y-82564371D02*
X188743498Y-82778657D01*
X188743498Y-82778657D02*
X188779213Y-82850085D01*
X188779213Y-82850085D02*
X188814927Y-82885800D01*
X188814927Y-82885800D02*
X188886355Y-82921514D01*
X188886355Y-82921514D02*
X188993498Y-82921514D01*
X188422070Y-82921514D02*
X188422070Y-82421514D01*
X188422070Y-82492942D02*
X188386356Y-82457228D01*
X188386356Y-82457228D02*
X188314927Y-82421514D01*
X188314927Y-82421514D02*
X188207784Y-82421514D01*
X188207784Y-82421514D02*
X188136356Y-82457228D01*
X188136356Y-82457228D02*
X188100642Y-82528657D01*
X188100642Y-82528657D02*
X188100642Y-82921514D01*
X188100642Y-82528657D02*
X188064927Y-82457228D01*
X188064927Y-82457228D02*
X187993499Y-82421514D01*
X187993499Y-82421514D02*
X187886356Y-82421514D01*
X187886356Y-82421514D02*
X187814927Y-82457228D01*
X187814927Y-82457228D02*
X187779213Y-82528657D01*
X187779213Y-82528657D02*
X187779213Y-82921514D01*
X186886356Y-82135800D02*
X187529213Y-83100085D01*
X186707785Y-82421514D02*
X186529213Y-82921514D01*
X186350642Y-82421514D02*
X186529213Y-82921514D01*
X186529213Y-82921514D02*
X186600642Y-83100085D01*
X186600642Y-83100085D02*
X186636356Y-83135800D01*
X186636356Y-83135800D02*
X186707785Y-83171514D01*
X185743499Y-82421514D02*
X185743499Y-82921514D01*
X186064927Y-82421514D02*
X186064927Y-82814371D01*
X186064927Y-82814371D02*
X186029213Y-82885800D01*
X186029213Y-82885800D02*
X185957784Y-82921514D01*
X185957784Y-82921514D02*
X185850641Y-82921514D01*
X185850641Y-82921514D02*
X185779213Y-82885800D01*
X185779213Y-82885800D02*
X185743499Y-82850085D01*
X185386356Y-82921514D02*
X185386356Y-82421514D01*
X185386356Y-82492942D02*
X185350642Y-82457228D01*
X185350642Y-82457228D02*
X185279213Y-82421514D01*
X185279213Y-82421514D02*
X185172070Y-82421514D01*
X185172070Y-82421514D02*
X185100642Y-82457228D01*
X185100642Y-82457228D02*
X185064928Y-82528657D01*
X185064928Y-82528657D02*
X185064928Y-82921514D01*
X185064928Y-82528657D02*
X185029213Y-82457228D01*
X185029213Y-82457228D02*
X184957785Y-82421514D01*
X184957785Y-82421514D02*
X184850642Y-82421514D01*
X184850642Y-82421514D02*
X184779213Y-82457228D01*
X184779213Y-82457228D02*
X184743499Y-82528657D01*
X184743499Y-82528657D02*
X184743499Y-82921514D01*
X184100642Y-82885800D02*
X184172070Y-82921514D01*
X184172070Y-82921514D02*
X184314928Y-82921514D01*
X184314928Y-82921514D02*
X184386356Y-82885800D01*
X184386356Y-82885800D02*
X184422070Y-82814371D01*
X184422070Y-82814371D02*
X184422070Y-82528657D01*
X184422070Y-82528657D02*
X184386356Y-82457228D01*
X184386356Y-82457228D02*
X184314928Y-82421514D01*
X184314928Y-82421514D02*
X184172070Y-82421514D01*
X184172070Y-82421514D02*
X184100642Y-82457228D01*
X184100642Y-82457228D02*
X184064928Y-82528657D01*
X184064928Y-82528657D02*
X184064928Y-82600085D01*
X184064928Y-82600085D02*
X184422070Y-82671514D01*
X183814928Y-82421514D02*
X183636356Y-82921514D01*
X183457785Y-82421514D02*
X183636356Y-82921514D01*
X183636356Y-82921514D02*
X183707785Y-83100085D01*
X183707785Y-83100085D02*
X183743499Y-83135800D01*
X183743499Y-83135800D02*
X183814928Y-83171514D01*
X182850642Y-82421514D02*
X182850642Y-82921514D01*
X183172070Y-82421514D02*
X183172070Y-82814371D01*
X183172070Y-82814371D02*
X183136356Y-82885800D01*
X183136356Y-82885800D02*
X183064927Y-82921514D01*
X183064927Y-82921514D02*
X182957784Y-82921514D01*
X182957784Y-82921514D02*
X182886356Y-82885800D01*
X182886356Y-82885800D02*
X182850642Y-82850085D01*
X182172071Y-82421514D02*
X182172071Y-82921514D01*
X182493499Y-82421514D02*
X182493499Y-82814371D01*
X182493499Y-82814371D02*
X182457785Y-82885800D01*
X182457785Y-82885800D02*
X182386356Y-82921514D01*
X182386356Y-82921514D02*
X182279213Y-82921514D01*
X182279213Y-82921514D02*
X182207785Y-82885800D01*
X182207785Y-82885800D02*
X182172071Y-82850085D01*
X181279214Y-82135800D02*
X181922071Y-83100085D01*
X180600643Y-82850085D02*
X180636357Y-82885800D01*
X180636357Y-82885800D02*
X180743500Y-82921514D01*
X180743500Y-82921514D02*
X180814928Y-82921514D01*
X180814928Y-82921514D02*
X180922071Y-82885800D01*
X180922071Y-82885800D02*
X180993500Y-82814371D01*
X180993500Y-82814371D02*
X181029214Y-82742942D01*
X181029214Y-82742942D02*
X181064928Y-82600085D01*
X181064928Y-82600085D02*
X181064928Y-82492942D01*
X181064928Y-82492942D02*
X181029214Y-82350085D01*
X181029214Y-82350085D02*
X180993500Y-82278657D01*
X180993500Y-82278657D02*
X180922071Y-82207228D01*
X180922071Y-82207228D02*
X180814928Y-82171514D01*
X180814928Y-82171514D02*
X180743500Y-82171514D01*
X180743500Y-82171514D02*
X180636357Y-82207228D01*
X180636357Y-82207228D02*
X180600643Y-82242942D01*
X180279214Y-82921514D02*
X180279214Y-82171514D01*
X180279214Y-82528657D02*
X179850643Y-82528657D01*
X179850643Y-82921514D02*
X179850643Y-82171514D01*
X179100643Y-82921514D02*
X179529214Y-82921514D01*
X179314929Y-82921514D02*
X179314929Y-82171514D01*
X179314929Y-82171514D02*
X179386357Y-82278657D01*
X179386357Y-82278657D02*
X179457786Y-82350085D01*
X179457786Y-82350085D02*
X179529214Y-82385800D01*
X178850643Y-82171514D02*
X178350643Y-82171514D01*
X178350643Y-82171514D02*
X178672071Y-82921514D01*
X177922071Y-82171514D02*
X177850642Y-82171514D01*
X177850642Y-82171514D02*
X177779214Y-82207228D01*
X177779214Y-82207228D02*
X177743500Y-82242942D01*
X177743500Y-82242942D02*
X177707785Y-82314371D01*
X177707785Y-82314371D02*
X177672071Y-82457228D01*
X177672071Y-82457228D02*
X177672071Y-82635800D01*
X177672071Y-82635800D02*
X177707785Y-82778657D01*
X177707785Y-82778657D02*
X177743500Y-82850085D01*
X177743500Y-82850085D02*
X177779214Y-82885800D01*
X177779214Y-82885800D02*
X177850642Y-82921514D01*
X177850642Y-82921514D02*
X177922071Y-82921514D01*
X177922071Y-82921514D02*
X177993500Y-82885800D01*
X177993500Y-82885800D02*
X178029214Y-82850085D01*
X178029214Y-82850085D02*
X178064928Y-82778657D01*
X178064928Y-82778657D02*
X178100642Y-82635800D01*
X178100642Y-82635800D02*
X178100642Y-82457228D01*
X178100642Y-82457228D02*
X178064928Y-82314371D01*
X178064928Y-82314371D02*
X178029214Y-82242942D01*
X178029214Y-82242942D02*
X177993500Y-82207228D01*
X177993500Y-82207228D02*
X177922071Y-82171514D01*
X177529214Y-82992942D02*
X176957785Y-82992942D01*
X176529213Y-82528657D02*
X176779213Y-82528657D01*
X176779213Y-82921514D02*
X176779213Y-82171514D01*
X176779213Y-82171514D02*
X176422070Y-82171514D01*
X176136356Y-82921514D02*
X176136356Y-82421514D01*
X176136356Y-82564371D02*
X176100642Y-82492942D01*
X176100642Y-82492942D02*
X176064928Y-82457228D01*
X176064928Y-82457228D02*
X175993499Y-82421514D01*
X175993499Y-82421514D02*
X175922070Y-82421514D01*
X175564927Y-82921514D02*
X175636356Y-82885800D01*
X175636356Y-82885800D02*
X175672070Y-82850085D01*
X175672070Y-82850085D02*
X175707784Y-82778657D01*
X175707784Y-82778657D02*
X175707784Y-82564371D01*
X175707784Y-82564371D02*
X175672070Y-82492942D01*
X175672070Y-82492942D02*
X175636356Y-82457228D01*
X175636356Y-82457228D02*
X175564927Y-82421514D01*
X175564927Y-82421514D02*
X175457784Y-82421514D01*
X175457784Y-82421514D02*
X175386356Y-82457228D01*
X175386356Y-82457228D02*
X175350642Y-82492942D01*
X175350642Y-82492942D02*
X175314927Y-82564371D01*
X175314927Y-82564371D02*
X175314927Y-82778657D01*
X175314927Y-82778657D02*
X175350642Y-82850085D01*
X175350642Y-82850085D02*
X175386356Y-82885800D01*
X175386356Y-82885800D02*
X175457784Y-82921514D01*
X175457784Y-82921514D02*
X175564927Y-82921514D01*
X174993499Y-82421514D02*
X174993499Y-82921514D01*
X174993499Y-82492942D02*
X174957785Y-82457228D01*
X174957785Y-82457228D02*
X174886356Y-82421514D01*
X174886356Y-82421514D02*
X174779213Y-82421514D01*
X174779213Y-82421514D02*
X174707785Y-82457228D01*
X174707785Y-82457228D02*
X174672071Y-82528657D01*
X174672071Y-82528657D02*
X174672071Y-82921514D01*
X174422071Y-82421514D02*
X174136357Y-82421514D01*
X174314928Y-82171514D02*
X174314928Y-82814371D01*
X174314928Y-82814371D02*
X174279214Y-82885800D01*
X174279214Y-82885800D02*
X174207785Y-82921514D01*
X174207785Y-82921514D02*
X174136357Y-82921514D01*
X173886357Y-82921514D02*
X173886357Y-82171514D01*
X173886357Y-82171514D02*
X173600643Y-82171514D01*
X173600643Y-82171514D02*
X173529214Y-82207228D01*
X173529214Y-82207228D02*
X173493500Y-82242942D01*
X173493500Y-82242942D02*
X173457786Y-82314371D01*
X173457786Y-82314371D02*
X173457786Y-82421514D01*
X173457786Y-82421514D02*
X173493500Y-82492942D01*
X173493500Y-82492942D02*
X173529214Y-82528657D01*
X173529214Y-82528657D02*
X173600643Y-82564371D01*
X173600643Y-82564371D02*
X173886357Y-82564371D01*
X172814929Y-82921514D02*
X172814929Y-82528657D01*
X172814929Y-82528657D02*
X172850643Y-82457228D01*
X172850643Y-82457228D02*
X172922071Y-82421514D01*
X172922071Y-82421514D02*
X173064929Y-82421514D01*
X173064929Y-82421514D02*
X173136357Y-82457228D01*
X172814929Y-82885800D02*
X172886357Y-82921514D01*
X172886357Y-82921514D02*
X173064929Y-82921514D01*
X173064929Y-82921514D02*
X173136357Y-82885800D01*
X173136357Y-82885800D02*
X173172071Y-82814371D01*
X173172071Y-82814371D02*
X173172071Y-82742942D01*
X173172071Y-82742942D02*
X173136357Y-82671514D01*
X173136357Y-82671514D02*
X173064929Y-82635800D01*
X173064929Y-82635800D02*
X172886357Y-82635800D01*
X172886357Y-82635800D02*
X172814929Y-82600085D01*
X172457786Y-82421514D02*
X172457786Y-82921514D01*
X172457786Y-82492942D02*
X172422072Y-82457228D01*
X172422072Y-82457228D02*
X172350643Y-82421514D01*
X172350643Y-82421514D02*
X172243500Y-82421514D01*
X172243500Y-82421514D02*
X172172072Y-82457228D01*
X172172072Y-82457228D02*
X172136358Y-82528657D01*
X172136358Y-82528657D02*
X172136358Y-82921514D01*
X171493501Y-82885800D02*
X171564929Y-82921514D01*
X171564929Y-82921514D02*
X171707787Y-82921514D01*
X171707787Y-82921514D02*
X171779215Y-82885800D01*
X171779215Y-82885800D02*
X171814929Y-82814371D01*
X171814929Y-82814371D02*
X171814929Y-82528657D01*
X171814929Y-82528657D02*
X171779215Y-82457228D01*
X171779215Y-82457228D02*
X171707787Y-82421514D01*
X171707787Y-82421514D02*
X171564929Y-82421514D01*
X171564929Y-82421514D02*
X171493501Y-82457228D01*
X171493501Y-82457228D02*
X171457787Y-82528657D01*
X171457787Y-82528657D02*
X171457787Y-82600085D01*
X171457787Y-82600085D02*
X171814929Y-82671514D01*
X171029215Y-82921514D02*
X171100644Y-82885800D01*
X171100644Y-82885800D02*
X171136358Y-82814371D01*
X171136358Y-82814371D02*
X171136358Y-82171514D01*
X154253895Y-88493265D02*
X154901514Y-88493265D01*
X154901514Y-88493265D02*
X154977704Y-88531360D01*
X154977704Y-88531360D02*
X155015800Y-88569455D01*
X155015800Y-88569455D02*
X155053895Y-88645646D01*
X155053895Y-88645646D02*
X155053895Y-88798027D01*
X155053895Y-88798027D02*
X155015800Y-88874217D01*
X155015800Y-88874217D02*
X154977704Y-88912312D01*
X154977704Y-88912312D02*
X154901514Y-88950408D01*
X154901514Y-88950408D02*
X154253895Y-88950408D01*
X155015800Y-89293264D02*
X155053895Y-89407550D01*
X155053895Y-89407550D02*
X155053895Y-89598026D01*
X155053895Y-89598026D02*
X155015800Y-89674217D01*
X155015800Y-89674217D02*
X154977704Y-89712312D01*
X154977704Y-89712312D02*
X154901514Y-89750407D01*
X154901514Y-89750407D02*
X154825323Y-89750407D01*
X154825323Y-89750407D02*
X154749133Y-89712312D01*
X154749133Y-89712312D02*
X154711038Y-89674217D01*
X154711038Y-89674217D02*
X154672942Y-89598026D01*
X154672942Y-89598026D02*
X154634847Y-89445645D01*
X154634847Y-89445645D02*
X154596752Y-89369455D01*
X154596752Y-89369455D02*
X154558657Y-89331360D01*
X154558657Y-89331360D02*
X154482466Y-89293264D01*
X154482466Y-89293264D02*
X154406276Y-89293264D01*
X154406276Y-89293264D02*
X154330085Y-89331360D01*
X154330085Y-89331360D02*
X154291990Y-89369455D01*
X154291990Y-89369455D02*
X154253895Y-89445645D01*
X154253895Y-89445645D02*
X154253895Y-89636122D01*
X154253895Y-89636122D02*
X154291990Y-89750407D01*
X154634847Y-90359931D02*
X154672942Y-90474217D01*
X154672942Y-90474217D02*
X154711038Y-90512312D01*
X154711038Y-90512312D02*
X154787228Y-90550408D01*
X154787228Y-90550408D02*
X154901514Y-90550408D01*
X154901514Y-90550408D02*
X154977704Y-90512312D01*
X154977704Y-90512312D02*
X155015800Y-90474217D01*
X155015800Y-90474217D02*
X155053895Y-90398027D01*
X155053895Y-90398027D02*
X155053895Y-90093265D01*
X155053895Y-90093265D02*
X154253895Y-90093265D01*
X154253895Y-90093265D02*
X154253895Y-90359931D01*
X154253895Y-90359931D02*
X154291990Y-90436122D01*
X154291990Y-90436122D02*
X154330085Y-90474217D01*
X154330085Y-90474217D02*
X154406276Y-90512312D01*
X154406276Y-90512312D02*
X154482466Y-90512312D01*
X154482466Y-90512312D02*
X154558657Y-90474217D01*
X154558657Y-90474217D02*
X154596752Y-90436122D01*
X154596752Y-90436122D02*
X154634847Y-90359931D01*
X154634847Y-90359931D02*
X154634847Y-90093265D01*
X154749133Y-90893265D02*
X154749133Y-91502789D01*
X154253895Y-91807550D02*
X154253895Y-92302788D01*
X154253895Y-92302788D02*
X154558657Y-92036122D01*
X154558657Y-92036122D02*
X154558657Y-92150407D01*
X154558657Y-92150407D02*
X154596752Y-92226598D01*
X154596752Y-92226598D02*
X154634847Y-92264693D01*
X154634847Y-92264693D02*
X154711038Y-92302788D01*
X154711038Y-92302788D02*
X154901514Y-92302788D01*
X154901514Y-92302788D02*
X154977704Y-92264693D01*
X154977704Y-92264693D02*
X155015800Y-92226598D01*
X155015800Y-92226598D02*
X155053895Y-92150407D01*
X155053895Y-92150407D02*
X155053895Y-91921836D01*
X155053895Y-91921836D02*
X155015800Y-91845645D01*
X155015800Y-91845645D02*
X154977704Y-91807550D01*
X154977704Y-92645646D02*
X155015800Y-92683741D01*
X155015800Y-92683741D02*
X155053895Y-92645646D01*
X155053895Y-92645646D02*
X155015800Y-92607550D01*
X155015800Y-92607550D02*
X154977704Y-92645646D01*
X154977704Y-92645646D02*
X155053895Y-92645646D01*
X154253895Y-93178979D02*
X154253895Y-93255169D01*
X154253895Y-93255169D02*
X154291990Y-93331360D01*
X154291990Y-93331360D02*
X154330085Y-93369455D01*
X154330085Y-93369455D02*
X154406276Y-93407550D01*
X154406276Y-93407550D02*
X154558657Y-93445645D01*
X154558657Y-93445645D02*
X154749133Y-93445645D01*
X154749133Y-93445645D02*
X154901514Y-93407550D01*
X154901514Y-93407550D02*
X154977704Y-93369455D01*
X154977704Y-93369455D02*
X155015800Y-93331360D01*
X155015800Y-93331360D02*
X155053895Y-93255169D01*
X155053895Y-93255169D02*
X155053895Y-93178979D01*
X155053895Y-93178979D02*
X155015800Y-93102788D01*
X155015800Y-93102788D02*
X154977704Y-93064693D01*
X154977704Y-93064693D02*
X154901514Y-93026598D01*
X154901514Y-93026598D02*
X154749133Y-92988502D01*
X154749133Y-92988502D02*
X154558657Y-92988502D01*
X154558657Y-92988502D02*
X154406276Y-93026598D01*
X154406276Y-93026598D02*
X154330085Y-93064693D01*
X154330085Y-93064693D02*
X154291990Y-93102788D01*
X154291990Y-93102788D02*
X154253895Y-93178979D01*
X140283895Y-88493265D02*
X140931514Y-88493265D01*
X140931514Y-88493265D02*
X141007704Y-88531360D01*
X141007704Y-88531360D02*
X141045800Y-88569455D01*
X141045800Y-88569455D02*
X141083895Y-88645646D01*
X141083895Y-88645646D02*
X141083895Y-88798027D01*
X141083895Y-88798027D02*
X141045800Y-88874217D01*
X141045800Y-88874217D02*
X141007704Y-88912312D01*
X141007704Y-88912312D02*
X140931514Y-88950408D01*
X140931514Y-88950408D02*
X140283895Y-88950408D01*
X141045800Y-89293264D02*
X141083895Y-89407550D01*
X141083895Y-89407550D02*
X141083895Y-89598026D01*
X141083895Y-89598026D02*
X141045800Y-89674217D01*
X141045800Y-89674217D02*
X141007704Y-89712312D01*
X141007704Y-89712312D02*
X140931514Y-89750407D01*
X140931514Y-89750407D02*
X140855323Y-89750407D01*
X140855323Y-89750407D02*
X140779133Y-89712312D01*
X140779133Y-89712312D02*
X140741038Y-89674217D01*
X140741038Y-89674217D02*
X140702942Y-89598026D01*
X140702942Y-89598026D02*
X140664847Y-89445645D01*
X140664847Y-89445645D02*
X140626752Y-89369455D01*
X140626752Y-89369455D02*
X140588657Y-89331360D01*
X140588657Y-89331360D02*
X140512466Y-89293264D01*
X140512466Y-89293264D02*
X140436276Y-89293264D01*
X140436276Y-89293264D02*
X140360085Y-89331360D01*
X140360085Y-89331360D02*
X140321990Y-89369455D01*
X140321990Y-89369455D02*
X140283895Y-89445645D01*
X140283895Y-89445645D02*
X140283895Y-89636122D01*
X140283895Y-89636122D02*
X140321990Y-89750407D01*
X140664847Y-90359931D02*
X140702942Y-90474217D01*
X140702942Y-90474217D02*
X140741038Y-90512312D01*
X140741038Y-90512312D02*
X140817228Y-90550408D01*
X140817228Y-90550408D02*
X140931514Y-90550408D01*
X140931514Y-90550408D02*
X141007704Y-90512312D01*
X141007704Y-90512312D02*
X141045800Y-90474217D01*
X141045800Y-90474217D02*
X141083895Y-90398027D01*
X141083895Y-90398027D02*
X141083895Y-90093265D01*
X141083895Y-90093265D02*
X140283895Y-90093265D01*
X140283895Y-90093265D02*
X140283895Y-90359931D01*
X140283895Y-90359931D02*
X140321990Y-90436122D01*
X140321990Y-90436122D02*
X140360085Y-90474217D01*
X140360085Y-90474217D02*
X140436276Y-90512312D01*
X140436276Y-90512312D02*
X140512466Y-90512312D01*
X140512466Y-90512312D02*
X140588657Y-90474217D01*
X140588657Y-90474217D02*
X140626752Y-90436122D01*
X140626752Y-90436122D02*
X140664847Y-90359931D01*
X140664847Y-90359931D02*
X140664847Y-90093265D01*
X140779133Y-90893265D02*
X140779133Y-91502789D01*
X141007704Y-92340884D02*
X141045800Y-92302788D01*
X141045800Y-92302788D02*
X141083895Y-92188503D01*
X141083895Y-92188503D02*
X141083895Y-92112312D01*
X141083895Y-92112312D02*
X141045800Y-91998026D01*
X141045800Y-91998026D02*
X140969609Y-91921836D01*
X140969609Y-91921836D02*
X140893419Y-91883741D01*
X140893419Y-91883741D02*
X140741038Y-91845645D01*
X140741038Y-91845645D02*
X140626752Y-91845645D01*
X140626752Y-91845645D02*
X140474371Y-91883741D01*
X140474371Y-91883741D02*
X140398180Y-91921836D01*
X140398180Y-91921836D02*
X140321990Y-91998026D01*
X140321990Y-91998026D02*
X140283895Y-92112312D01*
X140283895Y-92112312D02*
X140283895Y-92188503D01*
X140283895Y-92188503D02*
X140321990Y-92302788D01*
X140321990Y-92302788D02*
X140360085Y-92340884D01*
D14*
X123928668Y-83309119D02*
X123928668Y-82309119D01*
X123928668Y-82309119D02*
X123690573Y-82309119D01*
X123690573Y-82309119D02*
X123547716Y-82356738D01*
X123547716Y-82356738D02*
X123452478Y-82451976D01*
X123452478Y-82451976D02*
X123404859Y-82547214D01*
X123404859Y-82547214D02*
X123357240Y-82737690D01*
X123357240Y-82737690D02*
X123357240Y-82880547D01*
X123357240Y-82880547D02*
X123404859Y-83071023D01*
X123404859Y-83071023D02*
X123452478Y-83166261D01*
X123452478Y-83166261D02*
X123547716Y-83261500D01*
X123547716Y-83261500D02*
X123690573Y-83309119D01*
X123690573Y-83309119D02*
X123928668Y-83309119D01*
X122547716Y-83261500D02*
X122642954Y-83309119D01*
X122642954Y-83309119D02*
X122833430Y-83309119D01*
X122833430Y-83309119D02*
X122928668Y-83261500D01*
X122928668Y-83261500D02*
X122976287Y-83166261D01*
X122976287Y-83166261D02*
X122976287Y-82785309D01*
X122976287Y-82785309D02*
X122928668Y-82690071D01*
X122928668Y-82690071D02*
X122833430Y-82642452D01*
X122833430Y-82642452D02*
X122642954Y-82642452D01*
X122642954Y-82642452D02*
X122547716Y-82690071D01*
X122547716Y-82690071D02*
X122500097Y-82785309D01*
X122500097Y-82785309D02*
X122500097Y-82880547D01*
X122500097Y-82880547D02*
X122976287Y-82975785D01*
X121690573Y-83261500D02*
X121785811Y-83309119D01*
X121785811Y-83309119D02*
X121976287Y-83309119D01*
X121976287Y-83309119D02*
X122071525Y-83261500D01*
X122071525Y-83261500D02*
X122119144Y-83166261D01*
X122119144Y-83166261D02*
X122119144Y-82785309D01*
X122119144Y-82785309D02*
X122071525Y-82690071D01*
X122071525Y-82690071D02*
X121976287Y-82642452D01*
X121976287Y-82642452D02*
X121785811Y-82642452D01*
X121785811Y-82642452D02*
X121690573Y-82690071D01*
X121690573Y-82690071D02*
X121642954Y-82785309D01*
X121642954Y-82785309D02*
X121642954Y-82880547D01*
X121642954Y-82880547D02*
X122119144Y-82975785D01*
X121214382Y-82642452D02*
X121214382Y-83642452D01*
X121214382Y-82690071D02*
X121119144Y-82642452D01*
X121119144Y-82642452D02*
X120928668Y-82642452D01*
X120928668Y-82642452D02*
X120833430Y-82690071D01*
X120833430Y-82690071D02*
X120785811Y-82737690D01*
X120785811Y-82737690D02*
X120738192Y-82832928D01*
X120738192Y-82832928D02*
X120738192Y-83118642D01*
X120738192Y-83118642D02*
X120785811Y-83213880D01*
X120785811Y-83213880D02*
X120833430Y-83261500D01*
X120833430Y-83261500D02*
X120928668Y-83309119D01*
X120928668Y-83309119D02*
X121119144Y-83309119D01*
X121119144Y-83309119D02*
X121214382Y-83261500D01*
X119881049Y-83261500D02*
X119976287Y-83309119D01*
X119976287Y-83309119D02*
X120166763Y-83309119D01*
X120166763Y-83309119D02*
X120262001Y-83261500D01*
X120262001Y-83261500D02*
X120309620Y-83213880D01*
X120309620Y-83213880D02*
X120357239Y-83118642D01*
X120357239Y-83118642D02*
X120357239Y-82832928D01*
X120357239Y-82832928D02*
X120309620Y-82737690D01*
X120309620Y-82737690D02*
X120262001Y-82690071D01*
X120262001Y-82690071D02*
X120166763Y-82642452D01*
X120166763Y-82642452D02*
X119976287Y-82642452D01*
X119976287Y-82642452D02*
X119881049Y-82690071D01*
X119309620Y-83309119D02*
X119404858Y-83261500D01*
X119404858Y-83261500D02*
X119452477Y-83213880D01*
X119452477Y-83213880D02*
X119500096Y-83118642D01*
X119500096Y-83118642D02*
X119500096Y-82832928D01*
X119500096Y-82832928D02*
X119452477Y-82737690D01*
X119452477Y-82737690D02*
X119404858Y-82690071D01*
X119404858Y-82690071D02*
X119309620Y-82642452D01*
X119309620Y-82642452D02*
X119166763Y-82642452D01*
X119166763Y-82642452D02*
X119071525Y-82690071D01*
X119071525Y-82690071D02*
X119023906Y-82737690D01*
X119023906Y-82737690D02*
X118976287Y-82832928D01*
X118976287Y-82832928D02*
X118976287Y-83118642D01*
X118976287Y-83118642D02*
X119023906Y-83213880D01*
X119023906Y-83213880D02*
X119071525Y-83261500D01*
X119071525Y-83261500D02*
X119166763Y-83309119D01*
X119166763Y-83309119D02*
X119309620Y-83309119D01*
X118404858Y-83309119D02*
X118500096Y-83261500D01*
X118500096Y-83261500D02*
X118547715Y-83213880D01*
X118547715Y-83213880D02*
X118595334Y-83118642D01*
X118595334Y-83118642D02*
X118595334Y-82832928D01*
X118595334Y-82832928D02*
X118547715Y-82737690D01*
X118547715Y-82737690D02*
X118500096Y-82690071D01*
X118500096Y-82690071D02*
X118404858Y-82642452D01*
X118404858Y-82642452D02*
X118262001Y-82642452D01*
X118262001Y-82642452D02*
X118166763Y-82690071D01*
X118166763Y-82690071D02*
X118119144Y-82737690D01*
X118119144Y-82737690D02*
X118071525Y-82832928D01*
X118071525Y-82832928D02*
X118071525Y-83118642D01*
X118071525Y-83118642D02*
X118119144Y-83213880D01*
X118119144Y-83213880D02*
X118166763Y-83261500D01*
X118166763Y-83261500D02*
X118262001Y-83309119D01*
X118262001Y-83309119D02*
X118404858Y-83309119D01*
X117500096Y-83309119D02*
X117595334Y-83261500D01*
X117595334Y-83261500D02*
X117642953Y-83166261D01*
X117642953Y-83166261D02*
X117642953Y-82309119D01*
X115785810Y-83213880D02*
X115833429Y-83261500D01*
X115833429Y-83261500D02*
X115976286Y-83309119D01*
X115976286Y-83309119D02*
X116071524Y-83309119D01*
X116071524Y-83309119D02*
X116214381Y-83261500D01*
X116214381Y-83261500D02*
X116309619Y-83166261D01*
X116309619Y-83166261D02*
X116357238Y-83071023D01*
X116357238Y-83071023D02*
X116404857Y-82880547D01*
X116404857Y-82880547D02*
X116404857Y-82737690D01*
X116404857Y-82737690D02*
X116357238Y-82547214D01*
X116357238Y-82547214D02*
X116309619Y-82451976D01*
X116309619Y-82451976D02*
X116214381Y-82356738D01*
X116214381Y-82356738D02*
X116071524Y-82309119D01*
X116071524Y-82309119D02*
X115976286Y-82309119D01*
X115976286Y-82309119D02*
X115833429Y-82356738D01*
X115833429Y-82356738D02*
X115785810Y-82404357D01*
X115357238Y-83309119D02*
X115357238Y-82309119D01*
X115357238Y-82785309D02*
X114785810Y-82785309D01*
X114785810Y-83309119D02*
X114785810Y-82309119D01*
X113785810Y-83309119D02*
X114357238Y-83309119D01*
X114071524Y-83309119D02*
X114071524Y-82309119D01*
X114071524Y-82309119D02*
X114166762Y-82451976D01*
X114166762Y-82451976D02*
X114262000Y-82547214D01*
X114262000Y-82547214D02*
X114357238Y-82594833D01*
X113452476Y-82309119D02*
X112785810Y-82309119D01*
X112785810Y-82309119D02*
X113214381Y-83309119D01*
X112214381Y-82309119D02*
X112119143Y-82309119D01*
X112119143Y-82309119D02*
X112023905Y-82356738D01*
X112023905Y-82356738D02*
X111976286Y-82404357D01*
X111976286Y-82404357D02*
X111928667Y-82499595D01*
X111928667Y-82499595D02*
X111881048Y-82690071D01*
X111881048Y-82690071D02*
X111881048Y-82928166D01*
X111881048Y-82928166D02*
X111928667Y-83118642D01*
X111928667Y-83118642D02*
X111976286Y-83213880D01*
X111976286Y-83213880D02*
X112023905Y-83261500D01*
X112023905Y-83261500D02*
X112119143Y-83309119D01*
X112119143Y-83309119D02*
X112214381Y-83309119D01*
X112214381Y-83309119D02*
X112309619Y-83261500D01*
X112309619Y-83261500D02*
X112357238Y-83213880D01*
X112357238Y-83213880D02*
X112404857Y-83118642D01*
X112404857Y-83118642D02*
X112452476Y-82928166D01*
X112452476Y-82928166D02*
X112452476Y-82690071D01*
X112452476Y-82690071D02*
X112404857Y-82499595D01*
X112404857Y-82499595D02*
X112357238Y-82404357D01*
X112357238Y-82404357D02*
X112309619Y-82356738D01*
X112309619Y-82356738D02*
X112214381Y-82309119D01*
X123595335Y-84395253D02*
X123928668Y-84395253D01*
X123928668Y-84919063D02*
X123928668Y-83919063D01*
X123928668Y-83919063D02*
X123452478Y-83919063D01*
X123071525Y-84919063D02*
X123071525Y-84252396D01*
X123071525Y-84442872D02*
X123023906Y-84347634D01*
X123023906Y-84347634D02*
X122976287Y-84300015D01*
X122976287Y-84300015D02*
X122881049Y-84252396D01*
X122881049Y-84252396D02*
X122785811Y-84252396D01*
X122309620Y-84919063D02*
X122404858Y-84871444D01*
X122404858Y-84871444D02*
X122452477Y-84823824D01*
X122452477Y-84823824D02*
X122500096Y-84728586D01*
X122500096Y-84728586D02*
X122500096Y-84442872D01*
X122500096Y-84442872D02*
X122452477Y-84347634D01*
X122452477Y-84347634D02*
X122404858Y-84300015D01*
X122404858Y-84300015D02*
X122309620Y-84252396D01*
X122309620Y-84252396D02*
X122166763Y-84252396D01*
X122166763Y-84252396D02*
X122071525Y-84300015D01*
X122071525Y-84300015D02*
X122023906Y-84347634D01*
X122023906Y-84347634D02*
X121976287Y-84442872D01*
X121976287Y-84442872D02*
X121976287Y-84728586D01*
X121976287Y-84728586D02*
X122023906Y-84823824D01*
X122023906Y-84823824D02*
X122071525Y-84871444D01*
X122071525Y-84871444D02*
X122166763Y-84919063D01*
X122166763Y-84919063D02*
X122309620Y-84919063D01*
X121547715Y-84252396D02*
X121547715Y-84919063D01*
X121547715Y-84347634D02*
X121500096Y-84300015D01*
X121500096Y-84300015D02*
X121404858Y-84252396D01*
X121404858Y-84252396D02*
X121262001Y-84252396D01*
X121262001Y-84252396D02*
X121166763Y-84300015D01*
X121166763Y-84300015D02*
X121119144Y-84395253D01*
X121119144Y-84395253D02*
X121119144Y-84919063D01*
X120785810Y-84252396D02*
X120404858Y-84252396D01*
X120642953Y-83919063D02*
X120642953Y-84776205D01*
X120642953Y-84776205D02*
X120595334Y-84871444D01*
X120595334Y-84871444D02*
X120500096Y-84919063D01*
X120500096Y-84919063D02*
X120404858Y-84919063D01*
X119309619Y-84919063D02*
X119309619Y-83919063D01*
X119309619Y-83919063D02*
X118928667Y-83919063D01*
X118928667Y-83919063D02*
X118833429Y-83966682D01*
X118833429Y-83966682D02*
X118785810Y-84014301D01*
X118785810Y-84014301D02*
X118738191Y-84109539D01*
X118738191Y-84109539D02*
X118738191Y-84252396D01*
X118738191Y-84252396D02*
X118785810Y-84347634D01*
X118785810Y-84347634D02*
X118833429Y-84395253D01*
X118833429Y-84395253D02*
X118928667Y-84442872D01*
X118928667Y-84442872D02*
X119309619Y-84442872D01*
X117881048Y-84919063D02*
X117881048Y-84395253D01*
X117881048Y-84395253D02*
X117928667Y-84300015D01*
X117928667Y-84300015D02*
X118023905Y-84252396D01*
X118023905Y-84252396D02*
X118214381Y-84252396D01*
X118214381Y-84252396D02*
X118309619Y-84300015D01*
X117881048Y-84871444D02*
X117976286Y-84919063D01*
X117976286Y-84919063D02*
X118214381Y-84919063D01*
X118214381Y-84919063D02*
X118309619Y-84871444D01*
X118309619Y-84871444D02*
X118357238Y-84776205D01*
X118357238Y-84776205D02*
X118357238Y-84680967D01*
X118357238Y-84680967D02*
X118309619Y-84585729D01*
X118309619Y-84585729D02*
X118214381Y-84538110D01*
X118214381Y-84538110D02*
X117976286Y-84538110D01*
X117976286Y-84538110D02*
X117881048Y-84490491D01*
X117404857Y-84252396D02*
X117404857Y-84919063D01*
X117404857Y-84347634D02*
X117357238Y-84300015D01*
X117357238Y-84300015D02*
X117262000Y-84252396D01*
X117262000Y-84252396D02*
X117119143Y-84252396D01*
X117119143Y-84252396D02*
X117023905Y-84300015D01*
X117023905Y-84300015D02*
X116976286Y-84395253D01*
X116976286Y-84395253D02*
X116976286Y-84919063D01*
X116119143Y-84871444D02*
X116214381Y-84919063D01*
X116214381Y-84919063D02*
X116404857Y-84919063D01*
X116404857Y-84919063D02*
X116500095Y-84871444D01*
X116500095Y-84871444D02*
X116547714Y-84776205D01*
X116547714Y-84776205D02*
X116547714Y-84395253D01*
X116547714Y-84395253D02*
X116500095Y-84300015D01*
X116500095Y-84300015D02*
X116404857Y-84252396D01*
X116404857Y-84252396D02*
X116214381Y-84252396D01*
X116214381Y-84252396D02*
X116119143Y-84300015D01*
X116119143Y-84300015D02*
X116071524Y-84395253D01*
X116071524Y-84395253D02*
X116071524Y-84490491D01*
X116071524Y-84490491D02*
X116547714Y-84585729D01*
X115500095Y-84919063D02*
X115595333Y-84871444D01*
X115595333Y-84871444D02*
X115642952Y-84776205D01*
X115642952Y-84776205D02*
X115642952Y-83919063D01*
X113785809Y-84823824D02*
X113833428Y-84871444D01*
X113833428Y-84871444D02*
X113976285Y-84919063D01*
X113976285Y-84919063D02*
X114071523Y-84919063D01*
X114071523Y-84919063D02*
X114214380Y-84871444D01*
X114214380Y-84871444D02*
X114309618Y-84776205D01*
X114309618Y-84776205D02*
X114357237Y-84680967D01*
X114357237Y-84680967D02*
X114404856Y-84490491D01*
X114404856Y-84490491D02*
X114404856Y-84347634D01*
X114404856Y-84347634D02*
X114357237Y-84157158D01*
X114357237Y-84157158D02*
X114309618Y-84061920D01*
X114309618Y-84061920D02*
X114214380Y-83966682D01*
X114214380Y-83966682D02*
X114071523Y-83919063D01*
X114071523Y-83919063D02*
X113976285Y-83919063D01*
X113976285Y-83919063D02*
X113833428Y-83966682D01*
X113833428Y-83966682D02*
X113785809Y-84014301D01*
X112928666Y-84252396D02*
X112928666Y-84919063D01*
X113357237Y-84252396D02*
X113357237Y-84776205D01*
X113357237Y-84776205D02*
X113309618Y-84871444D01*
X113309618Y-84871444D02*
X113214380Y-84919063D01*
X113214380Y-84919063D02*
X113071523Y-84919063D01*
X113071523Y-84919063D02*
X112976285Y-84871444D01*
X112976285Y-84871444D02*
X112928666Y-84823824D01*
X112500094Y-84871444D02*
X112404856Y-84919063D01*
X112404856Y-84919063D02*
X112214380Y-84919063D01*
X112214380Y-84919063D02*
X112119142Y-84871444D01*
X112119142Y-84871444D02*
X112071523Y-84776205D01*
X112071523Y-84776205D02*
X112071523Y-84728586D01*
X112071523Y-84728586D02*
X112119142Y-84633348D01*
X112119142Y-84633348D02*
X112214380Y-84585729D01*
X112214380Y-84585729D02*
X112357237Y-84585729D01*
X112357237Y-84585729D02*
X112452475Y-84538110D01*
X112452475Y-84538110D02*
X112500094Y-84442872D01*
X112500094Y-84442872D02*
X112500094Y-84395253D01*
X112500094Y-84395253D02*
X112452475Y-84300015D01*
X112452475Y-84300015D02*
X112357237Y-84252396D01*
X112357237Y-84252396D02*
X112214380Y-84252396D01*
X112214380Y-84252396D02*
X112119142Y-84300015D01*
X111785808Y-84252396D02*
X111404856Y-84252396D01*
X111642951Y-83919063D02*
X111642951Y-84776205D01*
X111642951Y-84776205D02*
X111595332Y-84871444D01*
X111595332Y-84871444D02*
X111500094Y-84919063D01*
X111500094Y-84919063D02*
X111404856Y-84919063D01*
X110928665Y-84919063D02*
X111023903Y-84871444D01*
X111023903Y-84871444D02*
X111071522Y-84823824D01*
X111071522Y-84823824D02*
X111119141Y-84728586D01*
X111119141Y-84728586D02*
X111119141Y-84442872D01*
X111119141Y-84442872D02*
X111071522Y-84347634D01*
X111071522Y-84347634D02*
X111023903Y-84300015D01*
X111023903Y-84300015D02*
X110928665Y-84252396D01*
X110928665Y-84252396D02*
X110785808Y-84252396D01*
X110785808Y-84252396D02*
X110690570Y-84300015D01*
X110690570Y-84300015D02*
X110642951Y-84347634D01*
X110642951Y-84347634D02*
X110595332Y-84442872D01*
X110595332Y-84442872D02*
X110595332Y-84728586D01*
X110595332Y-84728586D02*
X110642951Y-84823824D01*
X110642951Y-84823824D02*
X110690570Y-84871444D01*
X110690570Y-84871444D02*
X110785808Y-84919063D01*
X110785808Y-84919063D02*
X110928665Y-84919063D01*
X110166760Y-84919063D02*
X110166760Y-84252396D01*
X110166760Y-84347634D02*
X110119141Y-84300015D01*
X110119141Y-84300015D02*
X110023903Y-84252396D01*
X110023903Y-84252396D02*
X109881046Y-84252396D01*
X109881046Y-84252396D02*
X109785808Y-84300015D01*
X109785808Y-84300015D02*
X109738189Y-84395253D01*
X109738189Y-84395253D02*
X109738189Y-84919063D01*
X109738189Y-84395253D02*
X109690570Y-84300015D01*
X109690570Y-84300015D02*
X109595332Y-84252396D01*
X109595332Y-84252396D02*
X109452475Y-84252396D01*
X109452475Y-84252396D02*
X109357236Y-84300015D01*
X109357236Y-84300015D02*
X109309617Y-84395253D01*
X109309617Y-84395253D02*
X109309617Y-84919063D01*
X124023906Y-85862340D02*
X123785811Y-86529007D01*
X123785811Y-86529007D02*
X123547716Y-85862340D01*
X121881049Y-86529007D02*
X122452477Y-86529007D01*
X122166763Y-86529007D02*
X122166763Y-85529007D01*
X122166763Y-85529007D02*
X122262001Y-85671864D01*
X122262001Y-85671864D02*
X122357239Y-85767102D01*
X122357239Y-85767102D02*
X122452477Y-85814721D01*
X121452477Y-86433768D02*
X121404858Y-86481388D01*
X121404858Y-86481388D02*
X121452477Y-86529007D01*
X121452477Y-86529007D02*
X121500096Y-86481388D01*
X121500096Y-86481388D02*
X121452477Y-86433768D01*
X121452477Y-86433768D02*
X121452477Y-86529007D01*
X120785811Y-85529007D02*
X120690573Y-85529007D01*
X120690573Y-85529007D02*
X120595335Y-85576626D01*
X120595335Y-85576626D02*
X120547716Y-85624245D01*
X120547716Y-85624245D02*
X120500097Y-85719483D01*
X120500097Y-85719483D02*
X120452478Y-85909959D01*
X120452478Y-85909959D02*
X120452478Y-86148054D01*
X120452478Y-86148054D02*
X120500097Y-86338530D01*
X120500097Y-86338530D02*
X120547716Y-86433768D01*
X120547716Y-86433768D02*
X120595335Y-86481388D01*
X120595335Y-86481388D02*
X120690573Y-86529007D01*
X120690573Y-86529007D02*
X120785811Y-86529007D01*
X120785811Y-86529007D02*
X120881049Y-86481388D01*
X120881049Y-86481388D02*
X120928668Y-86433768D01*
X120928668Y-86433768D02*
X120976287Y-86338530D01*
X120976287Y-86338530D02*
X121023906Y-86148054D01*
X121023906Y-86148054D02*
X121023906Y-85909959D01*
X121023906Y-85909959D02*
X120976287Y-85719483D01*
X120976287Y-85719483D02*
X120928668Y-85624245D01*
X120928668Y-85624245D02*
X120881049Y-85576626D01*
X120881049Y-85576626D02*
X120785811Y-85529007D01*
D10*
X183913918Y-94141048D02*
X183113918Y-94141048D01*
X183113918Y-94141048D02*
X183113918Y-94445810D01*
X183113918Y-94445810D02*
X183152013Y-94522000D01*
X183152013Y-94522000D02*
X183190108Y-94560095D01*
X183190108Y-94560095D02*
X183266299Y-94598191D01*
X183266299Y-94598191D02*
X183380584Y-94598191D01*
X183380584Y-94598191D02*
X183456775Y-94560095D01*
X183456775Y-94560095D02*
X183494870Y-94522000D01*
X183494870Y-94522000D02*
X183532965Y-94445810D01*
X183532965Y-94445810D02*
X183532965Y-94141048D01*
X183913918Y-95055333D02*
X183875823Y-94979143D01*
X183875823Y-94979143D02*
X183837727Y-94941048D01*
X183837727Y-94941048D02*
X183761537Y-94902952D01*
X183761537Y-94902952D02*
X183532965Y-94902952D01*
X183532965Y-94902952D02*
X183456775Y-94941048D01*
X183456775Y-94941048D02*
X183418680Y-94979143D01*
X183418680Y-94979143D02*
X183380584Y-95055333D01*
X183380584Y-95055333D02*
X183380584Y-95169619D01*
X183380584Y-95169619D02*
X183418680Y-95245810D01*
X183418680Y-95245810D02*
X183456775Y-95283905D01*
X183456775Y-95283905D02*
X183532965Y-95322000D01*
X183532965Y-95322000D02*
X183761537Y-95322000D01*
X183761537Y-95322000D02*
X183837727Y-95283905D01*
X183837727Y-95283905D02*
X183875823Y-95245810D01*
X183875823Y-95245810D02*
X183913918Y-95169619D01*
X183913918Y-95169619D02*
X183913918Y-95055333D01*
X183380584Y-95588667D02*
X183913918Y-95741048D01*
X183913918Y-95741048D02*
X183532965Y-95893429D01*
X183532965Y-95893429D02*
X183913918Y-96045810D01*
X183913918Y-96045810D02*
X183380584Y-96198191D01*
X183875823Y-96807715D02*
X183913918Y-96731524D01*
X183913918Y-96731524D02*
X183913918Y-96579143D01*
X183913918Y-96579143D02*
X183875823Y-96502953D01*
X183875823Y-96502953D02*
X183799632Y-96464857D01*
X183799632Y-96464857D02*
X183494870Y-96464857D01*
X183494870Y-96464857D02*
X183418680Y-96502953D01*
X183418680Y-96502953D02*
X183380584Y-96579143D01*
X183380584Y-96579143D02*
X183380584Y-96731524D01*
X183380584Y-96731524D02*
X183418680Y-96807715D01*
X183418680Y-96807715D02*
X183494870Y-96845810D01*
X183494870Y-96845810D02*
X183571061Y-96845810D01*
X183571061Y-96845810D02*
X183647251Y-96464857D01*
X183913918Y-97188667D02*
X183380584Y-97188667D01*
X183532965Y-97188667D02*
X183456775Y-97226762D01*
X183456775Y-97226762D02*
X183418680Y-97264857D01*
X183418680Y-97264857D02*
X183380584Y-97341048D01*
X183380584Y-97341048D02*
X183380584Y-97417238D01*
X185163778Y-95036285D02*
X185201873Y-95150571D01*
X185201873Y-95150571D02*
X185201873Y-95341047D01*
X185201873Y-95341047D02*
X185163778Y-95417238D01*
X185163778Y-95417238D02*
X185125682Y-95455333D01*
X185125682Y-95455333D02*
X185049492Y-95493428D01*
X185049492Y-95493428D02*
X184973301Y-95493428D01*
X184973301Y-95493428D02*
X184897111Y-95455333D01*
X184897111Y-95455333D02*
X184859016Y-95417238D01*
X184859016Y-95417238D02*
X184820920Y-95341047D01*
X184820920Y-95341047D02*
X184782825Y-95188666D01*
X184782825Y-95188666D02*
X184744730Y-95112476D01*
X184744730Y-95112476D02*
X184706635Y-95074381D01*
X184706635Y-95074381D02*
X184630444Y-95036285D01*
X184630444Y-95036285D02*
X184554254Y-95036285D01*
X184554254Y-95036285D02*
X184478063Y-95074381D01*
X184478063Y-95074381D02*
X184439968Y-95112476D01*
X184439968Y-95112476D02*
X184401873Y-95188666D01*
X184401873Y-95188666D02*
X184401873Y-95379143D01*
X184401873Y-95379143D02*
X184439968Y-95493428D01*
X184401873Y-95760095D02*
X185201873Y-95950571D01*
X185201873Y-95950571D02*
X184630444Y-96102952D01*
X184630444Y-96102952D02*
X185201873Y-96255333D01*
X185201873Y-96255333D02*
X184401873Y-96445810D01*
X168273895Y-88493265D02*
X168921514Y-88493265D01*
X168921514Y-88493265D02*
X168997704Y-88531360D01*
X168997704Y-88531360D02*
X169035800Y-88569455D01*
X169035800Y-88569455D02*
X169073895Y-88645646D01*
X169073895Y-88645646D02*
X169073895Y-88798027D01*
X169073895Y-88798027D02*
X169035800Y-88874217D01*
X169035800Y-88874217D02*
X168997704Y-88912312D01*
X168997704Y-88912312D02*
X168921514Y-88950408D01*
X168921514Y-88950408D02*
X168273895Y-88950408D01*
X169035800Y-89293264D02*
X169073895Y-89407550D01*
X169073895Y-89407550D02*
X169073895Y-89598026D01*
X169073895Y-89598026D02*
X169035800Y-89674217D01*
X169035800Y-89674217D02*
X168997704Y-89712312D01*
X168997704Y-89712312D02*
X168921514Y-89750407D01*
X168921514Y-89750407D02*
X168845323Y-89750407D01*
X168845323Y-89750407D02*
X168769133Y-89712312D01*
X168769133Y-89712312D02*
X168731038Y-89674217D01*
X168731038Y-89674217D02*
X168692942Y-89598026D01*
X168692942Y-89598026D02*
X168654847Y-89445645D01*
X168654847Y-89445645D02*
X168616752Y-89369455D01*
X168616752Y-89369455D02*
X168578657Y-89331360D01*
X168578657Y-89331360D02*
X168502466Y-89293264D01*
X168502466Y-89293264D02*
X168426276Y-89293264D01*
X168426276Y-89293264D02*
X168350085Y-89331360D01*
X168350085Y-89331360D02*
X168311990Y-89369455D01*
X168311990Y-89369455D02*
X168273895Y-89445645D01*
X168273895Y-89445645D02*
X168273895Y-89636122D01*
X168273895Y-89636122D02*
X168311990Y-89750407D01*
X168654847Y-90359931D02*
X168692942Y-90474217D01*
X168692942Y-90474217D02*
X168731038Y-90512312D01*
X168731038Y-90512312D02*
X168807228Y-90550408D01*
X168807228Y-90550408D02*
X168921514Y-90550408D01*
X168921514Y-90550408D02*
X168997704Y-90512312D01*
X168997704Y-90512312D02*
X169035800Y-90474217D01*
X169035800Y-90474217D02*
X169073895Y-90398027D01*
X169073895Y-90398027D02*
X169073895Y-90093265D01*
X169073895Y-90093265D02*
X168273895Y-90093265D01*
X168273895Y-90093265D02*
X168273895Y-90359931D01*
X168273895Y-90359931D02*
X168311990Y-90436122D01*
X168311990Y-90436122D02*
X168350085Y-90474217D01*
X168350085Y-90474217D02*
X168426276Y-90512312D01*
X168426276Y-90512312D02*
X168502466Y-90512312D01*
X168502466Y-90512312D02*
X168578657Y-90474217D01*
X168578657Y-90474217D02*
X168616752Y-90436122D01*
X168616752Y-90436122D02*
X168654847Y-90359931D01*
X168654847Y-90359931D02*
X168654847Y-90093265D01*
X168769133Y-90893265D02*
X168769133Y-91502789D01*
X168273895Y-91807550D02*
X168273895Y-92302788D01*
X168273895Y-92302788D02*
X168578657Y-92036122D01*
X168578657Y-92036122D02*
X168578657Y-92150407D01*
X168578657Y-92150407D02*
X168616752Y-92226598D01*
X168616752Y-92226598D02*
X168654847Y-92264693D01*
X168654847Y-92264693D02*
X168731038Y-92302788D01*
X168731038Y-92302788D02*
X168921514Y-92302788D01*
X168921514Y-92302788D02*
X168997704Y-92264693D01*
X168997704Y-92264693D02*
X169035800Y-92226598D01*
X169035800Y-92226598D02*
X169073895Y-92150407D01*
X169073895Y-92150407D02*
X169073895Y-91921836D01*
X169073895Y-91921836D02*
X169035800Y-91845645D01*
X169035800Y-91845645D02*
X168997704Y-91807550D01*
X168997704Y-92645646D02*
X169035800Y-92683741D01*
X169035800Y-92683741D02*
X169073895Y-92645646D01*
X169073895Y-92645646D02*
X169035800Y-92607550D01*
X169035800Y-92607550D02*
X168997704Y-92645646D01*
X168997704Y-92645646D02*
X169073895Y-92645646D01*
X168273895Y-93178979D02*
X168273895Y-93255169D01*
X168273895Y-93255169D02*
X168311990Y-93331360D01*
X168311990Y-93331360D02*
X168350085Y-93369455D01*
X168350085Y-93369455D02*
X168426276Y-93407550D01*
X168426276Y-93407550D02*
X168578657Y-93445645D01*
X168578657Y-93445645D02*
X168769133Y-93445645D01*
X168769133Y-93445645D02*
X168921514Y-93407550D01*
X168921514Y-93407550D02*
X168997704Y-93369455D01*
X168997704Y-93369455D02*
X169035800Y-93331360D01*
X169035800Y-93331360D02*
X169073895Y-93255169D01*
X169073895Y-93255169D02*
X169073895Y-93178979D01*
X169073895Y-93178979D02*
X169035800Y-93102788D01*
X169035800Y-93102788D02*
X168997704Y-93064693D01*
X168997704Y-93064693D02*
X168921514Y-93026598D01*
X168921514Y-93026598D02*
X168769133Y-92988502D01*
X168769133Y-92988502D02*
X168578657Y-92988502D01*
X168578657Y-92988502D02*
X168426276Y-93026598D01*
X168426276Y-93026598D02*
X168350085Y-93064693D01*
X168350085Y-93064693D02*
X168311990Y-93102788D01*
X168311990Y-93102788D02*
X168273895Y-93178979D01*
D14*
X116587595Y-94707428D02*
X117159023Y-94707428D01*
X117159023Y-94707428D02*
X117273309Y-94669333D01*
X117273309Y-94669333D02*
X117349500Y-94593142D01*
X117349500Y-94593142D02*
X117387595Y-94478857D01*
X117387595Y-94478857D02*
X117387595Y-94402666D01*
X117387595Y-95507428D02*
X117387595Y-95050285D01*
X117387595Y-95278857D02*
X116587595Y-95278857D01*
X116587595Y-95278857D02*
X116701880Y-95202666D01*
X116701880Y-95202666D02*
X116778071Y-95126476D01*
X116778071Y-95126476D02*
X116816166Y-95050285D01*
X116587595Y-96002667D02*
X116587595Y-96078857D01*
X116587595Y-96078857D02*
X116625690Y-96155048D01*
X116625690Y-96155048D02*
X116663785Y-96193143D01*
X116663785Y-96193143D02*
X116739976Y-96231238D01*
X116739976Y-96231238D02*
X116892357Y-96269333D01*
X116892357Y-96269333D02*
X117082833Y-96269333D01*
X117082833Y-96269333D02*
X117235214Y-96231238D01*
X117235214Y-96231238D02*
X117311404Y-96193143D01*
X117311404Y-96193143D02*
X117349500Y-96155048D01*
X117349500Y-96155048D02*
X117387595Y-96078857D01*
X117387595Y-96078857D02*
X117387595Y-96002667D01*
X117387595Y-96002667D02*
X117349500Y-95926476D01*
X117349500Y-95926476D02*
X117311404Y-95888381D01*
X117311404Y-95888381D02*
X117235214Y-95850286D01*
X117235214Y-95850286D02*
X117082833Y-95812190D01*
X117082833Y-95812190D02*
X116892357Y-95812190D01*
X116892357Y-95812190D02*
X116739976Y-95850286D01*
X116739976Y-95850286D02*
X116663785Y-95888381D01*
X116663785Y-95888381D02*
X116625690Y-95926476D01*
X116625690Y-95926476D02*
X116587595Y-96002667D01*
X117387595Y-97031238D02*
X117387595Y-96574095D01*
X117387595Y-96802667D02*
X116587595Y-96802667D01*
X116587595Y-96802667D02*
X116701880Y-96726476D01*
X116701880Y-96726476D02*
X116778071Y-96650286D01*
X116778071Y-96650286D02*
X116816166Y-96574095D01*
X188919380Y-89212595D02*
X188919380Y-88412595D01*
X188919380Y-88412595D02*
X188728904Y-88412595D01*
X188728904Y-88412595D02*
X188614618Y-88450690D01*
X188614618Y-88450690D02*
X188538428Y-88526880D01*
X188538428Y-88526880D02*
X188500333Y-88603071D01*
X188500333Y-88603071D02*
X188462237Y-88755452D01*
X188462237Y-88755452D02*
X188462237Y-88869738D01*
X188462237Y-88869738D02*
X188500333Y-89022119D01*
X188500333Y-89022119D02*
X188538428Y-89098309D01*
X188538428Y-89098309D02*
X188614618Y-89174500D01*
X188614618Y-89174500D02*
X188728904Y-89212595D01*
X188728904Y-89212595D02*
X188919380Y-89212595D01*
X187700333Y-89212595D02*
X188157476Y-89212595D01*
X187928904Y-89212595D02*
X187928904Y-88412595D01*
X187928904Y-88412595D02*
X188005095Y-88526880D01*
X188005095Y-88526880D02*
X188081285Y-88603071D01*
X188081285Y-88603071D02*
X188157476Y-88641166D01*
X187205094Y-88412595D02*
X187128904Y-88412595D01*
X187128904Y-88412595D02*
X187052713Y-88450690D01*
X187052713Y-88450690D02*
X187014618Y-88488785D01*
X187014618Y-88488785D02*
X186976523Y-88564976D01*
X186976523Y-88564976D02*
X186938428Y-88717357D01*
X186938428Y-88717357D02*
X186938428Y-88907833D01*
X186938428Y-88907833D02*
X186976523Y-89060214D01*
X186976523Y-89060214D02*
X187014618Y-89136404D01*
X187014618Y-89136404D02*
X187052713Y-89174500D01*
X187052713Y-89174500D02*
X187128904Y-89212595D01*
X187128904Y-89212595D02*
X187205094Y-89212595D01*
X187205094Y-89212595D02*
X187281285Y-89174500D01*
X187281285Y-89174500D02*
X187319380Y-89136404D01*
X187319380Y-89136404D02*
X187357475Y-89060214D01*
X187357475Y-89060214D02*
X187395571Y-88907833D01*
X187395571Y-88907833D02*
X187395571Y-88717357D01*
X187395571Y-88717357D02*
X187357475Y-88564976D01*
X187357475Y-88564976D02*
X187319380Y-88488785D01*
X187319380Y-88488785D02*
X187281285Y-88450690D01*
X187281285Y-88450690D02*
X187205094Y-88412595D01*
X186252713Y-88412595D02*
X186405094Y-88412595D01*
X186405094Y-88412595D02*
X186481285Y-88450690D01*
X186481285Y-88450690D02*
X186519380Y-88488785D01*
X186519380Y-88488785D02*
X186595570Y-88603071D01*
X186595570Y-88603071D02*
X186633666Y-88755452D01*
X186633666Y-88755452D02*
X186633666Y-89060214D01*
X186633666Y-89060214D02*
X186595570Y-89136404D01*
X186595570Y-89136404D02*
X186557475Y-89174500D01*
X186557475Y-89174500D02*
X186481285Y-89212595D01*
X186481285Y-89212595D02*
X186328904Y-89212595D01*
X186328904Y-89212595D02*
X186252713Y-89174500D01*
X186252713Y-89174500D02*
X186214618Y-89136404D01*
X186214618Y-89136404D02*
X186176523Y-89060214D01*
X186176523Y-89060214D02*
X186176523Y-88869738D01*
X186176523Y-88869738D02*
X186214618Y-88793547D01*
X186214618Y-88793547D02*
X186252713Y-88755452D01*
X186252713Y-88755452D02*
X186328904Y-88717357D01*
X186328904Y-88717357D02*
X186481285Y-88717357D01*
X186481285Y-88717357D02*
X186557475Y-88755452D01*
X186557475Y-88755452D02*
X186595570Y-88793547D01*
X186595570Y-88793547D02*
X186633666Y-88869738D01*
X153201595Y-107207428D02*
X153773023Y-107207428D01*
X153773023Y-107207428D02*
X153887309Y-107169333D01*
X153887309Y-107169333D02*
X153963500Y-107093142D01*
X153963500Y-107093142D02*
X154001595Y-106978857D01*
X154001595Y-106978857D02*
X154001595Y-106902666D01*
X154001595Y-108007428D02*
X154001595Y-107550285D01*
X154001595Y-107778857D02*
X153201595Y-107778857D01*
X153201595Y-107778857D02*
X153315880Y-107702666D01*
X153315880Y-107702666D02*
X153392071Y-107626476D01*
X153392071Y-107626476D02*
X153430166Y-107550285D01*
X153201595Y-108502667D02*
X153201595Y-108578857D01*
X153201595Y-108578857D02*
X153239690Y-108655048D01*
X153239690Y-108655048D02*
X153277785Y-108693143D01*
X153277785Y-108693143D02*
X153353976Y-108731238D01*
X153353976Y-108731238D02*
X153506357Y-108769333D01*
X153506357Y-108769333D02*
X153696833Y-108769333D01*
X153696833Y-108769333D02*
X153849214Y-108731238D01*
X153849214Y-108731238D02*
X153925404Y-108693143D01*
X153925404Y-108693143D02*
X153963500Y-108655048D01*
X153963500Y-108655048D02*
X154001595Y-108578857D01*
X154001595Y-108578857D02*
X154001595Y-108502667D01*
X154001595Y-108502667D02*
X153963500Y-108426476D01*
X153963500Y-108426476D02*
X153925404Y-108388381D01*
X153925404Y-108388381D02*
X153849214Y-108350286D01*
X153849214Y-108350286D02*
X153696833Y-108312190D01*
X153696833Y-108312190D02*
X153506357Y-108312190D01*
X153506357Y-108312190D02*
X153353976Y-108350286D01*
X153353976Y-108350286D02*
X153277785Y-108388381D01*
X153277785Y-108388381D02*
X153239690Y-108426476D01*
X153239690Y-108426476D02*
X153201595Y-108502667D01*
X153201595Y-109036000D02*
X153201595Y-109531238D01*
X153201595Y-109531238D02*
X153506357Y-109264572D01*
X153506357Y-109264572D02*
X153506357Y-109378857D01*
X153506357Y-109378857D02*
X153544452Y-109455048D01*
X153544452Y-109455048D02*
X153582547Y-109493143D01*
X153582547Y-109493143D02*
X153658738Y-109531238D01*
X153658738Y-109531238D02*
X153849214Y-109531238D01*
X153849214Y-109531238D02*
X153925404Y-109493143D01*
X153925404Y-109493143D02*
X153963500Y-109455048D01*
X153963500Y-109455048D02*
X154001595Y-109378857D01*
X154001595Y-109378857D02*
X154001595Y-109150286D01*
X154001595Y-109150286D02*
X153963500Y-109074095D01*
X153963500Y-109074095D02*
X153925404Y-109036000D01*
X178103237Y-86212595D02*
X178369904Y-85831642D01*
X178560380Y-86212595D02*
X178560380Y-85412595D01*
X178560380Y-85412595D02*
X178255618Y-85412595D01*
X178255618Y-85412595D02*
X178179428Y-85450690D01*
X178179428Y-85450690D02*
X178141333Y-85488785D01*
X178141333Y-85488785D02*
X178103237Y-85564976D01*
X178103237Y-85564976D02*
X178103237Y-85679261D01*
X178103237Y-85679261D02*
X178141333Y-85755452D01*
X178141333Y-85755452D02*
X178179428Y-85793547D01*
X178179428Y-85793547D02*
X178255618Y-85831642D01*
X178255618Y-85831642D02*
X178560380Y-85831642D01*
X177341333Y-86212595D02*
X177798476Y-86212595D01*
X177569904Y-86212595D02*
X177569904Y-85412595D01*
X177569904Y-85412595D02*
X177646095Y-85526880D01*
X177646095Y-85526880D02*
X177722285Y-85603071D01*
X177722285Y-85603071D02*
X177798476Y-85641166D01*
X176846094Y-85412595D02*
X176769904Y-85412595D01*
X176769904Y-85412595D02*
X176693713Y-85450690D01*
X176693713Y-85450690D02*
X176655618Y-85488785D01*
X176655618Y-85488785D02*
X176617523Y-85564976D01*
X176617523Y-85564976D02*
X176579428Y-85717357D01*
X176579428Y-85717357D02*
X176579428Y-85907833D01*
X176579428Y-85907833D02*
X176617523Y-86060214D01*
X176617523Y-86060214D02*
X176655618Y-86136404D01*
X176655618Y-86136404D02*
X176693713Y-86174500D01*
X176693713Y-86174500D02*
X176769904Y-86212595D01*
X176769904Y-86212595D02*
X176846094Y-86212595D01*
X176846094Y-86212595D02*
X176922285Y-86174500D01*
X176922285Y-86174500D02*
X176960380Y-86136404D01*
X176960380Y-86136404D02*
X176998475Y-86060214D01*
X176998475Y-86060214D02*
X177036571Y-85907833D01*
X177036571Y-85907833D02*
X177036571Y-85717357D01*
X177036571Y-85717357D02*
X176998475Y-85564976D01*
X176998475Y-85564976D02*
X176960380Y-85488785D01*
X176960380Y-85488785D02*
X176922285Y-85450690D01*
X176922285Y-85450690D02*
X176846094Y-85412595D01*
X175855618Y-85412595D02*
X176236570Y-85412595D01*
X176236570Y-85412595D02*
X176274666Y-85793547D01*
X176274666Y-85793547D02*
X176236570Y-85755452D01*
X176236570Y-85755452D02*
X176160380Y-85717357D01*
X176160380Y-85717357D02*
X175969904Y-85717357D01*
X175969904Y-85717357D02*
X175893713Y-85755452D01*
X175893713Y-85755452D02*
X175855618Y-85793547D01*
X175855618Y-85793547D02*
X175817523Y-85869738D01*
X175817523Y-85869738D02*
X175817523Y-86060214D01*
X175817523Y-86060214D02*
X175855618Y-86136404D01*
X175855618Y-86136404D02*
X175893713Y-86174500D01*
X175893713Y-86174500D02*
X175969904Y-86212595D01*
X175969904Y-86212595D02*
X176160380Y-86212595D01*
X176160380Y-86212595D02*
X176236570Y-86174500D01*
X176236570Y-86174500D02*
X176274666Y-86136404D01*
X172519380Y-101427595D02*
X172519380Y-100627595D01*
X172519380Y-100627595D02*
X172328904Y-100627595D01*
X172328904Y-100627595D02*
X172214618Y-100665690D01*
X172214618Y-100665690D02*
X172138428Y-100741880D01*
X172138428Y-100741880D02*
X172100333Y-100818071D01*
X172100333Y-100818071D02*
X172062237Y-100970452D01*
X172062237Y-100970452D02*
X172062237Y-101084738D01*
X172062237Y-101084738D02*
X172100333Y-101237119D01*
X172100333Y-101237119D02*
X172138428Y-101313309D01*
X172138428Y-101313309D02*
X172214618Y-101389500D01*
X172214618Y-101389500D02*
X172328904Y-101427595D01*
X172328904Y-101427595D02*
X172519380Y-101427595D01*
X171300333Y-101427595D02*
X171757476Y-101427595D01*
X171528904Y-101427595D02*
X171528904Y-100627595D01*
X171528904Y-100627595D02*
X171605095Y-100741880D01*
X171605095Y-100741880D02*
X171681285Y-100818071D01*
X171681285Y-100818071D02*
X171757476Y-100856166D01*
X170805094Y-100627595D02*
X170728904Y-100627595D01*
X170728904Y-100627595D02*
X170652713Y-100665690D01*
X170652713Y-100665690D02*
X170614618Y-100703785D01*
X170614618Y-100703785D02*
X170576523Y-100779976D01*
X170576523Y-100779976D02*
X170538428Y-100932357D01*
X170538428Y-100932357D02*
X170538428Y-101122833D01*
X170538428Y-101122833D02*
X170576523Y-101275214D01*
X170576523Y-101275214D02*
X170614618Y-101351404D01*
X170614618Y-101351404D02*
X170652713Y-101389500D01*
X170652713Y-101389500D02*
X170728904Y-101427595D01*
X170728904Y-101427595D02*
X170805094Y-101427595D01*
X170805094Y-101427595D02*
X170881285Y-101389500D01*
X170881285Y-101389500D02*
X170919380Y-101351404D01*
X170919380Y-101351404D02*
X170957475Y-101275214D01*
X170957475Y-101275214D02*
X170995571Y-101122833D01*
X170995571Y-101122833D02*
X170995571Y-100932357D01*
X170995571Y-100932357D02*
X170957475Y-100779976D01*
X170957475Y-100779976D02*
X170919380Y-100703785D01*
X170919380Y-100703785D02*
X170881285Y-100665690D01*
X170881285Y-100665690D02*
X170805094Y-100627595D01*
X169776523Y-101427595D02*
X170233666Y-101427595D01*
X170005094Y-101427595D02*
X170005094Y-100627595D01*
X170005094Y-100627595D02*
X170081285Y-100741880D01*
X170081285Y-100741880D02*
X170157475Y-100818071D01*
X170157475Y-100818071D02*
X170233666Y-100856166D01*
X172519380Y-89212595D02*
X172519380Y-88412595D01*
X172519380Y-88412595D02*
X172328904Y-88412595D01*
X172328904Y-88412595D02*
X172214618Y-88450690D01*
X172214618Y-88450690D02*
X172138428Y-88526880D01*
X172138428Y-88526880D02*
X172100333Y-88603071D01*
X172100333Y-88603071D02*
X172062237Y-88755452D01*
X172062237Y-88755452D02*
X172062237Y-88869738D01*
X172062237Y-88869738D02*
X172100333Y-89022119D01*
X172100333Y-89022119D02*
X172138428Y-89098309D01*
X172138428Y-89098309D02*
X172214618Y-89174500D01*
X172214618Y-89174500D02*
X172328904Y-89212595D01*
X172328904Y-89212595D02*
X172519380Y-89212595D01*
X171300333Y-89212595D02*
X171757476Y-89212595D01*
X171528904Y-89212595D02*
X171528904Y-88412595D01*
X171528904Y-88412595D02*
X171605095Y-88526880D01*
X171605095Y-88526880D02*
X171681285Y-88603071D01*
X171681285Y-88603071D02*
X171757476Y-88641166D01*
X170805094Y-88412595D02*
X170728904Y-88412595D01*
X170728904Y-88412595D02*
X170652713Y-88450690D01*
X170652713Y-88450690D02*
X170614618Y-88488785D01*
X170614618Y-88488785D02*
X170576523Y-88564976D01*
X170576523Y-88564976D02*
X170538428Y-88717357D01*
X170538428Y-88717357D02*
X170538428Y-88907833D01*
X170538428Y-88907833D02*
X170576523Y-89060214D01*
X170576523Y-89060214D02*
X170614618Y-89136404D01*
X170614618Y-89136404D02*
X170652713Y-89174500D01*
X170652713Y-89174500D02*
X170728904Y-89212595D01*
X170728904Y-89212595D02*
X170805094Y-89212595D01*
X170805094Y-89212595D02*
X170881285Y-89174500D01*
X170881285Y-89174500D02*
X170919380Y-89136404D01*
X170919380Y-89136404D02*
X170957475Y-89060214D01*
X170957475Y-89060214D02*
X170995571Y-88907833D01*
X170995571Y-88907833D02*
X170995571Y-88717357D01*
X170995571Y-88717357D02*
X170957475Y-88564976D01*
X170957475Y-88564976D02*
X170919380Y-88488785D01*
X170919380Y-88488785D02*
X170881285Y-88450690D01*
X170881285Y-88450690D02*
X170805094Y-88412595D01*
X169814618Y-88412595D02*
X170195570Y-88412595D01*
X170195570Y-88412595D02*
X170233666Y-88793547D01*
X170233666Y-88793547D02*
X170195570Y-88755452D01*
X170195570Y-88755452D02*
X170119380Y-88717357D01*
X170119380Y-88717357D02*
X169928904Y-88717357D01*
X169928904Y-88717357D02*
X169852713Y-88755452D01*
X169852713Y-88755452D02*
X169814618Y-88793547D01*
X169814618Y-88793547D02*
X169776523Y-88869738D01*
X169776523Y-88869738D02*
X169776523Y-89060214D01*
X169776523Y-89060214D02*
X169814618Y-89136404D01*
X169814618Y-89136404D02*
X169852713Y-89174500D01*
X169852713Y-89174500D02*
X169928904Y-89212595D01*
X169928904Y-89212595D02*
X170119380Y-89212595D01*
X170119380Y-89212595D02*
X170195570Y-89174500D01*
X170195570Y-89174500D02*
X170233666Y-89136404D01*
X178103237Y-104827595D02*
X178369904Y-104446642D01*
X178560380Y-104827595D02*
X178560380Y-104027595D01*
X178560380Y-104027595D02*
X178255618Y-104027595D01*
X178255618Y-104027595D02*
X178179428Y-104065690D01*
X178179428Y-104065690D02*
X178141333Y-104103785D01*
X178141333Y-104103785D02*
X178103237Y-104179976D01*
X178103237Y-104179976D02*
X178103237Y-104294261D01*
X178103237Y-104294261D02*
X178141333Y-104370452D01*
X178141333Y-104370452D02*
X178179428Y-104408547D01*
X178179428Y-104408547D02*
X178255618Y-104446642D01*
X178255618Y-104446642D02*
X178560380Y-104446642D01*
X177341333Y-104827595D02*
X177798476Y-104827595D01*
X177569904Y-104827595D02*
X177569904Y-104027595D01*
X177569904Y-104027595D02*
X177646095Y-104141880D01*
X177646095Y-104141880D02*
X177722285Y-104218071D01*
X177722285Y-104218071D02*
X177798476Y-104256166D01*
X176846094Y-104027595D02*
X176769904Y-104027595D01*
X176769904Y-104027595D02*
X176693713Y-104065690D01*
X176693713Y-104065690D02*
X176655618Y-104103785D01*
X176655618Y-104103785D02*
X176617523Y-104179976D01*
X176617523Y-104179976D02*
X176579428Y-104332357D01*
X176579428Y-104332357D02*
X176579428Y-104522833D01*
X176579428Y-104522833D02*
X176617523Y-104675214D01*
X176617523Y-104675214D02*
X176655618Y-104751404D01*
X176655618Y-104751404D02*
X176693713Y-104789500D01*
X176693713Y-104789500D02*
X176769904Y-104827595D01*
X176769904Y-104827595D02*
X176846094Y-104827595D01*
X176846094Y-104827595D02*
X176922285Y-104789500D01*
X176922285Y-104789500D02*
X176960380Y-104751404D01*
X176960380Y-104751404D02*
X176998475Y-104675214D01*
X176998475Y-104675214D02*
X177036571Y-104522833D01*
X177036571Y-104522833D02*
X177036571Y-104332357D01*
X177036571Y-104332357D02*
X176998475Y-104179976D01*
X176998475Y-104179976D02*
X176960380Y-104103785D01*
X176960380Y-104103785D02*
X176922285Y-104065690D01*
X176922285Y-104065690D02*
X176846094Y-104027595D01*
X175817523Y-104827595D02*
X176274666Y-104827595D01*
X176046094Y-104827595D02*
X176046094Y-104027595D01*
X176046094Y-104027595D02*
X176122285Y-104141880D01*
X176122285Y-104141880D02*
X176198475Y-104218071D01*
X176198475Y-104218071D02*
X176274666Y-104256166D01*
X124701595Y-107207428D02*
X125273023Y-107207428D01*
X125273023Y-107207428D02*
X125387309Y-107169333D01*
X125387309Y-107169333D02*
X125463500Y-107093142D01*
X125463500Y-107093142D02*
X125501595Y-106978857D01*
X125501595Y-106978857D02*
X125501595Y-106902666D01*
X125501595Y-108007428D02*
X125501595Y-107550285D01*
X125501595Y-107778857D02*
X124701595Y-107778857D01*
X124701595Y-107778857D02*
X124815880Y-107702666D01*
X124815880Y-107702666D02*
X124892071Y-107626476D01*
X124892071Y-107626476D02*
X124930166Y-107550285D01*
X124701595Y-108502667D02*
X124701595Y-108578857D01*
X124701595Y-108578857D02*
X124739690Y-108655048D01*
X124739690Y-108655048D02*
X124777785Y-108693143D01*
X124777785Y-108693143D02*
X124853976Y-108731238D01*
X124853976Y-108731238D02*
X125006357Y-108769333D01*
X125006357Y-108769333D02*
X125196833Y-108769333D01*
X125196833Y-108769333D02*
X125349214Y-108731238D01*
X125349214Y-108731238D02*
X125425404Y-108693143D01*
X125425404Y-108693143D02*
X125463500Y-108655048D01*
X125463500Y-108655048D02*
X125501595Y-108578857D01*
X125501595Y-108578857D02*
X125501595Y-108502667D01*
X125501595Y-108502667D02*
X125463500Y-108426476D01*
X125463500Y-108426476D02*
X125425404Y-108388381D01*
X125425404Y-108388381D02*
X125349214Y-108350286D01*
X125349214Y-108350286D02*
X125196833Y-108312190D01*
X125196833Y-108312190D02*
X125006357Y-108312190D01*
X125006357Y-108312190D02*
X124853976Y-108350286D01*
X124853976Y-108350286D02*
X124777785Y-108388381D01*
X124777785Y-108388381D02*
X124739690Y-108426476D01*
X124739690Y-108426476D02*
X124701595Y-108502667D01*
X124777785Y-109074095D02*
X124739690Y-109112191D01*
X124739690Y-109112191D02*
X124701595Y-109188381D01*
X124701595Y-109188381D02*
X124701595Y-109378857D01*
X124701595Y-109378857D02*
X124739690Y-109455048D01*
X124739690Y-109455048D02*
X124777785Y-109493143D01*
X124777785Y-109493143D02*
X124853976Y-109531238D01*
X124853976Y-109531238D02*
X124930166Y-109531238D01*
X124930166Y-109531238D02*
X125044452Y-109493143D01*
X125044452Y-109493143D02*
X125501595Y-109036000D01*
X125501595Y-109036000D02*
X125501595Y-109531238D01*
X188919380Y-90870595D02*
X188919380Y-90070595D01*
X188919380Y-90070595D02*
X188728904Y-90070595D01*
X188728904Y-90070595D02*
X188614618Y-90108690D01*
X188614618Y-90108690D02*
X188538428Y-90184880D01*
X188538428Y-90184880D02*
X188500333Y-90261071D01*
X188500333Y-90261071D02*
X188462237Y-90413452D01*
X188462237Y-90413452D02*
X188462237Y-90527738D01*
X188462237Y-90527738D02*
X188500333Y-90680119D01*
X188500333Y-90680119D02*
X188538428Y-90756309D01*
X188538428Y-90756309D02*
X188614618Y-90832500D01*
X188614618Y-90832500D02*
X188728904Y-90870595D01*
X188728904Y-90870595D02*
X188919380Y-90870595D01*
X187700333Y-90870595D02*
X188157476Y-90870595D01*
X187928904Y-90870595D02*
X187928904Y-90070595D01*
X187928904Y-90070595D02*
X188005095Y-90184880D01*
X188005095Y-90184880D02*
X188081285Y-90261071D01*
X188081285Y-90261071D02*
X188157476Y-90299166D01*
X187205094Y-90070595D02*
X187128904Y-90070595D01*
X187128904Y-90070595D02*
X187052713Y-90108690D01*
X187052713Y-90108690D02*
X187014618Y-90146785D01*
X187014618Y-90146785D02*
X186976523Y-90222976D01*
X186976523Y-90222976D02*
X186938428Y-90375357D01*
X186938428Y-90375357D02*
X186938428Y-90565833D01*
X186938428Y-90565833D02*
X186976523Y-90718214D01*
X186976523Y-90718214D02*
X187014618Y-90794404D01*
X187014618Y-90794404D02*
X187052713Y-90832500D01*
X187052713Y-90832500D02*
X187128904Y-90870595D01*
X187128904Y-90870595D02*
X187205094Y-90870595D01*
X187205094Y-90870595D02*
X187281285Y-90832500D01*
X187281285Y-90832500D02*
X187319380Y-90794404D01*
X187319380Y-90794404D02*
X187357475Y-90718214D01*
X187357475Y-90718214D02*
X187395571Y-90565833D01*
X187395571Y-90565833D02*
X187395571Y-90375357D01*
X187395571Y-90375357D02*
X187357475Y-90222976D01*
X187357475Y-90222976D02*
X187319380Y-90146785D01*
X187319380Y-90146785D02*
X187281285Y-90108690D01*
X187281285Y-90108690D02*
X187205094Y-90070595D01*
X186633666Y-90146785D02*
X186595570Y-90108690D01*
X186595570Y-90108690D02*
X186519380Y-90070595D01*
X186519380Y-90070595D02*
X186328904Y-90070595D01*
X186328904Y-90070595D02*
X186252713Y-90108690D01*
X186252713Y-90108690D02*
X186214618Y-90146785D01*
X186214618Y-90146785D02*
X186176523Y-90222976D01*
X186176523Y-90222976D02*
X186176523Y-90299166D01*
X186176523Y-90299166D02*
X186214618Y-90413452D01*
X186214618Y-90413452D02*
X186671761Y-90870595D01*
X186671761Y-90870595D02*
X186176523Y-90870595D01*
X182421237Y-106078595D02*
X182687904Y-105697642D01*
X182878380Y-106078595D02*
X182878380Y-105278595D01*
X182878380Y-105278595D02*
X182573618Y-105278595D01*
X182573618Y-105278595D02*
X182497428Y-105316690D01*
X182497428Y-105316690D02*
X182459333Y-105354785D01*
X182459333Y-105354785D02*
X182421237Y-105430976D01*
X182421237Y-105430976D02*
X182421237Y-105545261D01*
X182421237Y-105545261D02*
X182459333Y-105621452D01*
X182459333Y-105621452D02*
X182497428Y-105659547D01*
X182497428Y-105659547D02*
X182573618Y-105697642D01*
X182573618Y-105697642D02*
X182878380Y-105697642D01*
X181659333Y-106078595D02*
X182116476Y-106078595D01*
X181887904Y-106078595D02*
X181887904Y-105278595D01*
X181887904Y-105278595D02*
X181964095Y-105392880D01*
X181964095Y-105392880D02*
X182040285Y-105469071D01*
X182040285Y-105469071D02*
X182116476Y-105507166D01*
X181164094Y-105278595D02*
X181087904Y-105278595D01*
X181087904Y-105278595D02*
X181011713Y-105316690D01*
X181011713Y-105316690D02*
X180973618Y-105354785D01*
X180973618Y-105354785D02*
X180935523Y-105430976D01*
X180935523Y-105430976D02*
X180897428Y-105583357D01*
X180897428Y-105583357D02*
X180897428Y-105773833D01*
X180897428Y-105773833D02*
X180935523Y-105926214D01*
X180935523Y-105926214D02*
X180973618Y-106002404D01*
X180973618Y-106002404D02*
X181011713Y-106040500D01*
X181011713Y-106040500D02*
X181087904Y-106078595D01*
X181087904Y-106078595D02*
X181164094Y-106078595D01*
X181164094Y-106078595D02*
X181240285Y-106040500D01*
X181240285Y-106040500D02*
X181278380Y-106002404D01*
X181278380Y-106002404D02*
X181316475Y-105926214D01*
X181316475Y-105926214D02*
X181354571Y-105773833D01*
X181354571Y-105773833D02*
X181354571Y-105583357D01*
X181354571Y-105583357D02*
X181316475Y-105430976D01*
X181316475Y-105430976D02*
X181278380Y-105354785D01*
X181278380Y-105354785D02*
X181240285Y-105316690D01*
X181240285Y-105316690D02*
X181164094Y-105278595D01*
X180440285Y-105621452D02*
X180516475Y-105583357D01*
X180516475Y-105583357D02*
X180554570Y-105545261D01*
X180554570Y-105545261D02*
X180592666Y-105469071D01*
X180592666Y-105469071D02*
X180592666Y-105430976D01*
X180592666Y-105430976D02*
X180554570Y-105354785D01*
X180554570Y-105354785D02*
X180516475Y-105316690D01*
X180516475Y-105316690D02*
X180440285Y-105278595D01*
X180440285Y-105278595D02*
X180287904Y-105278595D01*
X180287904Y-105278595D02*
X180211713Y-105316690D01*
X180211713Y-105316690D02*
X180173618Y-105354785D01*
X180173618Y-105354785D02*
X180135523Y-105430976D01*
X180135523Y-105430976D02*
X180135523Y-105469071D01*
X180135523Y-105469071D02*
X180173618Y-105545261D01*
X180173618Y-105545261D02*
X180211713Y-105583357D01*
X180211713Y-105583357D02*
X180287904Y-105621452D01*
X180287904Y-105621452D02*
X180440285Y-105621452D01*
X180440285Y-105621452D02*
X180516475Y-105659547D01*
X180516475Y-105659547D02*
X180554570Y-105697642D01*
X180554570Y-105697642D02*
X180592666Y-105773833D01*
X180592666Y-105773833D02*
X180592666Y-105926214D01*
X180592666Y-105926214D02*
X180554570Y-106002404D01*
X180554570Y-106002404D02*
X180516475Y-106040500D01*
X180516475Y-106040500D02*
X180440285Y-106078595D01*
X180440285Y-106078595D02*
X180287904Y-106078595D01*
X180287904Y-106078595D02*
X180211713Y-106040500D01*
X180211713Y-106040500D02*
X180173618Y-106002404D01*
X180173618Y-106002404D02*
X180135523Y-105926214D01*
X180135523Y-105926214D02*
X180135523Y-105773833D01*
X180135523Y-105773833D02*
X180173618Y-105697642D01*
X180173618Y-105697642D02*
X180211713Y-105659547D01*
X180211713Y-105659547D02*
X180287904Y-105621452D01*
X182421237Y-87470595D02*
X182687904Y-87089642D01*
X182878380Y-87470595D02*
X182878380Y-86670595D01*
X182878380Y-86670595D02*
X182573618Y-86670595D01*
X182573618Y-86670595D02*
X182497428Y-86708690D01*
X182497428Y-86708690D02*
X182459333Y-86746785D01*
X182459333Y-86746785D02*
X182421237Y-86822976D01*
X182421237Y-86822976D02*
X182421237Y-86937261D01*
X182421237Y-86937261D02*
X182459333Y-87013452D01*
X182459333Y-87013452D02*
X182497428Y-87051547D01*
X182497428Y-87051547D02*
X182573618Y-87089642D01*
X182573618Y-87089642D02*
X182878380Y-87089642D01*
X181659333Y-87470595D02*
X182116476Y-87470595D01*
X181887904Y-87470595D02*
X181887904Y-86670595D01*
X181887904Y-86670595D02*
X181964095Y-86784880D01*
X181964095Y-86784880D02*
X182040285Y-86861071D01*
X182040285Y-86861071D02*
X182116476Y-86899166D01*
X181164094Y-86670595D02*
X181087904Y-86670595D01*
X181087904Y-86670595D02*
X181011713Y-86708690D01*
X181011713Y-86708690D02*
X180973618Y-86746785D01*
X180973618Y-86746785D02*
X180935523Y-86822976D01*
X180935523Y-86822976D02*
X180897428Y-86975357D01*
X180897428Y-86975357D02*
X180897428Y-87165833D01*
X180897428Y-87165833D02*
X180935523Y-87318214D01*
X180935523Y-87318214D02*
X180973618Y-87394404D01*
X180973618Y-87394404D02*
X181011713Y-87432500D01*
X181011713Y-87432500D02*
X181087904Y-87470595D01*
X181087904Y-87470595D02*
X181164094Y-87470595D01*
X181164094Y-87470595D02*
X181240285Y-87432500D01*
X181240285Y-87432500D02*
X181278380Y-87394404D01*
X181278380Y-87394404D02*
X181316475Y-87318214D01*
X181316475Y-87318214D02*
X181354571Y-87165833D01*
X181354571Y-87165833D02*
X181354571Y-86975357D01*
X181354571Y-86975357D02*
X181316475Y-86822976D01*
X181316475Y-86822976D02*
X181278380Y-86746785D01*
X181278380Y-86746785D02*
X181240285Y-86708690D01*
X181240285Y-86708690D02*
X181164094Y-86670595D01*
X180592666Y-86746785D02*
X180554570Y-86708690D01*
X180554570Y-86708690D02*
X180478380Y-86670595D01*
X180478380Y-86670595D02*
X180287904Y-86670595D01*
X180287904Y-86670595D02*
X180211713Y-86708690D01*
X180211713Y-86708690D02*
X180173618Y-86746785D01*
X180173618Y-86746785D02*
X180135523Y-86822976D01*
X180135523Y-86822976D02*
X180135523Y-86899166D01*
X180135523Y-86899166D02*
X180173618Y-87013452D01*
X180173618Y-87013452D02*
X180630761Y-87470595D01*
X180630761Y-87470595D02*
X180135523Y-87470595D01*
X188919380Y-101427595D02*
X188919380Y-100627595D01*
X188919380Y-100627595D02*
X188728904Y-100627595D01*
X188728904Y-100627595D02*
X188614618Y-100665690D01*
X188614618Y-100665690D02*
X188538428Y-100741880D01*
X188538428Y-100741880D02*
X188500333Y-100818071D01*
X188500333Y-100818071D02*
X188462237Y-100970452D01*
X188462237Y-100970452D02*
X188462237Y-101084738D01*
X188462237Y-101084738D02*
X188500333Y-101237119D01*
X188500333Y-101237119D02*
X188538428Y-101313309D01*
X188538428Y-101313309D02*
X188614618Y-101389500D01*
X188614618Y-101389500D02*
X188728904Y-101427595D01*
X188728904Y-101427595D02*
X188919380Y-101427595D01*
X187700333Y-101427595D02*
X188157476Y-101427595D01*
X187928904Y-101427595D02*
X187928904Y-100627595D01*
X187928904Y-100627595D02*
X188005095Y-100741880D01*
X188005095Y-100741880D02*
X188081285Y-100818071D01*
X188081285Y-100818071D02*
X188157476Y-100856166D01*
X187205094Y-100627595D02*
X187128904Y-100627595D01*
X187128904Y-100627595D02*
X187052713Y-100665690D01*
X187052713Y-100665690D02*
X187014618Y-100703785D01*
X187014618Y-100703785D02*
X186976523Y-100779976D01*
X186976523Y-100779976D02*
X186938428Y-100932357D01*
X186938428Y-100932357D02*
X186938428Y-101122833D01*
X186938428Y-101122833D02*
X186976523Y-101275214D01*
X186976523Y-101275214D02*
X187014618Y-101351404D01*
X187014618Y-101351404D02*
X187052713Y-101389500D01*
X187052713Y-101389500D02*
X187128904Y-101427595D01*
X187128904Y-101427595D02*
X187205094Y-101427595D01*
X187205094Y-101427595D02*
X187281285Y-101389500D01*
X187281285Y-101389500D02*
X187319380Y-101351404D01*
X187319380Y-101351404D02*
X187357475Y-101275214D01*
X187357475Y-101275214D02*
X187395571Y-101122833D01*
X187395571Y-101122833D02*
X187395571Y-100932357D01*
X187395571Y-100932357D02*
X187357475Y-100779976D01*
X187357475Y-100779976D02*
X187319380Y-100703785D01*
X187319380Y-100703785D02*
X187281285Y-100665690D01*
X187281285Y-100665690D02*
X187205094Y-100627595D01*
X186671761Y-100627595D02*
X186176523Y-100627595D01*
X186176523Y-100627595D02*
X186443189Y-100932357D01*
X186443189Y-100932357D02*
X186328904Y-100932357D01*
X186328904Y-100932357D02*
X186252713Y-100970452D01*
X186252713Y-100970452D02*
X186214618Y-101008547D01*
X186214618Y-101008547D02*
X186176523Y-101084738D01*
X186176523Y-101084738D02*
X186176523Y-101275214D01*
X186176523Y-101275214D02*
X186214618Y-101351404D01*
X186214618Y-101351404D02*
X186252713Y-101389500D01*
X186252713Y-101389500D02*
X186328904Y-101427595D01*
X186328904Y-101427595D02*
X186557475Y-101427595D01*
X186557475Y-101427595D02*
X186633666Y-101389500D01*
X186633666Y-101389500D02*
X186671761Y-101351404D01*
X172519380Y-103085595D02*
X172519380Y-102285595D01*
X172519380Y-102285595D02*
X172328904Y-102285595D01*
X172328904Y-102285595D02*
X172214618Y-102323690D01*
X172214618Y-102323690D02*
X172138428Y-102399880D01*
X172138428Y-102399880D02*
X172100333Y-102476071D01*
X172100333Y-102476071D02*
X172062237Y-102628452D01*
X172062237Y-102628452D02*
X172062237Y-102742738D01*
X172062237Y-102742738D02*
X172100333Y-102895119D01*
X172100333Y-102895119D02*
X172138428Y-102971309D01*
X172138428Y-102971309D02*
X172214618Y-103047500D01*
X172214618Y-103047500D02*
X172328904Y-103085595D01*
X172328904Y-103085595D02*
X172519380Y-103085595D01*
X171300333Y-103085595D02*
X171757476Y-103085595D01*
X171528904Y-103085595D02*
X171528904Y-102285595D01*
X171528904Y-102285595D02*
X171605095Y-102399880D01*
X171605095Y-102399880D02*
X171681285Y-102476071D01*
X171681285Y-102476071D02*
X171757476Y-102514166D01*
X170805094Y-102285595D02*
X170728904Y-102285595D01*
X170728904Y-102285595D02*
X170652713Y-102323690D01*
X170652713Y-102323690D02*
X170614618Y-102361785D01*
X170614618Y-102361785D02*
X170576523Y-102437976D01*
X170576523Y-102437976D02*
X170538428Y-102590357D01*
X170538428Y-102590357D02*
X170538428Y-102780833D01*
X170538428Y-102780833D02*
X170576523Y-102933214D01*
X170576523Y-102933214D02*
X170614618Y-103009404D01*
X170614618Y-103009404D02*
X170652713Y-103047500D01*
X170652713Y-103047500D02*
X170728904Y-103085595D01*
X170728904Y-103085595D02*
X170805094Y-103085595D01*
X170805094Y-103085595D02*
X170881285Y-103047500D01*
X170881285Y-103047500D02*
X170919380Y-103009404D01*
X170919380Y-103009404D02*
X170957475Y-102933214D01*
X170957475Y-102933214D02*
X170995571Y-102780833D01*
X170995571Y-102780833D02*
X170995571Y-102590357D01*
X170995571Y-102590357D02*
X170957475Y-102437976D01*
X170957475Y-102437976D02*
X170919380Y-102361785D01*
X170919380Y-102361785D02*
X170881285Y-102323690D01*
X170881285Y-102323690D02*
X170805094Y-102285595D01*
X170271761Y-102285595D02*
X169738427Y-102285595D01*
X169738427Y-102285595D02*
X170081285Y-103085595D01*
X175526227Y-93910689D02*
X175564322Y-94024975D01*
X175564322Y-94024975D02*
X175564322Y-94215451D01*
X175564322Y-94215451D02*
X175526227Y-94291642D01*
X175526227Y-94291642D02*
X175488131Y-94329737D01*
X175488131Y-94329737D02*
X175411941Y-94367832D01*
X175411941Y-94367832D02*
X175335750Y-94367832D01*
X175335750Y-94367832D02*
X175259560Y-94329737D01*
X175259560Y-94329737D02*
X175221465Y-94291642D01*
X175221465Y-94291642D02*
X175183369Y-94215451D01*
X175183369Y-94215451D02*
X175145274Y-94063070D01*
X175145274Y-94063070D02*
X175107179Y-93986880D01*
X175107179Y-93986880D02*
X175069084Y-93948785D01*
X175069084Y-93948785D02*
X174992893Y-93910689D01*
X174992893Y-93910689D02*
X174916703Y-93910689D01*
X174916703Y-93910689D02*
X174840512Y-93948785D01*
X174840512Y-93948785D02*
X174802417Y-93986880D01*
X174802417Y-93986880D02*
X174764322Y-94063070D01*
X174764322Y-94063070D02*
X174764322Y-94253547D01*
X174764322Y-94253547D02*
X174802417Y-94367832D01*
X174764322Y-94634499D02*
X175564322Y-94824975D01*
X175564322Y-94824975D02*
X174992893Y-94977356D01*
X174992893Y-94977356D02*
X175564322Y-95129737D01*
X175564322Y-95129737D02*
X174764322Y-95320214D01*
X175564322Y-96044023D02*
X175564322Y-95586880D01*
X175564322Y-95815452D02*
X174764322Y-95815452D01*
X174764322Y-95815452D02*
X174878607Y-95739261D01*
X174878607Y-95739261D02*
X174954798Y-95663071D01*
X174954798Y-95663071D02*
X174992893Y-95586880D01*
X174764322Y-96539262D02*
X174764322Y-96615452D01*
X174764322Y-96615452D02*
X174802417Y-96691643D01*
X174802417Y-96691643D02*
X174840512Y-96729738D01*
X174840512Y-96729738D02*
X174916703Y-96767833D01*
X174916703Y-96767833D02*
X175069084Y-96805928D01*
X175069084Y-96805928D02*
X175259560Y-96805928D01*
X175259560Y-96805928D02*
X175411941Y-96767833D01*
X175411941Y-96767833D02*
X175488131Y-96729738D01*
X175488131Y-96729738D02*
X175526227Y-96691643D01*
X175526227Y-96691643D02*
X175564322Y-96615452D01*
X175564322Y-96615452D02*
X175564322Y-96539262D01*
X175564322Y-96539262D02*
X175526227Y-96463071D01*
X175526227Y-96463071D02*
X175488131Y-96424976D01*
X175488131Y-96424976D02*
X175411941Y-96386881D01*
X175411941Y-96386881D02*
X175259560Y-96348785D01*
X175259560Y-96348785D02*
X175069084Y-96348785D01*
X175069084Y-96348785D02*
X174916703Y-96386881D01*
X174916703Y-96386881D02*
X174840512Y-96424976D01*
X174840512Y-96424976D02*
X174802417Y-96463071D01*
X174802417Y-96463071D02*
X174764322Y-96539262D01*
X175564322Y-97567833D02*
X175564322Y-97110690D01*
X175564322Y-97339262D02*
X174764322Y-97339262D01*
X174764322Y-97339262D02*
X174878607Y-97263071D01*
X174878607Y-97263071D02*
X174954798Y-97186881D01*
X174954798Y-97186881D02*
X174992893Y-97110690D01*
X172519380Y-90870595D02*
X172519380Y-90070595D01*
X172519380Y-90070595D02*
X172328904Y-90070595D01*
X172328904Y-90070595D02*
X172214618Y-90108690D01*
X172214618Y-90108690D02*
X172138428Y-90184880D01*
X172138428Y-90184880D02*
X172100333Y-90261071D01*
X172100333Y-90261071D02*
X172062237Y-90413452D01*
X172062237Y-90413452D02*
X172062237Y-90527738D01*
X172062237Y-90527738D02*
X172100333Y-90680119D01*
X172100333Y-90680119D02*
X172138428Y-90756309D01*
X172138428Y-90756309D02*
X172214618Y-90832500D01*
X172214618Y-90832500D02*
X172328904Y-90870595D01*
X172328904Y-90870595D02*
X172519380Y-90870595D01*
X171300333Y-90870595D02*
X171757476Y-90870595D01*
X171528904Y-90870595D02*
X171528904Y-90070595D01*
X171528904Y-90070595D02*
X171605095Y-90184880D01*
X171605095Y-90184880D02*
X171681285Y-90261071D01*
X171681285Y-90261071D02*
X171757476Y-90299166D01*
X170805094Y-90070595D02*
X170728904Y-90070595D01*
X170728904Y-90070595D02*
X170652713Y-90108690D01*
X170652713Y-90108690D02*
X170614618Y-90146785D01*
X170614618Y-90146785D02*
X170576523Y-90222976D01*
X170576523Y-90222976D02*
X170538428Y-90375357D01*
X170538428Y-90375357D02*
X170538428Y-90565833D01*
X170538428Y-90565833D02*
X170576523Y-90718214D01*
X170576523Y-90718214D02*
X170614618Y-90794404D01*
X170614618Y-90794404D02*
X170652713Y-90832500D01*
X170652713Y-90832500D02*
X170728904Y-90870595D01*
X170728904Y-90870595D02*
X170805094Y-90870595D01*
X170805094Y-90870595D02*
X170881285Y-90832500D01*
X170881285Y-90832500D02*
X170919380Y-90794404D01*
X170919380Y-90794404D02*
X170957475Y-90718214D01*
X170957475Y-90718214D02*
X170995571Y-90565833D01*
X170995571Y-90565833D02*
X170995571Y-90375357D01*
X170995571Y-90375357D02*
X170957475Y-90222976D01*
X170957475Y-90222976D02*
X170919380Y-90146785D01*
X170919380Y-90146785D02*
X170881285Y-90108690D01*
X170881285Y-90108690D02*
X170805094Y-90070595D01*
X169852713Y-90337261D02*
X169852713Y-90870595D01*
X170043189Y-90032500D02*
X170233666Y-90603928D01*
X170233666Y-90603928D02*
X169738427Y-90603928D01*
X178103237Y-106078595D02*
X178369904Y-105697642D01*
X178560380Y-106078595D02*
X178560380Y-105278595D01*
X178560380Y-105278595D02*
X178255618Y-105278595D01*
X178255618Y-105278595D02*
X178179428Y-105316690D01*
X178179428Y-105316690D02*
X178141333Y-105354785D01*
X178141333Y-105354785D02*
X178103237Y-105430976D01*
X178103237Y-105430976D02*
X178103237Y-105545261D01*
X178103237Y-105545261D02*
X178141333Y-105621452D01*
X178141333Y-105621452D02*
X178179428Y-105659547D01*
X178179428Y-105659547D02*
X178255618Y-105697642D01*
X178255618Y-105697642D02*
X178560380Y-105697642D01*
X177341333Y-106078595D02*
X177798476Y-106078595D01*
X177569904Y-106078595D02*
X177569904Y-105278595D01*
X177569904Y-105278595D02*
X177646095Y-105392880D01*
X177646095Y-105392880D02*
X177722285Y-105469071D01*
X177722285Y-105469071D02*
X177798476Y-105507166D01*
X176846094Y-105278595D02*
X176769904Y-105278595D01*
X176769904Y-105278595D02*
X176693713Y-105316690D01*
X176693713Y-105316690D02*
X176655618Y-105354785D01*
X176655618Y-105354785D02*
X176617523Y-105430976D01*
X176617523Y-105430976D02*
X176579428Y-105583357D01*
X176579428Y-105583357D02*
X176579428Y-105773833D01*
X176579428Y-105773833D02*
X176617523Y-105926214D01*
X176617523Y-105926214D02*
X176655618Y-106002404D01*
X176655618Y-106002404D02*
X176693713Y-106040500D01*
X176693713Y-106040500D02*
X176769904Y-106078595D01*
X176769904Y-106078595D02*
X176846094Y-106078595D01*
X176846094Y-106078595D02*
X176922285Y-106040500D01*
X176922285Y-106040500D02*
X176960380Y-106002404D01*
X176960380Y-106002404D02*
X176998475Y-105926214D01*
X176998475Y-105926214D02*
X177036571Y-105773833D01*
X177036571Y-105773833D02*
X177036571Y-105583357D01*
X177036571Y-105583357D02*
X176998475Y-105430976D01*
X176998475Y-105430976D02*
X176960380Y-105354785D01*
X176960380Y-105354785D02*
X176922285Y-105316690D01*
X176922285Y-105316690D02*
X176846094Y-105278595D01*
X176312761Y-105278595D02*
X175779427Y-105278595D01*
X175779427Y-105278595D02*
X176122285Y-106078595D01*
X188919380Y-103085595D02*
X188919380Y-102285595D01*
X188919380Y-102285595D02*
X188728904Y-102285595D01*
X188728904Y-102285595D02*
X188614618Y-102323690D01*
X188614618Y-102323690D02*
X188538428Y-102399880D01*
X188538428Y-102399880D02*
X188500333Y-102476071D01*
X188500333Y-102476071D02*
X188462237Y-102628452D01*
X188462237Y-102628452D02*
X188462237Y-102742738D01*
X188462237Y-102742738D02*
X188500333Y-102895119D01*
X188500333Y-102895119D02*
X188538428Y-102971309D01*
X188538428Y-102971309D02*
X188614618Y-103047500D01*
X188614618Y-103047500D02*
X188728904Y-103085595D01*
X188728904Y-103085595D02*
X188919380Y-103085595D01*
X187700333Y-103085595D02*
X188157476Y-103085595D01*
X187928904Y-103085595D02*
X187928904Y-102285595D01*
X187928904Y-102285595D02*
X188005095Y-102399880D01*
X188005095Y-102399880D02*
X188081285Y-102476071D01*
X188081285Y-102476071D02*
X188157476Y-102514166D01*
X187205094Y-102285595D02*
X187128904Y-102285595D01*
X187128904Y-102285595D02*
X187052713Y-102323690D01*
X187052713Y-102323690D02*
X187014618Y-102361785D01*
X187014618Y-102361785D02*
X186976523Y-102437976D01*
X186976523Y-102437976D02*
X186938428Y-102590357D01*
X186938428Y-102590357D02*
X186938428Y-102780833D01*
X186938428Y-102780833D02*
X186976523Y-102933214D01*
X186976523Y-102933214D02*
X187014618Y-103009404D01*
X187014618Y-103009404D02*
X187052713Y-103047500D01*
X187052713Y-103047500D02*
X187128904Y-103085595D01*
X187128904Y-103085595D02*
X187205094Y-103085595D01*
X187205094Y-103085595D02*
X187281285Y-103047500D01*
X187281285Y-103047500D02*
X187319380Y-103009404D01*
X187319380Y-103009404D02*
X187357475Y-102933214D01*
X187357475Y-102933214D02*
X187395571Y-102780833D01*
X187395571Y-102780833D02*
X187395571Y-102590357D01*
X187395571Y-102590357D02*
X187357475Y-102437976D01*
X187357475Y-102437976D02*
X187319380Y-102361785D01*
X187319380Y-102361785D02*
X187281285Y-102323690D01*
X187281285Y-102323690D02*
X187205094Y-102285595D01*
X186481285Y-102628452D02*
X186557475Y-102590357D01*
X186557475Y-102590357D02*
X186595570Y-102552261D01*
X186595570Y-102552261D02*
X186633666Y-102476071D01*
X186633666Y-102476071D02*
X186633666Y-102437976D01*
X186633666Y-102437976D02*
X186595570Y-102361785D01*
X186595570Y-102361785D02*
X186557475Y-102323690D01*
X186557475Y-102323690D02*
X186481285Y-102285595D01*
X186481285Y-102285595D02*
X186328904Y-102285595D01*
X186328904Y-102285595D02*
X186252713Y-102323690D01*
X186252713Y-102323690D02*
X186214618Y-102361785D01*
X186214618Y-102361785D02*
X186176523Y-102437976D01*
X186176523Y-102437976D02*
X186176523Y-102476071D01*
X186176523Y-102476071D02*
X186214618Y-102552261D01*
X186214618Y-102552261D02*
X186252713Y-102590357D01*
X186252713Y-102590357D02*
X186328904Y-102628452D01*
X186328904Y-102628452D02*
X186481285Y-102628452D01*
X186481285Y-102628452D02*
X186557475Y-102666547D01*
X186557475Y-102666547D02*
X186595570Y-102704642D01*
X186595570Y-102704642D02*
X186633666Y-102780833D01*
X186633666Y-102780833D02*
X186633666Y-102933214D01*
X186633666Y-102933214D02*
X186595570Y-103009404D01*
X186595570Y-103009404D02*
X186557475Y-103047500D01*
X186557475Y-103047500D02*
X186481285Y-103085595D01*
X186481285Y-103085595D02*
X186328904Y-103085595D01*
X186328904Y-103085595D02*
X186252713Y-103047500D01*
X186252713Y-103047500D02*
X186214618Y-103009404D01*
X186214618Y-103009404D02*
X186176523Y-102933214D01*
X186176523Y-102933214D02*
X186176523Y-102780833D01*
X186176523Y-102780833D02*
X186214618Y-102704642D01*
X186214618Y-102704642D02*
X186252713Y-102666547D01*
X186252713Y-102666547D02*
X186328904Y-102628452D01*
X182421237Y-86212595D02*
X182687904Y-85831642D01*
X182878380Y-86212595D02*
X182878380Y-85412595D01*
X182878380Y-85412595D02*
X182573618Y-85412595D01*
X182573618Y-85412595D02*
X182497428Y-85450690D01*
X182497428Y-85450690D02*
X182459333Y-85488785D01*
X182459333Y-85488785D02*
X182421237Y-85564976D01*
X182421237Y-85564976D02*
X182421237Y-85679261D01*
X182421237Y-85679261D02*
X182459333Y-85755452D01*
X182459333Y-85755452D02*
X182497428Y-85793547D01*
X182497428Y-85793547D02*
X182573618Y-85831642D01*
X182573618Y-85831642D02*
X182878380Y-85831642D01*
X181659333Y-86212595D02*
X182116476Y-86212595D01*
X181887904Y-86212595D02*
X181887904Y-85412595D01*
X181887904Y-85412595D02*
X181964095Y-85526880D01*
X181964095Y-85526880D02*
X182040285Y-85603071D01*
X182040285Y-85603071D02*
X182116476Y-85641166D01*
X181164094Y-85412595D02*
X181087904Y-85412595D01*
X181087904Y-85412595D02*
X181011713Y-85450690D01*
X181011713Y-85450690D02*
X180973618Y-85488785D01*
X180973618Y-85488785D02*
X180935523Y-85564976D01*
X180935523Y-85564976D02*
X180897428Y-85717357D01*
X180897428Y-85717357D02*
X180897428Y-85907833D01*
X180897428Y-85907833D02*
X180935523Y-86060214D01*
X180935523Y-86060214D02*
X180973618Y-86136404D01*
X180973618Y-86136404D02*
X181011713Y-86174500D01*
X181011713Y-86174500D02*
X181087904Y-86212595D01*
X181087904Y-86212595D02*
X181164094Y-86212595D01*
X181164094Y-86212595D02*
X181240285Y-86174500D01*
X181240285Y-86174500D02*
X181278380Y-86136404D01*
X181278380Y-86136404D02*
X181316475Y-86060214D01*
X181316475Y-86060214D02*
X181354571Y-85907833D01*
X181354571Y-85907833D02*
X181354571Y-85717357D01*
X181354571Y-85717357D02*
X181316475Y-85564976D01*
X181316475Y-85564976D02*
X181278380Y-85488785D01*
X181278380Y-85488785D02*
X181240285Y-85450690D01*
X181240285Y-85450690D02*
X181164094Y-85412595D01*
X180211713Y-85412595D02*
X180364094Y-85412595D01*
X180364094Y-85412595D02*
X180440285Y-85450690D01*
X180440285Y-85450690D02*
X180478380Y-85488785D01*
X180478380Y-85488785D02*
X180554570Y-85603071D01*
X180554570Y-85603071D02*
X180592666Y-85755452D01*
X180592666Y-85755452D02*
X180592666Y-86060214D01*
X180592666Y-86060214D02*
X180554570Y-86136404D01*
X180554570Y-86136404D02*
X180516475Y-86174500D01*
X180516475Y-86174500D02*
X180440285Y-86212595D01*
X180440285Y-86212595D02*
X180287904Y-86212595D01*
X180287904Y-86212595D02*
X180211713Y-86174500D01*
X180211713Y-86174500D02*
X180173618Y-86136404D01*
X180173618Y-86136404D02*
X180135523Y-86060214D01*
X180135523Y-86060214D02*
X180135523Y-85869738D01*
X180135523Y-85869738D02*
X180173618Y-85793547D01*
X180173618Y-85793547D02*
X180211713Y-85755452D01*
X180211713Y-85755452D02*
X180287904Y-85717357D01*
X180287904Y-85717357D02*
X180440285Y-85717357D01*
X180440285Y-85717357D02*
X180516475Y-85755452D01*
X180516475Y-85755452D02*
X180554570Y-85793547D01*
X180554570Y-85793547D02*
X180592666Y-85869738D01*
X182423237Y-104827595D02*
X182689904Y-104446642D01*
X182880380Y-104827595D02*
X182880380Y-104027595D01*
X182880380Y-104027595D02*
X182575618Y-104027595D01*
X182575618Y-104027595D02*
X182499428Y-104065690D01*
X182499428Y-104065690D02*
X182461333Y-104103785D01*
X182461333Y-104103785D02*
X182423237Y-104179976D01*
X182423237Y-104179976D02*
X182423237Y-104294261D01*
X182423237Y-104294261D02*
X182461333Y-104370452D01*
X182461333Y-104370452D02*
X182499428Y-104408547D01*
X182499428Y-104408547D02*
X182575618Y-104446642D01*
X182575618Y-104446642D02*
X182880380Y-104446642D01*
X181661333Y-104827595D02*
X182118476Y-104827595D01*
X181889904Y-104827595D02*
X181889904Y-104027595D01*
X181889904Y-104027595D02*
X181966095Y-104141880D01*
X181966095Y-104141880D02*
X182042285Y-104218071D01*
X182042285Y-104218071D02*
X182118476Y-104256166D01*
X181166094Y-104027595D02*
X181089904Y-104027595D01*
X181089904Y-104027595D02*
X181013713Y-104065690D01*
X181013713Y-104065690D02*
X180975618Y-104103785D01*
X180975618Y-104103785D02*
X180937523Y-104179976D01*
X180937523Y-104179976D02*
X180899428Y-104332357D01*
X180899428Y-104332357D02*
X180899428Y-104522833D01*
X180899428Y-104522833D02*
X180937523Y-104675214D01*
X180937523Y-104675214D02*
X180975618Y-104751404D01*
X180975618Y-104751404D02*
X181013713Y-104789500D01*
X181013713Y-104789500D02*
X181089904Y-104827595D01*
X181089904Y-104827595D02*
X181166094Y-104827595D01*
X181166094Y-104827595D02*
X181242285Y-104789500D01*
X181242285Y-104789500D02*
X181280380Y-104751404D01*
X181280380Y-104751404D02*
X181318475Y-104675214D01*
X181318475Y-104675214D02*
X181356571Y-104522833D01*
X181356571Y-104522833D02*
X181356571Y-104332357D01*
X181356571Y-104332357D02*
X181318475Y-104179976D01*
X181318475Y-104179976D02*
X181280380Y-104103785D01*
X181280380Y-104103785D02*
X181242285Y-104065690D01*
X181242285Y-104065690D02*
X181166094Y-104027595D01*
X180632761Y-104027595D02*
X180137523Y-104027595D01*
X180137523Y-104027595D02*
X180404189Y-104332357D01*
X180404189Y-104332357D02*
X180289904Y-104332357D01*
X180289904Y-104332357D02*
X180213713Y-104370452D01*
X180213713Y-104370452D02*
X180175618Y-104408547D01*
X180175618Y-104408547D02*
X180137523Y-104484738D01*
X180137523Y-104484738D02*
X180137523Y-104675214D01*
X180137523Y-104675214D02*
X180175618Y-104751404D01*
X180175618Y-104751404D02*
X180213713Y-104789500D01*
X180213713Y-104789500D02*
X180289904Y-104827595D01*
X180289904Y-104827595D02*
X180518475Y-104827595D01*
X180518475Y-104827595D02*
X180594666Y-104789500D01*
X180594666Y-104789500D02*
X180632761Y-104751404D01*
X178103237Y-87470595D02*
X178369904Y-87089642D01*
X178560380Y-87470595D02*
X178560380Y-86670595D01*
X178560380Y-86670595D02*
X178255618Y-86670595D01*
X178255618Y-86670595D02*
X178179428Y-86708690D01*
X178179428Y-86708690D02*
X178141333Y-86746785D01*
X178141333Y-86746785D02*
X178103237Y-86822976D01*
X178103237Y-86822976D02*
X178103237Y-86937261D01*
X178103237Y-86937261D02*
X178141333Y-87013452D01*
X178141333Y-87013452D02*
X178179428Y-87051547D01*
X178179428Y-87051547D02*
X178255618Y-87089642D01*
X178255618Y-87089642D02*
X178560380Y-87089642D01*
X177341333Y-87470595D02*
X177798476Y-87470595D01*
X177569904Y-87470595D02*
X177569904Y-86670595D01*
X177569904Y-86670595D02*
X177646095Y-86784880D01*
X177646095Y-86784880D02*
X177722285Y-86861071D01*
X177722285Y-86861071D02*
X177798476Y-86899166D01*
X176846094Y-86670595D02*
X176769904Y-86670595D01*
X176769904Y-86670595D02*
X176693713Y-86708690D01*
X176693713Y-86708690D02*
X176655618Y-86746785D01*
X176655618Y-86746785D02*
X176617523Y-86822976D01*
X176617523Y-86822976D02*
X176579428Y-86975357D01*
X176579428Y-86975357D02*
X176579428Y-87165833D01*
X176579428Y-87165833D02*
X176617523Y-87318214D01*
X176617523Y-87318214D02*
X176655618Y-87394404D01*
X176655618Y-87394404D02*
X176693713Y-87432500D01*
X176693713Y-87432500D02*
X176769904Y-87470595D01*
X176769904Y-87470595D02*
X176846094Y-87470595D01*
X176846094Y-87470595D02*
X176922285Y-87432500D01*
X176922285Y-87432500D02*
X176960380Y-87394404D01*
X176960380Y-87394404D02*
X176998475Y-87318214D01*
X176998475Y-87318214D02*
X177036571Y-87165833D01*
X177036571Y-87165833D02*
X177036571Y-86975357D01*
X177036571Y-86975357D02*
X176998475Y-86822976D01*
X176998475Y-86822976D02*
X176960380Y-86746785D01*
X176960380Y-86746785D02*
X176922285Y-86708690D01*
X176922285Y-86708690D02*
X176846094Y-86670595D01*
X175893713Y-86937261D02*
X175893713Y-87470595D01*
X176084189Y-86632500D02*
X176274666Y-87203928D01*
X176274666Y-87203928D02*
X175779427Y-87203928D01*
D10*
%TO.C,J101*%
X118040000Y-90402000D02*
X121342000Y-90402000D01*
X121342000Y-90402000D02*
X124644000Y-90402000D01*
X118040000Y-90402000D02*
X118040000Y-95736000D01*
X118040000Y-101070000D02*
X118040000Y-95736000D01*
X124644000Y-90402000D02*
X124644000Y-95736000D01*
X124644000Y-101070000D02*
X124644000Y-95736000D01*
X118040000Y-101070000D02*
X121342000Y-101070000D01*
X124644000Y-101070000D02*
X121342000Y-101070000D01*
D15*
%TO.C,D106*%
X182882000Y-88114000D02*
X182882000Y-89584000D01*
X182882000Y-89584000D02*
X185167000Y-89584000D01*
X185167000Y-88114000D02*
X182882000Y-88114000D01*
%TO.C,J103*%
X154532000Y-99126000D02*
X154532000Y-109846000D01*
X154532000Y-109846000D02*
X158252000Y-109846000D01*
X154932000Y-99526000D02*
X154932000Y-109446000D01*
X154932000Y-101386000D02*
X155332000Y-101386000D01*
X154932000Y-102886000D02*
X155332000Y-102886000D01*
X154932000Y-104386000D02*
X155332000Y-104386000D01*
X154932000Y-105886000D02*
X155332000Y-105886000D01*
X154932000Y-107386000D02*
X155332000Y-107386000D01*
X154932000Y-109446000D02*
X157852000Y-109446000D01*
X155332000Y-101386000D02*
X155332000Y-101586000D01*
X155332000Y-101486000D02*
X154932000Y-101486000D01*
X155332000Y-101586000D02*
X154932000Y-101586000D01*
X155332000Y-102886000D02*
X155332000Y-103086000D01*
X155332000Y-102986000D02*
X154932000Y-102986000D01*
X155332000Y-103086000D02*
X154932000Y-103086000D01*
X155332000Y-104386000D02*
X155332000Y-104586000D01*
X155332000Y-104486000D02*
X154932000Y-104486000D01*
X155332000Y-104586000D02*
X154932000Y-104586000D01*
X155332000Y-105886000D02*
X155332000Y-106086000D01*
X155332000Y-105986000D02*
X154932000Y-105986000D01*
X155332000Y-106086000D02*
X154932000Y-106086000D01*
X155332000Y-107386000D02*
X155332000Y-107586000D01*
X155332000Y-107486000D02*
X154932000Y-107486000D01*
X155332000Y-107586000D02*
X154932000Y-107586000D01*
X156342000Y-99526000D02*
X156342000Y-99126000D01*
X156342000Y-109446000D02*
X156342000Y-109846000D01*
X157342000Y-99526000D02*
X157342000Y-99126000D01*
X157342000Y-109446000D02*
X157342000Y-109846000D01*
X157652000Y-110046000D02*
X158452000Y-110046000D01*
X157852000Y-99526000D02*
X154932000Y-99526000D01*
X157852000Y-109446000D02*
X157852000Y-99526000D01*
X158252000Y-99126000D02*
X154532000Y-99126000D01*
X158252000Y-108836000D02*
X158452000Y-108836000D01*
X158252000Y-109846000D02*
X158252000Y-99126000D01*
X158352000Y-108836000D02*
X158352000Y-108536000D01*
X158452000Y-108536000D02*
X158252000Y-108536000D01*
X158452000Y-108836000D02*
X158452000Y-108536000D01*
X158452000Y-110046000D02*
X158452000Y-109246000D01*
%TO.C,R105*%
X177054359Y-88469000D02*
X177361641Y-88469000D01*
X177054359Y-89229000D02*
X177361641Y-89229000D01*
%TO.C,D101*%
X175852000Y-101799000D02*
X175852000Y-100329000D01*
X175852000Y-100329000D02*
X173567000Y-100329000D01*
X173567000Y-101799000D02*
X175852000Y-101799000D01*
%TO.C,D105*%
X175852000Y-89584000D02*
X175852000Y-88114000D01*
X175852000Y-88114000D02*
X173567000Y-88114000D01*
X173567000Y-89584000D02*
X175852000Y-89584000D01*
%TO.C,R101*%
X177054359Y-101444000D02*
X177361641Y-101444000D01*
X177054359Y-100684000D02*
X177361641Y-100684000D01*
%TO.C,J102*%
X126032000Y-96126000D02*
X126032000Y-109846000D01*
X126032000Y-109846000D02*
X129752000Y-109846000D01*
X126432000Y-96526000D02*
X126432000Y-109446000D01*
X126432000Y-98386000D02*
X126832000Y-98386000D01*
X126432000Y-99886000D02*
X126832000Y-99886000D01*
X126432000Y-101386000D02*
X126832000Y-101386000D01*
X126432000Y-102886000D02*
X126832000Y-102886000D01*
X126432000Y-104386000D02*
X126832000Y-104386000D01*
X126432000Y-105886000D02*
X126832000Y-105886000D01*
X126432000Y-107386000D02*
X126832000Y-107386000D01*
X126432000Y-109446000D02*
X129352000Y-109446000D01*
X126832000Y-98386000D02*
X126832000Y-98586000D01*
X126832000Y-98486000D02*
X126432000Y-98486000D01*
X126832000Y-98586000D02*
X126432000Y-98586000D01*
X126832000Y-99886000D02*
X126832000Y-100086000D01*
X126832000Y-99986000D02*
X126432000Y-99986000D01*
X126832000Y-100086000D02*
X126432000Y-100086000D01*
X126832000Y-101386000D02*
X126832000Y-101586000D01*
X126832000Y-101486000D02*
X126432000Y-101486000D01*
X126832000Y-101586000D02*
X126432000Y-101586000D01*
X126832000Y-102886000D02*
X126832000Y-103086000D01*
X126832000Y-102986000D02*
X126432000Y-102986000D01*
X126832000Y-103086000D02*
X126432000Y-103086000D01*
X126832000Y-104386000D02*
X126832000Y-104586000D01*
X126832000Y-104486000D02*
X126432000Y-104486000D01*
X126832000Y-104586000D02*
X126432000Y-104586000D01*
X126832000Y-105886000D02*
X126832000Y-106086000D01*
X126832000Y-105986000D02*
X126432000Y-105986000D01*
X126832000Y-106086000D02*
X126432000Y-106086000D01*
X126832000Y-107386000D02*
X126832000Y-107586000D01*
X126832000Y-107486000D02*
X126432000Y-107486000D01*
X126832000Y-107586000D02*
X126432000Y-107586000D01*
X127842000Y-96526000D02*
X127842000Y-96126000D01*
X127842000Y-109446000D02*
X127842000Y-109846000D01*
X128842000Y-96526000D02*
X128842000Y-96126000D01*
X128842000Y-109446000D02*
X128842000Y-109846000D01*
X129152000Y-110046000D02*
X129952000Y-110046000D01*
X129352000Y-96526000D02*
X126432000Y-96526000D01*
X129352000Y-109446000D02*
X129352000Y-96526000D01*
X129752000Y-96126000D02*
X126032000Y-96126000D01*
X129752000Y-108836000D02*
X129952000Y-108836000D01*
X129752000Y-109846000D02*
X129752000Y-96126000D01*
X129852000Y-108836000D02*
X129852000Y-108536000D01*
X129952000Y-108536000D02*
X129752000Y-108536000D01*
X129952000Y-108836000D02*
X129952000Y-108536000D01*
X129952000Y-110046000D02*
X129952000Y-109246000D01*
%TO.C,D102*%
X185167000Y-89772000D02*
X182882000Y-89772000D01*
X182882000Y-91242000D02*
X185167000Y-91242000D01*
X182882000Y-89772000D02*
X182882000Y-91242000D01*
%TO.C,R108*%
X181679641Y-103095000D02*
X181372359Y-103095000D01*
X181679641Y-102335000D02*
X181372359Y-102335000D01*
%TO.C,R102*%
X181679641Y-90127000D02*
X181372359Y-90127000D01*
X181679641Y-90887000D02*
X181372359Y-90887000D01*
%TO.C,D103*%
X185167000Y-100329000D02*
X182882000Y-100329000D01*
X182882000Y-101799000D02*
X185167000Y-101799000D01*
X182882000Y-100329000D02*
X182882000Y-101799000D01*
%TO.C,D107*%
X173567000Y-103457000D02*
X175852000Y-103457000D01*
X175852000Y-101987000D02*
X173567000Y-101987000D01*
X175852000Y-103457000D02*
X175852000Y-101987000D01*
%TO.C,SW101*%
X176280727Y-93189262D02*
X176280727Y-98389262D01*
X178250727Y-92619262D02*
X180450727Y-92619262D01*
X180450727Y-98859262D02*
X178250727Y-98859262D01*
X182520727Y-93389262D02*
X182520727Y-97789262D01*
X180814941Y-95739262D02*
G75*
G02*
X177986513Y-95739262I-1414214J0D01*
G01*
X177986513Y-95739262D02*
G75*
G02*
X180814941Y-95739262I1414214J0D01*
G01*
%TO.C,D104*%
X175852000Y-91242000D02*
X175852000Y-89772000D01*
X175852000Y-89772000D02*
X173567000Y-89772000D01*
X173567000Y-91242000D02*
X175852000Y-91242000D01*
%TO.C,R107*%
X177054359Y-103095000D02*
X177361641Y-103095000D01*
X177054359Y-102335000D02*
X177361641Y-102335000D01*
%TO.C,D108*%
X182882000Y-101987000D02*
X182882000Y-103457000D01*
X182882000Y-103457000D02*
X185167000Y-103457000D01*
X185167000Y-101987000D02*
X182882000Y-101987000D01*
%TO.C,R106*%
X181679641Y-88469000D02*
X181372359Y-88469000D01*
X181679641Y-89229000D02*
X181372359Y-89229000D01*
%TO.C,R103*%
X181681641Y-100684000D02*
X181374359Y-100684000D01*
X181681641Y-101444000D02*
X181374359Y-101444000D01*
%TO.C,R104*%
X177054359Y-90887000D02*
X177361641Y-90887000D01*
X177054359Y-90127000D02*
X177361641Y-90127000D01*
%TD*%
M02*
