M48
; DRILL file {KiCad 8.0.8} date 2025-01-30T12:00:55+0700
; FORMAT={-:-/ absolute / inch / decimal}
; #@! TF.CreationDate,2025-01-30T12:00:55+07:00
; #@! TF.GenerationSoftware,Kicad,Pcbnew,8.0.8
; #@! TF.FileFunction,Plated,1,2,PTH
FMAT,2
INCH
; #@! TA.AperFunction,Plated,PTH,ViaDrill
T1C0.0138
; #@! TA.AperFunction,Plated,PTH,ComponentDrill
T2C0.0236
; #@! TA.AperFunction,Plated,PTH,ComponentDrill
T3C0.0287
; #@! TA.AperFunction,Plated,PTH,ComponentDrill
T4C0.0394
%
G90
G05
T1
X4.2517Y-3.2039
X4.2517Y-3.3039
X4.2517Y-3.4039
X4.2517Y-3.7039
X4.2517Y-3.8039
X4.2517Y-3.9039
X4.2517Y-4.0039
X4.2517Y-4.1039
X4.2517Y-4.2839
X4.3517Y-3.2039
X4.4517Y-3.2039
X4.5517Y-3.2039
X4.6517Y-3.2039
X4.7517Y-3.2039
X4.8517Y-3.2039
X4.9517Y-3.2039
X5.0517Y-3.2039
X5.0517Y-3.3039
X5.0517Y-3.4039
X5.0517Y-3.5039
X5.0517Y-3.6039
X5.0517Y-3.7039
X5.2467Y-3.2039
X5.2467Y-3.3039
X5.2467Y-3.4039
X5.2467Y-4.1939
X5.2467Y-4.2939
X5.3467Y-3.2039
X5.3467Y-4.2939
X5.4467Y-3.2039
X5.4467Y-4.2939
X5.5467Y-3.2039
X5.5467Y-4.2939
X5.6467Y-3.2039
X5.6467Y-4.2939
X5.7467Y-3.2039
X5.7467Y-4.2939
X5.8467Y-3.2039
X5.8467Y-4.2939
X5.9467Y-3.2039
X5.9467Y-4.2939
X6.0467Y-3.2039
X6.0467Y-4.2939
X6.1467Y-3.2039
X6.2467Y-3.2039
X6.3467Y-3.2039
X6.4467Y-3.2039
X6.5467Y-3.2039
X6.6467Y-3.2039
X6.7467Y-3.2039
X6.8338Y-3.7939
X6.8467Y-3.2039
X6.9467Y-3.2039
X7.0316Y-4.1839
X7.0467Y-3.2039
X7.0517Y-3.5633
X7.0517Y-3.9789
X7.0867Y-3.498
X7.0867Y-4.0439
X7.1016Y-4.1839
X7.1467Y-3.2039
X7.1517Y-3.7289
X7.2467Y-3.2039
X7.2467Y-4.2939
X7.3467Y-3.2039
X7.3467Y-4.2939
X7.4467Y-3.2039
X7.4467Y-4.2939
X7.5467Y-3.2039
X7.5467Y-4.2939
X7.6467Y-3.2039
X7.6467Y-3.3039
X7.6467Y-3.4039
X7.6467Y-3.6689
X7.6467Y-3.7689
X7.6467Y-3.8689
X7.6467Y-3.9689
X7.6467Y-4.0689
X7.6467Y-4.2939
T3
X5.0528Y-3.8479
X5.0528Y-3.9069
X5.0528Y-3.966
X5.0528Y-4.025
X5.0528Y-4.0841
X5.0528Y-4.1431
X5.0528Y-4.2022
X5.0528Y-4.2613
X6.1749Y-3.966
X6.1749Y-4.025
X6.1749Y-4.0841
X6.1749Y-4.1431
X6.1749Y-4.2022
X6.1749Y-4.2613
T4
X6.9744Y-3.6413
X6.9744Y-3.8972
X7.1516Y-3.6413
X7.1516Y-3.8972
T2
G00X4.6828Y-3.7534
M15
G01X4.6828Y-3.7849
M16
G05
G00X4.7241Y-3.6156
M15
G01X4.6926Y-3.6156
M16
G05
G00X4.7241Y-3.9227
M15
G01X4.6926Y-3.9227
M16
G05
G00X4.8619Y-3.6687
M15
G01X4.8304Y-3.6687
M16
G05
G00X4.8619Y-3.8695
M15
G01X4.8304Y-3.8695
M16
G05
G00X4.8717Y-3.7534
M15
G01X4.8717Y-3.7849
M16
G05
M30
