%TF.GenerationSoftware,KiCad,Pcbnew,8.0.8*%
%TF.CreationDate,2025-01-30T12:00:56+07:00*%
%TF.ProjectId,CH170_FrontPanel,43483137-305f-4467-926f-6e7450616e65,rev?*%
%TF.SameCoordinates,Original*%
%TF.FileFunction,Drillmap*%
%TF.FilePolarity,Positive*%
%FSLAX45Y45*%
G04 Gerber Fmt 4.5, Leading zero omitted, Abs format (unit mm)*
G04 Created by KiCad (PCBNEW 8.0.8) date 2025-01-30 12:00:56*
%MOMM*%
%LPD*%
G01*
G04 APERTURE LIST*
%ADD10C,0.050000*%
%ADD11C,0.200000*%
%ADD12C,0.100000*%
G04 APERTURE END LIST*
D10*
X13084200Y-8823600D02*
X13984200Y-8823600D01*
X13984200Y-10323600D01*
X13084200Y-10323600D01*
X13084200Y-8823600D01*
X15885300Y-8823700D02*
X16785300Y-8823700D01*
X16785300Y-10323700D01*
X15885300Y-10323700D01*
X15885300Y-8823700D01*
X14485300Y-8823700D02*
X15385300Y-8823700D01*
X15385300Y-10323700D01*
X14485300Y-10323700D01*
X14485300Y-8823700D01*
X10634200Y-8023600D02*
X19634200Y-8023600D01*
X19634200Y-11023600D01*
X10634200Y-11023600D01*
X10634200Y-8023600D01*
D11*
D12*
X10781800Y-8120400D02*
X10816800Y-8155400D01*
X10816800Y-8120400D02*
X10781800Y-8155400D01*
X10781800Y-8374400D02*
X10816800Y-8409400D01*
X10816800Y-8374400D02*
X10781800Y-8409400D01*
X10781800Y-8628400D02*
X10816800Y-8663400D01*
X10816800Y-8628400D02*
X10781800Y-8663400D01*
X10781800Y-9390400D02*
X10816800Y-9425400D01*
X10816800Y-9390400D02*
X10781800Y-9425400D01*
X10781800Y-9644400D02*
X10816800Y-9679400D01*
X10816800Y-9644400D02*
X10781800Y-9679400D01*
X10781800Y-9898400D02*
X10816800Y-9933400D01*
X10816800Y-9898400D02*
X10781800Y-9933400D01*
X10781800Y-10152400D02*
X10816800Y-10187400D01*
X10816800Y-10152400D02*
X10781800Y-10187400D01*
X10781800Y-10406400D02*
X10816800Y-10441400D01*
X10816800Y-10406400D02*
X10781800Y-10441400D01*
X10781800Y-10863600D02*
X10816800Y-10898600D01*
X10816800Y-10863600D02*
X10781800Y-10898600D01*
X11035800Y-8120400D02*
X11070800Y-8155400D01*
X11070800Y-8120400D02*
X11035800Y-8155400D01*
X11289800Y-8120400D02*
X11324800Y-8155400D01*
X11324800Y-8120400D02*
X11289800Y-8155400D01*
X11543800Y-8120400D02*
X11578800Y-8155400D01*
X11578800Y-8120400D02*
X11543800Y-8155400D01*
X11797800Y-8120400D02*
X11832800Y-8155400D01*
X11832800Y-8120400D02*
X11797800Y-8155400D01*
X12051800Y-8120400D02*
X12086800Y-8155400D01*
X12086800Y-8120400D02*
X12051800Y-8155400D01*
X12305800Y-8120400D02*
X12340800Y-8155400D01*
X12340800Y-8120400D02*
X12305800Y-8155400D01*
X12559800Y-8120400D02*
X12594800Y-8155400D01*
X12594800Y-8120400D02*
X12559800Y-8155400D01*
X12813800Y-8120400D02*
X12848800Y-8155400D01*
X12848800Y-8120400D02*
X12813800Y-8155400D01*
X12813800Y-8374400D02*
X12848800Y-8409400D01*
X12848800Y-8374400D02*
X12813800Y-8409400D01*
X12813800Y-8628400D02*
X12848800Y-8663400D01*
X12848800Y-8628400D02*
X12813800Y-8663400D01*
X12813800Y-8882400D02*
X12848800Y-8917400D01*
X12848800Y-8882400D02*
X12813800Y-8917400D01*
X12813800Y-9136400D02*
X12848800Y-9171400D01*
X12848800Y-9136400D02*
X12813800Y-9171400D01*
X12813800Y-9390400D02*
X12848800Y-9425400D01*
X12848800Y-9390400D02*
X12813800Y-9425400D01*
X13309100Y-8120400D02*
X13344100Y-8155400D01*
X13344100Y-8120400D02*
X13309100Y-8155400D01*
X13309100Y-8374400D02*
X13344100Y-8409400D01*
X13344100Y-8374400D02*
X13309100Y-8409400D01*
X13309100Y-8628400D02*
X13344100Y-8663400D01*
X13344100Y-8628400D02*
X13309100Y-8663400D01*
X13309100Y-10635000D02*
X13344100Y-10670000D01*
X13344100Y-10635000D02*
X13309100Y-10670000D01*
X13309100Y-10889000D02*
X13344100Y-10924000D01*
X13344100Y-10889000D02*
X13309100Y-10924000D01*
X13563100Y-8120400D02*
X13598100Y-8155400D01*
X13598100Y-8120400D02*
X13563100Y-8155400D01*
X13563100Y-10889000D02*
X13598100Y-10924000D01*
X13598100Y-10889000D02*
X13563100Y-10924000D01*
X13817100Y-8120400D02*
X13852100Y-8155400D01*
X13852100Y-8120400D02*
X13817100Y-8155400D01*
X13817100Y-10889000D02*
X13852100Y-10924000D01*
X13852100Y-10889000D02*
X13817100Y-10924000D01*
X14071100Y-8120400D02*
X14106100Y-8155400D01*
X14106100Y-8120400D02*
X14071100Y-8155400D01*
X14071100Y-10889000D02*
X14106100Y-10924000D01*
X14106100Y-10889000D02*
X14071100Y-10924000D01*
X14325100Y-8120400D02*
X14360100Y-8155400D01*
X14360100Y-8120400D02*
X14325100Y-8155400D01*
X14325100Y-10889000D02*
X14360100Y-10924000D01*
X14360100Y-10889000D02*
X14325100Y-10924000D01*
X14579100Y-8120400D02*
X14614100Y-8155400D01*
X14614100Y-8120400D02*
X14579100Y-8155400D01*
X14579100Y-10889000D02*
X14614100Y-10924000D01*
X14614100Y-10889000D02*
X14579100Y-10924000D01*
X14833100Y-8120400D02*
X14868100Y-8155400D01*
X14868100Y-8120400D02*
X14833100Y-8155400D01*
X14833100Y-10889000D02*
X14868100Y-10924000D01*
X14868100Y-10889000D02*
X14833100Y-10924000D01*
X15087100Y-8120400D02*
X15122100Y-8155400D01*
X15122100Y-8120400D02*
X15087100Y-8155400D01*
X15087100Y-10889000D02*
X15122100Y-10924000D01*
X15122100Y-10889000D02*
X15087100Y-10924000D01*
X15341100Y-8120400D02*
X15376100Y-8155400D01*
X15376100Y-8120400D02*
X15341100Y-8155400D01*
X15341100Y-10889000D02*
X15376100Y-10924000D01*
X15376100Y-10889000D02*
X15341100Y-10924000D01*
X15595100Y-8120400D02*
X15630100Y-8155400D01*
X15630100Y-8120400D02*
X15595100Y-8155400D01*
X15849100Y-8120400D02*
X15884100Y-8155400D01*
X15884100Y-8120400D02*
X15849100Y-8155400D01*
X16103100Y-8120400D02*
X16138100Y-8155400D01*
X16138100Y-8120400D02*
X16103100Y-8155400D01*
X16357100Y-8120400D02*
X16392100Y-8155400D01*
X16392100Y-8120400D02*
X16357100Y-8155400D01*
X16611100Y-8120400D02*
X16646100Y-8155400D01*
X16646100Y-8120400D02*
X16611100Y-8155400D01*
X16865100Y-8120400D02*
X16900100Y-8155400D01*
X16900100Y-8120400D02*
X16865100Y-8155400D01*
X17119100Y-8120400D02*
X17154100Y-8155400D01*
X17154100Y-8120400D02*
X17119100Y-8155400D01*
X17340450Y-9619000D02*
X17375450Y-9654000D01*
X17375450Y-9619000D02*
X17340450Y-9654000D01*
X17373100Y-8120400D02*
X17408100Y-8155400D01*
X17408100Y-8120400D02*
X17373100Y-8155400D01*
X17627100Y-8120400D02*
X17662100Y-8155400D01*
X17662100Y-8120400D02*
X17627100Y-8155400D01*
X17842795Y-10609600D02*
X17877795Y-10644600D01*
X17877795Y-10609600D02*
X17842795Y-10644600D01*
X17881100Y-8120400D02*
X17916100Y-8155400D01*
X17916100Y-8120400D02*
X17881100Y-8155400D01*
X17893800Y-9033200D02*
X17928800Y-9068200D01*
X17928800Y-9033200D02*
X17893800Y-9068200D01*
X17893800Y-10088900D02*
X17928800Y-10123900D01*
X17928800Y-10088900D02*
X17893800Y-10123900D01*
X17982700Y-8867400D02*
X18017700Y-8902400D01*
X18017700Y-8867400D02*
X17982700Y-8902400D01*
X17982700Y-10254000D02*
X18017700Y-10289000D01*
X18017700Y-10254000D02*
X17982700Y-10289000D01*
X18020595Y-10609600D02*
X18055595Y-10644600D01*
X18055595Y-10609600D02*
X18020595Y-10644600D01*
X18135100Y-8120400D02*
X18170100Y-8155400D01*
X18170100Y-8120400D02*
X18135100Y-8155400D01*
X18147800Y-9453900D02*
X18182800Y-9488900D01*
X18182800Y-9453900D02*
X18147800Y-9488900D01*
X18389100Y-8120400D02*
X18424100Y-8155400D01*
X18424100Y-8120400D02*
X18389100Y-8155400D01*
X18389100Y-10889000D02*
X18424100Y-10924000D01*
X18424100Y-10889000D02*
X18389100Y-10924000D01*
X18643100Y-8120400D02*
X18678100Y-8155400D01*
X18678100Y-8120400D02*
X18643100Y-8155400D01*
X18643100Y-10889000D02*
X18678100Y-10924000D01*
X18678100Y-10889000D02*
X18643100Y-10924000D01*
X18897100Y-8120400D02*
X18932100Y-8155400D01*
X18932100Y-8120400D02*
X18897100Y-8155400D01*
X18897100Y-10889000D02*
X18932100Y-10924000D01*
X18932100Y-10889000D02*
X18897100Y-10924000D01*
X19151100Y-8120400D02*
X19186100Y-8155400D01*
X19186100Y-8120400D02*
X19151100Y-8155400D01*
X19151100Y-10889000D02*
X19186100Y-10924000D01*
X19186100Y-10889000D02*
X19151100Y-10924000D01*
X19405100Y-8120400D02*
X19440100Y-8155400D01*
X19440100Y-8120400D02*
X19405100Y-8155400D01*
X19405100Y-8374400D02*
X19440100Y-8409400D01*
X19440100Y-8374400D02*
X19405100Y-8409400D01*
X19405100Y-8628400D02*
X19440100Y-8663400D01*
X19440100Y-8628400D02*
X19405100Y-8663400D01*
X19405100Y-9301500D02*
X19440100Y-9336500D01*
X19440100Y-9301500D02*
X19405100Y-9336500D01*
X19405100Y-9555500D02*
X19440100Y-9590500D01*
X19440100Y-9555500D02*
X19405100Y-9590500D01*
X19405100Y-9809500D02*
X19440100Y-9844500D01*
X19440100Y-9809500D02*
X19405100Y-9844500D01*
X19405100Y-10063500D02*
X19440100Y-10098500D01*
X19440100Y-10063500D02*
X19405100Y-10098500D01*
X19405100Y-10317500D02*
X19440100Y-10352500D01*
X19440100Y-10317500D02*
X19405100Y-10352500D01*
X19405100Y-10889000D02*
X19440100Y-10924000D01*
X19440100Y-10889000D02*
X19405100Y-10924000D01*
X11924200Y-9573600D02*
G75*
G02*
X11864200Y-9573600I-30000J0D01*
G01*
X11864200Y-9573600D02*
G75*
G02*
X11924200Y-9573600I30000J0D01*
G01*
X11864200Y-9533600D02*
X11864200Y-9613600D01*
X11924200Y-9613600D02*
G75*
G02*
X11864200Y-9613600I-30000J0D01*
G01*
X11924200Y-9613600D02*
X11924200Y-9533600D01*
X11924200Y-9533600D02*
G75*
G03*
X11864200Y-9533600I-30000J0D01*
G01*
X11989200Y-9183600D02*
G75*
G02*
X11929200Y-9183600I-30000J0D01*
G01*
X11929200Y-9183600D02*
G75*
G02*
X11989200Y-9183600I30000J0D01*
G01*
X11999200Y-9153600D02*
X11919200Y-9153600D01*
X11919200Y-9213600D02*
G75*
G02*
X11919200Y-9153600I0J30000D01*
G01*
X11919200Y-9213600D02*
X11999200Y-9213600D01*
X11999200Y-9213600D02*
G75*
G03*
X11999200Y-9153600I0J30000D01*
G01*
X11989200Y-9963600D02*
G75*
G02*
X11929200Y-9963600I-30000J0D01*
G01*
X11929200Y-9963600D02*
G75*
G02*
X11989200Y-9963600I30000J0D01*
G01*
X11999200Y-9933600D02*
X11919200Y-9933600D01*
X11919200Y-9993600D02*
G75*
G02*
X11919200Y-9933600I0J30000D01*
G01*
X11919200Y-9993600D02*
X11999200Y-9993600D01*
X11999200Y-9993600D02*
G75*
G03*
X11999200Y-9933600I0J30000D01*
G01*
X12339200Y-9318600D02*
G75*
G02*
X12279200Y-9318600I-30000J0D01*
G01*
X12279200Y-9318600D02*
G75*
G02*
X12339200Y-9318600I30000J0D01*
G01*
X12349200Y-9288600D02*
X12269200Y-9288600D01*
X12269200Y-9348600D02*
G75*
G02*
X12269200Y-9288600I0J30000D01*
G01*
X12269200Y-9348600D02*
X12349200Y-9348600D01*
X12349200Y-9348600D02*
G75*
G03*
X12349200Y-9288600I0J30000D01*
G01*
X12339200Y-9828600D02*
G75*
G02*
X12279200Y-9828600I-30000J0D01*
G01*
X12279200Y-9828600D02*
G75*
G02*
X12339200Y-9828600I30000J0D01*
G01*
X12349200Y-9798600D02*
X12269200Y-9798600D01*
X12269200Y-9858600D02*
G75*
G02*
X12269200Y-9798600I0J30000D01*
G01*
X12269200Y-9858600D02*
X12349200Y-9858600D01*
X12349200Y-9858600D02*
G75*
G03*
X12349200Y-9798600I0J30000D01*
G01*
X12404200Y-9573600D02*
G75*
G02*
X12344200Y-9573600I-30000J0D01*
G01*
X12344200Y-9573600D02*
G75*
G02*
X12404200Y-9573600I30000J0D01*
G01*
X12344200Y-9533600D02*
X12344200Y-9613600D01*
X12404200Y-9613600D02*
G75*
G02*
X12344200Y-9613600I-30000J0D01*
G01*
X12404200Y-9613600D02*
X12404200Y-9533600D01*
X12404200Y-9533600D02*
G75*
G03*
X12344200Y-9533600I-30000J0D01*
G01*
X12834200Y-9737100D02*
X12834200Y-9810100D01*
X12797700Y-9773600D02*
X12870700Y-9773600D01*
X12834200Y-9887100D02*
X12834200Y-9960100D01*
X12797700Y-9923600D02*
X12870700Y-9923600D01*
X12834200Y-10037100D02*
X12834200Y-10110100D01*
X12797700Y-10073600D02*
X12870700Y-10073600D01*
X12834200Y-10187100D02*
X12834200Y-10260100D01*
X12797700Y-10223600D02*
X12870700Y-10223600D01*
X12834200Y-10337100D02*
X12834200Y-10410100D01*
X12797700Y-10373600D02*
X12870700Y-10373600D01*
X12834200Y-10487100D02*
X12834200Y-10560100D01*
X12797700Y-10523600D02*
X12870700Y-10523600D01*
X12834200Y-10637100D02*
X12834200Y-10710100D01*
X12797700Y-10673600D02*
X12870700Y-10673600D01*
X12834200Y-10787100D02*
X12834200Y-10860100D01*
X12797700Y-10823600D02*
X12870700Y-10823600D01*
X15684200Y-10037100D02*
X15684200Y-10110100D01*
X15647700Y-10073600D02*
X15720700Y-10073600D01*
X15684200Y-10187100D02*
X15684200Y-10260100D01*
X15647700Y-10223600D02*
X15720700Y-10223600D01*
X15684200Y-10337100D02*
X15684200Y-10410100D01*
X15647700Y-10373600D02*
X15720700Y-10373600D01*
X15684200Y-10487100D02*
X15684200Y-10560100D01*
X15647700Y-10523600D02*
X15720700Y-10523600D01*
X15684200Y-10637100D02*
X15684200Y-10710100D01*
X15647700Y-10673600D02*
X15720700Y-10673600D01*
X15684200Y-10787100D02*
X15684200Y-10860100D01*
X15647700Y-10823600D02*
X15720700Y-10823600D01*
X17750428Y-9284282D02*
X17750428Y-9213571D01*
X17679717Y-9213571D01*
X17679717Y-9284282D01*
X17750428Y-9284282D01*
X17750428Y-9934282D02*
X17750428Y-9863571D01*
X17679717Y-9863571D01*
X17679717Y-9934282D01*
X17750428Y-9934282D01*
X18200428Y-9284282D02*
X18200428Y-9213571D01*
X18129717Y-9213571D01*
X18129717Y-9284282D01*
X18200428Y-9284282D01*
X18200428Y-9934282D02*
X18200428Y-9863571D01*
X18129717Y-9863571D01*
X18129717Y-9934282D01*
X18200428Y-9934282D01*
D11*
X10892477Y-11337584D02*
X10892477Y-11137584D01*
X10892477Y-11137584D02*
X10940096Y-11137584D01*
X10940096Y-11137584D02*
X10968667Y-11147108D01*
X10968667Y-11147108D02*
X10987715Y-11166155D01*
X10987715Y-11166155D02*
X10997239Y-11185203D01*
X10997239Y-11185203D02*
X11006763Y-11223298D01*
X11006763Y-11223298D02*
X11006763Y-11251869D01*
X11006763Y-11251869D02*
X10997239Y-11289965D01*
X10997239Y-11289965D02*
X10987715Y-11309012D01*
X10987715Y-11309012D02*
X10968667Y-11328060D01*
X10968667Y-11328060D02*
X10940096Y-11337584D01*
X10940096Y-11337584D02*
X10892477Y-11337584D01*
X11092477Y-11337584D02*
X11092477Y-11204250D01*
X11092477Y-11242346D02*
X11102001Y-11223298D01*
X11102001Y-11223298D02*
X11111524Y-11213774D01*
X11111524Y-11213774D02*
X11130572Y-11204250D01*
X11130572Y-11204250D02*
X11149620Y-11204250D01*
X11216286Y-11337584D02*
X11216286Y-11204250D01*
X11216286Y-11137584D02*
X11206762Y-11147108D01*
X11206762Y-11147108D02*
X11216286Y-11156631D01*
X11216286Y-11156631D02*
X11225810Y-11147108D01*
X11225810Y-11147108D02*
X11216286Y-11137584D01*
X11216286Y-11137584D02*
X11216286Y-11156631D01*
X11340096Y-11337584D02*
X11321048Y-11328060D01*
X11321048Y-11328060D02*
X11311524Y-11309012D01*
X11311524Y-11309012D02*
X11311524Y-11137584D01*
X11444858Y-11337584D02*
X11425810Y-11328060D01*
X11425810Y-11328060D02*
X11416286Y-11309012D01*
X11416286Y-11309012D02*
X11416286Y-11137584D01*
X11673429Y-11337584D02*
X11673429Y-11137584D01*
X11673429Y-11137584D02*
X11740096Y-11280441D01*
X11740096Y-11280441D02*
X11806762Y-11137584D01*
X11806762Y-11137584D02*
X11806762Y-11337584D01*
X11987715Y-11337584D02*
X11987715Y-11232822D01*
X11987715Y-11232822D02*
X11978191Y-11213774D01*
X11978191Y-11213774D02*
X11959143Y-11204250D01*
X11959143Y-11204250D02*
X11921048Y-11204250D01*
X11921048Y-11204250D02*
X11902001Y-11213774D01*
X11987715Y-11328060D02*
X11968667Y-11337584D01*
X11968667Y-11337584D02*
X11921048Y-11337584D01*
X11921048Y-11337584D02*
X11902001Y-11328060D01*
X11902001Y-11328060D02*
X11892477Y-11309012D01*
X11892477Y-11309012D02*
X11892477Y-11289965D01*
X11892477Y-11289965D02*
X11902001Y-11270917D01*
X11902001Y-11270917D02*
X11921048Y-11261393D01*
X11921048Y-11261393D02*
X11968667Y-11261393D01*
X11968667Y-11261393D02*
X11987715Y-11251869D01*
X12082953Y-11204250D02*
X12082953Y-11404250D01*
X12082953Y-11213774D02*
X12102001Y-11204250D01*
X12102001Y-11204250D02*
X12140096Y-11204250D01*
X12140096Y-11204250D02*
X12159143Y-11213774D01*
X12159143Y-11213774D02*
X12168667Y-11223298D01*
X12168667Y-11223298D02*
X12178191Y-11242346D01*
X12178191Y-11242346D02*
X12178191Y-11299488D01*
X12178191Y-11299488D02*
X12168667Y-11318536D01*
X12168667Y-11318536D02*
X12159143Y-11328060D01*
X12159143Y-11328060D02*
X12140096Y-11337584D01*
X12140096Y-11337584D02*
X12102001Y-11337584D01*
X12102001Y-11337584D02*
X12082953Y-11328060D01*
X12263905Y-11318536D02*
X12273429Y-11328060D01*
X12273429Y-11328060D02*
X12263905Y-11337584D01*
X12263905Y-11337584D02*
X12254382Y-11328060D01*
X12254382Y-11328060D02*
X12263905Y-11318536D01*
X12263905Y-11318536D02*
X12263905Y-11337584D01*
X12263905Y-11213774D02*
X12273429Y-11223298D01*
X12273429Y-11223298D02*
X12263905Y-11232822D01*
X12263905Y-11232822D02*
X12254382Y-11223298D01*
X12254382Y-11223298D02*
X12263905Y-11213774D01*
X12263905Y-11213774D02*
X12263905Y-11232822D01*
D12*
X10596700Y-11648600D02*
X10631700Y-11683600D01*
X10631700Y-11648600D02*
X10596700Y-11683600D01*
D11*
X10930572Y-11557584D02*
X10949620Y-11557584D01*
X10949620Y-11557584D02*
X10968667Y-11567108D01*
X10968667Y-11567108D02*
X10978191Y-11576631D01*
X10978191Y-11576631D02*
X10987715Y-11595679D01*
X10987715Y-11595679D02*
X10997239Y-11633774D01*
X10997239Y-11633774D02*
X10997239Y-11681393D01*
X10997239Y-11681393D02*
X10987715Y-11719488D01*
X10987715Y-11719488D02*
X10978191Y-11738536D01*
X10978191Y-11738536D02*
X10968667Y-11748060D01*
X10968667Y-11748060D02*
X10949620Y-11757584D01*
X10949620Y-11757584D02*
X10930572Y-11757584D01*
X10930572Y-11757584D02*
X10911524Y-11748060D01*
X10911524Y-11748060D02*
X10902001Y-11738536D01*
X10902001Y-11738536D02*
X10892477Y-11719488D01*
X10892477Y-11719488D02*
X10882953Y-11681393D01*
X10882953Y-11681393D02*
X10882953Y-11633774D01*
X10882953Y-11633774D02*
X10892477Y-11595679D01*
X10892477Y-11595679D02*
X10902001Y-11576631D01*
X10902001Y-11576631D02*
X10911524Y-11567108D01*
X10911524Y-11567108D02*
X10930572Y-11557584D01*
X11082953Y-11738536D02*
X11092477Y-11748060D01*
X11092477Y-11748060D02*
X11082953Y-11757584D01*
X11082953Y-11757584D02*
X11073429Y-11748060D01*
X11073429Y-11748060D02*
X11082953Y-11738536D01*
X11082953Y-11738536D02*
X11082953Y-11757584D01*
X11159144Y-11557584D02*
X11282953Y-11557584D01*
X11282953Y-11557584D02*
X11216286Y-11633774D01*
X11216286Y-11633774D02*
X11244858Y-11633774D01*
X11244858Y-11633774D02*
X11263905Y-11643298D01*
X11263905Y-11643298D02*
X11273429Y-11652822D01*
X11273429Y-11652822D02*
X11282953Y-11671869D01*
X11282953Y-11671869D02*
X11282953Y-11719488D01*
X11282953Y-11719488D02*
X11273429Y-11738536D01*
X11273429Y-11738536D02*
X11263905Y-11748060D01*
X11263905Y-11748060D02*
X11244858Y-11757584D01*
X11244858Y-11757584D02*
X11187715Y-11757584D01*
X11187715Y-11757584D02*
X11168667Y-11748060D01*
X11168667Y-11748060D02*
X11159144Y-11738536D01*
X11463905Y-11557584D02*
X11368667Y-11557584D01*
X11368667Y-11557584D02*
X11359143Y-11652822D01*
X11359143Y-11652822D02*
X11368667Y-11643298D01*
X11368667Y-11643298D02*
X11387715Y-11633774D01*
X11387715Y-11633774D02*
X11435334Y-11633774D01*
X11435334Y-11633774D02*
X11454382Y-11643298D01*
X11454382Y-11643298D02*
X11463905Y-11652822D01*
X11463905Y-11652822D02*
X11473429Y-11671869D01*
X11473429Y-11671869D02*
X11473429Y-11719488D01*
X11473429Y-11719488D02*
X11463905Y-11738536D01*
X11463905Y-11738536D02*
X11454382Y-11748060D01*
X11454382Y-11748060D02*
X11435334Y-11757584D01*
X11435334Y-11757584D02*
X11387715Y-11757584D01*
X11387715Y-11757584D02*
X11368667Y-11748060D01*
X11368667Y-11748060D02*
X11359143Y-11738536D01*
X11597239Y-11557584D02*
X11616286Y-11557584D01*
X11616286Y-11557584D02*
X11635334Y-11567108D01*
X11635334Y-11567108D02*
X11644858Y-11576631D01*
X11644858Y-11576631D02*
X11654382Y-11595679D01*
X11654382Y-11595679D02*
X11663905Y-11633774D01*
X11663905Y-11633774D02*
X11663905Y-11681393D01*
X11663905Y-11681393D02*
X11654382Y-11719488D01*
X11654382Y-11719488D02*
X11644858Y-11738536D01*
X11644858Y-11738536D02*
X11635334Y-11748060D01*
X11635334Y-11748060D02*
X11616286Y-11757584D01*
X11616286Y-11757584D02*
X11597239Y-11757584D01*
X11597239Y-11757584D02*
X11578191Y-11748060D01*
X11578191Y-11748060D02*
X11568667Y-11738536D01*
X11568667Y-11738536D02*
X11559143Y-11719488D01*
X11559143Y-11719488D02*
X11549620Y-11681393D01*
X11549620Y-11681393D02*
X11549620Y-11633774D01*
X11549620Y-11633774D02*
X11559143Y-11595679D01*
X11559143Y-11595679D02*
X11568667Y-11576631D01*
X11568667Y-11576631D02*
X11578191Y-11567108D01*
X11578191Y-11567108D02*
X11597239Y-11557584D01*
X11749620Y-11757584D02*
X11749620Y-11624250D01*
X11749620Y-11643298D02*
X11759143Y-11633774D01*
X11759143Y-11633774D02*
X11778191Y-11624250D01*
X11778191Y-11624250D02*
X11806763Y-11624250D01*
X11806763Y-11624250D02*
X11825810Y-11633774D01*
X11825810Y-11633774D02*
X11835334Y-11652822D01*
X11835334Y-11652822D02*
X11835334Y-11757584D01*
X11835334Y-11652822D02*
X11844858Y-11633774D01*
X11844858Y-11633774D02*
X11863905Y-11624250D01*
X11863905Y-11624250D02*
X11892477Y-11624250D01*
X11892477Y-11624250D02*
X11911524Y-11633774D01*
X11911524Y-11633774D02*
X11921048Y-11652822D01*
X11921048Y-11652822D02*
X11921048Y-11757584D01*
X12016286Y-11757584D02*
X12016286Y-11624250D01*
X12016286Y-11643298D02*
X12025810Y-11633774D01*
X12025810Y-11633774D02*
X12044858Y-11624250D01*
X12044858Y-11624250D02*
X12073429Y-11624250D01*
X12073429Y-11624250D02*
X12092477Y-11633774D01*
X12092477Y-11633774D02*
X12102001Y-11652822D01*
X12102001Y-11652822D02*
X12102001Y-11757584D01*
X12102001Y-11652822D02*
X12111524Y-11633774D01*
X12111524Y-11633774D02*
X12130572Y-11624250D01*
X12130572Y-11624250D02*
X12159143Y-11624250D01*
X12159143Y-11624250D02*
X12178191Y-11633774D01*
X12178191Y-11633774D02*
X12187715Y-11652822D01*
X12187715Y-11652822D02*
X12187715Y-11757584D01*
X12578191Y-11548060D02*
X12406763Y-11805203D01*
X12835334Y-11557584D02*
X12854382Y-11557584D01*
X12854382Y-11557584D02*
X12873429Y-11567108D01*
X12873429Y-11567108D02*
X12882953Y-11576631D01*
X12882953Y-11576631D02*
X12892477Y-11595679D01*
X12892477Y-11595679D02*
X12902001Y-11633774D01*
X12902001Y-11633774D02*
X12902001Y-11681393D01*
X12902001Y-11681393D02*
X12892477Y-11719488D01*
X12892477Y-11719488D02*
X12882953Y-11738536D01*
X12882953Y-11738536D02*
X12873429Y-11748060D01*
X12873429Y-11748060D02*
X12854382Y-11757584D01*
X12854382Y-11757584D02*
X12835334Y-11757584D01*
X12835334Y-11757584D02*
X12816286Y-11748060D01*
X12816286Y-11748060D02*
X12806763Y-11738536D01*
X12806763Y-11738536D02*
X12797239Y-11719488D01*
X12797239Y-11719488D02*
X12787715Y-11681393D01*
X12787715Y-11681393D02*
X12787715Y-11633774D01*
X12787715Y-11633774D02*
X12797239Y-11595679D01*
X12797239Y-11595679D02*
X12806763Y-11576631D01*
X12806763Y-11576631D02*
X12816286Y-11567108D01*
X12816286Y-11567108D02*
X12835334Y-11557584D01*
X12987715Y-11738536D02*
X12997239Y-11748060D01*
X12997239Y-11748060D02*
X12987715Y-11757584D01*
X12987715Y-11757584D02*
X12978191Y-11748060D01*
X12978191Y-11748060D02*
X12987715Y-11738536D01*
X12987715Y-11738536D02*
X12987715Y-11757584D01*
X13121048Y-11557584D02*
X13140096Y-11557584D01*
X13140096Y-11557584D02*
X13159144Y-11567108D01*
X13159144Y-11567108D02*
X13168667Y-11576631D01*
X13168667Y-11576631D02*
X13178191Y-11595679D01*
X13178191Y-11595679D02*
X13187715Y-11633774D01*
X13187715Y-11633774D02*
X13187715Y-11681393D01*
X13187715Y-11681393D02*
X13178191Y-11719488D01*
X13178191Y-11719488D02*
X13168667Y-11738536D01*
X13168667Y-11738536D02*
X13159144Y-11748060D01*
X13159144Y-11748060D02*
X13140096Y-11757584D01*
X13140096Y-11757584D02*
X13121048Y-11757584D01*
X13121048Y-11757584D02*
X13102001Y-11748060D01*
X13102001Y-11748060D02*
X13092477Y-11738536D01*
X13092477Y-11738536D02*
X13082953Y-11719488D01*
X13082953Y-11719488D02*
X13073429Y-11681393D01*
X13073429Y-11681393D02*
X13073429Y-11633774D01*
X13073429Y-11633774D02*
X13082953Y-11595679D01*
X13082953Y-11595679D02*
X13092477Y-11576631D01*
X13092477Y-11576631D02*
X13102001Y-11567108D01*
X13102001Y-11567108D02*
X13121048Y-11557584D01*
X13378191Y-11757584D02*
X13263906Y-11757584D01*
X13321048Y-11757584D02*
X13321048Y-11557584D01*
X13321048Y-11557584D02*
X13302001Y-11586155D01*
X13302001Y-11586155D02*
X13282953Y-11605203D01*
X13282953Y-11605203D02*
X13263906Y-11614727D01*
X13444858Y-11557584D02*
X13568667Y-11557584D01*
X13568667Y-11557584D02*
X13502001Y-11633774D01*
X13502001Y-11633774D02*
X13530572Y-11633774D01*
X13530572Y-11633774D02*
X13549620Y-11643298D01*
X13549620Y-11643298D02*
X13559144Y-11652822D01*
X13559144Y-11652822D02*
X13568667Y-11671869D01*
X13568667Y-11671869D02*
X13568667Y-11719488D01*
X13568667Y-11719488D02*
X13559144Y-11738536D01*
X13559144Y-11738536D02*
X13549620Y-11748060D01*
X13549620Y-11748060D02*
X13530572Y-11757584D01*
X13530572Y-11757584D02*
X13473429Y-11757584D01*
X13473429Y-11757584D02*
X13454382Y-11748060D01*
X13454382Y-11748060D02*
X13444858Y-11738536D01*
X13682953Y-11643298D02*
X13663906Y-11633774D01*
X13663906Y-11633774D02*
X13654382Y-11624250D01*
X13654382Y-11624250D02*
X13644858Y-11605203D01*
X13644858Y-11605203D02*
X13644858Y-11595679D01*
X13644858Y-11595679D02*
X13654382Y-11576631D01*
X13654382Y-11576631D02*
X13663906Y-11567108D01*
X13663906Y-11567108D02*
X13682953Y-11557584D01*
X13682953Y-11557584D02*
X13721048Y-11557584D01*
X13721048Y-11557584D02*
X13740096Y-11567108D01*
X13740096Y-11567108D02*
X13749620Y-11576631D01*
X13749620Y-11576631D02*
X13759144Y-11595679D01*
X13759144Y-11595679D02*
X13759144Y-11605203D01*
X13759144Y-11605203D02*
X13749620Y-11624250D01*
X13749620Y-11624250D02*
X13740096Y-11633774D01*
X13740096Y-11633774D02*
X13721048Y-11643298D01*
X13721048Y-11643298D02*
X13682953Y-11643298D01*
X13682953Y-11643298D02*
X13663906Y-11652822D01*
X13663906Y-11652822D02*
X13654382Y-11662346D01*
X13654382Y-11662346D02*
X13644858Y-11681393D01*
X13644858Y-11681393D02*
X13644858Y-11719488D01*
X13644858Y-11719488D02*
X13654382Y-11738536D01*
X13654382Y-11738536D02*
X13663906Y-11748060D01*
X13663906Y-11748060D02*
X13682953Y-11757584D01*
X13682953Y-11757584D02*
X13721048Y-11757584D01*
X13721048Y-11757584D02*
X13740096Y-11748060D01*
X13740096Y-11748060D02*
X13749620Y-11738536D01*
X13749620Y-11738536D02*
X13759144Y-11719488D01*
X13759144Y-11719488D02*
X13759144Y-11681393D01*
X13759144Y-11681393D02*
X13749620Y-11662346D01*
X13749620Y-11662346D02*
X13740096Y-11652822D01*
X13740096Y-11652822D02*
X13721048Y-11643298D01*
X13835334Y-11557584D02*
X13835334Y-11595679D01*
X13911525Y-11557584D02*
X13911525Y-11595679D01*
X14206763Y-11833774D02*
X14197239Y-11824250D01*
X14197239Y-11824250D02*
X14178191Y-11795679D01*
X14178191Y-11795679D02*
X14168668Y-11776631D01*
X14168668Y-11776631D02*
X14159144Y-11748060D01*
X14159144Y-11748060D02*
X14149620Y-11700441D01*
X14149620Y-11700441D02*
X14149620Y-11662346D01*
X14149620Y-11662346D02*
X14159144Y-11614727D01*
X14159144Y-11614727D02*
X14168668Y-11586155D01*
X14168668Y-11586155D02*
X14178191Y-11567108D01*
X14178191Y-11567108D02*
X14197239Y-11538536D01*
X14197239Y-11538536D02*
X14206763Y-11529012D01*
X14263906Y-11557584D02*
X14397239Y-11557584D01*
X14397239Y-11557584D02*
X14311525Y-11757584D01*
X14482953Y-11757584D02*
X14521048Y-11757584D01*
X14521048Y-11757584D02*
X14540096Y-11748060D01*
X14540096Y-11748060D02*
X14549620Y-11738536D01*
X14549620Y-11738536D02*
X14568668Y-11709965D01*
X14568668Y-11709965D02*
X14578191Y-11671869D01*
X14578191Y-11671869D02*
X14578191Y-11595679D01*
X14578191Y-11595679D02*
X14568668Y-11576631D01*
X14568668Y-11576631D02*
X14559144Y-11567108D01*
X14559144Y-11567108D02*
X14540096Y-11557584D01*
X14540096Y-11557584D02*
X14502001Y-11557584D01*
X14502001Y-11557584D02*
X14482953Y-11567108D01*
X14482953Y-11567108D02*
X14473429Y-11576631D01*
X14473429Y-11576631D02*
X14463906Y-11595679D01*
X14463906Y-11595679D02*
X14463906Y-11643298D01*
X14463906Y-11643298D02*
X14473429Y-11662346D01*
X14473429Y-11662346D02*
X14482953Y-11671869D01*
X14482953Y-11671869D02*
X14502001Y-11681393D01*
X14502001Y-11681393D02*
X14540096Y-11681393D01*
X14540096Y-11681393D02*
X14559144Y-11671869D01*
X14559144Y-11671869D02*
X14568668Y-11662346D01*
X14568668Y-11662346D02*
X14578191Y-11643298D01*
X14816287Y-11757584D02*
X14816287Y-11557584D01*
X14902001Y-11757584D02*
X14902001Y-11652822D01*
X14902001Y-11652822D02*
X14892477Y-11633774D01*
X14892477Y-11633774D02*
X14873430Y-11624250D01*
X14873430Y-11624250D02*
X14844858Y-11624250D01*
X14844858Y-11624250D02*
X14825810Y-11633774D01*
X14825810Y-11633774D02*
X14816287Y-11643298D01*
X15025810Y-11757584D02*
X15006763Y-11748060D01*
X15006763Y-11748060D02*
X14997239Y-11738536D01*
X14997239Y-11738536D02*
X14987715Y-11719488D01*
X14987715Y-11719488D02*
X14987715Y-11662346D01*
X14987715Y-11662346D02*
X14997239Y-11643298D01*
X14997239Y-11643298D02*
X15006763Y-11633774D01*
X15006763Y-11633774D02*
X15025810Y-11624250D01*
X15025810Y-11624250D02*
X15054382Y-11624250D01*
X15054382Y-11624250D02*
X15073430Y-11633774D01*
X15073430Y-11633774D02*
X15082953Y-11643298D01*
X15082953Y-11643298D02*
X15092477Y-11662346D01*
X15092477Y-11662346D02*
X15092477Y-11719488D01*
X15092477Y-11719488D02*
X15082953Y-11738536D01*
X15082953Y-11738536D02*
X15073430Y-11748060D01*
X15073430Y-11748060D02*
X15054382Y-11757584D01*
X15054382Y-11757584D02*
X15025810Y-11757584D01*
X15206763Y-11757584D02*
X15187715Y-11748060D01*
X15187715Y-11748060D02*
X15178191Y-11729012D01*
X15178191Y-11729012D02*
X15178191Y-11557584D01*
X15359144Y-11748060D02*
X15340096Y-11757584D01*
X15340096Y-11757584D02*
X15302001Y-11757584D01*
X15302001Y-11757584D02*
X15282953Y-11748060D01*
X15282953Y-11748060D02*
X15273430Y-11729012D01*
X15273430Y-11729012D02*
X15273430Y-11652822D01*
X15273430Y-11652822D02*
X15282953Y-11633774D01*
X15282953Y-11633774D02*
X15302001Y-11624250D01*
X15302001Y-11624250D02*
X15340096Y-11624250D01*
X15340096Y-11624250D02*
X15359144Y-11633774D01*
X15359144Y-11633774D02*
X15368668Y-11652822D01*
X15368668Y-11652822D02*
X15368668Y-11671869D01*
X15368668Y-11671869D02*
X15273430Y-11690917D01*
X15444858Y-11748060D02*
X15463906Y-11757584D01*
X15463906Y-11757584D02*
X15502001Y-11757584D01*
X15502001Y-11757584D02*
X15521049Y-11748060D01*
X15521049Y-11748060D02*
X15530572Y-11729012D01*
X15530572Y-11729012D02*
X15530572Y-11719488D01*
X15530572Y-11719488D02*
X15521049Y-11700441D01*
X15521049Y-11700441D02*
X15502001Y-11690917D01*
X15502001Y-11690917D02*
X15473430Y-11690917D01*
X15473430Y-11690917D02*
X15454382Y-11681393D01*
X15454382Y-11681393D02*
X15444858Y-11662346D01*
X15444858Y-11662346D02*
X15444858Y-11652822D01*
X15444858Y-11652822D02*
X15454382Y-11633774D01*
X15454382Y-11633774D02*
X15473430Y-11624250D01*
X15473430Y-11624250D02*
X15502001Y-11624250D01*
X15502001Y-11624250D02*
X15521049Y-11633774D01*
X15597239Y-11833774D02*
X15606763Y-11824250D01*
X15606763Y-11824250D02*
X15625811Y-11795679D01*
X15625811Y-11795679D02*
X15635334Y-11776631D01*
X15635334Y-11776631D02*
X15644858Y-11748060D01*
X15644858Y-11748060D02*
X15654382Y-11700441D01*
X15654382Y-11700441D02*
X15654382Y-11662346D01*
X15654382Y-11662346D02*
X15644858Y-11614727D01*
X15644858Y-11614727D02*
X15635334Y-11586155D01*
X15635334Y-11586155D02*
X15625811Y-11567108D01*
X15625811Y-11567108D02*
X15606763Y-11538536D01*
X15606763Y-11538536D02*
X15597239Y-11529012D01*
D12*
X10631700Y-11930100D02*
G75*
G02*
X10571700Y-11930100I-30000J0D01*
G01*
X10571700Y-11930100D02*
G75*
G02*
X10631700Y-11930100I30000J0D01*
G01*
D11*
X10930572Y-11821584D02*
X10949620Y-11821584D01*
X10949620Y-11821584D02*
X10968667Y-11831108D01*
X10968667Y-11831108D02*
X10978191Y-11840631D01*
X10978191Y-11840631D02*
X10987715Y-11859679D01*
X10987715Y-11859679D02*
X10997239Y-11897774D01*
X10997239Y-11897774D02*
X10997239Y-11945393D01*
X10997239Y-11945393D02*
X10987715Y-11983488D01*
X10987715Y-11983488D02*
X10978191Y-12002536D01*
X10978191Y-12002536D02*
X10968667Y-12012060D01*
X10968667Y-12012060D02*
X10949620Y-12021584D01*
X10949620Y-12021584D02*
X10930572Y-12021584D01*
X10930572Y-12021584D02*
X10911524Y-12012060D01*
X10911524Y-12012060D02*
X10902001Y-12002536D01*
X10902001Y-12002536D02*
X10892477Y-11983488D01*
X10892477Y-11983488D02*
X10882953Y-11945393D01*
X10882953Y-11945393D02*
X10882953Y-11897774D01*
X10882953Y-11897774D02*
X10892477Y-11859679D01*
X10892477Y-11859679D02*
X10902001Y-11840631D01*
X10902001Y-11840631D02*
X10911524Y-11831108D01*
X10911524Y-11831108D02*
X10930572Y-11821584D01*
X11082953Y-12002536D02*
X11092477Y-12012060D01*
X11092477Y-12012060D02*
X11082953Y-12021584D01*
X11082953Y-12021584D02*
X11073429Y-12012060D01*
X11073429Y-12012060D02*
X11082953Y-12002536D01*
X11082953Y-12002536D02*
X11082953Y-12021584D01*
X11263905Y-11821584D02*
X11225810Y-11821584D01*
X11225810Y-11821584D02*
X11206762Y-11831108D01*
X11206762Y-11831108D02*
X11197239Y-11840631D01*
X11197239Y-11840631D02*
X11178191Y-11869203D01*
X11178191Y-11869203D02*
X11168667Y-11907298D01*
X11168667Y-11907298D02*
X11168667Y-11983488D01*
X11168667Y-11983488D02*
X11178191Y-12002536D01*
X11178191Y-12002536D02*
X11187715Y-12012060D01*
X11187715Y-12012060D02*
X11206762Y-12021584D01*
X11206762Y-12021584D02*
X11244858Y-12021584D01*
X11244858Y-12021584D02*
X11263905Y-12012060D01*
X11263905Y-12012060D02*
X11273429Y-12002536D01*
X11273429Y-12002536D02*
X11282953Y-11983488D01*
X11282953Y-11983488D02*
X11282953Y-11935869D01*
X11282953Y-11935869D02*
X11273429Y-11916822D01*
X11273429Y-11916822D02*
X11263905Y-11907298D01*
X11263905Y-11907298D02*
X11244858Y-11897774D01*
X11244858Y-11897774D02*
X11206762Y-11897774D01*
X11206762Y-11897774D02*
X11187715Y-11907298D01*
X11187715Y-11907298D02*
X11178191Y-11916822D01*
X11178191Y-11916822D02*
X11168667Y-11935869D01*
X11406762Y-11821584D02*
X11425810Y-11821584D01*
X11425810Y-11821584D02*
X11444858Y-11831108D01*
X11444858Y-11831108D02*
X11454382Y-11840631D01*
X11454382Y-11840631D02*
X11463905Y-11859679D01*
X11463905Y-11859679D02*
X11473429Y-11897774D01*
X11473429Y-11897774D02*
X11473429Y-11945393D01*
X11473429Y-11945393D02*
X11463905Y-11983488D01*
X11463905Y-11983488D02*
X11454382Y-12002536D01*
X11454382Y-12002536D02*
X11444858Y-12012060D01*
X11444858Y-12012060D02*
X11425810Y-12021584D01*
X11425810Y-12021584D02*
X11406762Y-12021584D01*
X11406762Y-12021584D02*
X11387715Y-12012060D01*
X11387715Y-12012060D02*
X11378191Y-12002536D01*
X11378191Y-12002536D02*
X11368667Y-11983488D01*
X11368667Y-11983488D02*
X11359143Y-11945393D01*
X11359143Y-11945393D02*
X11359143Y-11897774D01*
X11359143Y-11897774D02*
X11368667Y-11859679D01*
X11368667Y-11859679D02*
X11378191Y-11840631D01*
X11378191Y-11840631D02*
X11387715Y-11831108D01*
X11387715Y-11831108D02*
X11406762Y-11821584D01*
X11597239Y-11821584D02*
X11616286Y-11821584D01*
X11616286Y-11821584D02*
X11635334Y-11831108D01*
X11635334Y-11831108D02*
X11644858Y-11840631D01*
X11644858Y-11840631D02*
X11654382Y-11859679D01*
X11654382Y-11859679D02*
X11663905Y-11897774D01*
X11663905Y-11897774D02*
X11663905Y-11945393D01*
X11663905Y-11945393D02*
X11654382Y-11983488D01*
X11654382Y-11983488D02*
X11644858Y-12002536D01*
X11644858Y-12002536D02*
X11635334Y-12012060D01*
X11635334Y-12012060D02*
X11616286Y-12021584D01*
X11616286Y-12021584D02*
X11597239Y-12021584D01*
X11597239Y-12021584D02*
X11578191Y-12012060D01*
X11578191Y-12012060D02*
X11568667Y-12002536D01*
X11568667Y-12002536D02*
X11559143Y-11983488D01*
X11559143Y-11983488D02*
X11549620Y-11945393D01*
X11549620Y-11945393D02*
X11549620Y-11897774D01*
X11549620Y-11897774D02*
X11559143Y-11859679D01*
X11559143Y-11859679D02*
X11568667Y-11840631D01*
X11568667Y-11840631D02*
X11578191Y-11831108D01*
X11578191Y-11831108D02*
X11597239Y-11821584D01*
X11749620Y-12021584D02*
X11749620Y-11888250D01*
X11749620Y-11907298D02*
X11759143Y-11897774D01*
X11759143Y-11897774D02*
X11778191Y-11888250D01*
X11778191Y-11888250D02*
X11806763Y-11888250D01*
X11806763Y-11888250D02*
X11825810Y-11897774D01*
X11825810Y-11897774D02*
X11835334Y-11916822D01*
X11835334Y-11916822D02*
X11835334Y-12021584D01*
X11835334Y-11916822D02*
X11844858Y-11897774D01*
X11844858Y-11897774D02*
X11863905Y-11888250D01*
X11863905Y-11888250D02*
X11892477Y-11888250D01*
X11892477Y-11888250D02*
X11911524Y-11897774D01*
X11911524Y-11897774D02*
X11921048Y-11916822D01*
X11921048Y-11916822D02*
X11921048Y-12021584D01*
X12016286Y-12021584D02*
X12016286Y-11888250D01*
X12016286Y-11907298D02*
X12025810Y-11897774D01*
X12025810Y-11897774D02*
X12044858Y-11888250D01*
X12044858Y-11888250D02*
X12073429Y-11888250D01*
X12073429Y-11888250D02*
X12092477Y-11897774D01*
X12092477Y-11897774D02*
X12102001Y-11916822D01*
X12102001Y-11916822D02*
X12102001Y-12021584D01*
X12102001Y-11916822D02*
X12111524Y-11897774D01*
X12111524Y-11897774D02*
X12130572Y-11888250D01*
X12130572Y-11888250D02*
X12159143Y-11888250D01*
X12159143Y-11888250D02*
X12178191Y-11897774D01*
X12178191Y-11897774D02*
X12187715Y-11916822D01*
X12187715Y-11916822D02*
X12187715Y-12021584D01*
X12578191Y-11812060D02*
X12406763Y-12069203D01*
X12835334Y-11821584D02*
X12854382Y-11821584D01*
X12854382Y-11821584D02*
X12873429Y-11831108D01*
X12873429Y-11831108D02*
X12882953Y-11840631D01*
X12882953Y-11840631D02*
X12892477Y-11859679D01*
X12892477Y-11859679D02*
X12902001Y-11897774D01*
X12902001Y-11897774D02*
X12902001Y-11945393D01*
X12902001Y-11945393D02*
X12892477Y-11983488D01*
X12892477Y-11983488D02*
X12882953Y-12002536D01*
X12882953Y-12002536D02*
X12873429Y-12012060D01*
X12873429Y-12012060D02*
X12854382Y-12021584D01*
X12854382Y-12021584D02*
X12835334Y-12021584D01*
X12835334Y-12021584D02*
X12816286Y-12012060D01*
X12816286Y-12012060D02*
X12806763Y-12002536D01*
X12806763Y-12002536D02*
X12797239Y-11983488D01*
X12797239Y-11983488D02*
X12787715Y-11945393D01*
X12787715Y-11945393D02*
X12787715Y-11897774D01*
X12787715Y-11897774D02*
X12797239Y-11859679D01*
X12797239Y-11859679D02*
X12806763Y-11840631D01*
X12806763Y-11840631D02*
X12816286Y-11831108D01*
X12816286Y-11831108D02*
X12835334Y-11821584D01*
X12987715Y-12002536D02*
X12997239Y-12012060D01*
X12997239Y-12012060D02*
X12987715Y-12021584D01*
X12987715Y-12021584D02*
X12978191Y-12012060D01*
X12978191Y-12012060D02*
X12987715Y-12002536D01*
X12987715Y-12002536D02*
X12987715Y-12021584D01*
X13121048Y-11821584D02*
X13140096Y-11821584D01*
X13140096Y-11821584D02*
X13159144Y-11831108D01*
X13159144Y-11831108D02*
X13168667Y-11840631D01*
X13168667Y-11840631D02*
X13178191Y-11859679D01*
X13178191Y-11859679D02*
X13187715Y-11897774D01*
X13187715Y-11897774D02*
X13187715Y-11945393D01*
X13187715Y-11945393D02*
X13178191Y-11983488D01*
X13178191Y-11983488D02*
X13168667Y-12002536D01*
X13168667Y-12002536D02*
X13159144Y-12012060D01*
X13159144Y-12012060D02*
X13140096Y-12021584D01*
X13140096Y-12021584D02*
X13121048Y-12021584D01*
X13121048Y-12021584D02*
X13102001Y-12012060D01*
X13102001Y-12012060D02*
X13092477Y-12002536D01*
X13092477Y-12002536D02*
X13082953Y-11983488D01*
X13082953Y-11983488D02*
X13073429Y-11945393D01*
X13073429Y-11945393D02*
X13073429Y-11897774D01*
X13073429Y-11897774D02*
X13082953Y-11859679D01*
X13082953Y-11859679D02*
X13092477Y-11840631D01*
X13092477Y-11840631D02*
X13102001Y-11831108D01*
X13102001Y-11831108D02*
X13121048Y-11821584D01*
X13263906Y-11840631D02*
X13273429Y-11831108D01*
X13273429Y-11831108D02*
X13292477Y-11821584D01*
X13292477Y-11821584D02*
X13340096Y-11821584D01*
X13340096Y-11821584D02*
X13359144Y-11831108D01*
X13359144Y-11831108D02*
X13368667Y-11840631D01*
X13368667Y-11840631D02*
X13378191Y-11859679D01*
X13378191Y-11859679D02*
X13378191Y-11878727D01*
X13378191Y-11878727D02*
X13368667Y-11907298D01*
X13368667Y-11907298D02*
X13254382Y-12021584D01*
X13254382Y-12021584D02*
X13378191Y-12021584D01*
X13444858Y-11821584D02*
X13568667Y-11821584D01*
X13568667Y-11821584D02*
X13502001Y-11897774D01*
X13502001Y-11897774D02*
X13530572Y-11897774D01*
X13530572Y-11897774D02*
X13549620Y-11907298D01*
X13549620Y-11907298D02*
X13559144Y-11916822D01*
X13559144Y-11916822D02*
X13568667Y-11935869D01*
X13568667Y-11935869D02*
X13568667Y-11983488D01*
X13568667Y-11983488D02*
X13559144Y-12002536D01*
X13559144Y-12002536D02*
X13549620Y-12012060D01*
X13549620Y-12012060D02*
X13530572Y-12021584D01*
X13530572Y-12021584D02*
X13473429Y-12021584D01*
X13473429Y-12021584D02*
X13454382Y-12012060D01*
X13454382Y-12012060D02*
X13444858Y-12002536D01*
X13740096Y-11821584D02*
X13702001Y-11821584D01*
X13702001Y-11821584D02*
X13682953Y-11831108D01*
X13682953Y-11831108D02*
X13673429Y-11840631D01*
X13673429Y-11840631D02*
X13654382Y-11869203D01*
X13654382Y-11869203D02*
X13644858Y-11907298D01*
X13644858Y-11907298D02*
X13644858Y-11983488D01*
X13644858Y-11983488D02*
X13654382Y-12002536D01*
X13654382Y-12002536D02*
X13663906Y-12012060D01*
X13663906Y-12012060D02*
X13682953Y-12021584D01*
X13682953Y-12021584D02*
X13721048Y-12021584D01*
X13721048Y-12021584D02*
X13740096Y-12012060D01*
X13740096Y-12012060D02*
X13749620Y-12002536D01*
X13749620Y-12002536D02*
X13759144Y-11983488D01*
X13759144Y-11983488D02*
X13759144Y-11935869D01*
X13759144Y-11935869D02*
X13749620Y-11916822D01*
X13749620Y-11916822D02*
X13740096Y-11907298D01*
X13740096Y-11907298D02*
X13721048Y-11897774D01*
X13721048Y-11897774D02*
X13682953Y-11897774D01*
X13682953Y-11897774D02*
X13663906Y-11907298D01*
X13663906Y-11907298D02*
X13654382Y-11916822D01*
X13654382Y-11916822D02*
X13644858Y-11935869D01*
X13835334Y-11821584D02*
X13835334Y-11859679D01*
X13911525Y-11821584D02*
X13911525Y-11859679D01*
X14206763Y-12097774D02*
X14197239Y-12088250D01*
X14197239Y-12088250D02*
X14178191Y-12059679D01*
X14178191Y-12059679D02*
X14168668Y-12040631D01*
X14168668Y-12040631D02*
X14159144Y-12012060D01*
X14159144Y-12012060D02*
X14149620Y-11964441D01*
X14149620Y-11964441D02*
X14149620Y-11926346D01*
X14149620Y-11926346D02*
X14159144Y-11878727D01*
X14159144Y-11878727D02*
X14168668Y-11850155D01*
X14168668Y-11850155D02*
X14178191Y-11831108D01*
X14178191Y-11831108D02*
X14197239Y-11802536D01*
X14197239Y-11802536D02*
X14206763Y-11793012D01*
X14321048Y-11821584D02*
X14340096Y-11821584D01*
X14340096Y-11821584D02*
X14359144Y-11831108D01*
X14359144Y-11831108D02*
X14368668Y-11840631D01*
X14368668Y-11840631D02*
X14378191Y-11859679D01*
X14378191Y-11859679D02*
X14387715Y-11897774D01*
X14387715Y-11897774D02*
X14387715Y-11945393D01*
X14387715Y-11945393D02*
X14378191Y-11983488D01*
X14378191Y-11983488D02*
X14368668Y-12002536D01*
X14368668Y-12002536D02*
X14359144Y-12012060D01*
X14359144Y-12012060D02*
X14340096Y-12021584D01*
X14340096Y-12021584D02*
X14321048Y-12021584D01*
X14321048Y-12021584D02*
X14302001Y-12012060D01*
X14302001Y-12012060D02*
X14292477Y-12002536D01*
X14292477Y-12002536D02*
X14282953Y-11983488D01*
X14282953Y-11983488D02*
X14273429Y-11945393D01*
X14273429Y-11945393D02*
X14273429Y-11897774D01*
X14273429Y-11897774D02*
X14282953Y-11859679D01*
X14282953Y-11859679D02*
X14292477Y-11840631D01*
X14292477Y-11840631D02*
X14302001Y-11831108D01*
X14302001Y-11831108D02*
X14321048Y-11821584D01*
X14625810Y-12021584D02*
X14625810Y-11821584D01*
X14711525Y-12021584D02*
X14711525Y-11916822D01*
X14711525Y-11916822D02*
X14702001Y-11897774D01*
X14702001Y-11897774D02*
X14682953Y-11888250D01*
X14682953Y-11888250D02*
X14654382Y-11888250D01*
X14654382Y-11888250D02*
X14635334Y-11897774D01*
X14635334Y-11897774D02*
X14625810Y-11907298D01*
X14835334Y-12021584D02*
X14816287Y-12012060D01*
X14816287Y-12012060D02*
X14806763Y-12002536D01*
X14806763Y-12002536D02*
X14797239Y-11983488D01*
X14797239Y-11983488D02*
X14797239Y-11926346D01*
X14797239Y-11926346D02*
X14806763Y-11907298D01*
X14806763Y-11907298D02*
X14816287Y-11897774D01*
X14816287Y-11897774D02*
X14835334Y-11888250D01*
X14835334Y-11888250D02*
X14863906Y-11888250D01*
X14863906Y-11888250D02*
X14882953Y-11897774D01*
X14882953Y-11897774D02*
X14892477Y-11907298D01*
X14892477Y-11907298D02*
X14902001Y-11926346D01*
X14902001Y-11926346D02*
X14902001Y-11983488D01*
X14902001Y-11983488D02*
X14892477Y-12002536D01*
X14892477Y-12002536D02*
X14882953Y-12012060D01*
X14882953Y-12012060D02*
X14863906Y-12021584D01*
X14863906Y-12021584D02*
X14835334Y-12021584D01*
X15016287Y-12021584D02*
X14997239Y-12012060D01*
X14997239Y-12012060D02*
X14987715Y-11993012D01*
X14987715Y-11993012D02*
X14987715Y-11821584D01*
X15168668Y-12012060D02*
X15149620Y-12021584D01*
X15149620Y-12021584D02*
X15111525Y-12021584D01*
X15111525Y-12021584D02*
X15092477Y-12012060D01*
X15092477Y-12012060D02*
X15082953Y-11993012D01*
X15082953Y-11993012D02*
X15082953Y-11916822D01*
X15082953Y-11916822D02*
X15092477Y-11897774D01*
X15092477Y-11897774D02*
X15111525Y-11888250D01*
X15111525Y-11888250D02*
X15149620Y-11888250D01*
X15149620Y-11888250D02*
X15168668Y-11897774D01*
X15168668Y-11897774D02*
X15178191Y-11916822D01*
X15178191Y-11916822D02*
X15178191Y-11935869D01*
X15178191Y-11935869D02*
X15082953Y-11954917D01*
X15254382Y-12012060D02*
X15273430Y-12021584D01*
X15273430Y-12021584D02*
X15311525Y-12021584D01*
X15311525Y-12021584D02*
X15330572Y-12012060D01*
X15330572Y-12012060D02*
X15340096Y-11993012D01*
X15340096Y-11993012D02*
X15340096Y-11983488D01*
X15340096Y-11983488D02*
X15330572Y-11964441D01*
X15330572Y-11964441D02*
X15311525Y-11954917D01*
X15311525Y-11954917D02*
X15282953Y-11954917D01*
X15282953Y-11954917D02*
X15263906Y-11945393D01*
X15263906Y-11945393D02*
X15254382Y-11926346D01*
X15254382Y-11926346D02*
X15254382Y-11916822D01*
X15254382Y-11916822D02*
X15263906Y-11897774D01*
X15263906Y-11897774D02*
X15282953Y-11888250D01*
X15282953Y-11888250D02*
X15311525Y-11888250D01*
X15311525Y-11888250D02*
X15330572Y-11897774D01*
X15578192Y-11945393D02*
X15730573Y-11945393D01*
X15654382Y-12021584D02*
X15654382Y-11869203D01*
X16063906Y-11821584D02*
X16025811Y-11821584D01*
X16025811Y-11821584D02*
X16006763Y-11831108D01*
X16006763Y-11831108D02*
X15997239Y-11840631D01*
X15997239Y-11840631D02*
X15978192Y-11869203D01*
X15978192Y-11869203D02*
X15968668Y-11907298D01*
X15968668Y-11907298D02*
X15968668Y-11983488D01*
X15968668Y-11983488D02*
X15978192Y-12002536D01*
X15978192Y-12002536D02*
X15987715Y-12012060D01*
X15987715Y-12012060D02*
X16006763Y-12021584D01*
X16006763Y-12021584D02*
X16044858Y-12021584D01*
X16044858Y-12021584D02*
X16063906Y-12012060D01*
X16063906Y-12012060D02*
X16073430Y-12002536D01*
X16073430Y-12002536D02*
X16082953Y-11983488D01*
X16082953Y-11983488D02*
X16082953Y-11935869D01*
X16082953Y-11935869D02*
X16073430Y-11916822D01*
X16073430Y-11916822D02*
X16063906Y-11907298D01*
X16063906Y-11907298D02*
X16044858Y-11897774D01*
X16044858Y-11897774D02*
X16006763Y-11897774D01*
X16006763Y-11897774D02*
X15987715Y-11907298D01*
X15987715Y-11907298D02*
X15978192Y-11916822D01*
X15978192Y-11916822D02*
X15968668Y-11935869D01*
X16311525Y-12012060D02*
X16330573Y-12021584D01*
X16330573Y-12021584D02*
X16368668Y-12021584D01*
X16368668Y-12021584D02*
X16387715Y-12012060D01*
X16387715Y-12012060D02*
X16397239Y-11993012D01*
X16397239Y-11993012D02*
X16397239Y-11983488D01*
X16397239Y-11983488D02*
X16387715Y-11964441D01*
X16387715Y-11964441D02*
X16368668Y-11954917D01*
X16368668Y-11954917D02*
X16340096Y-11954917D01*
X16340096Y-11954917D02*
X16321049Y-11945393D01*
X16321049Y-11945393D02*
X16311525Y-11926346D01*
X16311525Y-11926346D02*
X16311525Y-11916822D01*
X16311525Y-11916822D02*
X16321049Y-11897774D01*
X16321049Y-11897774D02*
X16340096Y-11888250D01*
X16340096Y-11888250D02*
X16368668Y-11888250D01*
X16368668Y-11888250D02*
X16387715Y-11897774D01*
X16511525Y-12021584D02*
X16492477Y-12012060D01*
X16492477Y-12012060D02*
X16482954Y-11993012D01*
X16482954Y-11993012D02*
X16482954Y-11821584D01*
X16616287Y-12021584D02*
X16597239Y-12012060D01*
X16597239Y-12012060D02*
X16587715Y-12002536D01*
X16587715Y-12002536D02*
X16578192Y-11983488D01*
X16578192Y-11983488D02*
X16578192Y-11926346D01*
X16578192Y-11926346D02*
X16587715Y-11907298D01*
X16587715Y-11907298D02*
X16597239Y-11897774D01*
X16597239Y-11897774D02*
X16616287Y-11888250D01*
X16616287Y-11888250D02*
X16644858Y-11888250D01*
X16644858Y-11888250D02*
X16663906Y-11897774D01*
X16663906Y-11897774D02*
X16673430Y-11907298D01*
X16673430Y-11907298D02*
X16682954Y-11926346D01*
X16682954Y-11926346D02*
X16682954Y-11983488D01*
X16682954Y-11983488D02*
X16673430Y-12002536D01*
X16673430Y-12002536D02*
X16663906Y-12012060D01*
X16663906Y-12012060D02*
X16644858Y-12021584D01*
X16644858Y-12021584D02*
X16616287Y-12021584D01*
X16740096Y-11888250D02*
X16816287Y-11888250D01*
X16768668Y-11821584D02*
X16768668Y-11993012D01*
X16768668Y-11993012D02*
X16778192Y-12012060D01*
X16778192Y-12012060D02*
X16797239Y-12021584D01*
X16797239Y-12021584D02*
X16816287Y-12021584D01*
X16873430Y-12012060D02*
X16892477Y-12021584D01*
X16892477Y-12021584D02*
X16930573Y-12021584D01*
X16930573Y-12021584D02*
X16949620Y-12012060D01*
X16949620Y-12012060D02*
X16959144Y-11993012D01*
X16959144Y-11993012D02*
X16959144Y-11983488D01*
X16959144Y-11983488D02*
X16949620Y-11964441D01*
X16949620Y-11964441D02*
X16930573Y-11954917D01*
X16930573Y-11954917D02*
X16902001Y-11954917D01*
X16902001Y-11954917D02*
X16882954Y-11945393D01*
X16882954Y-11945393D02*
X16873430Y-11926346D01*
X16873430Y-11926346D02*
X16873430Y-11916822D01*
X16873430Y-11916822D02*
X16882954Y-11897774D01*
X16882954Y-11897774D02*
X16902001Y-11888250D01*
X16902001Y-11888250D02*
X16930573Y-11888250D01*
X16930573Y-11888250D02*
X16949620Y-11897774D01*
X17025811Y-12097774D02*
X17035335Y-12088250D01*
X17035335Y-12088250D02*
X17054382Y-12059679D01*
X17054382Y-12059679D02*
X17063906Y-12040631D01*
X17063906Y-12040631D02*
X17073430Y-12012060D01*
X17073430Y-12012060D02*
X17082954Y-11964441D01*
X17082954Y-11964441D02*
X17082954Y-11926346D01*
X17082954Y-11926346D02*
X17073430Y-11878727D01*
X17073430Y-11878727D02*
X17063906Y-11850155D01*
X17063906Y-11850155D02*
X17054382Y-11831108D01*
X17054382Y-11831108D02*
X17035335Y-11802536D01*
X17035335Y-11802536D02*
X17025811Y-11793012D01*
D12*
X10595200Y-12157600D02*
X10595200Y-12230600D01*
X10558700Y-12194100D02*
X10631700Y-12194100D01*
D11*
X10930572Y-12085584D02*
X10949620Y-12085584D01*
X10949620Y-12085584D02*
X10968667Y-12095108D01*
X10968667Y-12095108D02*
X10978191Y-12104631D01*
X10978191Y-12104631D02*
X10987715Y-12123679D01*
X10987715Y-12123679D02*
X10997239Y-12161774D01*
X10997239Y-12161774D02*
X10997239Y-12209393D01*
X10997239Y-12209393D02*
X10987715Y-12247488D01*
X10987715Y-12247488D02*
X10978191Y-12266536D01*
X10978191Y-12266536D02*
X10968667Y-12276060D01*
X10968667Y-12276060D02*
X10949620Y-12285584D01*
X10949620Y-12285584D02*
X10930572Y-12285584D01*
X10930572Y-12285584D02*
X10911524Y-12276060D01*
X10911524Y-12276060D02*
X10902001Y-12266536D01*
X10902001Y-12266536D02*
X10892477Y-12247488D01*
X10892477Y-12247488D02*
X10882953Y-12209393D01*
X10882953Y-12209393D02*
X10882953Y-12161774D01*
X10882953Y-12161774D02*
X10892477Y-12123679D01*
X10892477Y-12123679D02*
X10902001Y-12104631D01*
X10902001Y-12104631D02*
X10911524Y-12095108D01*
X10911524Y-12095108D02*
X10930572Y-12085584D01*
X11082953Y-12266536D02*
X11092477Y-12276060D01*
X11092477Y-12276060D02*
X11082953Y-12285584D01*
X11082953Y-12285584D02*
X11073429Y-12276060D01*
X11073429Y-12276060D02*
X11082953Y-12266536D01*
X11082953Y-12266536D02*
X11082953Y-12285584D01*
X11159144Y-12085584D02*
X11292477Y-12085584D01*
X11292477Y-12085584D02*
X11206762Y-12285584D01*
X11349620Y-12085584D02*
X11473429Y-12085584D01*
X11473429Y-12085584D02*
X11406762Y-12161774D01*
X11406762Y-12161774D02*
X11435334Y-12161774D01*
X11435334Y-12161774D02*
X11454382Y-12171298D01*
X11454382Y-12171298D02*
X11463905Y-12180822D01*
X11463905Y-12180822D02*
X11473429Y-12199869D01*
X11473429Y-12199869D02*
X11473429Y-12247488D01*
X11473429Y-12247488D02*
X11463905Y-12266536D01*
X11463905Y-12266536D02*
X11454382Y-12276060D01*
X11454382Y-12276060D02*
X11435334Y-12285584D01*
X11435334Y-12285584D02*
X11378191Y-12285584D01*
X11378191Y-12285584D02*
X11359143Y-12276060D01*
X11359143Y-12276060D02*
X11349620Y-12266536D01*
X11597239Y-12085584D02*
X11616286Y-12085584D01*
X11616286Y-12085584D02*
X11635334Y-12095108D01*
X11635334Y-12095108D02*
X11644858Y-12104631D01*
X11644858Y-12104631D02*
X11654382Y-12123679D01*
X11654382Y-12123679D02*
X11663905Y-12161774D01*
X11663905Y-12161774D02*
X11663905Y-12209393D01*
X11663905Y-12209393D02*
X11654382Y-12247488D01*
X11654382Y-12247488D02*
X11644858Y-12266536D01*
X11644858Y-12266536D02*
X11635334Y-12276060D01*
X11635334Y-12276060D02*
X11616286Y-12285584D01*
X11616286Y-12285584D02*
X11597239Y-12285584D01*
X11597239Y-12285584D02*
X11578191Y-12276060D01*
X11578191Y-12276060D02*
X11568667Y-12266536D01*
X11568667Y-12266536D02*
X11559143Y-12247488D01*
X11559143Y-12247488D02*
X11549620Y-12209393D01*
X11549620Y-12209393D02*
X11549620Y-12161774D01*
X11549620Y-12161774D02*
X11559143Y-12123679D01*
X11559143Y-12123679D02*
X11568667Y-12104631D01*
X11568667Y-12104631D02*
X11578191Y-12095108D01*
X11578191Y-12095108D02*
X11597239Y-12085584D01*
X11749620Y-12285584D02*
X11749620Y-12152250D01*
X11749620Y-12171298D02*
X11759143Y-12161774D01*
X11759143Y-12161774D02*
X11778191Y-12152250D01*
X11778191Y-12152250D02*
X11806763Y-12152250D01*
X11806763Y-12152250D02*
X11825810Y-12161774D01*
X11825810Y-12161774D02*
X11835334Y-12180822D01*
X11835334Y-12180822D02*
X11835334Y-12285584D01*
X11835334Y-12180822D02*
X11844858Y-12161774D01*
X11844858Y-12161774D02*
X11863905Y-12152250D01*
X11863905Y-12152250D02*
X11892477Y-12152250D01*
X11892477Y-12152250D02*
X11911524Y-12161774D01*
X11911524Y-12161774D02*
X11921048Y-12180822D01*
X11921048Y-12180822D02*
X11921048Y-12285584D01*
X12016286Y-12285584D02*
X12016286Y-12152250D01*
X12016286Y-12171298D02*
X12025810Y-12161774D01*
X12025810Y-12161774D02*
X12044858Y-12152250D01*
X12044858Y-12152250D02*
X12073429Y-12152250D01*
X12073429Y-12152250D02*
X12092477Y-12161774D01*
X12092477Y-12161774D02*
X12102001Y-12180822D01*
X12102001Y-12180822D02*
X12102001Y-12285584D01*
X12102001Y-12180822D02*
X12111524Y-12161774D01*
X12111524Y-12161774D02*
X12130572Y-12152250D01*
X12130572Y-12152250D02*
X12159143Y-12152250D01*
X12159143Y-12152250D02*
X12178191Y-12161774D01*
X12178191Y-12161774D02*
X12187715Y-12180822D01*
X12187715Y-12180822D02*
X12187715Y-12285584D01*
X12578191Y-12076060D02*
X12406763Y-12333203D01*
X12835334Y-12085584D02*
X12854382Y-12085584D01*
X12854382Y-12085584D02*
X12873429Y-12095108D01*
X12873429Y-12095108D02*
X12882953Y-12104631D01*
X12882953Y-12104631D02*
X12892477Y-12123679D01*
X12892477Y-12123679D02*
X12902001Y-12161774D01*
X12902001Y-12161774D02*
X12902001Y-12209393D01*
X12902001Y-12209393D02*
X12892477Y-12247488D01*
X12892477Y-12247488D02*
X12882953Y-12266536D01*
X12882953Y-12266536D02*
X12873429Y-12276060D01*
X12873429Y-12276060D02*
X12854382Y-12285584D01*
X12854382Y-12285584D02*
X12835334Y-12285584D01*
X12835334Y-12285584D02*
X12816286Y-12276060D01*
X12816286Y-12276060D02*
X12806763Y-12266536D01*
X12806763Y-12266536D02*
X12797239Y-12247488D01*
X12797239Y-12247488D02*
X12787715Y-12209393D01*
X12787715Y-12209393D02*
X12787715Y-12161774D01*
X12787715Y-12161774D02*
X12797239Y-12123679D01*
X12797239Y-12123679D02*
X12806763Y-12104631D01*
X12806763Y-12104631D02*
X12816286Y-12095108D01*
X12816286Y-12095108D02*
X12835334Y-12085584D01*
X12987715Y-12266536D02*
X12997239Y-12276060D01*
X12997239Y-12276060D02*
X12987715Y-12285584D01*
X12987715Y-12285584D02*
X12978191Y-12276060D01*
X12978191Y-12276060D02*
X12987715Y-12266536D01*
X12987715Y-12266536D02*
X12987715Y-12285584D01*
X13121048Y-12085584D02*
X13140096Y-12085584D01*
X13140096Y-12085584D02*
X13159144Y-12095108D01*
X13159144Y-12095108D02*
X13168667Y-12104631D01*
X13168667Y-12104631D02*
X13178191Y-12123679D01*
X13178191Y-12123679D02*
X13187715Y-12161774D01*
X13187715Y-12161774D02*
X13187715Y-12209393D01*
X13187715Y-12209393D02*
X13178191Y-12247488D01*
X13178191Y-12247488D02*
X13168667Y-12266536D01*
X13168667Y-12266536D02*
X13159144Y-12276060D01*
X13159144Y-12276060D02*
X13140096Y-12285584D01*
X13140096Y-12285584D02*
X13121048Y-12285584D01*
X13121048Y-12285584D02*
X13102001Y-12276060D01*
X13102001Y-12276060D02*
X13092477Y-12266536D01*
X13092477Y-12266536D02*
X13082953Y-12247488D01*
X13082953Y-12247488D02*
X13073429Y-12209393D01*
X13073429Y-12209393D02*
X13073429Y-12161774D01*
X13073429Y-12161774D02*
X13082953Y-12123679D01*
X13082953Y-12123679D02*
X13092477Y-12104631D01*
X13092477Y-12104631D02*
X13102001Y-12095108D01*
X13102001Y-12095108D02*
X13121048Y-12085584D01*
X13263906Y-12104631D02*
X13273429Y-12095108D01*
X13273429Y-12095108D02*
X13292477Y-12085584D01*
X13292477Y-12085584D02*
X13340096Y-12085584D01*
X13340096Y-12085584D02*
X13359144Y-12095108D01*
X13359144Y-12095108D02*
X13368667Y-12104631D01*
X13368667Y-12104631D02*
X13378191Y-12123679D01*
X13378191Y-12123679D02*
X13378191Y-12142727D01*
X13378191Y-12142727D02*
X13368667Y-12171298D01*
X13368667Y-12171298D02*
X13254382Y-12285584D01*
X13254382Y-12285584D02*
X13378191Y-12285584D01*
X13492477Y-12171298D02*
X13473429Y-12161774D01*
X13473429Y-12161774D02*
X13463906Y-12152250D01*
X13463906Y-12152250D02*
X13454382Y-12133203D01*
X13454382Y-12133203D02*
X13454382Y-12123679D01*
X13454382Y-12123679D02*
X13463906Y-12104631D01*
X13463906Y-12104631D02*
X13473429Y-12095108D01*
X13473429Y-12095108D02*
X13492477Y-12085584D01*
X13492477Y-12085584D02*
X13530572Y-12085584D01*
X13530572Y-12085584D02*
X13549620Y-12095108D01*
X13549620Y-12095108D02*
X13559144Y-12104631D01*
X13559144Y-12104631D02*
X13568667Y-12123679D01*
X13568667Y-12123679D02*
X13568667Y-12133203D01*
X13568667Y-12133203D02*
X13559144Y-12152250D01*
X13559144Y-12152250D02*
X13549620Y-12161774D01*
X13549620Y-12161774D02*
X13530572Y-12171298D01*
X13530572Y-12171298D02*
X13492477Y-12171298D01*
X13492477Y-12171298D02*
X13473429Y-12180822D01*
X13473429Y-12180822D02*
X13463906Y-12190346D01*
X13463906Y-12190346D02*
X13454382Y-12209393D01*
X13454382Y-12209393D02*
X13454382Y-12247488D01*
X13454382Y-12247488D02*
X13463906Y-12266536D01*
X13463906Y-12266536D02*
X13473429Y-12276060D01*
X13473429Y-12276060D02*
X13492477Y-12285584D01*
X13492477Y-12285584D02*
X13530572Y-12285584D01*
X13530572Y-12285584D02*
X13549620Y-12276060D01*
X13549620Y-12276060D02*
X13559144Y-12266536D01*
X13559144Y-12266536D02*
X13568667Y-12247488D01*
X13568667Y-12247488D02*
X13568667Y-12209393D01*
X13568667Y-12209393D02*
X13559144Y-12190346D01*
X13559144Y-12190346D02*
X13549620Y-12180822D01*
X13549620Y-12180822D02*
X13530572Y-12171298D01*
X13635334Y-12085584D02*
X13768667Y-12085584D01*
X13768667Y-12085584D02*
X13682953Y-12285584D01*
X13835334Y-12085584D02*
X13835334Y-12123679D01*
X13911525Y-12085584D02*
X13911525Y-12123679D01*
X14206763Y-12361774D02*
X14197239Y-12352250D01*
X14197239Y-12352250D02*
X14178191Y-12323679D01*
X14178191Y-12323679D02*
X14168668Y-12304631D01*
X14168668Y-12304631D02*
X14159144Y-12276060D01*
X14159144Y-12276060D02*
X14149620Y-12228441D01*
X14149620Y-12228441D02*
X14149620Y-12190346D01*
X14149620Y-12190346D02*
X14159144Y-12142727D01*
X14159144Y-12142727D02*
X14168668Y-12114155D01*
X14168668Y-12114155D02*
X14178191Y-12095108D01*
X14178191Y-12095108D02*
X14197239Y-12066536D01*
X14197239Y-12066536D02*
X14206763Y-12057012D01*
X14387715Y-12285584D02*
X14273429Y-12285584D01*
X14330572Y-12285584D02*
X14330572Y-12085584D01*
X14330572Y-12085584D02*
X14311525Y-12114155D01*
X14311525Y-12114155D02*
X14292477Y-12133203D01*
X14292477Y-12133203D02*
X14273429Y-12142727D01*
X14559144Y-12152250D02*
X14559144Y-12285584D01*
X14511525Y-12076060D02*
X14463906Y-12218917D01*
X14463906Y-12218917D02*
X14587715Y-12218917D01*
X14816287Y-12285584D02*
X14816287Y-12085584D01*
X14902001Y-12285584D02*
X14902001Y-12180822D01*
X14902001Y-12180822D02*
X14892477Y-12161774D01*
X14892477Y-12161774D02*
X14873430Y-12152250D01*
X14873430Y-12152250D02*
X14844858Y-12152250D01*
X14844858Y-12152250D02*
X14825810Y-12161774D01*
X14825810Y-12161774D02*
X14816287Y-12171298D01*
X15025810Y-12285584D02*
X15006763Y-12276060D01*
X15006763Y-12276060D02*
X14997239Y-12266536D01*
X14997239Y-12266536D02*
X14987715Y-12247488D01*
X14987715Y-12247488D02*
X14987715Y-12190346D01*
X14987715Y-12190346D02*
X14997239Y-12171298D01*
X14997239Y-12171298D02*
X15006763Y-12161774D01*
X15006763Y-12161774D02*
X15025810Y-12152250D01*
X15025810Y-12152250D02*
X15054382Y-12152250D01*
X15054382Y-12152250D02*
X15073430Y-12161774D01*
X15073430Y-12161774D02*
X15082953Y-12171298D01*
X15082953Y-12171298D02*
X15092477Y-12190346D01*
X15092477Y-12190346D02*
X15092477Y-12247488D01*
X15092477Y-12247488D02*
X15082953Y-12266536D01*
X15082953Y-12266536D02*
X15073430Y-12276060D01*
X15073430Y-12276060D02*
X15054382Y-12285584D01*
X15054382Y-12285584D02*
X15025810Y-12285584D01*
X15206763Y-12285584D02*
X15187715Y-12276060D01*
X15187715Y-12276060D02*
X15178191Y-12257012D01*
X15178191Y-12257012D02*
X15178191Y-12085584D01*
X15359144Y-12276060D02*
X15340096Y-12285584D01*
X15340096Y-12285584D02*
X15302001Y-12285584D01*
X15302001Y-12285584D02*
X15282953Y-12276060D01*
X15282953Y-12276060D02*
X15273430Y-12257012D01*
X15273430Y-12257012D02*
X15273430Y-12180822D01*
X15273430Y-12180822D02*
X15282953Y-12161774D01*
X15282953Y-12161774D02*
X15302001Y-12152250D01*
X15302001Y-12152250D02*
X15340096Y-12152250D01*
X15340096Y-12152250D02*
X15359144Y-12161774D01*
X15359144Y-12161774D02*
X15368668Y-12180822D01*
X15368668Y-12180822D02*
X15368668Y-12199869D01*
X15368668Y-12199869D02*
X15273430Y-12218917D01*
X15444858Y-12276060D02*
X15463906Y-12285584D01*
X15463906Y-12285584D02*
X15502001Y-12285584D01*
X15502001Y-12285584D02*
X15521049Y-12276060D01*
X15521049Y-12276060D02*
X15530572Y-12257012D01*
X15530572Y-12257012D02*
X15530572Y-12247488D01*
X15530572Y-12247488D02*
X15521049Y-12228441D01*
X15521049Y-12228441D02*
X15502001Y-12218917D01*
X15502001Y-12218917D02*
X15473430Y-12218917D01*
X15473430Y-12218917D02*
X15454382Y-12209393D01*
X15454382Y-12209393D02*
X15444858Y-12190346D01*
X15444858Y-12190346D02*
X15444858Y-12180822D01*
X15444858Y-12180822D02*
X15454382Y-12161774D01*
X15454382Y-12161774D02*
X15473430Y-12152250D01*
X15473430Y-12152250D02*
X15502001Y-12152250D01*
X15502001Y-12152250D02*
X15521049Y-12161774D01*
X15597239Y-12361774D02*
X15606763Y-12352250D01*
X15606763Y-12352250D02*
X15625811Y-12323679D01*
X15625811Y-12323679D02*
X15635334Y-12304631D01*
X15635334Y-12304631D02*
X15644858Y-12276060D01*
X15644858Y-12276060D02*
X15654382Y-12228441D01*
X15654382Y-12228441D02*
X15654382Y-12190346D01*
X15654382Y-12190346D02*
X15644858Y-12142727D01*
X15644858Y-12142727D02*
X15635334Y-12114155D01*
X15635334Y-12114155D02*
X15625811Y-12095108D01*
X15625811Y-12095108D02*
X15606763Y-12066536D01*
X15606763Y-12066536D02*
X15597239Y-12057012D01*
D12*
X10617056Y-12493456D02*
X10617056Y-12422744D01*
X10546344Y-12422744D01*
X10546344Y-12493456D01*
X10617056Y-12493456D01*
D11*
X10997239Y-12549584D02*
X10882953Y-12549584D01*
X10940096Y-12549584D02*
X10940096Y-12349584D01*
X10940096Y-12349584D02*
X10921048Y-12378155D01*
X10921048Y-12378155D02*
X10902001Y-12397203D01*
X10902001Y-12397203D02*
X10882953Y-12406727D01*
X11082953Y-12530536D02*
X11092477Y-12540060D01*
X11092477Y-12540060D02*
X11082953Y-12549584D01*
X11082953Y-12549584D02*
X11073429Y-12540060D01*
X11073429Y-12540060D02*
X11082953Y-12530536D01*
X11082953Y-12530536D02*
X11082953Y-12549584D01*
X11216286Y-12349584D02*
X11235334Y-12349584D01*
X11235334Y-12349584D02*
X11254382Y-12359108D01*
X11254382Y-12359108D02*
X11263905Y-12368631D01*
X11263905Y-12368631D02*
X11273429Y-12387679D01*
X11273429Y-12387679D02*
X11282953Y-12425774D01*
X11282953Y-12425774D02*
X11282953Y-12473393D01*
X11282953Y-12473393D02*
X11273429Y-12511488D01*
X11273429Y-12511488D02*
X11263905Y-12530536D01*
X11263905Y-12530536D02*
X11254382Y-12540060D01*
X11254382Y-12540060D02*
X11235334Y-12549584D01*
X11235334Y-12549584D02*
X11216286Y-12549584D01*
X11216286Y-12549584D02*
X11197239Y-12540060D01*
X11197239Y-12540060D02*
X11187715Y-12530536D01*
X11187715Y-12530536D02*
X11178191Y-12511488D01*
X11178191Y-12511488D02*
X11168667Y-12473393D01*
X11168667Y-12473393D02*
X11168667Y-12425774D01*
X11168667Y-12425774D02*
X11178191Y-12387679D01*
X11178191Y-12387679D02*
X11187715Y-12368631D01*
X11187715Y-12368631D02*
X11197239Y-12359108D01*
X11197239Y-12359108D02*
X11216286Y-12349584D01*
X11406762Y-12349584D02*
X11425810Y-12349584D01*
X11425810Y-12349584D02*
X11444858Y-12359108D01*
X11444858Y-12359108D02*
X11454382Y-12368631D01*
X11454382Y-12368631D02*
X11463905Y-12387679D01*
X11463905Y-12387679D02*
X11473429Y-12425774D01*
X11473429Y-12425774D02*
X11473429Y-12473393D01*
X11473429Y-12473393D02*
X11463905Y-12511488D01*
X11463905Y-12511488D02*
X11454382Y-12530536D01*
X11454382Y-12530536D02*
X11444858Y-12540060D01*
X11444858Y-12540060D02*
X11425810Y-12549584D01*
X11425810Y-12549584D02*
X11406762Y-12549584D01*
X11406762Y-12549584D02*
X11387715Y-12540060D01*
X11387715Y-12540060D02*
X11378191Y-12530536D01*
X11378191Y-12530536D02*
X11368667Y-12511488D01*
X11368667Y-12511488D02*
X11359143Y-12473393D01*
X11359143Y-12473393D02*
X11359143Y-12425774D01*
X11359143Y-12425774D02*
X11368667Y-12387679D01*
X11368667Y-12387679D02*
X11378191Y-12368631D01*
X11378191Y-12368631D02*
X11387715Y-12359108D01*
X11387715Y-12359108D02*
X11406762Y-12349584D01*
X11597239Y-12349584D02*
X11616286Y-12349584D01*
X11616286Y-12349584D02*
X11635334Y-12359108D01*
X11635334Y-12359108D02*
X11644858Y-12368631D01*
X11644858Y-12368631D02*
X11654382Y-12387679D01*
X11654382Y-12387679D02*
X11663905Y-12425774D01*
X11663905Y-12425774D02*
X11663905Y-12473393D01*
X11663905Y-12473393D02*
X11654382Y-12511488D01*
X11654382Y-12511488D02*
X11644858Y-12530536D01*
X11644858Y-12530536D02*
X11635334Y-12540060D01*
X11635334Y-12540060D02*
X11616286Y-12549584D01*
X11616286Y-12549584D02*
X11597239Y-12549584D01*
X11597239Y-12549584D02*
X11578191Y-12540060D01*
X11578191Y-12540060D02*
X11568667Y-12530536D01*
X11568667Y-12530536D02*
X11559143Y-12511488D01*
X11559143Y-12511488D02*
X11549620Y-12473393D01*
X11549620Y-12473393D02*
X11549620Y-12425774D01*
X11549620Y-12425774D02*
X11559143Y-12387679D01*
X11559143Y-12387679D02*
X11568667Y-12368631D01*
X11568667Y-12368631D02*
X11578191Y-12359108D01*
X11578191Y-12359108D02*
X11597239Y-12349584D01*
X11749620Y-12549584D02*
X11749620Y-12416250D01*
X11749620Y-12435298D02*
X11759143Y-12425774D01*
X11759143Y-12425774D02*
X11778191Y-12416250D01*
X11778191Y-12416250D02*
X11806763Y-12416250D01*
X11806763Y-12416250D02*
X11825810Y-12425774D01*
X11825810Y-12425774D02*
X11835334Y-12444822D01*
X11835334Y-12444822D02*
X11835334Y-12549584D01*
X11835334Y-12444822D02*
X11844858Y-12425774D01*
X11844858Y-12425774D02*
X11863905Y-12416250D01*
X11863905Y-12416250D02*
X11892477Y-12416250D01*
X11892477Y-12416250D02*
X11911524Y-12425774D01*
X11911524Y-12425774D02*
X11921048Y-12444822D01*
X11921048Y-12444822D02*
X11921048Y-12549584D01*
X12016286Y-12549584D02*
X12016286Y-12416250D01*
X12016286Y-12435298D02*
X12025810Y-12425774D01*
X12025810Y-12425774D02*
X12044858Y-12416250D01*
X12044858Y-12416250D02*
X12073429Y-12416250D01*
X12073429Y-12416250D02*
X12092477Y-12425774D01*
X12092477Y-12425774D02*
X12102001Y-12444822D01*
X12102001Y-12444822D02*
X12102001Y-12549584D01*
X12102001Y-12444822D02*
X12111524Y-12425774D01*
X12111524Y-12425774D02*
X12130572Y-12416250D01*
X12130572Y-12416250D02*
X12159143Y-12416250D01*
X12159143Y-12416250D02*
X12178191Y-12425774D01*
X12178191Y-12425774D02*
X12187715Y-12444822D01*
X12187715Y-12444822D02*
X12187715Y-12549584D01*
X12578191Y-12340060D02*
X12406763Y-12597203D01*
X12835334Y-12349584D02*
X12854382Y-12349584D01*
X12854382Y-12349584D02*
X12873429Y-12359108D01*
X12873429Y-12359108D02*
X12882953Y-12368631D01*
X12882953Y-12368631D02*
X12892477Y-12387679D01*
X12892477Y-12387679D02*
X12902001Y-12425774D01*
X12902001Y-12425774D02*
X12902001Y-12473393D01*
X12902001Y-12473393D02*
X12892477Y-12511488D01*
X12892477Y-12511488D02*
X12882953Y-12530536D01*
X12882953Y-12530536D02*
X12873429Y-12540060D01*
X12873429Y-12540060D02*
X12854382Y-12549584D01*
X12854382Y-12549584D02*
X12835334Y-12549584D01*
X12835334Y-12549584D02*
X12816286Y-12540060D01*
X12816286Y-12540060D02*
X12806763Y-12530536D01*
X12806763Y-12530536D02*
X12797239Y-12511488D01*
X12797239Y-12511488D02*
X12787715Y-12473393D01*
X12787715Y-12473393D02*
X12787715Y-12425774D01*
X12787715Y-12425774D02*
X12797239Y-12387679D01*
X12797239Y-12387679D02*
X12806763Y-12368631D01*
X12806763Y-12368631D02*
X12816286Y-12359108D01*
X12816286Y-12359108D02*
X12835334Y-12349584D01*
X12987715Y-12530536D02*
X12997239Y-12540060D01*
X12997239Y-12540060D02*
X12987715Y-12549584D01*
X12987715Y-12549584D02*
X12978191Y-12540060D01*
X12978191Y-12540060D02*
X12987715Y-12530536D01*
X12987715Y-12530536D02*
X12987715Y-12549584D01*
X13121048Y-12349584D02*
X13140096Y-12349584D01*
X13140096Y-12349584D02*
X13159144Y-12359108D01*
X13159144Y-12359108D02*
X13168667Y-12368631D01*
X13168667Y-12368631D02*
X13178191Y-12387679D01*
X13178191Y-12387679D02*
X13187715Y-12425774D01*
X13187715Y-12425774D02*
X13187715Y-12473393D01*
X13187715Y-12473393D02*
X13178191Y-12511488D01*
X13178191Y-12511488D02*
X13168667Y-12530536D01*
X13168667Y-12530536D02*
X13159144Y-12540060D01*
X13159144Y-12540060D02*
X13140096Y-12549584D01*
X13140096Y-12549584D02*
X13121048Y-12549584D01*
X13121048Y-12549584D02*
X13102001Y-12540060D01*
X13102001Y-12540060D02*
X13092477Y-12530536D01*
X13092477Y-12530536D02*
X13082953Y-12511488D01*
X13082953Y-12511488D02*
X13073429Y-12473393D01*
X13073429Y-12473393D02*
X13073429Y-12425774D01*
X13073429Y-12425774D02*
X13082953Y-12387679D01*
X13082953Y-12387679D02*
X13092477Y-12368631D01*
X13092477Y-12368631D02*
X13102001Y-12359108D01*
X13102001Y-12359108D02*
X13121048Y-12349584D01*
X13254382Y-12349584D02*
X13378191Y-12349584D01*
X13378191Y-12349584D02*
X13311525Y-12425774D01*
X13311525Y-12425774D02*
X13340096Y-12425774D01*
X13340096Y-12425774D02*
X13359144Y-12435298D01*
X13359144Y-12435298D02*
X13368667Y-12444822D01*
X13368667Y-12444822D02*
X13378191Y-12463869D01*
X13378191Y-12463869D02*
X13378191Y-12511488D01*
X13378191Y-12511488D02*
X13368667Y-12530536D01*
X13368667Y-12530536D02*
X13359144Y-12540060D01*
X13359144Y-12540060D02*
X13340096Y-12549584D01*
X13340096Y-12549584D02*
X13282953Y-12549584D01*
X13282953Y-12549584D02*
X13263906Y-12540060D01*
X13263906Y-12540060D02*
X13254382Y-12530536D01*
X13473429Y-12549584D02*
X13511525Y-12549584D01*
X13511525Y-12549584D02*
X13530572Y-12540060D01*
X13530572Y-12540060D02*
X13540096Y-12530536D01*
X13540096Y-12530536D02*
X13559144Y-12501965D01*
X13559144Y-12501965D02*
X13568667Y-12463869D01*
X13568667Y-12463869D02*
X13568667Y-12387679D01*
X13568667Y-12387679D02*
X13559144Y-12368631D01*
X13559144Y-12368631D02*
X13549620Y-12359108D01*
X13549620Y-12359108D02*
X13530572Y-12349584D01*
X13530572Y-12349584D02*
X13492477Y-12349584D01*
X13492477Y-12349584D02*
X13473429Y-12359108D01*
X13473429Y-12359108D02*
X13463906Y-12368631D01*
X13463906Y-12368631D02*
X13454382Y-12387679D01*
X13454382Y-12387679D02*
X13454382Y-12435298D01*
X13454382Y-12435298D02*
X13463906Y-12454346D01*
X13463906Y-12454346D02*
X13473429Y-12463869D01*
X13473429Y-12463869D02*
X13492477Y-12473393D01*
X13492477Y-12473393D02*
X13530572Y-12473393D01*
X13530572Y-12473393D02*
X13549620Y-12463869D01*
X13549620Y-12463869D02*
X13559144Y-12454346D01*
X13559144Y-12454346D02*
X13568667Y-12435298D01*
X13740096Y-12416250D02*
X13740096Y-12549584D01*
X13692477Y-12340060D02*
X13644858Y-12482917D01*
X13644858Y-12482917D02*
X13768667Y-12482917D01*
X13835334Y-12349584D02*
X13835334Y-12387679D01*
X13911525Y-12349584D02*
X13911525Y-12387679D01*
X14206763Y-12625774D02*
X14197239Y-12616250D01*
X14197239Y-12616250D02*
X14178191Y-12587679D01*
X14178191Y-12587679D02*
X14168668Y-12568631D01*
X14168668Y-12568631D02*
X14159144Y-12540060D01*
X14159144Y-12540060D02*
X14149620Y-12492441D01*
X14149620Y-12492441D02*
X14149620Y-12454346D01*
X14149620Y-12454346D02*
X14159144Y-12406727D01*
X14159144Y-12406727D02*
X14168668Y-12378155D01*
X14168668Y-12378155D02*
X14178191Y-12359108D01*
X14178191Y-12359108D02*
X14197239Y-12330536D01*
X14197239Y-12330536D02*
X14206763Y-12321012D01*
X14368668Y-12416250D02*
X14368668Y-12549584D01*
X14321048Y-12340060D02*
X14273429Y-12482917D01*
X14273429Y-12482917D02*
X14397239Y-12482917D01*
X14625810Y-12549584D02*
X14625810Y-12349584D01*
X14711525Y-12549584D02*
X14711525Y-12444822D01*
X14711525Y-12444822D02*
X14702001Y-12425774D01*
X14702001Y-12425774D02*
X14682953Y-12416250D01*
X14682953Y-12416250D02*
X14654382Y-12416250D01*
X14654382Y-12416250D02*
X14635334Y-12425774D01*
X14635334Y-12425774D02*
X14625810Y-12435298D01*
X14835334Y-12549584D02*
X14816287Y-12540060D01*
X14816287Y-12540060D02*
X14806763Y-12530536D01*
X14806763Y-12530536D02*
X14797239Y-12511488D01*
X14797239Y-12511488D02*
X14797239Y-12454346D01*
X14797239Y-12454346D02*
X14806763Y-12435298D01*
X14806763Y-12435298D02*
X14816287Y-12425774D01*
X14816287Y-12425774D02*
X14835334Y-12416250D01*
X14835334Y-12416250D02*
X14863906Y-12416250D01*
X14863906Y-12416250D02*
X14882953Y-12425774D01*
X14882953Y-12425774D02*
X14892477Y-12435298D01*
X14892477Y-12435298D02*
X14902001Y-12454346D01*
X14902001Y-12454346D02*
X14902001Y-12511488D01*
X14902001Y-12511488D02*
X14892477Y-12530536D01*
X14892477Y-12530536D02*
X14882953Y-12540060D01*
X14882953Y-12540060D02*
X14863906Y-12549584D01*
X14863906Y-12549584D02*
X14835334Y-12549584D01*
X15016287Y-12549584D02*
X14997239Y-12540060D01*
X14997239Y-12540060D02*
X14987715Y-12521012D01*
X14987715Y-12521012D02*
X14987715Y-12349584D01*
X15168668Y-12540060D02*
X15149620Y-12549584D01*
X15149620Y-12549584D02*
X15111525Y-12549584D01*
X15111525Y-12549584D02*
X15092477Y-12540060D01*
X15092477Y-12540060D02*
X15082953Y-12521012D01*
X15082953Y-12521012D02*
X15082953Y-12444822D01*
X15082953Y-12444822D02*
X15092477Y-12425774D01*
X15092477Y-12425774D02*
X15111525Y-12416250D01*
X15111525Y-12416250D02*
X15149620Y-12416250D01*
X15149620Y-12416250D02*
X15168668Y-12425774D01*
X15168668Y-12425774D02*
X15178191Y-12444822D01*
X15178191Y-12444822D02*
X15178191Y-12463869D01*
X15178191Y-12463869D02*
X15082953Y-12482917D01*
X15254382Y-12540060D02*
X15273430Y-12549584D01*
X15273430Y-12549584D02*
X15311525Y-12549584D01*
X15311525Y-12549584D02*
X15330572Y-12540060D01*
X15330572Y-12540060D02*
X15340096Y-12521012D01*
X15340096Y-12521012D02*
X15340096Y-12511488D01*
X15340096Y-12511488D02*
X15330572Y-12492441D01*
X15330572Y-12492441D02*
X15311525Y-12482917D01*
X15311525Y-12482917D02*
X15282953Y-12482917D01*
X15282953Y-12482917D02*
X15263906Y-12473393D01*
X15263906Y-12473393D02*
X15254382Y-12454346D01*
X15254382Y-12454346D02*
X15254382Y-12444822D01*
X15254382Y-12444822D02*
X15263906Y-12425774D01*
X15263906Y-12425774D02*
X15282953Y-12416250D01*
X15282953Y-12416250D02*
X15311525Y-12416250D01*
X15311525Y-12416250D02*
X15330572Y-12425774D01*
X15406763Y-12625774D02*
X15416287Y-12616250D01*
X15416287Y-12616250D02*
X15435334Y-12587679D01*
X15435334Y-12587679D02*
X15444858Y-12568631D01*
X15444858Y-12568631D02*
X15454382Y-12540060D01*
X15454382Y-12540060D02*
X15463906Y-12492441D01*
X15463906Y-12492441D02*
X15463906Y-12454346D01*
X15463906Y-12454346D02*
X15454382Y-12406727D01*
X15454382Y-12406727D02*
X15444858Y-12378155D01*
X15444858Y-12378155D02*
X15435334Y-12359108D01*
X15435334Y-12359108D02*
X15416287Y-12330536D01*
X15416287Y-12330536D02*
X15406763Y-12321012D01*
M02*
